<?xml version="1.0" standalone="no"?>
<!DOCTYPE svg PUBLIC "-//W3C//DTD SVG 1.1//EN" "http://www.w3.org/Graphics/SVG/1.1/DTD/svg11.dtd" >
<svg xmlns="http://www.w3.org/2000/svg" xmlns:xlink="http://www.w3.org/1999/xlink" version="1.1">
<metadata></metadata>
<defs>
<font id="polar_vertexregular" horiz-adv-x="1137" >
<font-face units-per-em="2048" ascent="1552" descent="-496" />
<missing-glyph horiz-adv-x="620" />
<glyph horiz-adv-x="0" />
<glyph horiz-adv-x="682" />
<glyph unicode=" "  horiz-adv-x="620" />
<glyph unicode="&#x09;" horiz-adv-x="620" />
<glyph unicode="&#xa0;" horiz-adv-x="620" />
<glyph unicode="!" horiz-adv-x="372" d="M58 122q0 -50 35.5 -86t84.5 -36q51 0 86.5 35t35.5 85q0 51 -35 86.5t-85 35.5q-51 1 -86.5 -34.5t-35.5 -85.5zM73.5 414.5q0.5 -12.5 9.5 -19.5q16 -20 47 -45q33 -33 52 -50v2l93 99q7 7 7 19t-7 19t-18.5 7t-20.5 -7q-17 -17 -25 -27q-21 -21 -31 -33l-4 4 q-42 38 -54 51q-9 8 -21 8.5t-20 -8.5q-8 -7 -7.5 -19.5zM81 550q-17 -17 2 -39q3 -3 78 -72q2 -2 6 -6.5t7.5 -8t7.5 -6.5l58 62q25 25 37 39q7 8 6.5 19.5t-8.5 17.5q-7 8 -18.5 8t-20.5 -8q-1 -2 -11 -12l-45 -48l-6 5q-26 25 -54 51q-22 18 -39 -2zM114 122 q0 27 19.5 46.5t46.5 19.5q26 0 46 -20t20 -46q0 -27 -19.5 -46.5t-46.5 -19.5q-28 0 -47 19t-19 47zM151 571q0 -9 8.5 -17t18.5 -8q13 0 21 8t8 21l4 900v2q-4 21 -21 27q-14 3 -24.5 -5t-10.5 -24q-2 -161 -2 -414q0 -81 -1 -242t-1 -242v-6z" />
<glyph unicode="#" horiz-adv-x="1241" d="M0 515q1 -9 9.5 -16t17.5 -7h201h8q-2 -2 -2 -6l-93 -281q-10 -28 -27.5 -84t-26.5 -84q-4 -12 0.5 -22t15.5 -13q11 -5 22 1t14 18q6 17 17.5 52t17.5 53l118 360q0 6 8 6h428h6l-12 -41q-6 -19 -50 -152.5t-66 -203.5q-13 -35 -21 -62q-7 -17 13 -29q17 -10 33 2 q6 6 10 21l149 459q2 6 11 6h211q4 0 8 2q10 1 16.5 9.5t4.5 19.5q-4 25 -27 25h-197h-6q0 1 1 3t1 3l68 209q47 140 73 226q4 4 8 4h207q12 0 20.5 8t8.5 19q0 13 -8 21t-21 8h-186h-9q0 1 1 3t1 3q16 46 46 139t45 140q44 135 52 160q8 27 -18 33q-10 4 -20.5 -1 t-13.5 -16l-12 -37q-23 -69 -68.5 -208.5t-68.5 -209.5q-2 -6 -8 -6h-430h-6l2 2q18 58 52.5 164t42.5 132q39 114 48 147q4 10 -1 20t-16 15q-28 7 -35 -21l-149 -455q-2 -4 -8 -4h-226q-2 0 -5.5 -1t-4.5 -1q-23 -12 -17 -31q3 -23 27 -23h207h8l-147 -445h-6h-217 q-2 0 -6 -1t-6 -1q-20 -10 -17 -31zM310 548q3 9 7 17q20 59 58 176.5t57 176.5q3 10 6.5 22t8.5 26t8 23q0 4 6 4h433h4q-24 -74 -72.5 -222.5t-72.5 -222.5h-443z" />
<glyph unicode="$" horiz-adv-x="827" d="M0 567l6 -37q23 -105 97.5 -182t177.5 -102q7 -4 7 -8v-207v-8q1 -10 10.5 -17.5t20.5 -5.5q22 6 22 29v199v6h67v-6v-201q0 -19 18 -25q16 -7 29 6q8 8 8 23v207v6q2 0 2 2q125 32 203 131q97 125 79 287q-12 73 -50 139q-3 6 -8 6l-221 60q-7 0 -7 8v296q0 1 1 3t1 3 q1 0 2.5 -1t2.5 -1q59 -27 93 -72q38 -47 47 -110q3 -14 16 -19.5t26 2.5q15 9 12 34q-35 166 -194 225q-7 0 -7 6v95q0 79 2 116q0 19 -16 29q-15 6 -27 -2t-12 -25v-198v-6h-67v6v151v49q0 24 -22 27q-14 1 -22.5 -7t-8.5 -22v-211q0 -8 -7 -8q-74 -27 -120 -76 q-86 -92 -80 -224q3 -23 27 -29h2q60 -18 171 -45q7 -3 7 -9v-546v-6h-5q-115 34 -180 134q-40 60 -49 135q-3 28 -31 25q-9 -2 -16.5 -11t-6.5 -18zM137 962q0 90 66 161q35 38 82 56v-263l-64 19q-13 3 -40 10.5t-40 10.5q-4 2 -4 6zM341 304v532v10l23 -6q23 -8 39 -10 q5 -5 5 -7v-8v-517v-8h-52h-2q-7 1 -9 2t-3 3.5t-1 8.5zM341 908v261v20q0 7 4 7h56q7 0 7 -7v-299v-5l-42 11q-12 4 -18 4q-7 2 -7 8zM463 302v511q14 -5 58 -17q22 -5 66 -16.5t65 -16.5q5 -3 8 -8q38 -76 35 -159q-6 -121 -91 -209q-54 -57 -136 -83q0 -2 -5 -2z" />
<glyph unicode="%" horiz-adv-x="1075" d="M0 1245q-1 -104 71.5 -177t174.5 -75q104 0 177 72.5t73 175.5q1 103 -70 176t-174 75q-104 1 -178 -71.5t-74 -175.5zM2 16.5q6 -13.5 21 -16.5q17 -3 31 17l221 339q44 68 133 203.5t134 203.5q118 183 240 369q57 89 207 316l6 15q-3 19 -21 26q-20 7 -33 -12 q-11 -16 -159 -244q-30 -46 -124 -189.5t-145 -222.5q-32 -49 -112.5 -173t-125.5 -191l-232 -354q-6 -10 -19.5 -29.5t-19.5 -30.5q-8 -13 -2 -26.5zM56 1239q-1 81 53.5 138t134.5 59q81 1 138.5 -54.5t60.5 -134.5q1 -82 -55 -139t-136 -59q-81 -1 -138.5 54.5 t-57.5 135.5zM496 248q0 -102 72 -174t173 -74q105 -1 177.5 70.5t74.5 173.5q1 105 -71 178.5t-175 73.5q-104 1 -177.5 -72t-73.5 -176zM550 244q-1 81 55 139t136 60q80 0 137.5 -55t58.5 -134q3 -81 -51.5 -138.5t-134.5 -59.5q-82 -3 -140.5 52t-60.5 136z" />
<glyph unicode="&#x26;" horiz-adv-x="1096" d="M0 468q0 -57 14 -106q38 -156 164 -256q109 -89 256 -104q70 -6 145 10q142 31 244 139q11 11 13 14l23 -22q10 -10 58.5 -60t75.5 -75q9 -9 21 -8t20 12q12 20 -4 36q-54 52 -157 155q-5 5 -2 8q55 78 74 182q3 11 0 21q-1 9 -9.5 14.5t-17.5 3.5q-9 0 -15.5 -7 t-8.5 -17q-6 -46 -29 -98q-7 -20 -35 -66l-5 6q-343 343 -688 691q-9 8 -10.5 11t1.5 14q21 117 116 188q112 84 248 56q107 -21 172 -103q96 -115 64 -261q-9 -48 -35 -93q-4 -4 -4 -17q0 -20 21 -24q18 -4 29 14q69 118 43 252q-21 117 -112 199q-93 84 -215 93 q-69 3 -138 -18q-101 -32 -170.5 -119t-76.5 -192q-6 -89 27 -167q0 -7 -2 -11q-98 -133 -95 -295zM52 474q0 134 74 242q2 -3 5.5 -8t6 -8.5t5.5 -6.5q82 -106 215 -134q44 -9 87 -9q6 0 8 -2l341 -341q1 -1 2.5 -2t2.5 -2q-107 -125 -272.5 -145.5t-309.5 85.5 q-81 63 -122 149.5t-43 181.5zM126 873l267 -267q-110 12 -185.5 92t-81.5 175zM494 604q21 -5 65 -15.5t66 -15.5q9 -3 18.5 3t12.5 16q3 9 -2.5 18.5t-14.5 12.5q-4 2 -10 2l-70 18v7q3 12 9 37t9 37v15q-6 16 -25 16q-20 0 -24 -19l-25 -91q-1 -8 -4.5 -21t-4.5 -18v-2z M594 662l2 -2q74 -17 128 -33q26 -3 33 20q2 11 -4.5 21t-16.5 11l-47 12q-5 1 -15.5 4t-15.5 4l2 4l19 75q3 10 -3.5 20t-17.5 13q-9 2 -18.5 -4t-12.5 -15q-16 -70 -33 -130z" />
<glyph unicode="(" horiz-adv-x="641" d="M56 277q0 -73 14 -114q69 -246 302 -343q71 -33 174 -33q20 0 27 10q6 12 0 27q-7 17 -27 17q-24 0 -78 8q-149 30 -247 137q-109 119 -109 291q-2 1 -1 387t1 387q0 27 8 85q32 160 159 262q120 94 269 94q11 0 20 7.5t9 16.5q0 29 -31 29t-105 -12q-158 -37 -255 -149 q-130 -136 -130 -329v-391v-387z" />
<glyph unicode=")" horiz-adv-x="641" d="M56 1516q0 -9 9 -16.5t20 -7.5q149 0 269 -94q127 -102 159 -262q8 -58 8 -85v-774q0 -172 -109 -291q-98 -107 -247 -137q-54 -8 -78 -8q-20 0 -27 -17q-6 -15 0 -27q8 -10 27 -10q103 0 174 33q233 97 302 343q14 41 14 114v387q0 43 0.5 123t0.5 145t-1 123 q0 193 -130 329q-97 112 -255 149q-74 12 -105 12t-31 -29z" />
<glyph unicode="*" horiz-adv-x="620" d="M74 1148.5q-1 -10.5 5 -18.5q5 -16 33 -11q30 17 84.5 46.5t74.5 40.5q6 0 8 2v-8v-176v-8q2 -10 11.5 -17t21.5 -4q19 11 19 29v178v6l2 -2q26 -15 79.5 -42.5t79.5 -42.5q11 -5 25 -2q7 1 13 8t6 15q3 15 -17 27q-20 11 -128 64q-14 10 -31 19q2 1 5.5 2t4.5 2 q24 14 149 76q7 7 11 9q15 19 -2 33q-11 15 -36 4q-22 -11 -66 -34.5t-66 -34.5q-23 -12 -29 -16v8v48v128q0 17 -14 27q-16 7 -25 0q-13 -10 -13 -27v-176v-8q-4 0 -4 2q-31 15 -85 43.5t-76 39.5q-10 6 -23 2q-17 -6 -17 -19q-3 -17 15 -31l128 -62q2 -1 12.5 -7.5 t16.5 -8.5l-4 -3q-24 -14 -72.5 -38t-72.5 -38l-16 -8q-6 -6 -7 -16.5z" />
<glyph unicode="+" horiz-adv-x="1117" d="M62 753q2 -11 10.5 -19t20.5 -8h432h7v-8v-430v-5q3 -18 18 -24q14 -6 26 2t12 24v433v8h8h289h143q10 0 19 6q14 12 8 31q-8 19 -27 19h-432h-8v6v269v166q0 15 -11 20q-13 13 -29 4q-16 -6 -16 -24v-435v-6h-7h-262h-172q-13 0 -21 -8t-8 -21z" />
<glyph unicode="," horiz-adv-x="475" d="M122 108q4 -39 30.5 -67.5t64.5 -36.5q5 -1 16.5 -2t16.5 -2q0 -1 -2 -3.5t-2 -4.5q-4 -9 -12.5 -25t-14 -29t-8.5 -25q-8 -8 -5.5 -18t11.5 -17q23 -14 42 10q15 41 53 112q10 16 27 52q26 43 23 91q-6 51 -50.5 80.5t-96.5 20.5q-45 -9 -72 -49t-21 -87zM176 124 q0 26 20 46t46 20q28 0 48 -20t20 -46q0 -27 -20.5 -47.5t-47.5 -20.5q-26 0 -46 21t-20 47z" />
<glyph unicode="-" d="M62 753q2 -11 10.5 -19t20.5 -8h432h63h8h289h143q10 0 19 6q14 12 8 31q-8 19 -27 19h-503h-262h-172q-13 0 -21 -8t-8 -21z" />
<glyph unicode="." horiz-adv-x="455" d="M114 122q0 -50 35 -86t85 -36q49 0 84.5 36t37.5 86q0 49 -36 84.5t-86 35.5q-51 0 -85.5 -35t-34.5 -85zM168 122q0 27 20.5 46.5t45.5 19.5q28 0 48 -19t20 -47q0 -27 -19.5 -46.5t-46.5 -19.5q-26 0 -46.5 19t-21.5 47z" />
<glyph unicode="/" horiz-adv-x="1034" d="M-66.5 -186.5q6.5 -16.5 25.5 -20.5q16 -3 37 21q257 393 261 399q199 303 314 482q51 79 147 226t136 209l244 374q2 2 9 16q-1 10 -9.5 19.5t-17.5 12.5q-20 9 -37 -15q-37 -55 -103 -156.5t-86 -131.5q-159 -241 -318 -486q-180 -278 -279 -430l-276 -418 q-7 -11 -22.5 -33.5t-22.5 -34.5q-9 -17 -2.5 -33.5z" />
<glyph unicode="0" horiz-adv-x="1075" d="M0 503q0 -55 12 -108q38 -169 168 -277q120 -101 277 -116q82 -6 153 8q190 43 306 203q94 132 94 292v473q0 14 -5 71q-8 76 -49 161q-46 94 -133 166q-129 107 -300 113q-58 3 -120 -10q-145 -28 -252 -132q-62 -62 -103 -147q-45 -100 -48 -201v-244v-252zM56 501v488 q0 157 103 283q91 112 240 151q81 16 147 11q136 -15 242 -100q30 -25 66 -68q3 -3 0 -8l-151 -230q-7 -10 -54.5 -81t-71.5 -109q-9 -13 -4 -27t21 -17q19 -4 29 13l87 130q29 44 87.5 133t87.5 134q4 4 7 10q7 -17 12 -25q38 -76 46 -142q4 -50 4 -71v-471 q0 -148 -91 -271q-101 -134 -263 -168q-209 -43 -379 89q-11 11 -14 13l-4 4q26 35 39 58q150 224 199 300q6 9 3.5 21t-12.5 18q-22 14 -39 -10q-83 -125 -199 -302q-22 -31 -31 -46q-8 10 -29 39q-57 84 -72 180q-6 35 -6 71zM416 724q3 -17 10.5 -48t9.5 -43 q2 -7 5.5 -21.5t5.5 -21.5q1 1 2 1t2 1q113 26 130 31q11 2 17.5 11.5t3.5 19.5q-3 12 -12.5 17.5t-20.5 2.5q-19 -2 -46 -10q-22 -4 -35 -8q0 4 -2 4q-3 21 -16 79q-3 11 -13 16t-23 2q-10 -1 -15.5 -11.5t-2.5 -21.5zM480 823l31 -130q2 -4 6 -4q52 14 112 27q3 1 9 2t9 2 q11 3 17.5 13t3.5 20q-7 28 -35 21q-7 -2 -21.5 -5.5t-21.5 -5.5q-7 -1 -19.5 -4t-16.5 -4q-4 13 -10 40t-10 41q-3 27 -33 20q-10 -3 -16.5 -12.5t-4.5 -20.5z" />
<glyph unicode="1" horiz-adv-x="517" d="M0 993q4 -22 23 -25q16 -3 29 13q44 68 127 195.5t96 147.5q7 12 29 43v-6v-1080v-8q3 -17 19 -23t29 7q8 8 8 24v875v391v7q-4 -4 -4 -5q-32 -47 -60 -93q-22 -34 -96 -146t-113 -174q-64 -96 -83 -124q-4 -12 -4 -19zM226.5 121q-2.5 -15 9.5 -28q33 -33 52 -50l45 -43 q8 7 20.5 21t16.5 18q39 39 58 60q8 9 8 21t-8 19q-22 18 -39 -2l-19 -19q-4 -4 -11.5 -12t-14.5 -15t-13 -12l-4 4q-28 25 -54 51q-13 10 -29 7q-15 -5 -17.5 -20zM226.5 230.5q0.5 -12.5 9.5 -19.5q19 -17 54 -52q17 -17 45 -41q15 16 47 49t48 50q9 9 7 22.5t-13 19.5 q-18 12 -37 -7q-9 -10 -26.5 -29.5t-27.5 -28.5q-21 19 -58 56q-22 19 -41 0q-8 -7 -7.5 -19.5z" />
<glyph unicode="2" horiz-adv-x="1179" d="M2 1030q-6 -17 6 -29q6 -5 18 -16t17 -15l65 -62q6 5 16.5 15.5t16.5 15.5q7 8 19.5 22t23 25.5t19.5 20.5q17 17 4 34q-10 20 -29 12q-10 0 -21 -15q-32 -32 -51 -49q-5 4 -26 22.5t-32 29.5q-8 10 -23 10q-20 -4 -23 -21zM14 921q-16 -19 5 -40q22 -22 68 -64 q3 -3 13.5 -12.5t17.5 -14.5l6 6q45 49 85 94q10 7 10 22q-4 21 -18 23q-16 5 -31 -6q-2 -3 -54 -60q-1 0 -2.5 1t-3.5 1q-32 36 -54 52q-10 9 -23 8.5t-19 -10.5zM35 2h6h931h6q15 2 27 23q0 19 -14 29q-6 4 -19 4h-796h-11l3 4q6 5 45 44l122 124q20 20 59.5 61t58.5 61 q48 50 145 147q5 8 18 8l73 12q166 41 267 174q94 120 103 267q7 55 -8 147q-39 169 -184 285q-112 85 -248 97q-69 6 -127 -2q-94 -17 -155 -51q-115 -58 -184 -166q-62 -96 -76 -192q-3 -28 24 -31q25 -4 31 23q1 3 2.5 11t2.5 11q36 153 148 244q106 88 245 100 q86 3 151 -13q146 -42 229 -153q97 -120 97 -273q0 -3 -6 -6q-35 -39 -114 -118l-117 -122q-21 -20 -62 -60.5t-61 -61.5q-51 -57 -122 -124q-39 -41 -120 -122q-39 -41 -120 -122q-39 -41 -120 -122l-115 -118q-7 -7 -15 -19zM672 575q54 54 161.5 163.5t161.5 163.5 q-7 -43 -36.5 -102t-77.5 -107q-90 -90 -209 -118zM1018 31q0 -21 14 -34.5t35 -13.5q19 0 32.5 13.5t13.5 32.5q0 21 -13.5 35.5t-32.5 14.5q-21 0 -35 -13.5t-14 -34.5z" />
<glyph unicode="3" horiz-adv-x="1117" d="M-0.5 469.5q-0.5 -10.5 6.5 -18.5q20 -20 42 -2l20 21q5 5 40 35l2 -2q9 -10 27 -29.5t26 -28.5q12 -12 23 -9q20 3 23 19q7 16 -6 29q-4 5 -13.5 14.5t-13.5 14.5q-12 12 -33.5 35.5t-32.5 34.5q-2 0 -2 -2l-100 -93q-8 -8 -8.5 -18.5zM7 589.5q-1 -10.5 5 -18.5 q6 -10 19.5 -11.5t22.5 7.5q61 55 62 56l4 -4q34 -38 52 -56q8 -9 19.5 -8.5t19.5 8.5q16 20 -2 41q-16 16 -50 54q-29 29 -41 43h-2q-41 -41 -102 -95q-6 -6 -7 -16.5zM77 414q1 -3 2 -10.5t2 -10.5q40 -191 204 -308q135 -91 296 -85q45 0 106 14q148 38 248 151 q109 126 124 288q6 70 -10 145q-44 193 -207 302q-84 59 -190 78l-44 7q169 258 331 504h-4h-678q-18 0 -25 -14q-9 -15 2 -29q7 -12 27 -12h566h9q-202 -308 -329 -499l2 -2h45q75 -4 125 -19q130 -34 217.5 -134t104.5 -234q9 -74 -6 -145q-32 -149 -147 -244 q-161 -129 -366 -95q-111 20 -203 97q-122 105 -147 263q-7 28 -33 25q-11 -2 -17 -11t-5 -22zM99 1458q0 -20 14 -33.5t34 -13.5q19 0 32 13t13 32q0 20 -13 34t-32 14q-20 0 -34 -13.5t-14 -32.5z" />
<glyph unicode="4" horiz-adv-x="930" d="M0 505h759v-9v-213q0 -17 11 -22q11 -11 29 -4q14 8 14 26v1266v9zM114 561q151 195 643 833v-833h-643zM679.5 232.5q0.5 -12.5 9.5 -19.5q53 -50 78 -76q8 -6 21 -19l39 39q10 11 28 30t28 30q9 13 9 19q0 20 -17 27q-18 7 -31 -6q-19 -21 -58 -60l-4 4q-10 8 -27 25 t-27 26q-20 20 -41 0q-8 -7 -7.5 -19.5zM681 122q-6 -16 8 -27q31 -31 93 -89l6 -6q2 0 2 2q31 31 93 97q8 9 7.5 21t-9.5 19q-8 9 -19.5 8t-19.5 -10l-56 -58l-60 55q-12 12 -25 9q-17 -3 -20 -21z" />
<glyph unicode="5" horiz-adv-x="1158" d="M6 443q21 -17 42 0l20 20q12 12 40 36q0 -3 2 -3l53 -57q12 -12 23 -9q20 0 23 19q7 16 -6 29q-4 5 -13.5 14.5t-13.5 14.5q-12 12 -33.5 35.5t-32.5 34.5q-2 0 -2 -2l-100 -93q-19 -19 -2 -39zM7 580.5q-1 -12.5 7 -19.5t20 -7t20 7q48 44 62 55l4 -4q34 -38 52 -56 q8 -9 20 -9t19 9q20 17 -2 42q-16 16 -50 54q-29 29 -41 43q-1 0 -2 -1t-2 -1q-31 -31 -97 -93q-9 -7 -10 -19.5zM85 418l10 -41q41 -160 166 -263q137 -111 310 -114q62 -3 118 12q188 43 300 199q94 131 91 300q0 45 -13 95q-31 144 -138 248q-82 82 -197 118 q-89 30 -192 27q-72 -3 -151 -25l-50 -18v478h6h563q11 0 15 2q21 10 14 31q-3 22 -29 22h-618h-7v-624l5 2q6 3 17 9.5t20.5 11t17.5 8.5q74 38 176 45q79 6 151 -8q151 -33 244 -145q110 -127 110 -287q0 -57 -10 -96q-31 -151 -151 -248q-106 -89 -249 -101 q-72 -3 -130 10q-140 32 -236 137q-86 95 -107 221q-4 16 -11 23q-17 10 -31 0q-17 -10 -14 -29zM985 1458q0 -20 13.5 -33.5t33.5 -13.5q19 0 32.5 13.5t13.5 33.5q1 20 -12.5 34t-33.5 14t-33.5 -14t-13.5 -34z" />
<glyph unicode="6" horiz-adv-x="1075" d="M0 507q-3 -54 10 -114q38 -168 166 -277q143 -119 337 -116q47 0 110 17q157 40 260 169q101 123 110 286q3 68 -12 132q-38 172 -176 281q-123 97 -275 106q-69 6 -145 -10q-7 -1 -56 -17v2q116 126 134 147q46 48 143 153q18 22 -2 39q-8 9 -19.5 8t-19.5 -10 q-66 -72 -188 -202q-110 -123 -197 -216q-58 -63 -70 -78q-104 -129 -110 -300zM56 503q1 120 62 221t164 158.5t223 54.5q182 -3 307 -132t125 -309q0 -184 -130 -313t-313 -129q-122 1 -223.5 62.5t-159 164.5t-55.5 222zM536 1372q3 -23 29 -23h76h6v-15v-74 q0 -10 9 -17.5t20 -5.5q10 0 17.5 7.5t7.5 17.5q2 6 2 19v115v9h-20h-83h-41q-11 -2 -18.5 -12.5t-4.5 -20.5zM623 1458q4 -26 29 -26q22 0 47 -3h35v-6v-78q0 -10 9 -18.5t20 -8.5t19 8t8 19v41v60v41h-6h-105h-32q-11 0 -17.5 -8t-6.5 -21z" />
<glyph unicode="7" horiz-adv-x="1199" d="M72 1463q0 -19 14 -32.5t34 -13.5q19 0 32 13.5t13 32.5q0 20 -13 33.5t-32 13.5q-20 0 -34 -13.5t-14 -33.5zM123.5 13.5q7.5 -13.5 23.5 -13.5q17 0 27 17l93 142q20 31 91.5 139t109.5 167l24 38q70 -34 137 -29.5t121.5 35.5t87.5 81q52 74 49 163q-3 121 -97 203 q116 180 352 536h-8h-892h-4q-13 0 -20.5 -8t-6.5 -21q0 -11 8 -18t21 -7h790h8q-163 -248 -293 -451q-93 48 -192 25t-158 -106q-61 -83 -52 -184q9 -112 102 -190q0 -1 -1 -2t-1 -2l-35 -54q-28 -42 -78 -118.5t-91 -139t-78 -117.5q-2 -3 -16 -24.5t-21 -33.5 q-8 -14 -0.5 -27.5zM402 703q-16 78 28 156q31 52 82 79t104 26t98 -25l-238 -360q-58 46 -74 124zM523 550l236 358q33 -27 53.5 -69.5t20.5 -96.5t-28 -103q-30 -53 -81 -82t-102 -28.5t-99 21.5z" />
<glyph unicode="8" horiz-adv-x="1055" d="M2 546q-6 -73 6 -145q34 -166 164 -281q126 -106 287 -118q76 -6 145 8q175 42 281 178q114 141 108 329q0 59 -23 130q-37 106 -120 189q-34 38 -78 66q-20 13 -40 -4q-6 -9 -16 -19q-116 -99 -267 -78q-109 15 -186 101q-106 117 -81 271q18 110 108 188 q121 101 269 73q115 -20 194 -118q47 -62 62 -137q3 -12 12.5 -18t20.5 -3q10 1 17 12t4 22q-18 103 -89 177q-142 151 -346 120q-119 -18 -204 -109q-97 -97 -106 -234q-6 -88 23 -161q17 -48 50 -93l-7 -5q-56 -46 -91 -91q-85 -108 -97 -250zM58 548q15 150 120 255 q10 10 29 26t25 21q112 -106 262 -109q153 0 265 103q24 -20 37 -33q78 -75 114 -164q26 -66 29 -132q3 -166 -93 -290q-94 -119 -244 -157q-59 -15 -141 -12q-134 12 -238 95q-122 96 -157 250q-17 71 -8 147zM697.5 1076q-6.5 -13 1.5 -27l44 -81q10 -22 22 -41q3 0 5 2 q31 15 74 39l43 23q21 12 15 35q-3 9 -12.5 14.5t-18.5 2.5q-2 0 -12 -5l-71 -37l-4 4l-37 71q-3 7 -11 11.5t-16 2.5q-16 -1 -22.5 -14zM736 1165q17 -29 23 -44l44 -80l47 24q14 7 77 42q17 9 14 27q0 18 -18 22q-15 4 -23 -2q-14 -7 -40 -21t-33 -18q-4 4 -4 6l-37 68 q-1 1 -3 4.5t-3 4.5q-16 13 -35 2q-19 -15 -9 -35z" />
<glyph unicode="9" horiz-adv-x="1075" d="M0 1024q-3 -72 12 -141q41 -178 185 -287q125 -93 277 -102q69 -3 151 17l43 12l-4 -4q-60 -64 -180 -196q-16 -18 -47.5 -52t-47.5 -52q-8 -8 -8 -22q3 -17 20 -23q19 -3 29 10l164 176q37 41 112.5 122.5t112.5 123.5q62 68 66 73q98 121 110 273q6 81 -12 159 q-44 169 -178 275q-113 88 -263 103q-78 6 -147 -8q-163 -38 -271 -159q-112 -129 -124 -298zM56 993q0 122 60.5 224.5t163.5 161t223 57.5q122 -1 223.5 -62.5t158.5 -164t56 -222.5q-2 -183 -133.5 -311.5t-317.5 -125.5q-183 3 -308.5 133t-125.5 310zM203 0h35h105 q12 0 20.5 8t8.5 19q-1 13 -9.5 21t-19.5 8h-78h-6v6v81q0 13 -11.5 20.5t-24.5 4.5q-20 -7 -20 -31v-129v-8zM292 83h10q22 0 65 -1t65 -1q11 0 19 8.5t8 20.5q0 10 -8.5 18.5t-18.5 8.5h-41h-43v6v78q0 2 -1.5 6.5t-1.5 6.5q-3 8 -12.5 12.5t-18.5 3.5t-15.5 -9.5 t-6.5 -17.5v-136v-4z" />
<glyph unicode=":" horiz-adv-x="475" d="M114 122q0 -50 35 -86t85 -36q49 0 84.5 36t37.5 86q0 49 -36 84.5t-86 35.5q-51 0 -85.5 -35t-34.5 -85zM114 873q0 -50 35 -86t85 -36q49 0 84.5 36t37.5 86q0 49 -36 84.5t-86 35.5q-51 0 -85.5 -35t-34.5 -85zM168 122q0 27 20.5 46.5t45.5 19.5q28 0 48 -19t20 -47 q0 -27 -19.5 -46.5t-46.5 -19.5q-26 0 -46.5 19t-21.5 47zM168 873q0 27 20.5 46.5t45.5 19.5q28 0 48 -19t20 -47q0 -27 -19.5 -46.5t-46.5 -19.5q-26 0 -46.5 19t-21.5 47z" />
<glyph unicode=";" horiz-adv-x="475" d="M122 108q4 -39 30.5 -67.5t64.5 -36.5q5 -1 16.5 -2t16.5 -2q0 -1 -2 -3.5t-2 -4.5q-4 -9 -12.5 -25t-14 -29t-8.5 -25q-8 -8 -5.5 -18t11.5 -17q23 -14 42 10q15 41 53 112q10 16 27 52q26 43 23 91q-6 51 -50.5 80.5t-96.5 20.5q-45 -9 -72 -49t-21 -87zM122 873 q0 -50 35 -86t85 -36q49 0 84.5 36t37.5 86q0 49 -36 84.5t-86 35.5q-51 0 -85.5 -35t-34.5 -85zM176 124q0 26 20 46t46 20q28 0 48 -20t20 -46q0 -27 -20.5 -47.5t-47.5 -20.5q-26 0 -46 21t-20 47zM176 873q0 27 20.5 46.5t45.5 19.5q28 0 48 -19t20 -47 q0 -27 -19.5 -46.5t-46.5 -19.5q-26 0 -46.5 19t-21.5 47z" />
<glyph unicode="=" horiz-adv-x="1075" d="M62 499q0 -29 29 -29h892h4q18 4 23 16q6 14 -1.5 24.5t-23.5 10.5h-449h-373h-76q-10 0 -17.5 -6.5t-7.5 -15.5zM62 966q0 -29 29 -29h892h4q18 4 23 19q6 13 -1.5 24t-23.5 11h-449h-364h-85q-10 0 -17.5 -8t-7.5 -17z" />
<glyph unicode="?" d="M2 1018q3 -11 12 -17q46 -43 94 -91q12 12 45 47.5t52 52.5q6 9 5.5 21t-9.5 18q-8 9 -20 8t-18 -10q-21 -15 -43 -46q-12 -8 -14 -10q-1 0 -5 4q-11 8 -31 27.5t-24 22.5q-6 7 -16 8t-16 -4q-20 -10 -12 -31zM8 907q0 -13 9 -20q6 -7 19 -17.5t18 -15.5q33 -36 64 -60 q2 0 2 2q15 16 46 48.5t45 49.5q11 15 4 33q-11 15 -27 12q-15 0 -23 -12q-8 -8 -51 -56l-4 4l-54 54q-21 14 -39 0q-9 -9 -9 -22zM79 1082q-4 -14 1.5 -23.5t18.5 -11.5q11 -2 20.5 5.5t10.5 17.5q4 20 4 28q35 142 147 236q107 91 244 100q65 8 151 -13q129 -34 218 -138 q97 -109 103 -255q6 -60 -10 -122q-40 -170 -184 -267q-102 -69 -247 -72q-8 -2 -28 -2v-6v-245v-4q3 -13 11 -19t17 -3q25 4 25 26v191v6h15q55 8 87 17q161 40 262 169q102 124 108 294q0 69 -10 118q-42 170 -170 273q-124 98 -273 107q-77 6 -149 -12 q-159 -35 -259 -155q-95 -104 -113 -240zM441 122q0 -50 35 -86t85 -36q49 0 84.5 36t37.5 86q0 49 -36 84.5t-86 35.5q-51 0 -85.5 -35t-34.5 -85zM492 122q0 27 20.5 46.5t46.5 19.5q28 0 48 -19t20 -47q0 -27 -19.5 -46.5t-46.5 -19.5t-47.5 19.5t-21.5 46.5z" />
<glyph unicode="@" horiz-adv-x="1282" d="M50 -6q-4 -30 24 -40q13 0 19 -4l93 -6q7 0 23 -1t25 -1q4 12 4 35q6 39 10 122q1 12 -8.5 21.5t-22.5 11.5q-9 2 -19.5 -7t-11.5 -19q0 -24 -4 -34q0 -20 -4 -62h-2q-18 1 -47.5 3.5t-41.5 3.5q-13 2 -24.5 -5.5t-12.5 -17.5zM65 664.5q0 -90.5 0.5 -200.5t0.5 -170 q0 -64 13 -139q13 -54 29 -87q7 -20 29 -20q21 0 28 20q8 13 -2 29q-37 89 -37 188v555q0 43 15 116q43 167 173 279q122 97 284 112q74 5 157 -13q170 -38 281 -178q114 -138 114 -326v-528q0 -75 -8 -108q-13 -69 -41 -130l-7 -2q-25 -4 -72 -4v10v542q0 41 -10 89 q-40 136 -137 211q-146 116 -321 75q-138 -29 -221 -133q-85 -106 -85 -242v-231q0 -39 9 -73q31 -158 165 -248q83 -56 190 -62h54h461q9 0 11 4q76 133 76 294v544q0 51 -10 109q-46 198 -188 323q-141 125 -333 141q-77 6 -160 -10q-191 -40 -322 -189 q-135 -160 -135 -376q-1 -81 -1 -171.5zM134 -118q-2 -10 4.5 -20t18.5 -11q6 -4 17 -4l74 -6q23 -2 71 -2q2 26 6 77.5t6 77.5q2 13 -6.5 22.5t-22.5 10.5q-13 1 -22 -6.5t-11 -20.5q-1 -10 -2 -30.5t-2 -31.5q0 -5 -1 -16.5t-1 -16.5q-14 2 -46 2q-38 4 -54 4 q-13 0 -21 -8t-8 -21zM310 383v217q0 122 73 213q75 94 186 114q149 29 269 -66q99 -80 116 -197q6 -28 6 -60v-110v-107q0 -117 -77 -209q-72 -93 -194 -114q-17 -2 -50 -2q-104 -8 -198 60q-106 82 -127 207q-4 38 -4 54zM848 62q69 43 112 110v-110h-112z" />
<glyph unicode="A" horiz-adv-x="1572" d="M0 130q0 -2 4 -10l44 -112q0 -4 4 -8q2 0 4 2q20 7 59.5 23t58.5 23q1 0 3 1t3 1q21 14 12 33q-6 22 -29 18q-6 0 -14 -4q-31 -12 -66 -27l-27 69q-1 2 -2 5.5t-2 4.5q-11 22 -35 12q-20 -7 -17 -31zM50 244q0 -7 4 -19l43 -113q1 -1 2 -4t2 -5l11 5q16 6 45.5 17.5 t39.5 15.5l31 12q18 9 18 27q-2 14 -13.5 21.5t-25.5 3.5l-62 -25q-2 -1 -6.5 -2t-6.5 -2q-2 4 -5 12.5t-5 12.5q-9 25 -21 51q-7 17 -27 17q-20 -3 -24 -25zM148.5 252q5.5 -11 19.5 -14q21 -7 31 14q4 10 13 28.5t13 27.5l340 683q120 244 182 366l6 15q2 -3 8 -15 q115 -233 139 -279q17 -36 209 -422l308 -625q1 -2 3 -5t3 -5q15 -15 31 -9q7 1 13 8t6 15q0 12 -6 21l-337 683q-371 747 -371 748q-1 1 -2.5 4t-3.5 5q-5 -10 -6 -11l-319 -645q-128 -258 -254 -511l-25 -52q-6 -14 -0.5 -25zM509 689q0 -101 72 -172.5t174 -71.5 q103 0 174.5 72t71.5 176q0 101 -73 173q-72 71 -170 71h-3q-103 0 -174.5 -72t-71.5 -176zM563 691q0 79 56 134.5t136 57.5q79 0 134.5 -56t55.5 -139q0 -74 -55 -130q-56 -56 -133 -57q-81 0 -137.5 55.5t-56.5 134.5z" />
<glyph unicode="B" horiz-adv-x="1075" d="M0 0h17h473q75 0 137 19q177 48 279 198q85 125 85 274q0 29 -4 59q-9 105 -71 207q-4 4 -6 8q-11 14 -27 11t-20 -21q-5 -12 6 -27q67 -110 67 -228q0 -47 -11 -95q-24 -116 -101 -203q-78 -86 -188 -124q-67 -23 -136 -23q-44 0 -90 9q-155 31 -254.5 151t-99.5 277 q-1 0 -1 92v116l1 208v10l8 -12q65 -94 170 -135q65 -25 133 -25q41 0 84 9q143 31 227 155q62 92 61 199q0 37 -7 76q-26 147 -148 233q-96 68 -210 68q-30 0 -62 -5q-142 -21 -231 -134q-70 -85 -79 -191q-2 -25 -2 -76v-633v-430v-17zM56 56v209q6 -11 17.5 -30t13.5 -22 q7 -10 37 -45q22 -26 41 -42q21 -21 48 -37q8 -7 26 -18t24 -15h-207zM56 1119q0 128 90.5 220t223.5 93q131 -2 223 -94.5t92 -222.5q-2 -131 -94.5 -222.5t-224.5 -91.5q-130 1 -221 94q-89 91 -89 218v6zM705 809q0 -15 9 -21q14 -14 29 -8q18 6 18 25q2 23 2 70q0 2 1 6 t1 6h11q23 -2 68 -2q14 -1 22.5 6.5t8.5 18.5q1 13 -6.5 21t-20.5 8q-17 2 -47 2q-15 1 -44.5 2t-44.5 2q0 -6 -1 -18.5t-1 -18.5q-1 -17 -2.5 -50t-2.5 -49zM782 720q0 -12 8 -20.5t19 -10.5q13 0 21 9t8 20q0 5 1 15.5t1 15.5q0 8 1 24t1 26q16 0 31 -3h52q14 0 22 9t5 22 q-3 22 -27 25q-42 0 -124 4h-13v-14q-2 -21 -2 -62q-1 -10 -2 -30t-2 -30z" />
<glyph unicode="C" d="M43 488q0 -46 9 -87q34 -172 167 -287q137 -114 317 -114h18q77 0 145 25q136 47 224 157q66 84 93 174q3 11 -3 21.5t-16 13.5q-25 9 -35 -21q-35 -109 -99 -176q-130 -136 -315 -142q-70 0 -145 22q-179 60 -264 234q-36 77 -42 170v265v250q0 30 13 97q34 150 155 248 q121 96 268 96h17q30 0 93 -13q156 -37 253 -169q8 -11 19 -13.5t20 4.5q10 6 12 18.5t-6 21.5q-70 96 -178 153q-106 51 -222 51h-13q-60 0 -112 -14q-169 -43 -277 -186q-96 -127 -96 -290v-509zM850 1189q0 -19 19 -28q54 -24 85 -36q22 -13 39 -18q2 0 2 2q25 53 54 124 q4 10 -0.5 20t-14.5 15t-21 0.5t-14 -14.5q-4 -4 -8 -19q-6 -11 -15 -31t-12 -27l-6 6q-8 3 -30.5 13t-35.5 14q-8 4 -17 4q-22 -4 -25 -25zM890 1076q3 -20 18 -27q12 -4 40.5 -17t44.5 -18q7 -5 22 -11.5t17 -7.5l2 2q11 23 28.5 66t25.5 60q6 22 -14 35q-10 5 -21.5 0.5 t-14.5 -14.5q-9 -14 -12 -25q-3 -10 -11.5 -27.5t-11.5 -24.5q-3 3 -6 3q-17 10 -66 31q-16 6 -25 0q-16 -5 -16 -25zM958 463q0 -20 13 -33.5t32 -13.5t34.5 13.5t15.5 33.5q0 19 -14 33.5t-34 14.5t-33.5 -14t-13.5 -34z" />
<glyph unicode="D" horiz-adv-x="1344" d="M27 939v-9q0 -88 58 -158q71 -86 176 -98v-6v-232q0 -11 8 -18.5t21 -7.5q11 0 19 8.5t8 20.5v229v6q96 10 161 79.5t70 162.5q1 10 1 20q0 85 -48 152q-69 93 -184 108v6v186q0 5 6 8q81 24 147 29q34 3 68 3l68 -3q72 -6 143 -31q201 -66 325 -227q147 -190 147 -424 q0 -36 -3 -73q-4 -53 -31 -145q-58 -179 -204 -304q-101 -89 -230 -130q-91 -32 -184 -35q-17 -1 -34 -1q-50 0 -101 7q-68 10 -117 29q-12 3 -21 0q-19 -8 -19 -27q4 -21 23 -27q100 -34 213 -37q15 -1 30 -1q45 0 90 7q71 8 147 35q163 57 290 187q79 82 128 180 q64 126 76 273q2 28 2 58q0 49 -6 103q-7 52 -33 143q-70 198 -227 327q-110 92 -251 136q-81 28 -186 35q-18 1 -35 1q-64 0 -122 -9q-76 -12 -149 -41q-6 0 -6 -7v-225v-6q-98 -10 -165 -84.5t-69 -172.5zM81 934q0 80 52 138q53 59 128 68v-410q-71 8 -125 64 q-54 58 -55 140zM174 269q-9 -16 6 -31l99 -99q1 -1 3 -3.5t3 -3.5l3 2q16 16 50.5 51t52.5 53q9 9 9 20.5t-9 18.5q-7 7 -18.5 7t-20.5 -7l-31 -31q-5 -6 -36 -37q-4 4 -4 6l-62 60q-10 10 -18 10q-21 0 -27 -16zM178 401q-11 -18 6 -31q42 -45 104 -103l2 -2l27 27 q41 38 78 78q11 11 8 23q-3 17 -18 23q-17 4 -29 -8l-56 -56q-4 -4 -10 -13q-1 2 -3 3.5t-2 2.5l-62 63q-8 8 -18 8q-20 3 -27 -15zM317 730v410q65 -6 119 -59.5t58 -133.5q1 -8 1 -17q0 -74 -49 -130q-54 -62 -129 -70z" />
<glyph unicode="E" d="M0 0h8h977h6q17 0 25 17q5 15 -2.5 27t-24.5 12h-484q-9 0 -11 4q-145 147 -434 436q-4 2 -4 9v432v6h6h412q12 0 16 2q9 3 13.5 13t1.5 20q-2 8 -10 14.5t-17 6.5h-416h-6v437h8h600h300q13 0 22 8t9 21q0 11 -9 19t-22 8h-958h-6v-1492zM56 56v362q118 -120 360 -362 h-360zM491 1056q-1 -12 5 -18l21 -20q37 -37 46 -48q-4 -2 -4 -4l-27.5 -27.5t-32.5 -30.5q-10 -10 -7 -27q3 -15 19 -18q15 -6 27 6q11 10 23 22t25.5 26t21.5 22q11 11 35 31q-2 1 -3.5 3.5t-2.5 2.5q-83 83 -99 98q-8 9 -20 9t-19 -9q-7 -6 -8 -18zM617.5 1051 q0.5 -12 9.5 -21l64 -64q-23 -21 -66 -64q-10 -8 -6 -25q4 -14 18 -18.5t23 4.5q11 5 16 16q16 13 45 42t44 43q0 1 1 2t1 2q-18 18 -52.5 53t-50.5 51q-20 20 -39 -2q-8 -7 -7.5 -19z" />
<glyph unicode="F" horiz-adv-x="1034" d="M0 29q0 -17 12 -24.5t25 -2.5q19 5 19 29v902v6h8h397h7q24 7 24 25q0 21 -20 31h-11h-397h-8v443h8h654h263q10 0 16 2q22 13 13 31q-3 18 -29 18h-975h-6v-8v-1425v-27zM474.5 1057q-3.5 -15 7.5 -29q31 -28 62 -62q0 -2 -4 -2q-8 -8 -17 -17.5t-21 -21t-18 -17.5 q-9 -8 -9 -18.5t9 -18.5q7 -11 19.5 -11t19.5 11q31 27 85 85q5 5 19 12l-8 6q-24 17 -42 42q-29 26 -54 54q-11 12 -29 8q-16 -6 -19.5 -21zM596 1047.5q0 -12.5 10 -21.5l62 -62q-6 0 -8 -4q-11 -10 -28 -28.5t-24 -25.5q-14 -11 -10 -29q6 -16 20.5 -19.5t24.5 7.5 q73 73 79 80q3 3 11 9.5t10 9.5q-55 58 -102 103q-17 17 -35 0q-10 -7 -10 -19.5z" />
<glyph unicode="G" d="M37 492q0 -48 13 -105q41 -176 180 -284q133 -103 298 -103q41 0 84 6q76 9 151 48q164 87 236 260q30 74 33 164v47h-6h-287h-87q-11 0 -19 -8t-8 -18q0 -13 8.5 -21t22.5 -8h312h8v-7q-1 -9 -3 -24t-3 -23q-29 -145 -134 -244q-110 -101 -261 -116q-19 -1 -37 -1 q-62 0 -120 15q-135 38 -224 145q-101 124 -101 277v505q0 48 8 87q49 213 247 310q84 42 185 42h13q36 0 89 -11q164 -41 259 -173q8 -9 20 -11.5t21 4.5q9 6 10 17.5t-6 22.5q-70 97 -180 153q-108 54 -224 54h-12q-57 -3 -109 -15q-159 -40 -265 -168 q-112 -142 -112 -310v-507zM503 496q0 -19 13 -32t32 -13q20 0 34 14t14 34q0 19 -14 32t-34 13q-19 0 -32 -14t-13 -34zM848 1192q0 -22 19 -31l72 -31q9 -4 26.5 -11.5t27.5 -11.5l56 128v17q-3 20 -25 20q-21 0 -27 -16q-20 -41 -33 -77l-6 4q-6 2 -68 29q-10 5 -15 2 q-23 0 -27 -22zM887 1078q0 -21 19 -27l87 -37q6 -3 18.5 -9.5t18.5 -9.5q2 2 2 4q23 47 54 122q4 11 0.5 21.5t-12.5 15.5q-10 5 -22 0.5t-16 -14.5q-8 -15 -10 -25q-23 -48 -23 -49q-4 0 -6 2q-61 27 -68 29q-13 4 -19 2q-19 -3 -23 -25z" />
<glyph unicode="H" horiz-adv-x="1241" d="M0 48q0 -19 13 -32.5t33 -13.5t33.5 13.5t13.5 32.5q0 20 -13.5 33.5t-33.5 13.5t-33 -13.5t-13 -33.5zM19 147q0 -19 16 -25q16 -7 29 6q8 6 8 25v776v8h772v-8v-896v-8q1 -16 14.5 -22.5t26.5 1.5q15 9 15 27v933v238q0 6 -2 8q-2 13 -12 20t-23 3q-19 -6 -19 -29v-205 v-6h-772v8v453v11q0 9 -7.5 15.5t-16.5 8.5q-12 0 -20.5 -8t-8.5 -23v-1307v-4zM753 1247q3 -16 19 -22q15 -6 29 8q10 8 26.5 26t20.5 22q10 10 25 22q0 -4 4 -4q21 -23 64 -66q11 -11 27 -8q15 3 21 18t-6 27l-110 110h-2l-110 -110q-11 -11 -8 -23zM755 1351 q7 -17 25 -17q14 0 21 11q25 23 72 70q0 -2 4 -6l66 -66q7 -7 19 -7t21 7q7 7 7 18.5t-7 20.5q-2 2 -8.5 7.5t-8.5 8.5q-78 79 -95 94l-81 -81q-3 -3 -9.5 -9t-11 -11t-8.5 -9q-13 -13 -6 -31z" />
<glyph unicode="I" horiz-adv-x="310" d="M0 1249q0 -19 19 -22q16 -7 29 6l55 56q2 3 7.5 8t7.5 8l6 -6l66 -66q11 -11 25 -8q18 4 21 18q7 16 -6 29l-110 110l-2 2l-17 -17l-93 -93q-10 -14 -8 -25zM6 1345q8 -7 20.5 -7t21.5 7q9 13 22 22l20 20q19 20 30 30q0 -4 4 -4q21 -23 66 -68q18 -14 35 -4 q11 8 12.5 21t-7.5 22l-110 110l-2 2l-4 -4q-71 -71 -106 -108q-20 -17 -2 -39zM91 25q1 -16 14.5 -22.5t26.5 1.5q15 9 15 27v588v583v8q-1 14 -12.5 21t-24.5 4q-19 -6 -19 -31v-1171v-8z" />
<glyph unicode="J" horiz-adv-x="1096" d="M0 530q-1 -15 -1 -29q0 -60 11 -106q41 -180 187 -292q127 -95 277 -101q14 -1 29 -1q58 0 128 16q153 41 254 161q118 143 118 321v810v7q0 13 -12 22q-16 8 -29 0q-15 -8 -15 -24v-776v-8h-947zM56 474h891q-18 -218 -194 -342q-106 -73 -235 -77h-15q-120 0 -224 61 q-106 61 -163 160t-60 198zM929 1444q0 -19 13.5 -32.5t33.5 -13.5q20 -1 34 12.5t14 33.5t-14 34t-34 14t-33.5 -14t-13.5 -34z" />
<glyph unicode="K" horiz-adv-x="1055" d="M0 27q0 -18 17 -25q14 -6 25.5 2.5t11.5 24.5v881v8q54 -52 155 -153q-60 -81 -60 -170q1 -9 1 -19q8 -100 75 -168q73 -68 164 -77q13 -1 25 -1q94 0 169 59q0 -2 2 -2l83 -83q18 -19 57 -58t57 -58q20 -20 41 0q8 7 7.5 19t-9.5 21l-37 37q-22 23 -66.5 67t-65.5 67 l-31 27q60 80 60 169q-1 9 -1 17q-6 98 -72 167.5t-157 81.5q-19 3 -38 3q-89 0 -163 -59l-180 178q7 5 23 16.5t23 16.5q472 343 492 358q53 36 91 66q17 10 11 29q-3 16 -21 20q-14 3 -25 -8q-124 -90 -325 -234q-186 -136 -279 -202l-6 -4v8v411v7q0 10 -10 18.5t-21 6.5 q-23 -3 -23 -32v-1429v-4zM204 589v10q0 74 42 123q198 -194 298 -294q-52 -43 -126 -43h-13q-83 4 -142 64q-56 59 -59 140zM288 763q50 45 127 45h7q82 -2 141 -61q41 -39 55 -91q9 -31 8 -61q0 -20 -4 -40q-10 -49 -39 -85q-196 196 -295 293zM741 124q0 -27 29 -27h140 h4v4v143q0 16 -14 23q-16 7 -28.5 -1.5t-12.5 -25.5v-81v-8h-7h-82q-29 0 -29 -27zM830 39q-5 -14 2.5 -24.5t23.5 -10.5h48h89h8v8v62v73q0 8 -2 12q-7 22 -31 19q-9 -1 -16 -9.5t-7 -17.5v-85v-6h-8h-83q-21 -4 -24 -21z" />
<glyph unicode="L" horiz-adv-x="1096" d="M0 0h8h956h6q14 0 21 10q13 13 4 29q-7 17 -25 17h-463q-9 0 -15 6l-432 432q-6 6 -6 13v722v238q0 8 -2 12q-11 22 -31 15q-21 -4 -21 -27v-1461v-6zM56 56v362l362 -362h-362z" />
<glyph unicode="M" horiz-adv-x="1406" d="M0 27q0 -13 10 -21.5t23 -5.5q21 6 21 31v929v343v6h2q158 -242 567 -862q358 535 585 867v-7v-1028q0 -6 2 -10q2 -11 11.5 -18.5t19.5 -4.5q23 7 23 31v1210v5v4q-287 -424 -641 -950q-205 313 -623 948v-7v-1456v-4zM1130.5 119q0.5 -13 9.5 -20l39 -39q10 -10 30 -28 t30 -28q12 14 37 39q48 52 58 63q7 8 6.5 19.5t-8.5 19.5q-8 7 -19.5 6.5t-19.5 -8.5q-13 -13 -17 -19q-27 -27 -39 -41l-2 2q-42 38 -58 54q-8 8 -19.5 8.5t-19.5 -8.5q-8 -7 -7.5 -20zM1130.5 237q0.5 -13 9.5 -20l62 -60q12 -10 37 -35q2 0 2 2l93 99q15 15 4 34 q-8 11 -21 12t-24 -8l-56 -60l-6 6q-16 16 -54 50q-8 9 -19.5 8.5t-19.5 -8.5q-8 -7 -7.5 -20z" />
<glyph unicode="N" horiz-adv-x="1158" d="M0 27q0 -27 29 -27q10 0 17.5 8t9.5 19v14v1262v13h2q31 -43 76 -110q15 -20 42.5 -59t36.5 -51q16 -21 44.5 -61t34.5 -48q12 -18 37.5 -55t38.5 -55l79 -110q12 -19 37.5 -55t38.5 -54q15 -20 42.5 -59t36.5 -51q13 -18 39 -54.5t38 -54.5l78 -110q9 -12 36.5 -51 t42.5 -59q32 -48 76 -109q9 -12 36.5 -51t42.5 -59l2 2v12v1194v10q-4 21 -25 25q-26 0 -29 -20q-2 -6 -2 -17v-1016q0 -10 -2 -14q-578 814 -933 1316q-2 -1 -2 -3v-10v-1444v-8zM854 1243.5q0 -11.5 7 -18.5t18.5 -7t20.5 7l8 8l54 58l45 -42q4 -4 11.5 -11t11.5 -11 q10 -9 25.5 -4.5t18.5 18.5q6 17 -9 31q-50 43 -97 91q-4 4 -8 6l-6 -6q-42 -46 -64 -68q-21 -21 -29 -31q-7 -9 -7 -20.5zM854.5 1362.5q3.5 -13.5 16.5 -17.5q17 -6 31 8q21 21 29 31l33 33l8 -8l56 -52q9 -9 21 -9t21 9q8 7 7 18.5t-10 20.5l-31 29q-37 35 -74 71l-4 -4 l-93 -100q-6 -3 -6 -6q-8 -10 -4.5 -23.5z" />
<glyph unicode="O" horiz-adv-x="1179" d="M41 496q0 -39 11 -107q45 -180 182 -286q132 -103 312 -103h10q67 3 118 19q162 44 261 175q86 114 99 265q2 19 2 112q0 15 -14 21q-14 9 -27.5 1t-13.5 -24v-73q0 -31 -7 -82q-30 -148 -136 -242q-111 -102 -261 -114q-20 -2 -41 -2q-53 0 -112 14q-136 34 -223 143 q-106 126 -106 281v501q0 35 11 85q28 144 138 242q122 109 292 112q54 0 99 -11q153 -35 248 -155q98 -124 98 -281v-102v-8q7 -24 31 -21q10 1 17 9.5t7 17.5v108q0 65 -12 107q-50 228 -261 340q-98 51 -221 51h-14q-63 0 -112 -16q-157 -37 -263 -166 q-112 -138 -112 -310v-250v-251zM902 734q0 -15 10 -20q23 -28 50 -52q14 -12 50 -48l4 7q21 25 64 68q19 19 27 29q7 9 6.5 20t-8.5 17q-14 17 -40 0q-6 -9 -16 -19q-7 -8 -22.5 -22.5t-19.5 -18.5l-2 2q-9 10 -28.5 28.5t-29.5 27.5q-10 10 -26 4q-19 -4 -19 -23zM912 871 q-18 -22 2 -39q5 -7 14.5 -17.5t12.5 -13.5q3 -2 30 -27.5t43 -39.5q0 2 2 2q15 17 46 49.5t45 48.5q9 8 9 19t-9 20q-6 7 -18.5 7t-21.5 -7q-26 -31 -49 -52q-2 -4 -6 -8q-30 28 -58 58q-9 7 -21.5 7t-20.5 -7z" />
<glyph unicode="P" horiz-adv-x="1075" d="M0 25q4 -25 29 -25q24 0 27 27v10v710v12q6 -3 6 -8q40 -71 103 -128q126 -112 294 -124q22 -2 45 -2q38 0 77 6q168 33 275 147q139 150 139 339q0 49 -10 101q-41 215 -234 329q-105 67 -240 70h-54h-443h-14v-14v-1438v-12zM56 993q0 185 132 315q130 128 309 128h8 q87 -1 166.5 -36t138.5 -93.5t94 -140.5t35 -173q0 -121 -60.5 -223.5t-162.5 -160.5q-100 -57 -216 -57h-4q-119 0 -220.5 59t-160.5 160.5t-59 221.5zM56 1227v205q6 4 102 4h36q63 0 71 -2q-68 -37 -120 -89q-49 -49 -89 -118z" />
<glyph unicode="Q" horiz-adv-x="1117" d="M46 494q0 -31 8 -93q39 -175 167 -281q138 -120 323 -120h490h7v8v584v405q0 49 -9 99q-38 181 -180 288q-136 107 -299 107q-51 0 -104 -10q-176 -31 -290 -172q-113 -139 -113 -314v-501zM101 494v503q0 153 104 281q96 111 240 145q44 13 87 13h11q122 0 229 -62 q164 -103 204 -288q11 -57 11 -93v-405v-102q-6 -142 -93 -261q-11 -11 -23 -26l-4 8q-121 119 -240 240q-18 14 -31 8q-15 -3 -19.5 -16.5t4.5 -26.5l7 -7q40 -39 119 -118t120 -119q0 -4 7 -7q-3 -2 -25 -17.5t-33 -21.5q-74 -51 -162 -60q-40 -6 -78 -6q-155 0 -277 105 q-119 97 -151 255q-7 47 -7 78zM490 496q0 -19 13.5 -32t32.5 -13q20 0 34.5 13t14.5 32q0 20 -13.5 34t-33.5 14q-20 1 -34 -13t-14 -35zM774 54q141 79 213 215v-215h-213z" />
<glyph unicode="R" horiz-adv-x="1241" d="M0 31q0 -17 14 -25q15 -6 29 2q11 8 11 27v724v6h2q0 -2 2 -2q52 -97 132 -159q128 -100 300 -103q19 -2 60 2q7 0 11 -2q40 -36 62 -54q69 -61 138 -120l147 -128q8 -6 22 -18.5t17 -15.5q16 -13 34 -2q13 10 10 29q0 10 -15 21l-111 97q-172 148 -218 189l-22 18h4 q163 46 265 182q97 133 97 294v19q0 73 -27 149q-78 209 -281 295q-71 30 -151 36h-67h-457h-8v-9v-538v-908v-6zM56 1016q3 85 37 159q82 178 265 240q76 23 138 23q162 -3 284 -106q121 -101 149 -252q9 -46 9 -91q0 -143 -94 -265q-101 -126 -261 -161q-12 0 -18 6 q-103 89 -131 114q-63 52 -146 126l-123 103q-70 62 -105 91q-4 4 -4 13zM56 1225v211h211q-135 -70 -211 -211zM60 931q280 -243 434 -375q-164 0 -293 112q-116 105 -141 263zM912 110q0 -11 8.5 -19t20.5 -8h126h7v2v132q0 11 -8.5 19t-20.5 8q-11 0 -19 -8t-8 -19v-72 v-6h-77q-13 0 -21 -8t-8 -21zM989 27q0 -11 8.5 -19t20.5 -8h122h10v4v124v13q-7 23 -31 20q-9 -2 -16 -9.5t-7 -17.5q-1 -9 -1 -19.5t0.5 -22.5t0.5 -18v-18h-8h-70q-13 0 -21 -8t-8 -21z" />
<glyph unicode="S" horiz-adv-x="1106" d="M0 581q0 -19 13.5 -32t32.5 -13q20 0 33.5 13t13.5 32q0 20 -13.5 34t-33.5 14q-19 0 -32.5 -14t-13.5 -34zM29 488q0 -56 14 -105q41 -162 166 -265q136 -115 316 -118h16q78 0 160 27q144 52 230 163q92 117 107 263q2 21 3 46q0 35 -5 76q-13 84 -45 151q-3 5 -8 8 l-156 56q-1 0 -28 11q8 36 8 69q1 64 -29 120q-46 86 -131 125q-59 25 -114 26q-32 0 -63 -9q-125 -29 -185 -147q-17 7 -157 58l6 37q35 158 160 254q124 100 280 100q24 0 49 -2q72 -5 153 -44q15 -8 58 -35q9 -6 20.5 -4.5t18.5 10.5q6 9 3.5 20t-11.5 19q-2 1 -5.5 4.5 t-5.5 4.5q-126 82 -280 82h-11q-51 0 -100 -12q-232 -55 -341 -269q-39 -76 -48 -153q0 -1 -6 -50q1 0 3 -1t3 -1l189 -68q4 -2 4 -8q-7 -26 -7 -56q0 -19 3 -41q13 -96 76 -156q80 -80 191 -80q24 0 49 4q101 15 168 99l35 50q27 -9 79.5 -29t79.5 -29q5 0 9 -8 q36 -84 36 -170q0 -44 -10 -89q-29 -156 -144 -254q-110 -98 -255 -110q-21 -3 -45 -3q-42 0 -91 9q-129 28 -226 122q-48 48 -81 112q-36 68 -45 141q-1 3 -6 53q-1 10 -9.5 17.5t-19.5 7.5q-11 -2 -18.5 -10.5t-6.5 -18.5zM321 914q67 -25 202.5 -73.5t202.5 -73.5 q-37 -75 -115 -105q-37 -14 -75 -14q-43 0 -87 18q-81 34 -113 107q-21 48 -21 94q0 24 6 47zM339 966q31 64 103 99q43 21 89 21q31 0 63 -10q84 -24 127 -100q30 -52 30 -107q0 -25 -6 -50q-76 28 -217.5 79t-188.5 68zM807 1278q8 -16 27 -16q14 -1 42 -2t42 -2 q33 0 50 -2v10q0 7 1 21.5t1 21.5q0 15 1 43t1 42q0 11 -7.5 19t-19.5 8q-11 0 -19 -7.5t-8 -17.5q-2 -21 -2 -60v-22h-8q-25 2 -76 2q-12 0 -21 -9q-9 -16 -4 -29zM881 1202q0 -11 8.5 -20t18.5 -9q32 0 102 -4h35q4 92 4 138q0 10 -8 17.5t-19 9.5q-10 0 -18.5 -8 t-10.5 -19v-31q0 -8 -1 -24t-1 -25h-4q-13 0 -39 1t-40 1q-10 0 -18.5 -8.5t-8.5 -18.5z" />
<glyph unicode="T" horiz-adv-x="1303" d="M0 1463q0 -23 25 -27h14h530h16v-17v-1380q0 -8 3 -14q0 -11 8 -19q10 -9 25 -5t18 18q2 6 2 18v1382v17h15h300h14q25 4 25 27q0 11 -7.5 19.5t-17.5 9.5h-8h-929h-8q-10 -1 -17.5 -9.5t-7.5 -19.5zM978 1556q-10 -19 7 -36l43 -43q2 -2 7.5 -6t7.5 -6q-24 -28 -36 -40 l-22 -22q-13 -16 -2 -34q13 -17 33 -10q8 4 12 8l56 58q19 19 37 40l-6 6q-11 11 -34.5 33.5t-35.5 34.5q-3 3 -8 7.5t-8.5 8t-6.5 7.5q-10 8 -23.5 6t-20.5 -12zM1094 1545q-6 -14 9 -29q23 -19 51 -47q5 -5 7 -9q-2 -1 -5.5 -4t-5.5 -4l-45 -49q-7 -9 -7 -21t7 -19 q7 -8 19.5 -7.5t19.5 9.5l95 98l-4 4l-93 91q-4 0 -4 4q-13 8 -27 2.5t-17 -19.5z" />
<glyph unicode="U" horiz-adv-x="1179" d="M0 1442q0 -19 13.5 -33.5t32.5 -14.5q20 0 33.5 14.5t13.5 33.5t-13 33t-32 14q-20 0 -34 -13.5t-14 -33.5zM19 509q0 -55 12 -110q36 -161 162 -272t295 -125q24 -2 47 -2q61 0 112 12q176 42 287 182.5t111 318.5q-2 232 -2 695v13q0 24 -27 24q-11 0 -19 -7t-8 -17 v-13v-695q0 -47 -8 -83q-29 -155 -147 -260q-115 -102 -269 -114q-14 -1 -29 -2q-52 0 -118 14q-151 39 -247.5 163.5t-96.5 279.5v397v412v14q-2 9 -10 16t-18 7q-9 0 -17.5 -7t-9.5 -16v-14v-811zM914 1264q-6 -14 1.5 -26.5t23.5 -12.5q13 0 23 10q29 29 48 52l8 6 q17 -18 54 -52q3 -5 8 -8q14 -10 31 0q16 12 10 27q0 8 -6 14l-97 93q0 2 -4 2l-2 -2q-15 -15 -45 -47t-46 -48q-6 -6 -7 -8zM921 1388q-17 -18 2 -37q7 -7 18.5 -7.5t18.5 5.5l8 8q17 19 50 52q10 -8 25 -23q6 -5 17.5 -16.5t17.5 -16.5q16 -13 31 -4q17 9 14 29 q0 9 -10 16l-89 87q-4 4 -8 6l-6 -6q-9 -9 -27.5 -28.5t-28.5 -29.5q-5 -6 -16.5 -17.5t-16.5 -17.5z" />
<glyph unicode="V" horiz-adv-x="1541" d="M0 1460q0 -11 6 -20l337 -683q340 -686 371 -749q1 -1 2.5 -3.5t3.5 -4.5q4 8 6 10l319 646q128 258 254 511l25 51q6 14 0.5 25.5t-19.5 14.5q-20 7 -31 -15q-4 -10 -13.5 -28.5t-13.5 -27.5l-339 -682q-120 -244 -182 -366l-6 -15q-2 3 -8 15q-115 233 -139 279 q-17 35 -209 422l-308 625q-1 2 -3 5t-3 5q-15 15 -31 8q-7 -1 -13 -8t-6 -15zM472 803q0 -101 73 -173q72 -71 170 -71h3q103 0 174.5 72t71.5 176q0 101 -72 172.5t-174 71.5q-103 0 -174.5 -72t-71.5 -176zM528 808q0 74 55 130q56 56 133 57q81 0 137.5 -55.5 t56.5 -134.5t-56 -135t-136 -58q-79 0 -134.5 56.5t-55.5 139.5zM1227 1316q2 -14 13.5 -21.5t25.5 -3.5l62 25q2 1 6.5 2t6.5 2q2 -4 5 -12.5t5 -12.5q10 -29 21 -52q6 -16 26 -16q21 4 25 25q0 6 -4 18l-43 114l-4 8l-11 -4q-16 -6 -45.5 -17.5t-39.5 -15.5l-31 -12 q-18 -9 -18 -27zM1281 1413q6 -23 28 -19q7 0 15 4q32 12 66 27l27 -68q1 -2 2 -5.5t2 -4.5q12 -23 35 -13q20 7 17 31q0 3 -4 11l-44 111q0 5 -4 9q-2 0 -4 -2q-20 -7 -59.5 -23t-58.5 -23q-1 0 -3 -1t-3 -1q-21 -14 -12 -33z" />
<glyph unicode="W" horiz-adv-x="1510" d="M1.5 1230q4.5 -16 19.5 -20q15 -3 29 11q9 11 47 49q4 4 6 8l21 -18l39 -39q14 -11 29 -5q16 6 19 23q0 15 -10 25l-69 64q-10 8 -31 29l-6 -6l-66 -73q-4 -3 -23 -22q-9 -10 -4.5 -26zM8 1376q-18 -22 2 -42q7 -8 19 -7.5t21 9.5q3 3 6 9q38 38 47 49h5l43 -43l14 -13 q13 -9 27.5 -4.5t18.5 19.5q3 16 -10 29q-42 38 -62 58q-18 18 -36 33q-5 -4 -11 -10t-12.5 -13t-9.5 -10zM77 10q0 -1 1 -3.5t1 -4.5q395 548 678 935l672 -937h3v10v1432v10q0 11 -8.5 18.5t-18.5 6.5q-27 0 -27 -27v-12v-1250v-10q0 -1 -1 -3.5t-1 -4.5l-619 862 q-209 -288 -623 -858q-2 0 -2 2v12v1008v14q-4 23 -26 23q-24 0 -27 -23q-2 -4 -2 -16v-1175v-9z" />
<glyph unicode="X" horiz-adv-x="1075" d="M0 48q0 -20 14 -34t34 -14q19 0 33 14t14 34q0 19 -13.5 32.5t-33.5 14.5q-20 0 -34 -14t-14 -33zM29 1452l6 -10q81 -123 231 -355.5t177 -273.5q8 -12 35 -54l-6 -12q-64 -96 -369 -561q0 -1 -8 -13.5t-12 -19.5q-5 -9 -2 -20t12 -15q20 -13 37 4q3 6 9 12 q355 547 364 561q6 6 8 12q8 -12 10 -14q217 -335 435 -672q3 -3 6 -9q6 -8 17 -9t20 5q18 11 8 35q0 2 -3 6t-3 5l-449 695q-2 2 -6 10l6 11q262 399 311 475l8 13q11 21 -10 35q-18 14 -36 -4q-3 -3 -8 -13q-274 -419 -298 -455q-1 -1 -3.5 -4.5t-4.5 -5.5q-1 3 -4 8t-4 6 l-420 646q-3 6 -9 12q-6 8 -16.5 9t-18.5 -5q-21 -14 -10 -35zM765 1334q0 -18 17 -25q8 -4 23 0q51 14 64 17q4 2 10 2q4 -12 4 -16q17 -58 17 -60q7 -18 23 -21q17 -3 29 12q7 15 2 25q-3 10 -8.5 31.5t-8.5 32.5l-19 66q-4 -2 -10 -2q-44 -13 -97 -27q-11 -4 -29 -8 q-17 -7 -17 -27zM825 1434q0 -19 19 -25q9 -3 19 0q11 3 36 10t40 10l4 -10q2 -12 9 -36t8 -28q1 -1 2 -4.5t2 -5.5q10 -16 27 -13q8 0 16 6t9 13q0 14 -2 18l-31 114l-5 15q-8 0 -10 -2q-68 -17 -116 -33q-2 0 -5.5 -1.5t-4.5 -1.5q-17 -10 -17 -26z" />
<glyph unicode="Y" horiz-adv-x="1158" d="M0 1489q2 -2 2 -4q51 -51 147 -151q74 -79 114 -116q66 -70 101 -105q9 -12 27 -8q16 5 19.5 19.5t-9.5 27.5l-82 87l-156 162q-3 3 -10 9.5t-13 12.5t-10 11h828q-8 -10 -29 -31q-27 -27 -82 -80t-82 -80l-80 -76q-56 -56 -164 -160q-6 -6 -6 -12v-964v-4q2 -11 9.5 -19 t17.5 -8q12 -1 20.5 7.5t8.5 21.5v941v4l4 7l31 31l122 118q20 20 60.5 59t61.5 58q40 40 122 118l98 98l26 26h-1096zM414 1059q0 -20 13.5 -33.5t33.5 -13.5q19 0 32.5 13.5t13.5 33.5q0 19 -13.5 33.5t-32.5 14.5q-20 0 -33.5 -14t-13.5 -34z" />
<glyph unicode="Z" horiz-adv-x="1261" d="M0 0h8h1155h6q20 3 23 19q6 16 -7 29q-8 8 -22 8h-1045h-10l328 453q69 -37 138 -37q29 0 59 7q99 22 159 100q56 75 56 167v9q-6 117 -93 195l391 539h-8h-511h-482q-16 0 -24 -10.5t-3 -24.5q7 -20 29 -20h881h8l-326 -451q-65 34 -133 34q-30 -1 -59 -7 q-98 -22 -160 -100q-40 -52 -52 -118q-4 -22 -3 -45q0 -43 14 -87q22 -68 76 -118zM2 1460q0 -20 14.5 -33.5t33.5 -13.5q20 0 33.5 14t13.5 36q0 19 -14 32t-33 13q-20 0 -34 -14t-14 -34zM360 724q-1 11 -1 23q0 69 44 130q34 45 85 67q45 19 88 18h12q48 -3 88 -25 l-250 -347q-58 53 -66 134zM470 556l252 348q61 -52 70 -136q1 -12 1 -24q0 -70 -44 -132q-53 -68 -137 -82q-22 -4 -41 -4q-57 0 -101 30z" />
<glyph unicode="[" horiz-adv-x="393" d="M97 -205h4h213q1 0 4 1t5 1q8 3 12.5 11.5t3.5 17.5t-9.5 16t-17.5 7h-157h-6v1649h10h149q4 0 6 2q9 3 16 12t7 17q-6 25 -27 25h-207h-6v-1759z" />
<glyph unicode="\" horiz-adv-x="1034" d="M-83 1520q7 -14 9 -16l244 -374q40 -62 136 -209t147 -226q115 -179 314 -482q4 -6 261 -399q21 -24 37 -21q19 4 25.5 20.5t-2.5 33.5l-45 68q-46 70 -138 209.5t-138 208.5q-99 152 -279 430q-159 245 -318 486q-20 30 -86 131.5t-103 156.5q-17 24 -37 15 q-9 -3 -17.5 -12.5t-9.5 -19.5z" />
<glyph unicode="]" horiz-adv-x="393" d="M97 -174q-3 -21 17 -29q2 0 4.5 -1t3.5 -1h213h4v1759h-6h-207q-21 0 -27 -25q0 -8 7 -17t16 -12q2 -2 6 -2h149h11v-1649h-7h-157q-9 0 -17.5 -7t-9.5 -16z" />
<glyph unicode="^" horiz-adv-x="992" d="M31 1014q4 -14 18 -18t23 7q14 12 40 38.5t39 38.5l186 186l149 149q0 1 1 3t1 3l4 -4q52 -53 108 -105l126 -127l27 -27q8 -8 23 -8q15 3 18 19q7 15 -6 25l-64 64q-23 21 -67 65.5t-67 66.5l-94 93l-6 6q-2 0 -4 -2q-68 -68 -101 -103q-61 -58 -102 -101 q-32 -31 -95 -94.5t-95 -94.5q-37 -37 -54 -56q-11 -8 -8 -24zM726 1096q4 -22 25 -22t61 1t59 1h4v10v112v8q-8 19 -27 19q-9 -2 -16 -9t-7 -16v-48v-27h-47q-19 0 -29 -2q-10 0 -16.5 -8t-6.5 -19zM799 1018q2 -8 8.5 -14.5t15.5 -6.5h100h24v6v67v53q0 11 -10.5 18.5 t-20.5 4.5q-18 -6 -18 -27v-66v-6h-6h-67h-6q-20 -6 -20 -29z" />
<glyph unicode="_" horiz-adv-x="1096" d="M43 -35q6 -19 29 -19h917h4l17 6q15 12 8 31q-7 17 -27 17h-459h-149h-313q-14 0 -22 -10.5t-5 -24.5z" />
<glyph unicode="a" horiz-adv-x="868" d="M37 379q0 -39 9 -77q32 -139 140 -221q96 -78 222 -81q0 -1 28 -1h36l64 1h180q51 0 78 2h9v6v604q0 40 -9 81q-33 131 -130 211q-109 87 -237 87q-39 0 -79 -8q-123 -20 -211 -118q-100 -116 -100 -255v-231zM89 381v113v112q0 92 45 170q80 130 222 155q36 8 71 8 q107 0 200 -72q100 -81 120 -201q4 -21 4 -62q0 -26 0.5 -72t0.5 -83t-1 -70q0 -117 -81 -214q-74 -86 -178 -107q-38 -8 -74 -8q-109 0 -205 72q-99 81 -120 201q-4 42 -4 58zM614 52q85 53 137 136v-136h-137z" />
<glyph unicode="b" horiz-adv-x="910" d="M64 0h6q50 -2 147 -2h157h46q13 -1 26 -1q38 0 73 7q130 25 213 120q100 109 100 257v227q0 28 -7 68q-26 144 -134 228q-106 89 -233 90q-44 0 -90 -11q-144 -32 -231 -149q-13 -13 -19 -31v8v701v15q-6 13 -8 14q-13 17 -27 8q-19 -6 -19 -24v-1519v-6zM117 438l1 58 v125q0 111 76 202q76 88 187 110q37 8 72 8q105 0 194 -70q96 -67 125 -186q8 -33 8 -77v-227q0 -127 -83 -222q-84 -90 -192 -105q-30 -5 -59 -5q-117 0 -216 81q-89 77 -110 191q-2 21 -2 58q-2 0 -1 59zM118 52v136q50 -88 134 -136h-134z" />
<glyph unicode="c" horiz-adv-x="992" d="M46 507q0 -47 10 -112q36 -173 173 -284t313 -111q114 0 221 52q4 2 14.5 7.5t14.5 8.5q20 13 9 35q-5 8 -15 11.5t-19 -0.5l-8 -4q-100 -58 -217 -58q-30 0 -62 4q-163 26 -269 145q-114 129 -114 295v9q3 46 11 80q28 144 138 242q125 113 293 113q28 0 57 -3 q81 -8 163 -54q1 0 3 -1t3 -1q9 -5 19.5 -1.5t14.5 12.5q13 20 -9 35l-8 4q-112 63 -235 63q-42 0 -86 -7q-169 -29 -277 -147q-138 -150 -138 -333zM813 137q0 -19 13.5 -31.5t32.5 -12.5t31 12.5t12 31.5t-13 32t-30 13q-19 0 -32.5 -13t-13.5 -32z" />
<glyph unicode="d" horiz-adv-x="868" d="M37 383q0 -35 6 -73q25 -135 132 -222.5t245 -87.5q133 0 199 2h173h11v17v626v869v13q0 10 -8 17.5t-17 7.5q-11 0 -19 -7.5t-8 -17.5v-11v-697q0 -8 -2 -12q-1 1 -3 4t-3 4q-64 101 -174 148q-72 31 -146 31q-40 0 -80 -9q-133 -26 -219.5 -132t-86.5 -241v-229z M89 381v115v112v6q-1 111 71 202q74 93 190 117q38 8 74 8q93 0 175 -53q114 -74 144 -205q8 -36 8 -83q0 -25 0.5 -70.5t0.5 -82.5t-1 -70q-6 -194 -178 -288q-71 -37 -149 -37q-1 0 -3 -1q-77 0 -142 31q-66 31 -116 91.5t-68 138.5q-6 34 -6 69zM619 54q82 53 130 132 q3 -5 3 -60v-32q0 -28 -1 -40h-132z" />
<glyph unicode="e" horiz-adv-x="1096" d="M2 451q2 -46 25 -120q57 -160 194 -248q109 -74 247 -83q14 -1 27 -1q58 0 105 11q161 35 265 155q92 101 118 238q3 13 -3.5 22t-19.5 11q-10 3 -19 -3t-12 -17l-6 -27q-39 -149 -151 -236q-123 -99 -270 -99q-35 0 -72 6q-101 15 -186 74q-10 6 -45 36l662 664 q-48 43 -65 56q-123 95 -283 101h-17q-86 0 -165 -27q-160 -57 -248 -194q-83 -125 -83 -273q0 -22 2 -46zM67 597q25 110 105 197q83 90 196 124q66 20 131 19q45 1 91 -9q108 -24 190 -96q-414 -414 -619 -623q-67 75 -93 177q-13 52 -13 105q0 52 12 106z" />
<glyph unicode="f" horiz-adv-x="703" d="M68 25q2 -10 10.5 -17.5t20.5 -7.5q10 0 17.5 8t7.5 17v12v664q0 12 10 19q13 7 37.5 21.5t29.5 17.5q42 25 174 104t204 120l9 8v2h-232h-232q2 14 5 53.5t3 43.5q34 183 187 302q97 75 215 93q16 2 78 7q19 0 25 16t-1.5 27.5t-23.5 11.5q-56 0 -118 -10 q-202 -50 -324 -215q-102 -144 -102 -315v-266v-702v-14zM124 780v153q7 1 125 1t132 -1q-103 -63 -257 -153z" />
<glyph unicode="g" horiz-adv-x="889" d="M60 385q0 -46 8 -85q35 -152 165 -238q95 -63 204 -63q41 0 84 9q155 34 249 172l4 8l2 -2v-4v-132q0 -58 -6 -87q-41 -206 -224 -308q-71 -43 -157 -52q-9 -1 -27 -2t-27 -2q-19 0 -25 -15q-7 -13 0 -24t23 -13q45 0 103 10q125 28 223 113.5t140 203.5q28 75 28 163v17 v351v257v316v13h-6q-46 4 -136 4h-244q-33 0 -91 -12q-130 -34 -210 -138t-80 -235v-225zM112 385v229q0 115 73 205.5t185 115.5q38 8 75 8q92 0 175 -51q115 -72 147 -203q9 -43 9 -91v-102v-130q-6 -131 -106 -225q-76 -69 -178 -85q-26 -4 -52 -4q-101 0 -188 62 q-108 76 -134 207q-6 31 -6 64zM178 -428q0 -18 13 -31t32 -13q17 0 30.5 13.5t13.5 30.5q0 20 -13 32.5t-31 12.5q-19 0 -32 -12.5t-13 -32.5zM641 939h135v-130q-3 3 -8.5 10.5t-8.5 10.5t-5.5 6.5t-5.5 8l-5 7.5q-4 6 -17 19l-19 19q-7 9 -20 18q-7 7 -19 15z" />
<glyph unicode="h" horiz-adv-x="889" d="M70 33q0 -10 2 -16q0 -7 7.5 -12t15.5 -3q8 0 14.5 6t6.5 15v12v509v17q109 -90 143 -116q20 -16 67 -57t75 -63q65 -62 139 -116q118 -100 139 -116q55 -53 140 -118v13v622q0 87 -27 135q-37 106 -123.5 171t-196.5 73q-19 2 -37 2l-87 -10q-137 -36 -220 -162l-12 -6 v12v691v11q0 10 -7 17.5t-16 7.5q-7 0 -14.5 -5.5t-8.5 -15.5v-15v-1092v-391zM116 639q11 81 54 149q70 115 209 145q36 8 71 8q109 0 204 -76q84 -76 111 -203v-52q2 -168 2 -509v-10h-2q-5 3 -18 12.5t-21 12.5q-232 201 -428 362q-36 27 -98.5 80.5t-67.5 57.5 q-16 11 -16 23z" />
<glyph unicode="i" horiz-adv-x="289" d="M46 1045q3 -13 16 -19q19 -3 27 8q37 37 56 58l4 -4l52 -52q19 -16 39 0q7 8 6.5 20t-8.5 20l-87 82q-7 7 -8 9q-10 -13 -23 -23q-34 -34 -68 -74q-9 -9 -6 -25zM52 1181q-16 -16 2 -37q21 -14 37 2l54 58l56 -54q8 -8 22 -8q17 0 23 19q4 11 -6 28q-35 28 -64 58l-33 31 q-7 -6 -17 -18.5t-14 -16.5q-19 -18 -60 -62zM120 17q0 -11 6 -17q13 -13 29 -6q17 7 17 23v475v474q2 2 0 4q0 9 -6.5 16t-14.5 9q-13 2 -22 -6t-9 -23v-945v-4z" />
<glyph unicode="j" horiz-adv-x="599" d="M-234 -426q0 -19 12.5 -31.5t31.5 -14.5q19 0 32 13t13 33q0 17 -13 30t-32 13q-18 0 -31 -12.5t-13 -30.5zM-106 -426q0 -11 7.5 -19t17.5 -8q57 0 93 10q144 26 247 126q78 70 122 180q25 60 31 131q0 10 1 33t1 33v432v472v6q-3 27 -29 27q-23 0 -23 -29v-927 q0 -27 -8 -89q-34 -148 -149 -250q-126 -103 -286 -103q-11 0 -18 -7.5t-7 -17.5zM286.5 1051.5q0.5 -11.5 9.5 -17.5q18 -18 35 2q1 1 5 4.5t7 4.5q3 3 18.5 19.5t23.5 27.5q8 -9 17.5 -18.5t20 -19.5t16.5 -16q23 -16 39 0q17 17 -2 36q-4 6 -27 29l-66 62l-38 -42 q-18 -16 -51 -53q-8 -7 -7.5 -18.5zM288.5 1162.5q-0.5 -11.5 7.5 -18.5q7 -6 18.5 -5.5t18.5 7.5q4 4 9 8.5t11 11t9 9.5l25 25q21 -19 54 -52q11 -7 23 -6t18 10q11 18 -6 35q-6 6 -26.5 25t-31.5 31q-21 21 -35 31q-14 -15 -43 -46t-42 -47q-9 -7 -9.5 -18.5z" />
<glyph unicode="k" horiz-adv-x="868" d="M58 27q0 -19 16 -25q19 -7 32 6q6 6 6 23v329q0 20 4 58q15 110 95 184q96 90 218 90q28 0 57 -5q124 -18 205 -126q62 -84 62 -195v-331v-8q4 -18 17 -23t29 4q8 8 8 25v339q0 40 -6 77q-38 160 -174 244q-71 43 -155 52q-17 2 -36 2q-27 0 -59 -4l-38 -7q83 83 253 257 h-480v8v515v11q0 14 -19 22q-20 3 -31 -10q-4 -6 -4 -19v-1166v-280v-47zM112 585v352h349q-174 -177 -349 -352z" />
<glyph unicode="l" horiz-adv-x="248" d="M99 25q1 -10 8.5 -17.5t16.5 -7.5q12 0 19.5 7t7.5 18v12v708v765v13q0 9 -7 15.5t-16 6.5q-23 3 -27 -18q-2 -4 -2 -13v-1483v-6z" />
<glyph unicode="m" horiz-adv-x="1572" d="M62 31q0 -11 4 -17q7 -17 27 -14q15 0 19 21v12v461v69q0 6 2 10q155 -126 678 -573v567h2q21 -16 59 -48t57 -47q20 -18 61.5 -51.5t50.5 -41.5l112 -94q22 -20 118 -97q37 -33 111 -95l114 -97v12v613q0 47 -4 72q-29 154 -157 239q-92 61 -198 61q-42 0 -86 -10 q-182 -42 -256 -220q-1 -1 -2 -4.5t-2 -5.5q0 3 -1 6t-1 4q-29 65 -73 112q-107 117 -269 120q-10 0 -27 -1t-27 -1h-297h-15v-15v-390v-557zM114 645q3 71 31 120q67 136 219 172q35 7 69 7q107 0 198 -75q92 -83 110 -193q2 -21 2 -51v-499v-12q-2 2 -6 4.5t-5 3.5 q-70 61 -199.5 168t-168.5 140q-16 13 -240 201q-4 4 -6 4q-7 7 -4 10zM114 817v126h126q-80 -51 -126 -126zM799 643q6 101 68 180q79 94 194 114q29 5 58 5q94 0 174 -56q104 -74 130 -201q4 -23 4 -62v-505v-10h-2q-24 16 -37 29q-415 349 -438 368q-26 23 -76 64t-67 56 q-8 8 -8 18z" />
<glyph unicode="n" horiz-adv-x="868" d="M62 21q0 -7 8 -19q12 -9 27 -2q15 6 15 23v542v8l684 -573v8v619q0 31 -6 62q-20 129 -126 219q-98 84 -236 87h-360h-6v-8v-960v-6zM114 643q3 78 39 137q73 129 215 157q33 6 65 6q106 0 196 -72q91 -73 112 -186q4 -21 4 -62v-507v-6q-20 15 -23 18q-23 19 -134 114 q-62 50 -120 99q-46 37 -147 124q-44 35 -122 102l-81 68q-5 5 -4 8zM114 813v130h128q-82 -50 -128 -130z" />
<glyph unicode="o" horiz-adv-x="868" d="M43 379q0 -37 9 -71q30 -139 132 -221q108 -88 237 -88q45 0 92 11q179 43 261 213q35 73 35 151v122v112q0 45 -8 81q-32 138 -141 221q-103 82 -234 82q-24 0 -49 -3q-66 -9 -123 -37q-121 -61 -177 -187q-34 -78 -34 -151v-235zM95 383v225q0 53 19 112l2 2 q99 -84 299 -250.5t299 -250.5q-12 -24 -35 -51q-68 -80 -168 -106q-47 -13 -92 -13q-112 0 -206 79t-112 195q-6 29 -6 58zM137 772q3 5 12.5 19.5t15.5 21.5q71 92 189 118q35 8 71 8q18 0 36 -2q125 -12 211 -107q64 -72 79 -164q6 -31 6 -64v-219q0 -57 -18 -110 q-1 -2 -3 -4q-279 235 -599 503z" />
<glyph unicode="p" horiz-adv-x="889" d="M54 -465v-5q4 -21 18 -24q15 -3 24.5 4t9.5 22v650v6l6 -6q39 -60 78 -91q91 -79 211 -91q19 -2 38 -2q43 0 82 10q130 29 209 126q91 103 91 245q2 79 2 235q0 27 -8 77q-32 140 -147 225q-96 74 -217 77h-147h-141q-25 -2 -76 -2h-33v-6v-1450zM106 385v225 q0 131 93 230q83 83 184 97q31 5 61 5q114 0 206 -77q80 -64 111 -174q11 -49 11 -79v-116v-111q0 -114 -67 -201q-76 -99 -204 -128q-35 -6 -68 -6q-114 0 -210 78q-90 78 -111 191q-6 35 -6 66zM106 803v138h136q-85 -53 -136 -138z" />
<glyph unicode="q" horiz-adv-x="889" d="M60 389q0 -48 8 -89q28 -126 131 -211q90 -75 209 -87q14 -1 27 -1q50 0 93 9q144 34 233 158l15 24v-8v-647v-9q2 -11 10.5 -18t20.5 -4q9 1 14.5 9t5.5 17v1089v366v6h-4q-39 2 -120 2h-167h-50q-89 0 -114 -4q-133 -26 -219 -130q-93 -102 -93 -251v-221zM112 381v235 q0 119 74 205q67 84 174 114q44 10 86 10q118 0 212 -82q93 -75 114 -191q4 -21 4 -66v-110v-119q-3 -114 -75 -201q-71 -88 -180 -114q-42 -9 -82 -9q-116 0 -209 77q-91 76 -112 191q-6 29 -6 60zM639 943h137v-138q-51 84 -137 138z" />
<glyph unicode="r" horiz-adv-x="868" d="M77 19q0 -9 7.5 -16t16.5 -7q27 0 27 27v579q0 34 6 72q19 98 85 164q87 93 213 99q11 1 22 1q58 0 123 -22q128 -56 180 -182q2 -6 10 -14q19 -11 32 2q15 9 8 31q-30 75 -89 134q-113 104 -265 104h-370h-6v-6v-383v-575v-8zM128 807v130h133q-88 -54 -133 -130z" />
<glyph unicode="s" horiz-adv-x="889" d="M56 391q0 -52 8 -93q28 -124 128 -209q87 -75 205 -87q20 -2 41 -2l81 8q112 29 191 108q43 46 68 103q37 74 37 174q0 3 -6 6l-255 106q-8 4 -25 11.5t-26 11.5l4 2q92 39 161 66l141 60q3 3 2 6l-2 21q-29 137 -135 223q-109 85 -235 85q-39 0 -79 -8 q-186 -40 -269 -218q-20 -41 -31 -109q275 -115 306 -128q-9 -5 -33 -15q-137 -59 -273 -114q-4 -4 -4 -8zM108 358q0 3 6 6q15 6 52 22t57 24l207 86q4 4 11 0q53 -21 158 -66t158 -66q4 -2 4 -8q-6 -107 -78 -191q-74 -86 -187 -107q-32 -6 -53 -6q-143 3 -236 93 q-75 72 -93 174zM120 693q57 193 246 236q40 10 79 10q111 0 205 -80q72 -60 103 -164v-6l-58 -25q-146 -60 -256 -108h-9q-241 103 -306 129q-4 2 -4 8z" />
<glyph unicode="t" horiz-adv-x="703" d="M0 937h310v-8v-896v-8q0 -16 17 -23q14 -6 25.5 2.5t11.5 24.5v900v8h8h238q9 0 13 2q9 3 14.5 11.5t3.5 17.5q-1 10 -9.5 16.5t-17.5 6.5h-244h-6v354q-61 -68 -182 -204t-182 -204zM122 993q13 14 81.5 90.5t106.5 116.5v-207h-188z" />
<glyph unicode="u" horiz-adv-x="889" d="M64 379q0 -37 6 -71q25 -130 131 -221q105 -87 240 -87h372h6v8v385v223v348v8q-1 14 -13.5 19.5t-25.5 -0.5q-13 -8 -13 -25v-523v-9l-703 588v-6v-637zM118 381v523v8l47 -43q25 -20 75.5 -62t76.5 -62q3 -3 124 -106q77 -65 124 -103q59 -48 122 -104q46 -39 76 -62 l4 -8q-3 -52 -22 -108q-73 -160 -240 -194q-37 -8 -72 -8q-110 0 -205 80q-84 73 -106 187q-4 19 -4 62zM635 54q84 51 132 130v-130h-132z" />
<glyph unicode="v" horiz-adv-x="1117" d="M68 1014q252 -507 505 -1010q20 34 23 44q87 165 171 333q94 181 143 275l147 285q7 11 4 23q-3 20 -23 23q-8 2 -15.5 -3t-10.5 -14q-29 -57 -46 -85q-87 -165 -139 -275q-3 -5 -18.5 -33.5t-22.5 -44.5q-4 -4 -4 -9q-238 165 -714 491zM213 848q180 -124 544 -372 q-28 -52 -58.5 -111.5t-67 -130.5t-56.5 -110q-182 362 -362 724z" />
<glyph unicode="w" horiz-adv-x="1613" d="M94 975.5q-4 -11.5 1 -21.5q1 -1 5 -8t6 -9q19 -38 71.5 -141t81.5 -159l140 -271q84 -162 168 -327q6 -9 21 -39l202 389q34 -65 102.5 -194.5t102.5 -194.5q2 2 2 4q15 29 79 151l107 211q2 3 143 277l99 193q11 20 31.5 59t30.5 59q5 10 1.5 21.5t-13.5 15.5 q-22 13 -37 -13l-9 -14q-16 -31 -65.5 -128t-76.5 -149l-118 -230q-130 -253 -153 -296q-3 -7 -10.5 -20.5t-10.5 -20.5q0 1 -1 2t-1 2q-68 124 -170 321q-3 5 0 8q23 43 67.5 131t67.5 132l143 273q0 2 2 4h-633q2 -2 2 -4l283 -534q3 -6 0 -14q-26 -48 -151 -290 q-5 -13 -16 -31q-14 28 -17 33q-28 52 -155 300q-45 90 -110 213q-92 177 -134 263q-13 22 -27 52q-6 9 -17 12.5t-20 -2.5q-10 -4 -14 -15.5zM561 939h451q-42 -82 -119.5 -229.5t-104.5 -200.5q-51 99 -227 430z" />
<glyph unicode="x" horiz-adv-x="1117" d="M49.5 36.5q0.5 -11.5 8.5 -19.5q8 -7 19 -7t18 7q27 27 77.5 74t63.5 60q20 18 54 51.5t45 43.5l161 153q32 29 63 60l475 -459v991q-310 -298 -475 -455q-3 0 -3 2q-75 69 -76 70q-52 55 -124 120q-14 13 -56.5 55.5t-67.5 64.5q-85 79 -135 133q-9 7 -20 7t-19 -7 q-19 -19 0 -42q41 -37 79 -76q123 -117 126 -120l124 -118q87 -88 105 -104q17 -17 25 -27q-25 -21 -39 -37l-93 -89q-80 -77 -166 -157l-105 -103q-10 -9 -28.5 -25.5t-27.5 -26.5q-9 -8 -8.5 -19.5zM598 496q258 246 383 367v-737q-317 307 -383 370z" />
<glyph unicode="y" horiz-adv-x="889" d="M58 381q0 -45 12 -91q32 -124 129 -203q99 -81 227 -87h15q81 0 155 31q69 29 130 93q10 10 50 64v-4v-136q0 -58 -6 -87q-29 -144 -133 -242q-61 -61 -147 -93q-72 -29 -157 -29q-11 0 -20 -8.5t-9 -18.5t9 -17.5t20 -7.5q39 0 79 6q56 7 142 46q87 46 151 118 q67 78 98 169q24 68 24 166v453v461v10q0 9 -11 16t-20 5q-20 -7 -20 -29v-569q0 -51 -6 -78q-26 -119 -116 -191q-92 -77 -207 -77q-30 0 -62 5q-125 25 -203 124q-72 86 -72 209v569v6q0 13 -9 20t-22 5q-21 -3 -21 -29v-579zM176 -430q0 -19 12.5 -32.5t30.5 -13.5 q17 0 30.5 13.5t13.5 32.5q0 18 -13 30.5t-31 12.5q-19 0 -31 -12t-12 -31z" />
<glyph unicode="z" d="M41 0h1043l-505 499q76 83 229.5 248t229.5 248h-8h-956h-4q-12 0 -19.5 -8t-7.5 -19q0 -13 8 -21t21 -8h832h8zM168 56q27 29 164 176t210 227q89 -91 408 -403h-782z" />
<glyph unicode="|" horiz-adv-x="206" d="M74 -176v-8q0 -11 11 -19.5t25 -7.5q20 11 20 33v1746v2q0 19 -16 25q-17 6 -28.5 -1.5t-11.5 -23.5v-875v-871z" />
<glyph unicode="&#xad;" d="M62 753q2 -11 10.5 -19t20.5 -8h432h63h8h289h143q10 0 19 6q14 12 8 31q-8 19 -27 19h-503h-262h-172q-13 0 -21 -8t-8 -21z" />
<glyph unicode="&#x2000;" horiz-adv-x="798" />
<glyph unicode="&#x2001;" horiz-adv-x="1597" />
<glyph unicode="&#x2002;" horiz-adv-x="798" />
<glyph unicode="&#x2003;" horiz-adv-x="1597" />
<glyph unicode="&#x2004;" horiz-adv-x="532" />
<glyph unicode="&#x2005;" horiz-adv-x="399" />
<glyph unicode="&#x2006;" horiz-adv-x="266" />
<glyph unicode="&#x2007;" horiz-adv-x="266" />
<glyph unicode="&#x2008;" horiz-adv-x="199" />
<glyph unicode="&#x2009;" horiz-adv-x="319" />
<glyph unicode="&#x200a;" horiz-adv-x="88" />
<glyph unicode="&#x2010;" d="M62 753q2 -11 10.5 -19t20.5 -8h432h63h8h289h143q10 0 19 6q14 12 8 31q-8 19 -27 19h-503h-262h-172q-13 0 -21 -8t-8 -21z" />
<glyph unicode="&#x2011;" d="M62 753q2 -11 10.5 -19t20.5 -8h432h63h8h289h143q10 0 19 6q14 12 8 31q-8 19 -27 19h-503h-262h-172q-13 0 -21 -8t-8 -21z" />
<glyph unicode="&#x2012;" d="M62 753q2 -11 10.5 -19t20.5 -8h432h63h8h289h143q10 0 19 6q14 12 8 31q-8 19 -27 19h-503h-262h-172q-13 0 -21 -8t-8 -21z" />
<glyph unicode="&#x2013;" horiz-adv-x="1165" d="M62 753q2 -11 11 -19t21 -8h445h64h9h297h147q11 0 20 6q14 12 8 31q-8 19 -28 19h-517h-270h-177q-14 0 -22 -8t-8 -21z" />
<glyph unicode="&#x2014;" horiz-adv-x="2189" d="M62 753q4 -11 21.5 -19t42.5 -8h889h130h16h595h295q20 0 39 6q29 12 16 31q-16 19 -55 19h-1036h-539h-354q-27 0 -43.5 -8t-16.5 -21z" />
<glyph unicode="&#x2018;" horiz-adv-x="579" d="M159 1278q1 -53 42 -86.5t95 -28.5q45 5 75.5 41.5t29.5 84.5q0 39 -23 70t-59 42q-5 2 -17 4t-17 4q0 1 3 2.5t4 3.5q4 8 20 34t21 40q9 9 8 19t-10 19q-18 16 -41 -7q-12 -24 -67 -105q-8 -11 -31 -50q-30 -38 -33 -87zM213 1291q3 27 25.5 45t49.5 15 q26 -1 44.5 -24.5t15.5 -50.5q-3 -26 -25 -43.5t-48 -14.5q-28 3 -46.5 25t-15.5 48z" />
<glyph unicode="&#x2019;" horiz-adv-x="579" d="M165 1361q0 -39 24.5 -69.5t60.5 -39.5q5 -2 16.5 -4.5t16.5 -4.5q0 -1 -2.5 -2.5t-3.5 -3.5q-5 -9 -14.5 -24t-15.5 -27t-9 -23q-10 -9 -8 -19t10 -19q18 -16 41 7q26 51 64 107q13 17 32 50q28 38 31 87q-3 53 -44.5 86t-94.5 27q-45 -5 -76 -42.5t-28 -85.5zM219 1376 q1 26 23 43.5t48 14.5q28 -2 47.5 -23.5t16.5 -47.5t-25 -44.5t-50 -17.5q-26 1 -44.5 24.5t-15.5 50.5z" />
<glyph unicode="&#x201c;" horiz-adv-x="930" d="M159 1278q1 -53 42 -86.5t95 -28.5q45 5 75.5 41.5t29.5 84.5q0 39 -23 70t-59 42q-5 2 -17 4t-17 4q0 1 3 2.5t4 3.5q4 8 20 34t21 40q9 9 8 19t-10 19q-18 16 -41 -7q-12 -24 -67 -105q-8 -11 -31 -50q-30 -38 -33 -87zM213 1291q3 27 25.5 45t49.5 15 q26 -1 44.5 -24.5t15.5 -50.5q-3 -26 -25 -43.5t-48 -14.5q-28 3 -46.5 25t-15.5 48zM455 1278q1 -53 42 -86.5t95 -28.5q45 5 75.5 41.5t29.5 84.5q0 39 -23.5 70t-59.5 42q-5 2 -16.5 4t-16.5 4q0 1 3 2.5t4 3.5q4 8 20 34t21 40q9 9 8 19t-10 19q-19 16 -42 -7 q-16 -31 -66 -105q-8 -11 -31 -50q-30 -38 -33 -87zM509 1291q3 27 25 45t49 15q26 -1 44.5 -24.5t15.5 -50.5q-3 -26 -24.5 -43.5t-47.5 -14.5q-28 3 -46.5 25t-15.5 48z" />
<glyph unicode="&#x201d;" horiz-adv-x="930" d="M165 1361q0 -39 24.5 -69.5t60.5 -39.5q5 -2 16.5 -4.5t16.5 -4.5q0 -1 -2.5 -2.5t-3.5 -3.5q-5 -9 -14.5 -24t-15.5 -27t-9 -23q-10 -9 -8 -19t10 -19q18 -16 41 7q26 51 64 107q13 17 32 50q28 38 31 87q-3 53 -44.5 86t-94.5 27q-45 -5 -76 -42.5t-28 -85.5zM219 1376 q1 26 23 43.5t48 14.5q28 -2 47.5 -23.5t16.5 -47.5t-25 -44.5t-50 -17.5q-26 1 -44.5 24.5t-15.5 50.5zM461 1367q0 -39 24.5 -69.5t60.5 -39.5q5 -2 16.5 -4.5t16.5 -4.5q0 -1 -2.5 -2.5t-3.5 -3.5q-5 -9 -14.5 -24t-15.5 -27t-9 -23q-10 -10 -8 -20t10 -17q19 -16 41 6 q18 36 64 107q8 11 31 50q28 38 31 87q-3 53 -44 86.5t-94 27.5q-45 -6 -76 -43.5t-28 -85.5zM515 1380q2 26 23 44.5t47 15.5q28 -3 47 -24t18 -47q-3 -27 -25.5 -46t-49.5 -16q-26 1 -44.5 24t-15.5 49z" />
<glyph unicode="&#x202f;" horiz-adv-x="319" />
<glyph unicode="&#x205f;" horiz-adv-x="399" />
<glyph unicode="&#x25fc;" horiz-adv-x="992" d="M0 0v993h993v-993h-993z" />
</font>
</defs>
</svg>
