<?xml version="1.0" standalone="no"?>
<!DOCTYPE svg PUBLIC "-//W3C//DTD SVG 1.1//EN" "http://www.w3.org/Graphics/SVG/1.1/DTD/svg11.dtd" >
<svg xmlns="http://www.w3.org/2000/svg" xmlns:xlink="http://www.w3.org/1999/xlink" version="1.1">
<metadata></metadata>
<defs>
<font id="wireframeregular" horiz-adv-x="1136" >
<font-face units-per-em="2048" ascent="1638" descent="-410" />
<missing-glyph horiz-adv-x="530" />
<glyph horiz-adv-x="0" />
<glyph unicode="&#xd;" horiz-adv-x="530" />
<glyph unicode=" "  horiz-adv-x="530" />
<glyph unicode="&#x09;" horiz-adv-x="530" />
<glyph unicode="&#xa0;" horiz-adv-x="530" />
<glyph unicode="!" horiz-adv-x="638" d="M29 1098l10 6l338 256h270l-59 -754l-6 -6l-113 -86h164v-258l-8 -6l-338 -256h-248v258l8 6l113 86h-74zM55 1079l54 -700l131 100l45 600h-230zM63 31l211 159v43h-211v-202zM78 1104h217l84 63l-12 158zM88 18h186v142zM88 258h195l92 72v112l-121 -92l-12 -6h-41z M133 369h60l40 30l3 47zM256 383l119 90v4l-119 -90v-4zM258 420l129 94h41l113 86h-105l-174 -133zM264 500l156 118l-39 521l-72 -54zM299 31l287 219h-195l-92 -72v-147zM299 209l76 59v31l-76 -59v-31zM391 1335l10 -149l197 149h-207zM399 274h211v203l-211 -160v-43z M399 348l187 141h-150l-37 -28v-113zM403 1157l41 -532h121l56 696z" />
<glyph unicode="&#x22;" horiz-adv-x="741" d="M25 649v436l8 7l336 256h4h170v-60l67 53l8 7h5h172v-439l-11 -4l-338 -256h-170v58l-69 -52l-10 -6h-172zM49 686l133 100v281h-133v-381zM74 672h108v84zM74 1092h116l170 129v90zM207 686l69 51v90l-69 -53v-88zM207 805l69 53v227l9 7l75 57v41l-153 -117v-268z M299 686l135 102v39l-135 -102v-39zM299 756l135 102v47h-57l-78 -59v-90zM299 877l61 47v143h-61v-190zM324 672h110v86zM324 1092h36v26zM385 930h49v137h-49v-137zM385 1092h55l78 57v90l-133 -102v-45zM385 1167l133 103v41l-133 -103v-41zM385 1239l109 84h-109v-84z M459 686l286 219h-118l-168 -129v-90zM459 807l151 117v266l-67 -53v-228l-8 -4l-76 -59v-39zM459 877l35 28h-35v-28zM459 930h59v188l-59 -45v-143zM543 1167l67 54v90l-67 -54v-90zM635 930h135v381l-135 -103v-278zM635 1239l110 84h-110v-84z" />
<glyph unicode="#" horiz-adv-x="1380" d="M-20 283l69 190h4l195 150h-156l66 180l8 8l287 221l26 74l6 4l340 258h197l-59 -166l215 166h200l-104 -299h203l-68 -190h-4l-195 -150h154l-68 -188h-6l-282 -217l-29 -82h-4l-340 -256h-197l60 166l-211 -162l-2 -4h-205l108 297h-208zM23 330l153 119h-110zM33 307 h168l235 180l19 54h-68l-115 -88l-2 -4h-53zM92 473h117l61 47l37 103h-18zM123 33l211 162l41 112h6l82 64l26 78h-65l-209 -160zM133 10h135l51 142zM135 670l154 116h-111zM145 647h136l108 82h39l133 102l17 48h-70l-115 -86l-2 -7h-61zM205 811h117l73 57l43 121z M287 496l59 45h-10l-45 -35zM301 33l213 162l16 47h-92l-84 -64zM305 547l17 12l30 82l-18 -14zM350 565h29l184 140h-127l-49 -37zM360 811h15l6 14zM371 221l53 41l6 21h-37zM410 834l57 45h-16l-35 -27zM418 565h45l18 47zM420 307h20l6 21zM430 895l6 4l43 123l-6 -6z M451 266h88l6 17h-88zM457 473h41l16 45zM463 903h37l118 92l19 49h-123zM465 307h94l82 64l53 147l-51 -41l-12 -28h-27l-121 -93zM469 729h121l20 57h-63v5zM471 514l33 27h-23zM481 33l211 160l41 114h4l84 64l27 78h-66l-120 -93l-41 -114h-5l-81 -64zM487 1059l9 4v6 h149l6 16h-153zM489 565h50l73 58h-102zM492 10h135l51 142zM498 397l65 52h-47zM524 473h72l27 21l47 129h-19l-100 -76zM524 647h119l127 98l33 86l-60 -45h-108l-29 -81h-4zM526 1110h138l84 66l53 145zM539 903h49l16 49zM549 221l26 21h-18zM565 266h39l23 62l-54 -39z M596 858l27 21h-19zM598 811h20l7 20zM612 903h64v-2l121 92l43 117h4l84 66l51 145l-211 -162l-37 -106l-4 -4l-4 -5l-84 -63zM645 811h88l49 141l-120 -94zM655 1022l29 22h-22zM657 520l56 39l4 6h106l31 82h4l76 58h-117l-129 -99zM659 33l275 209h-139l-82 -64z M672 1069h39l22 64l-55 -41zM678 397l119 92l18 52h-86zM682 647h20l76 58h-20zM729 221l51 41l8 21h-36zM766 834l51 38l10 31h29l121 92l16 49h-90l-86 -65zM778 307h21l6 23zM784 1202l185 141h-135zM791 729h20l98 78l27 72h-72l-26 -21zM809 266h154l10 31l-10 -8 l-2 -6h-146zM823 307h119l51 142h-30l-121 -93zM834 518l28 23h-20zM834 1022l55 41l8 22h-41zM836 473h22l6 23zM848 729h102l21 57h-47zM850 565h65l76 58h-121zM856 397l66 52h-48zM883 473h71l119 92h53l185 140h-133l-103 -78l-2 -4h-43l-129 -101zM883 1110h22l8 23z M897 647h125l47 35l39 104h-27zM897 903h47l19 49zM915 1069h86l9 16h-88zM930 1110h92l84 66l51 145l-209 -160zM946 834l58 45h-43zM956 811h23l10 25zM971 903h65l209 160l92 258l-211 -162l-39 -106l-2 -4l-4 -5l-84 -63zM977 330l12 10l43 121l-10 -8zM979 739l63 47 h-45zM993 473h15l39 31l6 14zM1006 811h67l121 92h47l182 141h-163l-236 -180zM1012 1022l28 22h-20zM1024 367l227 174h-116l-68 -52zM1028 1069h39l25 64l-56 -41zM1083 530l13 11h-11zM1106 711l18 14l31 82l-20 -14zM1114 811h6l49 39l2 6zM1141 1202l184 141h-133z M1153 729h16l195 150h-115l-59 -45zM1167 565h111l43 117zM1280 903h113l43 119z" />
<glyph unicode="$" horiz-adv-x="3028" d="M10 735v92l6 13q-6 10 -6 30q0 12 4 38t4 38l-2 8l-4 4q4 43 4 103q0 57 -4 131q14 27 60 27q14 0 26 -9q49 10 56 11l16 -9q10 8 31 9q10 0 20 -11q0 -8 3 -22t3 -21l-8 -28q8 -12 8 -60v-87v-46q-2 -12 -2 -4l-6 -8v-8l6 -8v-7q2 -8 -4 -18l6 -19q23 0 39 -2q8 4 23 5 l6 -5q12 4 20 5q6 0 9 -3l12 7q31 -6 31 -56q0 -4 -9 -18l4 -14l-2 -11q7 -10 7 -30q0 -10 -2 -39q-8 -8 -33 -11l-43 -2l-6 7q-35 -4 -52 -5l-8 5q-43 -8 -37 -9q-68 0 -104 9q-10 -8 -43 -9l-12 4l-13 19q-2 4 -4 14zM37 874q0 -123 4 -139l8 -6q25 4 35 6q14 -6 35 -6 q43 0 53 6l16 -6q27 6 41 8l9 -6q31 2 47 4l6 -4q23 8 26 8q6 0 17 -2l6 4q0 8 -4 24.5t-4 25.5q0 6 3 18t3 18l-2 13l-4 4h-21l-4 -4q-16 0 -28 8q-45 -4 -72 2l-2 -6l-10 -2l-5 4l5 33q2 18 0 32l-5 7l-2 12q0 14 6.5 42.5t6.5 43.5q-4 10 -8 18q2 12 2 21l-5 4 q0 8 5.5 20.5t5.5 20.5q0 16 -13 28q0 4 4.5 15.5t4.5 15.5v25l-4 6q-10 0 -33 2t-33 2q-4 0 -11 -4t-10 -4q-4 0 -28 4q-14 2 -29 0l-6 -10v-47l8 -11v-10q0 -23 -5 -68t-5 -67l6 -21q0 -14 -5 -40.5t-5 -41.5zM424 956q10 12 10 31q0 61 25 103l10 2q2 18 24.5 39.5 t41.5 25.5q2 25 69 47q59 20 92 21q90 0 117 -27q53 -10 88 -51l6 -2q6 -8 19 -17l6 -20l16 -10q29 -55 31 -74l-4 -4q0 -10 6 -34t6 -36q0 -51 -20 -67q2 -29 -14.5 -58.5t-43.5 -36.5q-6 -18 -40.5 -43.5t-53.5 -25.5l-8 2q-29 -25 -92 -25q-45 0 -62 11l-2 -2 q-31 0 -92 24l-8 14q-25 6 -49 29q-4 6 -37 45l2 12q-12 18 -31 56l2 10q-12 41 -14 61zM455 942q0 -53 33.5 -103.5t82.5 -72.5q16 -39 160 -39q37 0 150 61q2 8 30.5 37t28.5 62v4q8 12 16 22q0 8 3.5 26t3.5 26q0 53 -35 114l-13 6q-61 111 -215 111q-49 0 -129 -35 q-12 -31 -43 -37q-12 -18 -30 -30q-2 -23 -22.5 -73t-20.5 -79zM612 963q0 6 4.5 16t4.5 16q0 14 -5 21q2 20 24 40.5t42 22.5l4 6q8 4 16 5q10 0 30 -12.5t22 -22.5l16 -6q12 -18 21 -27q0 -64 6 -84q-27 -66 -33 -74q-23 -31 -74 -30q-29 16 -43 22q-18 23 -24 27 q0 14 -5.5 39.5t-5.5 40.5zM639 958q0 -4 4 -14q6 -31 6 -47q8 -10 19 -27q4 0 13 -4t15 -4q-14 0 19 4q14 12 35 58q14 32 14 20q0 2 -2 6v54q-4 16 -27.5 34.5t-40.5 18.5l-4 -2q-20 -10 -28 -13q-4 -18 -17 -22q-4 14 -4 -47q0 -4 2 -6zM762 1614q0 86 41 153 q47 80 129 80q88 0 117 -118l24 -187q14 -10 49 -16q47 354 119 354l14 -10q-25 -55 -61 -172q-14 -72 -14 -123q0 -41 4 -59l28 4l11 -13l-11 -18l-22 -10q14 -47 41 -140q-8 -16 -34 -38.5t-42 -22.5q-43 0 -43 203q-16 4 -43 10q-35 -217 -104 -217q-59 0 -60 29l4 10 q43 109 76 196q-82 51 -82 78q0 29 31 37q12 -4 55 -41l2 59q2 49 -16 97q-23 59 -66 59q-53 0 -84 -61q-25 -49 -24 -109q0 -31 16 -65q18 -41 45 -41q6 0 18.5 5t18.5 5q18 0 19 -31q0 -39 -50 -39q-106 0 -106 152zM795 408q0 49 28.5 84.5t75.5 35.5q12 0 25 -2 q-4 66 -4 92q0 123 47 123q33 0 32 -24q0 -53 -2 -156.5t-2 -157.5q0 -70 17 -69l22 20l6 2l7 -6q0 -20 -17.5 -41.5t-38.5 -21.5q-12 0 -43 20q-45 -23 -69 -22q-84 0 -84 123zM862 420q0 -100 49 -101q17 1 17 15l-2 153q0 18 -15 19q-49 0 -49 -86zM1047 1108q0 61 2 76 q10 37 51 37l35 -9l12 9h14q31 0 43 -9q16 6 27 11q37 0 37 -41q0 -16 -6 -29q4 -45 4 -66l22 -4q6 0 27 4q6 76 6 62q0 8 -4 18q6 35 10 41q10 16 39 17l10 -6q14 4 31 4q18 0 37 -4l10 4l16 -4q10 4 21 4q16 0 33 -9q8 -12 8 -26q0 -12 -4 -37t-4 -37l6 -8q2 -98 -8 -123 q10 -27 10 -49q0 -104 -12 -119q12 -35 12 -78q0 -31 -47 -35q-4 -2 -76 -2q-12 0 -27 9l-16 -7q-49 2 -59 41v86q0 35 2 62l-13 10q-8 0 -30 -6q-6 -29 -6 -43q0 -6 3 -17.5t3 -17.5q0 -27 -6 -39q6 -37 8 -45q0 -35 -29 -35q-12 0 -27 4q-12 -6 -30 -6q-6 0 -31 11 q-23 -10 -53 -11q-16 0 -33 4q-14 27 -14 37q0 23 5 66t5 65q0 31 -2 93.5t-2 93.5q0 8 -5 26.5t-5 26.5zM1049 403q0 53 32.5 91t83.5 38q86 0 86 -98q0 -57 -41 -57q-43 0 -80 47q0 -102 60 -102q39 0 88 71q8 0 8 -16q0 -37 -44 -65.5t-83 -28.5q-111 0 -110 120z M1075 1178q0 -25 8 -37l-6 -37l2 -4q2 -127 11 -142q-6 -23 -5 -43q4 -35 7 -45q0 -23 -5.5 -64.5t-5.5 -64.5l6 -14l15 -2h119l14 4l2 14q0 8 -2 21.5t-2 21.5q8 14 8 23q0 8 -4 26.5t-4 26.5q0 -6 10 56q43 10 66 12l14 -8l12 2l4 -11q4 -33 -4 -94q4 -53 2 -80l6 -8l39 6 q12 -6 25 -6q8 0 22.5 2t22.5 2l6 -4q20 4 39 0l10 4q-12 45 -12 86q0 8 6 26.5t6 26.5q0 18 -6 56.5t-6 56.5q0 4 5 13.5t5 11.5q0 10 -4 28.5t-4 26.5l6 10q0 55 2 84l-2 31l-20 2l-8 -4q-25 2 -37 0l-8 6q-23 2 -60 -6l-10 6l-10 -4q-8 -66 -9 -117l5 -14q-8 0 -24.5 -3 t-25.5 -3q-8 0 -34 6q-4 -6 -15 -10l-6 8q4 72 -8 88q4 29 8 43l-6 4l-23 -12l-12 2l-10 10h-45l-62 -2l-6 -4zM1130 432q4 10 17 10q6 0 16.5 -9t16.5 -9q14 0 14 41t-29 41t-35 -74zM1239 1395q0 47 29.5 92t74.5 45q94 0 95 -31v-125q0 -29 6 -28q6 0 24 38l9 -4 q2 -6 4 -8q0 -29 -20.5 -58.5t-47.5 -29.5q-31 0 -37 23q-18 -25 -51 -25q-86 0 -86 111zM1288 336q0 33 37 33q-4 -14 -4 -27q0 -31 27 -31t26 43q0 55 -35 56q-6 -8 -22 -25q-12 4 -12 14q12 27 30 62q4 10 11 51q4 27 16 27h8q2 -16 10 -43l37 -58q16 -35 10 -65l19 30 q10 0 10 -8q0 -39 -32.5 -76.5t-71.5 -37.5q-23 0 -43.5 16t-20.5 39zM1311 1397q0 -76 35 -76q26 0 26 14v148q0 27 -12 26q-49 0 -49 -112zM1460 455q0 72 56 71q27 0 26 -57q0 -14 -3 -44t-3 -44q0 -39 10 -39q16 0 29 25q8 12 14 26q6 0 6 -10q0 -33 -23.5 -63.5 t-55.5 -30.5q-51 0 -52 102q0 10 -2 31.5t-2 32.5zM1470 582q0 51 39 51q27 0 27 -37q0 -51 -39 -51q-27 0 -27 37zM1483 1481q0 53 47 53q29 0 22 -64q31 63 58 64q32 0 32 -43q0 -18 -11 -43t-27 -25q-10 0 -25 35q-16 -23 -23 -104q-4 -61 -38 -62q-29 0 -31 49 q2 -35 2 70q0 12 -3 34.5t-3 35.5zM1591 1184q6 12 15 26q6 8 32 9q20 0 39 -7q16 8 43 9l21 -9l20 9q18 0 33 -21h6q23 -29 23 -43v-2l14 -6q18 -31 23 -43q16 -2 30 -21l4 5q-4 23 -4 38q0 14 4 25l-8 10q0 43 6 52.5t45 9.5q35 0 50 -8q8 4 18 6l8 -4q12 8 41 8 q8 0 21 -15q2 -37 2 -41l-2 -43l-4 -4q4 -10 6 -16q0 -37 -11 -78l7 -12q-2 -96 -9 -121l9 -43l-9 -59q8 -43 9 -68q-14 -23 -52 -22q-10 0 -22 6q-37 -8 -55 -9q-10 0 -29 25t-23 39q-35 20 -47 53q-18 14 -45 43q-8 -49 -8 -74l10 -24q-10 -39 -8 -57q-18 -6 -31 -7 q-6 0 -12 2q-6 -4 -12 -4q-8 0 -19 9l-18 -9h-72q-33 4 -33 50q0 20 9 40q-8 18 -9 41q0 27 11 60l-11 20q0 66 9 80l-7 12q6 16 7 82q0 29 -4 45l2 5l2 20q-12 8 -15 31zM1602 395q0 135 102 135q8 0 33 -12q31 10 53 10q18 0 18 -71v-23q-2 -20 -2 -33v-57q27 37 27 68 q16 -5 16 -19t-24 -71l-47 -109q-39 -70 -90 -70q-27 0 -48.5 22.5t-21.5 49.5q0 47 24 47q6 -4 11 -6l8 -47q6 -35 37 -35q41 0 41 100q0 8 -2 21v20q-27 -29 -54 -28q-82 0 -81 108zM1626 1176q10 -10 10 -103q-2 -16 -4 -43t4 -43l-6 -16q0 -14 4 -43t4 -43 q0 -16 -6 -58.5t-4 -64.5v-21l6 -8q14 -2 29 -2q-14 0 2 2h47h51q4 18 6 33l-8 16q2 10 6 23q-4 23 7 72l-11 4q4 14 13 24h6l14 -12q18 0 73.5 -56.5t57.5 -76.5q23 -20 29 -25q-10 0 4 2h35h39l6 8v9q0 6 -4 55l8 20q0 45 -8 64q12 47 12 213q0 -4 -6 24l8 25l-2 39l-10 2 l-21 -8q-23 8 -90 8q-6 -2 -8 -4v-21q6 -10 6 -38q0 -39 -8 -70q8 -16 8 -25l-2 -4l-2 -2l-14 2l-11 8l-2 9q-29 8 -57 41q-6 6 -43 55q4 37 -31 41q-12 -6 -24 -6q-12 12 -25 10h-10q-6 -10 -21 -10q-8 0 -23 4t-22 4l-12 -6v-8zM1649 1411q0 123 104 123q88 0 98 -107 q16 10 25 11q8 0 14 -4q0 -23 -41 -52q-20 -96 -108 -96q-45 0 -68.5 39t-23.5 86zM1669 395q0 -74 35 -73q29 -1 29 36v97q-4 43 -27 43q-37 0 -37 -103zM1724 1413q0 -100 33 -100q25 -1 25 73q0 125 -35 125q-23 0 -23 -98zM1858 414v35q0 84 40 83q33 0 33 -22 q0 -4 -2 -13.5t-2 -13.5q0 -6 2 -12q31 68 64 68q57 0 57 -78q0 -14 -2 -44t-2 -44q0 -20 10 -21l6 4q6 4 15 11q6 -9 8 -17q-27 -66 -76 -65q-31 0 -33 67q0 27 2 88q2 33 -14 37q-8 -10 -29 -110q-16 -78 -49 -78q-10 0 -16 4q-12 8 -12 121zM1898 1483q0 223 15 264 q8 23 43 22q12 0 22 -6q4 -10 4 -18q0 -59 -6 -175t-6 -175q0 -57 21 -58q12 0 20 27q6 -8 6 -18q0 -20 -19.5 -41t-39.5 -21q-59 0 -60 199zM2030 1411q0 49 28.5 85t75.5 36q12 0 25 -2q-4 66 -5 92q0 123 46 123q35 0 34 -25q0 -53 -3 -156.5t-3 -156.5q0 -70 19 -70 q-4 0 22 21l6 2l4 -6q0 -20 -16 -42t-37 -22q-12 0 -43 21q-45 -23 -69 -23q-84 0 -84 123zM2087 336q0 33 37 33q-4 -14 -4 -27q0 -31 26 -31q25 0 25 43q0 55 -33 56q-6 -8 -22 -25q-14 4 -15 14q47 88 47 131q0 8 13 9h8q2 -16 10 -43q55 -86 47 -123l19 30q10 0 10 -8 q0 -39 -33 -76.5t-72 -37.5q-25 0 -44 16t-19 39zM2095 1423q0 -100 51 -100q17 0 17 14l-2 154q-2 18 -15 18q-51 0 -51 -86zM2132 745q0 20 8 35q-6 18 -6 37q0 23 10 43q-6 12 -6 101q0 92 8 106q-6 23 -6 39q0 20 8 33q-6 10 -6 35q0 16 2 36q18 12 29 13q16 0 33 -13 l14 9q137 -8 170 -9q8 0 22.5 5.5t22.5 5.5q33 0 33 -23q0 -14 -8 -22q6 -12 6 -25q0 -12 -6 -27q6 -16 6 -26q0 -31 -66 -31q-86 0 -37 2q-23 0 -28 -18l4 -11l26 -6q10 0 35 4t39 2h4l15 -10q2 -10 2 -26l-9 -13q8 -20 9 -35q0 -37 -68 -36l-27 4q-14 2 -24 -4v-15l-8 -10 l10 -25h86q47 1 47 -28q0 -16 -8 -29q6 -14 6 -27q0 -12 -8 -22q4 -14 4 -27q0 -37 -49 -32l-6 4q-39 -6 -70 -7q-127 0 -182 -4l-15 9q-16 47 -16 38zM2161 748q4 -10 8 -19q8 0 21.5 3t21.5 3q188 0 223 -6l8 4q-2 23 -4 33l8 12v19q-8 6 -8 16q0 6 4 14.5t4 12.5 q-12 4 -64 3t-71 15l2 10q-8 14 -8 27v6q12 12 12 31l-4 12l8 6q8 -2 25 0q16 2 25 2q8 -2 16 -6q12 6 25 6l8 -4l10 4q0 6 -3 20.5t-3 20.5l4 13l-4 6q-4 0 -15 2h-16q-4 0 -13 -3t-16 -3q-4 0 -21 4t-24 2h-10l-4 6l6 16q-6 8 -6 19q0 4 6 12l-2 16l10 9q-8 0 2 2l115 6 l2 10q0 8 -4 16q6 12 6 29q-2 6 -8 23l4 8l-4 4q-8 0 -23.5 -4t-23.5 -4q-6 0 -18.5 4t-18.5 4q-12 0 -38.5 -3t-39.5 -3l-14 6q-10 2 -16 2q-4 0 -13.5 -4t-13.5 -4h-14l-15 8h-8l-6 -10q0 -8 4 -23.5t4 -21.5q0 -8 -5 -22.5t-5 -22.5q0 -4 4 -13.5t4 -13.5q0 -23 -5 -65 t-5 -64q0 -18 4 -31l-4 -16q0 -10 6 -31l-6 -35q0 -8 2 -23.5t2 -23.5q-10 -20 -10 -28zM2533 856q0 14 11 37q-4 16 -4 43q0 33 6 84l-9 14q8 57 11 84q-12 8 -13 37q0 63 35 64q10 -4 19 -9q12 10 24 11q68 0 82 -9q16 10 80 9l6 -7q8 0 24.5 3.5t24.5 3.5q49 0 66 -25 q20 4 57 -27l2 -14q49 -47 49 -68l-2 -14q14 -20 15 -45q0 -53 -21 -65q6 -47 -37 -66l-4 -8l-30 -8q14 -10 32 -15q16 16 27 17q12 0 29 -6l6 -13q0 -35 -6 -49q4 -12 4 -22q0 -20 -15 -33l15 -31q0 -33 -72 -33q-18 0 -31 11q-20 -10 -26 -11q-33 0 -131 82h-7l-4 -22 q2 -8 4 -25q4 -33 -28 -33q-27 0 -41 9q-12 -6 -29 -7q-16 0 -33 7q-18 -6 -41 -7q-14 0 -28 7l-13 18v8q0 14 5 92zM2562 858q0 -8 5 -24.5t5 -24.5q0 -12 -3 -34.5t-3 -35.5q0 -14 19 -14q12 0 30 14h11q12 -12 30 -12q6 0 15.5 4t15.5 4q2 0 10 -4t10 -4h15l4 6l2 8 q-8 16 -4 31q8 20 8 29v8l8 8l2 8l4 2l4 -4l-2 -16q10 2 43 -22.5t41 -26.5q12 -27 60 -33q12 8 24 8q6 0 19.5 -6t21.5 -6q12 0 27 6l2 6l-12 23l18 84v10l-6 2q-12 -10 -23 -16q-53 18 -79 30l-7 6v11q20 14 31 22q49 2 64 43q-2 8 -2 15q0 8 18 30q2 33 2 49l-16 17 l-2 12q0 8 6 19q-10 27 -39 45q-6 20 -23 28q-8 2 -37 6q-16 25 -112 25q-10 0 -30.5 -5t-31.5 -5q-12 0 -35.5 4t-35.5 4q-8 0 -24.5 -5t-24.5 -5l-11 2l-10 -10v-7q0 10 16 -55q-14 -20 -14 -45q0 -37 12 -45q0 -8 -7 -24.5t-7 -20.5l10 -92q-12 -14 -12 -27zM2720 995 q0 6 4 20.5t4 20.5v2q-8 10 -8 25q0 6 8 14l-4 6l4 7h6l6 -5q14 14 35 15q37 0 39 -21q16 -6 16 -22q0 -4 -2 -6l4 -7q0 -8 3.5 -23.5t3.5 -21.5q-6 -25 -13 -63q-31 -47 -57 -47q-6 4 -10 6q-14 -8 -25 -10l-8 2l-2 8l6 12q-2 18 -2 23q0 2 2 8v12q0 6 -5 21.5t-5 23.5z M2746 985q0 -4 13 -59l8 -6q35 6 35 41v16q0 2 4 9t4 11q-6 6 -6 21q0 55 -29 55l-25 -10l-2 -8l7 -6v-7q0 -10 -4.5 -29.5t-4.5 -27.5z" />
<glyph unicode="%" horiz-adv-x="1226" d="M4 831q0 209 107 273v2l333 256l2 -2q43 25 99 24q180 0 205 -225l282 219h156l-373 -680l105 80q16 14 49 39q37 18 90 19q207 0 207 -297q0 -197 -78 -250l2 -2l-336 -256l-2 2q-49 -47 -127 -47q-182 0 -205 231l-287 -223h-155l368 672l-98 -76q-74 -55 -137 -55 q-207 0 -207 296zM29 831q0 -272 182 -272q59 0 100 31l-2 2q66 45 80 168l-162 -125l-2 2q-6 -2 -14 -2q-57 0 -57 170q0 209 47 221l82 64q-33 14 -74 14q-180 0 -180 -273zM133 18h86l62 113zM135 51l174 133l357 647q-10 -6 -27 -18l-145 -111zM176 1126q18 2 33 2 q53 0 96 -22l37 29q4 84 31 141zM178 793q2 -133 33 -134q33 0 33 129v95q0 121 -33 121t-33 -199v-12zM233 1020q35 -18 35 -131v-107q0 -55 -10 -92l133 103q2 20 2 38v35q-45 66 -53 178q-14 18 -33 33zM264 51l254 195v6h-82l-108 -84zM328 1092q4 -2 12 -11v21z M358 221l66 51l485 881l-67 -51zM365 1053q45 -63 51 -179q16 -20 39 -34l73 57q-39 25 -39 164q0 123 9 162l-133 -103v-30v-37zM367 1153l149 115q23 18 31 18q55 0 55 -139v-100q0 -135 -41 -152l2 -2l-84 -66q20 -8 51 -10l166 305h4l27 19q-18 221 -182 221 q-156 0 -178 -209zM387 651l88 68l41 76q-31 4 -59 16l-41 -31q-6 -76 -29 -129zM418 811l16 14q-10 6 -16 13v-27zM453 276h65l-2 7q0 69 16 137zM514 1049q2 -133 33 -134q33 0 33 132v94q0 117 -33 121l-15 -13q-18 -31 -18 -188v-12zM524 756l49 39q-23 -4 -30 -2z M541 276h14l152 277q-172 -12 -166 -270v-7zM543 233q16 -223 182 -223q149 1 176 189q-147 -113 -176 -113q-57 0 -57 156q0 203 34 229l93 70q-27 10 -60 12l-166 -301h-4zM557 817q55 2 88 31v-2q88 68 84 244v8h-18zM596 532q18 16 39 27v2l131 101l362 659l-172 -131z M692 242q0 -131 33 -131t33 206v7q0 131 -33 131t-33 -213zM696 578q12 2 25 2l16 28zM741 971l70 127h-57v-8q0 -59 -13 -119zM745 473q37 -25 37 -149v-84q0 -72 -14 -111l137 104q2 25 2 50q0 16 -2 34q-45 63 -51 179q-16 20 -37 32zM748 578q37 -4 67 -21l39 31 q6 78 29 133l-99 -76zM752 1122h75l111 84l63 115l-249 -191v-8zM838 545q10 -8 14 -13q0 7 2 23zM877 539q0 -16 2 -35q43 -63 51 -178q18 -25 45 -39l76 59q-47 12 -47 154q0 137 8 178l-133 -103q-2 -20 -2 -36zM881 608q168 127 180 127q57 0 57 -153l-2 -86 q0 -125 -35 -156l-82 -64q29 -10 60 -10q182 1 182 273t-182 272q-156 0 -178 -203zM895 92l199 152q-18 -2 -35 -2q-43 0 -82 16l-49 -39q-8 -74 -33 -127zM930 252l22 18q-8 6 -22 19v-37zM985 1241l145 113h-83zM1028 500q0 -133 33 -133t33 208v7q0 129 -33 129 t-33 -211z" />
<glyph unicode="&#x26;" horiz-adv-x="1210" d="M20 276q0 162 199 334q-86 156 -86 256q0 86 35 142q29 47 104 104l260 197q109 82 228 82q109 0 187.5 -63.5t78.5 -172.5q0 -152 -197 -309l37 -58q53 43 121 86l184 -38q-39 -188 -114 -301q49 -57 133 -54q-2 -74 0 -219q-2 -2 -8 -6l-328 -250q-2 -2 -8 -6h-33 q-137 0 -235 98q-125 -117 -265 -116q-125 0 -209 84t-84 210zM45 276q0 -117 76 -193.5t192 -76.5q137 0 267 127v-2l143 111l-6 4q-33 -6 -68 -6q-70 0 -131 28q-33 -27 -65 -53q-41 -29 -76 -29q-55 0 -89 41t-34 97q0 113 102 180l-2 8q-4 119 78 229 q-125 -96 -250 -194q-137 -129 -137 -271zM158 866q0 -94 80 -239l149 112q-47 84 -47 142q0 70 55 98l-14 -10l98 75q-8 31 -8 62q-25 4 -47 4q-113 0 -189.5 -66.5t-76.5 -177.5zM276 324q0 -45 28 -80t73 -35q32 0 67 33q-16 20 -125 194q-43 -57 -43 -112zM324 1118 q49 14 100 15q20 0 45 -3q2 70 37 127zM334 457q41 -68 129 -201l31 25q-111 66 -136 196zM365 881q0 -49 41 -125q63 80 63 129q0 66 -49 65q-55 0 -55 -69zM379 522q139 106 188 160q99 106 99 217q0 4 -2 21q-152 -117 -195 -166q-90 -102 -90 -232zM381 494 q20 -135 135 -197l191 145q-31 2 -58 19q-29 -20 -59 -53q-18 20 -64 84q-49 72 -53 83q2 -4 8 -10zM426 973q68 -6 68 -88q0 -37 -27 -84l88 67q-49 86 -68 152zM494 1126q35 -8 63 -22l160 121q6 6 37 6q76 0 75 -90q0 -63 -79 -158q-4 -2 -64 -47q4 -20 4 -37 q0 -92 -67 -182l184 141q194 150 194 297q0 98 -71.5 154.5t-169.5 56.5q-113 0 -188.5 -65.5t-77.5 -174.5zM496 1100q0 -20 4 -39l35 26q-18 8 -39 13zM500 580q27 -43 86 -129q14 24 24 51q-23 35 -22 80q0 39 20 82zM508 1034q18 -66 67 -153l84 65q-18 84 -100 129z M541 285q51 -20 108 -21q6 0 45 8q45 56 88 197q-49 -37 -241 -184zM582 1092q76 -47 98 -129l43 32q-47 84 -47 144q0 12 4 28zM596 115q94 -94 217 -90h16v174q-39 2 -86 28zM612 582q0 -25 9 -47q4 14 18 81q4 0 43 31l-27 45q-43 -57 -43 -110zM639 504q2 -4 10 -12 l88 65l-12 21l-66 14q-8 -49 -20 -88zM666 721q12 -18 36 -59l144 110q-12 23 -35 59zM672 477q18 -10 39 -10q28 0 69 33q-14 16 -28 37zM678 612l29 -6l-13 21zM700 1139q0 -51 41 -125q64 78 64 127q0 66 -51 65q-53 0 -54 -67zM715 641l24 -41l41 -8l127 96 q-25 27 -47 64zM725 272q94 25 188 117q35 -37 68 -57l174 131q-68 -2 -115 53l-315 -242v-2zM750 326l282 217q6 6 17 24q57 93 88 230l-306 -234q-29 -141 -81 -237zM766 244q23 -10 74 -23l121 94q-25 16 -48 39q-49 -37 -147 -110zM770 553q12 -18 27 -37q6 22 10 45 l-21 4zM811 584h8l309 235l-133 29q-16 -102 -69 -182l-4 2zM854 37l289 219q-86 2 -160 45l-129 -100v-164zM879 768q23 -35 43 -61q33 55 45 129zM1004 317q72 -39 145 -36h16v159z" />
<glyph unicode="'" horiz-adv-x="505" d="M25 659v437l8 6l340 256h170v-443h-8l-340 -256h-170zM49 696l133 101v280h-133v-381zM74 684h108v84zM74 1102h116l170 129v90zM207 696l287 219h-117l-170 -129v-90zM207 817l153 117v266l-153 -117v-266zM385 940h133v381l-133 -102v-279zM385 1249l109 84h-109v-84z " />
<glyph unicode="(" horiz-adv-x="688" d="M14 469q0 319 174 657l5 9l4 -2l331 258l177 -33l-7 -15q-145 -313 -145 -616q0 -311 149 -623l7 -14l-13 -2l-338 -258l-161 -31l-4 8q-178 344 -179 662zM39 469q0 -305 170 -637l102 80q-117 279 -116 559q0 301 141 612l-131 23q-166 -328 -166 -637zM217 471 q0 -272 115 -545l192 148q-174 340 -174 653q0 195 66 397l-54 -41q-145 -311 -145 -612zM227 1126l121 -22l82 63q31 84 72 168zM252 -166l86 16q-4 12 -16 39zM342 -96q10 -25 18 -43l283 217l-98 -19zM375 727q0 -309 172 -643l127 25q-145 309 -146 618q0 287 129 584 l-206 -158q-76 -219 -76 -426zM467 1194l192 147l-118 23q-43 -86 -74 -170z" />
<glyph unicode=")" horiz-adv-x="694" d="M16 -168l7 14q145 313 145 617q0 158 -37 311q-18 74 -55 174q-29 74 -58 150h2q23 18 74 57q92 72 256 197l6 6l6 2l162 31l4 -9q179 -344 179 -661q0 -319 -172 -655l-5 -9h-4l-331 -258zM47 1083q145 -311 146 -620q0 -283 -125 -572l206 156q72 213 72 418 q0 307 -170 641zM55 -150l125 -22q45 88 78 178zM78 1112l98 21l205 153q-12 27 -21 43zM197 1116q174 -340 174 -651q0 -193 -62 -391l56 43q139 307 139 604q0 270 -115 543zM221 -145l273 208l-129 25l-70 -55q-31 -88 -74 -178zM383 1339q6 -12 16 -36l70 53zM387 109 l129 -25q166 328 166 637q0 305 -168 637l-104 -78q119 -281 118 -559q0 -303 -141 -612z" />
<glyph unicode="*" horiz-adv-x="913" d="M0 887l92 67l-45 43l510 389l31 -59l86 64l8 8l6 -4l191 -80l-93 -146l166 50l27 -213l-10 -5l-86 -65l47 -47q-170 -129 -510 -389l-31 61l-94 -72l-6 3l-189 79l90 146l-163 -47zM27 860l18 -147l313 239l-2 17l-57 -39l-98 -76zM41 885l129 -6l-61 59zM84 713l129 37 l205 155l28 45l-79 -22zM84 995l27 -26l120 92l-18 33zM129 952l72 -67l86 67l-45 86zM141 580l144 -60l41 170l16 15l137 106l-24 8zM164 629l280 213l33 53l-53 -14l-197 -152zM233 1108l17 -33l182 131l-31 31zM262 1053l39 -74l31 127zM313 532l64 50l-35 69zM328 981 l24 20l-6 60zM352 682l45 -84l111 84l-70 68zM365 1108l10 -90l71 55zM379 985l4 -27l82 23l43 66l-31 12zM387 1141l119 -4l-57 53zM408 575l20 -38l129 98l-31 31zM408 1116l61 -26l29 22zM420 1251l31 -30l118 90l-20 39zM469 1204l66 -63h2l2 -2l86 65l-45 86zM471 752 l55 -54l64 47zM471 840l29 -13l98 76l-2 27l-84 -25zM473 776l96 -4l-65 27zM473 948l23 17l-15 -4zM483 924l15 4l6 12zM498 1077l24 -12l314 242l-144 61l-39 -170l-16 -16zM502 991l51 17l197 149l63 100l-278 -213zM526 815l88 -37l-12 96zM532 938l68 20l281 216 l-117 -35l-205 -158zM545 680l33 -31l165 129l-18 37zM600 1305l37 -70l27 119zM618 942l3 -22l135 102l20 12l174 -8l-18 154zM625 891l8 -62l20 84zM647 786l66 50l-37 73zM688 940l45 -88l113 86l-72 68zM745 829l19 -34l129 96l-31 29zM807 1008l57 -56l66 52z" />
<glyph unicode="+" horiz-adv-x="1144" d="M-20 371v200l10 11l325 247v46v49l9 6l335 256h205v-348h340v-205l-8 -4l-328 -252v-88l-10 -10l-340 -256h-201v348h-337zM4 408l193 149h-193v-149zM27 395h299l211 162h-31v72h-164v-72h-104zM29 582h200l86 65v152zM268 582h49v36zM342 59l164 125v207l8 4l139 109 v53h-78l-233 -180v-318zM342 653h164v160h-164v-160zM342 838h164v67h-164v-67zM367 47h139v107zM367 930h147l139 106v113zM530 59l287 220h-147l-140 -107v-113zM530 203l123 94v74h-123v-168zM530 594l45 35h-45v-35zM530 653h78l234 178v318l-164 -125v-211h-148v-160z M530 838h123v168l-123 -95v-73zM553 395h100v78zM553 582h14l64 47h-15zM608 582h45v34zM647 653h31v-71h78l86 65l6 6h98l209 160h-297zM678 303h164v68h-164v-68zM678 395h164v162h-78l-86 -65v-97zM678 522l45 35h-45v-35zM678 1055l139 106h-139v-106zM795 582h47v34z M864 590l51 39h-51v-39zM868 408l287 221h-201l-86 -66v-155zM987 653h193v148z" />
<glyph unicode="," horiz-adv-x="606" d="M16 -246l93 240h-76v258l346 264h248v-242l-148 -262l-338 -258h-125zM57 31l209 159v43h-209v-202zM61 -197l146 111l59 111v73l-131 -100zM70 -221h63l45 82zM80 18h41l145 111v31zM80 258h196l93 72v149zM178 -188l262 200h-65l-150 -114zM254 -49l106 80l19 51 l-90 -70zM291 45l104 80l39 102l-143 -110v-72zM291 147l133 103h-39l-94 -72v-31zM291 209l78 59v31l-78 -59v-31zM387 35h82l106 198l-159 -122zM393 274h86l-47 -120l170 129v194l-209 -160v-43zM393 348l187 144h-187v-144z" />
<glyph unicode="-" horiz-adv-x="686" d="M0 297v209l344 264h342v-209l-348 -264h-338zM25 334l200 155h-200v-155zM47 322h279v167h-60zM47 512h211l78 59v162zM297 512h37l55 43h-37zM350 334l289 221h-211l-78 -59v-162zM360 578h60l219 167h-279v-167zM461 578h201v155z" />
<glyph unicode="." horiz-adv-x="595" d="M20 -6v258l345 260h249v-256l-346 -262h-248zM43 31l211 159v41h-211v-200zM68 18h186v142zM68 256h194l92 72v149zM279 31l288 219h-196l-92 -72v-147zM279 209l75 59v29l-75 -59v-29zM379 274h211v203l-211 -162v-41zM379 346l188 143h-188v-143z" />
<glyph unicode="/" horiz-adv-x="813" d="M-25 -137l5 16l403 1251l4 3l340 256h145l-6 -17l-407 -1253l-338 -256h-146zM16 -92l136 104l352 1096h-103zM29 -113h82l28 84zM143 -92l277 211h-88l-160 -121zM184 39l133 100l345 1075l-132 -102zM344 143h102l385 1200l-135 -104zM428 1133h88l160 120l29 90z M709 1280l110 84h-84z" />
<glyph unicode="0" horiz-adv-x="974" d="M12 547q0 395 166 520l336 258q66 49 170 49q342 0 342 -571q0 -356 -137 -492q-27 -27 -27 -26l-336 -258q-70 -51 -174 -52q-340 0 -340 572zM37 547q0 -549 315 -549q201 0 275 240q-47 8 -88 32l-138 -104q-23 -16 -49 -16q-63 0 -76 172v2v-2q0 23 -6 69 q-10 57 -10 182v37q0 221 19 275q10 29 26 45q-4 -2 53 43q8 66 21 119q-14 2 -31 2q-311 0 -311 -547zM270 1108q37 10 78 10q18 0 39 -2q20 70 53 121zM285 573q0 -37 6 -107.5t6 -103.5q2 -12 4 -36v-2q10 -150 51 -150q35 0 51 47q13 42 17 185q-72 143 -72 397 q0 61 4 121q-35 0 -51 -48.5t-16 -265.5v-4v-33zM373 803q0 -205 47 -336v22q0 -2 -17 281q-4 92 -26 133q-4 -53 -4 -100zM379 938q41 -35 49 -164q16 -53 16 -285v-4v-75q37 -72 93 -111l120 92q2 15 2 27q-37 31 -47 160v2v-2q-2 25 -6 71q-12 55 -10 180v37v70 q-39 76 -96 115l-119 -93q0 -6 -2 -20zM385 993l92 70q-33 18 -71 27q-12 -41 -21 -97zM412 1112q47 -8 88 -33l139 109l2 -2q18 18 47 18q66 0 76 -174q16 -47 16 -282v-7q0 -217 -18 -270q-4 -16 -29 -47l-53 -45q-6 -63 -23 -121q27 -2 31 -2q313 0 313 547t-317 547 q-201 0 -272 -238zM426 215l90 70q-41 29 -74 80q-4 -111 -16 -150zM520 1065q43 -31 76 -82q4 111 16 154zM559 287q39 -20 74 -27q12 45 20 98zM598 113l166 127q-37 -8 -76 -9q-16 0 -37 2q-20 -68 -53 -120zM621 829q-2 -37 5 -107.5t7 -103.5q0 -12 2 -36l2 -2 q6 -92 25 -127q4 45 4 94q0 203 -45 332v-50zM621 942q70 -143 69 -395q0 -53 -6 -115q2 -2 4 -2q35 0 51.5 48t16.5 263v7q0 -2 -17 280q-8 152 -51 152q-37 0 -51 -44t-16 -194z" />
<glyph unicode="1" horiz-adv-x="761" d="M20 797v182h9l327 252v4l11 2q121 31 237 119l2 2h144v-1102l-9 -6l-333 -256h-246v831zM45 838l311 237v2h-77q-106 -84 -234 -116v-123zM82 834l86 18l221 168v41l-14 -4zM94 999q92 35 174 101l2 2l86 65v33zM186 31l203 155v803l-203 -155v-803zM209 18h180v138z M311 1102h45v35zM381 1102h16l303 231h-86l-233 -178v-53zM381 1186l70 53q-35 -14 -70 -22v-31zM414 31l286 219h-188l-98 -76v-143zM414 205l84 63v803l-84 -63v-803zM414 1038l47 37l-47 -10v-27zM424 1092l96 20v-838h205v1047z" />
<glyph unicode="2" horiz-adv-x="1001" d="M12 -6v190l4 2q139 154 248 316q145 213 146 315q0 25 -4 45l-148 -112v-9l-229 39l2 13q25 182 147 276l334 256q63 49 186 49q139 0 225.5 -80t86.5 -217q0 -233 -377 -594h358v-233h-8l-328 -250v-6h-643zM37 31l244 186q26 21 67 74v121l-311 -240v-141zM59 819 l308 236q2 19 8 39q-18 0 -13 0q-119 0 -198.5 -73t-104.5 -202zM61 18h570v185h-330zM72 799l166 -29q21 143 84 166l116 90l-57 8zM111 260l241 184q182 202 297 390q-4 100 -57 165h-6l-160 -120q8 -29 8 -62q0 -170 -323 -557zM262 1104q49 14 100 14h17q18 62 49 113z M264 784l133 103q-16 29 -47 28q-66 0 -86 -131zM334 225h305l31 25h-305zM365 940q33 -6 51 -39l137 105l-82 14zM373 274h329l242 185h-338l-233 -178v-7zM373 315q249 256 274 469q-113 -172 -274 -354v-115zM391 1057l72 -13l33 25q-45 18 -97 23q-4 -16 -8 -35z M403 1116q64 -6 113 -31l98 76q29 37 72 37q31 0 51 -22q33 -31 33 -101q0 -88 -96 -248v-6q4 -92 -56.5 -216t-156.5 -226l133 100q391 373 391 598q0 127 -79 200t-208 73q-227 0 -295 -234zM498 1040l63 -12q-18 17 -41 29zM541 1073q18 -10 34 -24q7 36 15 63zM598 1030 q59 -63 74 -160q73 131 73 205q0 59 -24 84q-14 14 -35 15q-68 0 -88 -144zM655 31l289 219h-233l-56 -41v-178zM743 274h224v172z" />
<glyph unicode="3" horiz-adv-x="978" d="M6 268l8 2l275 211q-33 2 -74 0h-12v183l8 8l192 149q0 61 -28 94l-146 -110l-4 2l-194 57l2 10q29 135 127 209l334 258q63 47 188 48q143 0 231 -86q82 -84 82 -216q0 -123 -86 -198q6 4 -57 -47q168 -59 168 -256q0 -174 -94 -248q-20 -18 -353 -277q-96 -72 -241 -71 q-264 0 -324 266zM35 252q59 -240 297 -240q129 0 212.5 62.5t106.5 171.5q-131 6 -211 82q-2 -70 -42 -109t-93 -39q-88 0 -106 119zM66 905l264 201q-203 -8 -264 -201zM72 879l147 -45q18 80 60 110l188 143q-45 16 -96 19zM80 289l123 37l162 123q-2 2 -5 10 q-18 10 -38 16zM223 309q14 -104 82 -104q51 0 82 40t31 91l-2 16q-23 29 -41 72zM227 518l310 240v51l-150 -113q-45 -51 -133 -51q-14 0 -27 2v-129zM242 1118q51 14 104 15h16l7 4q14 63 45 112zM248 670h6q66 0 104 30l-2 2l17 13q24 26 28 73zM248 850l104 80 q-10 4 -20 4q-57 0 -84 -84zM250 508q37 -2 65 -6l37 26l137 39l-32 19l135 96q18 30 26 55q-29 4 -65 2zM336 956q23 0 39 -10l147 113q-16 10 -30 16zM371 508q4 -14 10 -33q2 -2 10 -8l94 74zM393 930q29 -33 35 -90l119 90q19 -8 74 -2q-23 72 -78 116zM395 1137l99 -29 l120 92l2 -2q23 16 52 16q35 0 57 -24q39 -37 39 -113q0 -113 -78 -153l-33 -25q6 -35 6 -70t-8 -71q20 -2 45 -6q59 47 119 96q88 72 115 106q41 55 41 133q0 121 -78 199t-211 78q-231 0 -287 -227zM408 451q27 -35 32 -89q74 -88 215 -92q4 31 4 60q0 57 -18 106 q-86 0 -104 113zM418 750l119 90v53l-109 -84q-2 -35 -10 -59zM502 588l28 -8l25 6l2 -15v-4q68 -37 100 -104q45 6 72 47q25 35 25 82q0 94 -62 127l-119 -86q-23 -16 -71 -45zM522 1100l33 -10q6 27 14 45zM561 764q37 0 66 -2q10 32 10 67q0 27 -4 54l-72 -56v-63z M561 858l60 47q-29 -4 -60 -2v-45zM561 1059q59 -49 84 -125q94 24 94 143q0 113 -71 113q-68 0 -93 -117l-2 -12l-6 2zM563 535q19 -68 68 -74q-23 45 -68 74zM633 705l35 22l-23 4zM637 141l162 123q-57 -16 -123 -18q-10 -57 -39 -105zM668 438q16 -49 16 -108 q0 -29 -4 -60q147 4 231 88.5t84 227.5q0 188 -168 237l-114 -88q63 -43 63 -143q0 -53 -28.5 -98t-79.5 -56z" />
<glyph unicode="4" horiz-adv-x="972" d="M2 266l2 183l299 657h4l338 256h264v-649h113v-189h-8l-105 -82v-180l-8 -8l-340 -256h-237v268h-322zM27 303l168 129h-41l63 152l-190 -146v-135zM45 483l191 146l94 233l121 88l59 131h-193zM51 291h281l217 166v67h-86l-113 -86l-6 -6h-111zM201 481l127 97v90 l-72 -56zM207 455h18l101 77v15zM266 455h60v47zM274 657l54 41v93zM346 1106h176l92 205zM348 35l201 153v97l108 84v63h-102l-207 -160v-237zM350 469l72 55h-68l-4 -4v-51zM352 848l2 -111l76 166zM362 547h91l96 74v67h-37l-150 -115v-26zM362 604l136 105l51 120v166 l-78 -59l-109 -238v-94zM371 23h178v135zM492 983l57 43v55h-12zM494 547h55v43zM526 713h23v55zM549 1106h8l303 231h-207zM573 35l287 219h-186l-101 -78v-141zM573 207l78 59h-78v-59zM573 477l62 47h-62v-47zM573 547h105l207 160v618l-312 -238v-43l113 86v-430l-8 -12 l-105 -80v-61zM573 639l64 49h-64v-49zM573 713h89v327l-89 -215v-112zM573 889l76 184l-76 -59v-125zM596 291h61v47zM596 455h61v49zM682 465l291 223h-72l-219 -166v-57zM686 303l199 152v57l-199 -154v-55zM686 389l203 158h108v129l-311 -238v-49zM692 279h193v145z M909 473l64 51h-64v-51z" />
<glyph unicode="5" horiz-adv-x="964" d="M14 287l318 243q-37 0 -78 -30q-14 -10 -53 -41l-158 61v596l334 254h557v-229l-205 -156q141 -8 217 -113q70 -92 70 -231q0 -227 -133 -328l-318 -243q-10 -8 -11 -11.5t-60 -33.5q-76 -37 -164 -37q-266 0 -316 299zM41 266q25 -117 99.5 -186.5t189.5 -69.5 q237 1 307 234q-70 8 -125 37l-115 -86q-37 -29 -71 -29q-70 0 -109 141q-57 -14 -176 -41zM61 295q41 8 158 37l154 119q-10 31 -19 67zM68 551l170 131l2 229l139 109v70h-311v-539zM78 530l115 -45q90 68 274 209q-43 10 -80 11q-80 0 -121 -31zM78 1112h301v231z M238 317q35 -129 88 -129q96 0 96 166v6q-23 29 -41 68zM262 700l117 91v96h-117v-187zM274 909h105v80zM322 555q27 -4 40 -10q43 8 207 47q27 -117 82 -146q-27 182 -159 240zM330 723q37 6 57 6q53 0 100 -16l21 14l-115 45zM379 506q4 -20 12 -43l8 8q-10 25 -20 35z M391 526q17 -18 29 -41l41 33l49 37q-80 -20 -119 -29zM399 442q10 -25 23 -45q-2 13 -12 52zM401 1090l2 -54l68 54h-70zM401 1112h101l71 55h80l234 179h-486v-234zM403 805l103 82h-103v-82zM403 909h134l38 31v76q-2 53 -2 74h-63l-107 -82v-99zM414 788l112 -45 q29 23 62 45.5t65 22.5q127 0 127 -199q0 -131 -71 -182q-10 -6 -31 -20l2 -27q0 -51 -12 -117q160 4 245 115q78 100 78 260q0 135 -65 223q-72 98 -203 99q-12 0 -27 -2l-96 -74h-55zM428 463q14 -41 16 -94q29 -35 66 -60l147 113q-68 16 -104 137zM430 248l59 47 q-23 16 -45 39q-4 -45 -14 -86zM514 700q137 -70 162 -254q82 19 82 166q0 174 -105 174q-29 0 -139 -86zM532 297q53 -25 111 -29q12 57 12 123zM541 1112h34v29zM573 909h2v2zM598 954q51 23 90 29l211 162h-237l-64 -49v-82v-60zM598 1124l25 21h-25v-21zM600 911l51 39 q-18 -4 -51 -20v-19zM618 139l154 119q-61 -14 -110 -14q-14 -47 -44 -105zM690 1167h219v168z" />
<glyph unicode="6" horiz-adv-x="974" d="M12 532q0 410 156 529l334 258q94 72 207 72q260 0 292 -301l3 -13h-11l-151 -119q55 -16 92 -53q88 -88 88 -250q0 -205 -115 -319q-10 -10 -49 -39l-305 -234q-94 -74 -205 -73q-123 0 -201 80q-135 135 -135 462zM37 532q0 -317 127 -444q72 -74 184 -74 q223 0 293 236q-55 8 -102 35l-144 -111q-10 -8 -39 -8q-27 0 -47 20q-55 55 -55 273v10q0 35 43 61l68 54q-8 47 -13 86q-37 -16 -76 -45l-18 -17v37q2 115 14 178q23 121 84 131q12 84 33 154q-18 2 -16 2q-117 0 -195 -78q-141 -143 -141 -500zM279 459q0 -268 77 -269 q70 0 70 193v4q0 4 -2 21q-27 47 -43 106q-14 8 -35 8q-16 0 -35 -12l-10 -6q-23 -18 -22 -35v-10zM283 657l67 54q-2 43 -2 77q0 72 6 142q-70 -25 -71 -273zM287 1122q41 12 86 13q8 0 24 -2q23 65 54 116zM356 545q9 0 17 -2q0 4 -2 14zM371 788q0 -29 2 -61l92 72 l-27 -4l-2 12q-6 115 -57 125q-8 -70 -8 -144zM377 678q4 -41 10 -78l107 80q-31 8 -58 8t-59 -10zM381 956q68 -10 78 -125l135 103q0 28 2 53q-59 104 -182 119q-20 -68 -33 -150zM383 705q31 8 53 8q41 0 80 -15l98 76q33 29 68 29q41 0 68 -25q35 -37 34 -133v-6 q0 -166 -55 -209l-43 -33q0 -63 -14 -125h6h6q102 0 168 50l6 6q139 106 139 327q0 102 -41 179q-47 90 -139 106l-162 -121l-143 -16zM391 573q6 -25 10 -43q43 -31 48 -118q37 -63 88 -99l125 97v22q-59 31 -70 186q-29 35 -72 54zM422 1130q113 -16 178 -104 q18 186 107 186q80 0 88 -133l180 19q-33 268 -266 268q-117 0 -195 -78q-57 -57 -92 -158zM432 233l84 64q-37 27 -67 70q0 -86 -17 -134zM492 825l10 2l92 70v6zM543 688q27 -15 47 -33v62v6zM549 831l92 11q-4 27 -10 51q-6 -4 -19 -12q-6 -4 -18 -17v2zM561 301 q39 -20 86 -27q13 50 15 103zM614 717q0 -53 2 -88q55 -70 68 -180h8q68 0 68 190v6q0 86 -29 115q-18 18 -49 18q-23 0 -47 -18h2l-10 -6q-12 -14 -13 -29v-8zM618 913q3 3 7 5q0 4 -2 8l-5 -2v-11zM621 578q9 -80 36 -113q-10 63 -36 113zM621 991q6 -12 12 -26l139 106 q-8 119 -65 119q-74 0 -86 -199zM623 147l145 111q-41 -10 -84 -10h-18q-16 -55 -43 -101zM643 942q0 -4 2 -10q66 37 127 37q14 0 37 -2l139 104l-160 -18zM653 907q6 -25 11 -53l118 90h-5h-5q-57 0 -119 -37z" />
<glyph unicode="7" horiz-adv-x="903" d="M8 877v225l8 4l340 256h611v-143v-5q-123 -211 -181 -434q-51 -205 -69 -514v-6l-8 -6l-338 -256h-293l2 12q53 430 291 867h-363zM33 913l221 168h-221v-168zM57 901h330l221 170v10h-315zM57 1106h228l59 45v174zM109 37l266 205q45 399 233 727v71l-209 -159 q-231 -424 -290 -844zM127 23h231q5 96 13 184zM326 1106h290l35 27h-291zM369 1157h315l236 180h-551v-180zM383 35l287 219h-238l-35 -27q-10 -90 -14 -192zM401 262l15 10q36 281 151 570q-127 -262 -166 -580zM442 279h252q18 520 221 897l-262 -201 q-166 -352 -211 -696zM633 989v2q26 56 57 111l-57 -43v-70zM676 1022l268 205v98l-219 -168h20l-8 -16q-31 -55 -61 -119z" />
<glyph unicode="8" horiz-adv-x="991" d="M8 289q0 168 178 268q-139 104 -139 264q0 145 96 232v2l336 256q88 78 223 78q145 0 228 -82q72 -72 71 -189q0 -152 -143 -252q174 -117 174 -297q0 -154 -104 -241v-2l-334 -256l-2 2q-98 -82 -252 -82q-156 0 -250 92q-82 82 -82 207zM33 289q0 -115 73 -189 q88 -88 234 -88q131 0 217 62.5t109 171.5q-74 2 -134 24l-94 -69q-35 -39 -88 -39q-119 0 -119 137q0 90 76 176l6 8l2 -2l31 25q-2 23 -2 39q0 63 27 119q-59 -51 -156 -119q-182 -94 -182 -256zM72 821q0 -152 137 -252l162 125q-106 80 -107 164q0 66 43 100l82 62 q-6 31 -6 57q0 12 2 31h-18q-113 0 -193 -59l-4 -5q-98 -76 -98 -223zM256 299q0 -113 94 -113q43 0 70 29l4 4q22 29 22 68q0 18 -8 41q-41 37 -63 84q-25 20 -56 39q-63 -74 -63 -152zM268 1120q47 12 99 13q4 0 20 -3q8 60 35 107zM289 858q0 -72 102 -149l2 2 q60 67 60 139q0 18 -4 37q-18 23 -31 49q-20 14 -49 14q-37 0 -58.5 -27.5t-21.5 -64.5zM338 469q8 -6 18 -14q-2 10 -4 24zM369 545q0 -8 2 -21l110 84l-2 2l15 11l55 43q92 69 92 198v4l-74 -55v-2l-4 -2l-141 -107q-53 -70 -53 -155zM371 975q14 0 30 -4q-4 14 -6 22z M373 496q6 -37 20 -68q47 -41 66 -86q31 -27 69 -43l131 100q-2 8 -8 25q-78 20 -84 121q-29 27 -65 49zM408 1077q0 -20 2 -41l71 54q-35 12 -71 16q-2 -16 -2 -29zM412 1130q49 -6 92 -22l139 106q39 16 62 17q109 0 108 -125q0 -86 -76 -166l-8 -8l-2 2l-61 -49v-23 q0 -74 -35 -137l16 12l2 2l166 127h-2l16 11q148 96 148 241q0 106 -64 172q-76 74 -211 74q-115 0 -194.5 -61.5t-95.5 -172.5zM416 1010q6 -29 20 -58q25 -20 35 -55q31 -39 76 -72l92 72q-14 131 -131 182zM463 772q24 23 59 41q-25 20 -45 41v-4q0 -39 -14 -78zM467 252 l39 31q-18 8 -37 22q2 -16 2 -18q0 -16 -4 -35zM522 610q25 -16 45 -35q6 48 29 91zM528 1096q113 -55 134 -183l47 35q-109 84 -109 166q0 20 6 41zM555 289q53 -18 115 -19q2 23 2 41q0 29 -6 62zM590 557q53 -51 80 -113q10 -2 14 -2q23 0 43 11l27 20l2 -2q26 29 26 74 q0 84 -129 164q-61 -76 -63 -152zM596 514q10 -41 41 -59q-16 33 -41 59zM623 1114q0 -72 104 -149q61 69 61 141q0 100 -83 100q-37 0 -59.5 -26.5t-22.5 -65.5zM655 147l154 117q-55 -16 -119 -18q-10 -53 -35 -99zM672 725q135 -84 135 -180q0 -80 -66 -113l-55 -43 q10 -39 10 -78q0 -18 -2 -41q143 6 228.5 87t85.5 212q0 172 -170 283z" />
<glyph unicode="9" horiz-adv-x="962" d="M12 725q0 240 135 342l336 258q86 66 203 66q121 0 201 -80q135 -135 135 -463q0 -367 -150 -516q-14 -14 -32 -33l-336 -256q-68 -53 -178 -53q-262 0 -293 301l-2 12l8 2l154 117q-55 16 -93 53q-88 88 -88 250zM37 725q0 -102 39 -178q49 -88 141 -107l162 121l147 17 l125 98q-29 -8 -53 -8q-37 0 -76 12q-92 -70 -106 -76q-37 -27 -64 -26q-43 0 -67 26q-37 35 -37 131v2q0 156 45 201q2 4 12 12l43 33q0 63 14 125q-2 0 -6 2h-6q-125 0 -207 -82q-106 -109 -106 -303zM57 283q35 -268 269 -269q204 0 286 238q-57 6 -102 33l-137 -105 l-2 2q-20 -14 -43 -14q-80 0 -88 135zM86 309l160 19l145 112q-2 2 -4 9q-63 -37 -125 -37q-16 0 -39 2zM252 436q20 0 10 0q58 0 119 35q-6 27 -10 55zM258 1120q45 14 92 15q2 0 19 -2q16 59 47 110zM262 311q8 -119 66 -118q72 -1 86 196q-8 12 -15 27zM272 735 q0 -86 29 -114q18 -18 51 -19q20 0 44 17.5t24 35.5v9q0 53 -2 88q-55 70 -68 180q-2 0 -8 2q-70 0 -70 -197v-2zM373 950q59 -31 69 -188q33 -39 76 -55l125 96q-6 27 -10 47q-45 31 -49 121q-35 63 -86 96l-125 -94v-23zM373 1004l100 75q-39 23 -88 27q-10 -47 -12 -102z M377 915q8 -63 37 -114q-10 84 -37 114zM393 539q4 -27 10 -52q13 9 31 21l53 41zM393 1130q55 -6 103 -32l143 110q2 -2 18.5 2t20.5 4q27 0 49 -20q53 -55 53 -274v-9q0 -14 -26 -55q-4 -6 -84 -63q8 -39 12 -82q37 16 74 45l20 16v-39q-2 -100 -10 -158 q-16 -104 -59 -137l2 -2l-33 -24q-10 -76 -31 -140q18 0 17 0q199 0 282 224q53 143 53 352q0 317 -127 446q-74 72 -184 72q-125 0 -207 -82q-57 -57 -86 -154zM410 240l79 59q-31 23 -55 55q-6 -72 -24 -114zM410 463l2 -8l4 4v8zM438 393q27 -49 70 -78l145 111 q-68 8 -78 123l-135 -103q-2 -29 -2 -53zM440 477l103 78h-8l-95 -74v-4zM444 651l52 39q-29 14 -52 35v-61v-9v-4zM516 1083q39 -27 68 -67q2 84 18 133zM530 301q41 -20 91 -27q16 54 26 115zM547 698q27 -6 51 -6q26 0 59 10q-4 37 -10 74zM571 584l25 2l2 -13 q6 -115 57 -122q8 68 9 141q0 28 -2 59zM584 135l161 123q-41 -10 -83 -10h-25q-20 -63 -53 -113zM608 977q27 -47 45 -111q14 -8 35 -8q20 0 43 18.5t23 38.5v9q0 266 -76 266q-70 0 -70 -195v-4q0 2 0 -14zM659 838q2 -6 5 -19l22 17q-14 0 -27 2zM680 453q68 26 72 268 l-68 -51q2 -39 2 -78q0 -72 -6 -139z" />
<glyph unicode=":" horiz-adv-x="636" d="M31 -2v258l346 262h248v-258l-346 -262h-248zM31 524v258l346 262h248v-258l-346 -262h-248zM55 35l211 162v41h-211v-203zM55 561l211 162v41h-211v-203zM78 23h188v143zM78 262h194l95 70v149zM78 549h188v143zM78 788h194l95 70v150zM289 35l289 221h-197l-92 -72 v-149zM289 215l78 59v27l-78 -57v-29zM289 561l289 221h-197l-92 -71v-150zM289 741l78 60v26l-78 -57v-29zM389 281h211v200l-211 -159v-41zM389 350l189 144h-189v-144zM389 807h211v201l-211 -162v-39zM389 877l189 143h-189v-143z" />
<glyph unicode=";" horiz-adv-x="593" d="M27 -242l90 240h-76v258l346 264h248v-241l-146 -263l-337 -258h-125zM41 524v258l346 262h250v-258l-346 -262h-250zM66 35l210 160v43h-210v-203zM66 561l210 162v41h-210v-203zM70 -193l145 111l61 111v73l-131 -100zM80 -217h61l45 82zM90 23h41l145 110v31zM90 262 h195l92 72v149zM90 549h186v143zM90 786h195l92 72v150zM188 -184l261 200h-66l-147 -114zM264 -45l105 80l20 51l-92 -70zM301 49l105 80l38 102l-143 -110v-72zM301 152l133 102h-41l-92 -72v-30zM301 213l76 59v31l-76 -59v-31zM301 561l287 219h-195l-92 -69v-150z M301 741l76 58v28l-76 -57v-29zM397 39h80l109 199l-160 -123zM401 279h86l-45 -121l168 129v194l-209 -159v-43zM401 352l187 144h-187v-144zM401 805h211v203l-211 -162v-41zM401 877l187 143h-187v-143z" />
<glyph unicode="&#x3c;" horiz-adv-x="10182" d="M0 1655q0 -149 82 -258q92 -119 225 -119q139 0 234 133q74 104 73 244q0 96 -41 184q-43 96 -117.5 142.5t-148.5 46.5q-98 0 -174 -66t-108 -162q-25 -72 -25 -145zM45 1655q0 139 79 230t183 91q145 0 223 -151q39 -78 39 -170q0 -147 -86 -242q-78 -82 -176 -82 q-86 0 -152.5 60.5t-93.5 146.5q-16 57 -16 117zM47 16v547h74v-78q35 57 78 78q25 12 53 12q84 0 123 -86q55 86 131 86q115 0 137 -108q6 -31 6 -86v-365h-78v383q0 92 -77 93q-55 0 -84 -50q-25 -41 -25 -98v-328h-76v379q0 98 -71 99q-53 0 -86 -54q-29 -45 -29 -102 v-322h-76zM147 1655q0 -84 41 -146q47 -72 127 -71q121 0 144 143h-51q-21 -86 -89 -86q-66 0 -94 74q-16 41 -16 90q0 102 51 141q25 16 53 17q82 0 93 -95h51q-10 100 -88 140q-29 14 -60 14q-92 0 -137 -98q-25 -53 -25 -123zM739 289q0 -199 117 -266q39 -23 90 -23 q80 0 135 57q49 53 62 133h-74q-35 -108 -121 -108q-121 0 -127 174h328q0 96 -6 135q-16 113 -99 164q-43 25 -94 25q-104 0 -162 -97q-49 -82 -49 -194zM821 332q12 166 129 166q76 0 105 -76q14 -37 16 -90h-250zM889 1278q10 137 49 199q23 35 57 67q55 37 158 115 q66 55 66 133q0 137 -119 137q-115 0 -121 -180h-76v16q0 104 50.5 175t152.5 71q94 0 144 -61.5t50 -157.5q0 -121 -98 -201q-10 -8 -102 -69q-68 -45 -93.5 -78t-33.5 -78h327v-88h-411zM1239 16v547h74v-78q35 57 78 78q25 12 53 12q84 0 121 -86q57 86 133 86 q115 0 137 -108q6 -31 6 -86v-365h-78v383q0 92 -77 93q-55 0 -84 -50q-25 -41 -25 -98v-328h-76v379q0 98 -71 99q-55 0 -89 -54q-27 -45 -26 -102v-322h-76zM1368 1632q0 -243 94 -329q47 -41 111 -41q207 0 207 380q0 262 -101 336q-43 33 -100 33q-211 0 -211 -379z M1450 1630q0 299 125 299q123 0 123 -289q0 -297 -123 -297q-125 0 -125 287zM1884 1632q0 -243 94 -329q45 -41 109 -41q209 0 209 380q0 262 -101 336q-43 33 -100 33q-211 0 -211 -379zM1946 16h69v70q47 -86 131 -86q102 0 154 106q41 82 41 195q0 193 -107 256 q-37 20 -80 21q-82 0 -135 -84v272h-73v-750zM1966 1630q0 299 125 299q123 0 123 -289q0 -297 -125 -297q-123 0 -123 287zM2015 291q0 205 129 205q119 0 119 -201q0 -215 -123 -215q-125 0 -125 211zM2400 1632q0 -243 94 -329q45 -41 109 -41q209 0 209 380 q0 262 -100 336q-45 33 -101 33q-211 0 -211 -379zM2406 289q0 -199 117 -266q39 -23 90 -23q80 0 135 57q49 53 62 133h-74q-33 -108 -121 -108q-121 0 -127 174h328q0 96 -6 135q-16 115 -98 164q-43 25 -95 25q-104 0 -161 -97q-49 -82 -50 -194zM2482 1630 q0 299 125 299q123 0 123 -289q0 -297 -125 -297q-123 0 -123 287zM2488 332q12 166 129 166q76 0 105 -76q16 -37 16 -90h-250zM2908 16v547h72v-94q47 106 121 106q10 0 24 -2v-98q-18 4 -28 4q-72 0 -103 -78q-10 -25 -10 -73v-312h-76zM3146 1278v750h82v-310h325v310 h84v-750h-84v352h-325v-352h-82zM3166 188h74q6 -113 117 -112q106 0 106 88q0 53 -86 78l-65 20q-131 39 -131 150q0 102 79 147q39 20 91 21q78 0 122.5 -46.5t47.5 -125.5h-72q-8 96 -103 96q-94 0 -94 -78q0 -55 78 -78l86 -26q119 -35 119 -140q0 -84 -49 -133 t-133 -49q-179 0 -187 188zM3629 16v113h86v-113h-86zM3766 1278v750h82v-660h311v-90h-393zM3826 160q0 -70 37.5 -115t105.5 -45q90 0 160 88q6 -78 80 -78q16 0 41 8v64q-16 -4 -25 -4q-25 0 -25 33v313q0 63 -38.5 109.5t-135.5 46.5q-135 0 -170 -111q-8 -25 -10 -70 h72q8 105 106 105q100 0 101 -92q0 -57 -39 -64l-125 -18q-55 -10 -88 -43q-47 -47 -47 -127zM3903 168q0 68 74 88q6 0 60 10l43 8q25 4 45 21v-88q0 -55 -43.5 -93t-98.5 -38q-80 0 -80 92zM4207 1552q0 -119 41 -190q37 -61 94 -86q33 -14 71 -14q111 0 164 94 q45 78 45 196q0 117 -45 195q-53 94 -164 94q-109 0 -161 -94q-45 -78 -45 -195zM4284 1552q0 207 129 207q131 0 132 -207q-1 -209 -132 -209q-129 0 -129 209zM4297 291q0 -119 41 -191q37 -61 94 -86q33 -14 74 -14q109 0 163 94q43 78 43 197q0 117 -45 194 q-52 95 -161 95q-111 0 -164 -95q-45 -78 -45 -194zM4375 291q0 207 131 207q129 0 129 -207q0 -209 -129 -209q-131 0 -131 209zM4708 1278v752h76v-279q35 55 78 74q27 12 61 12q100 0 134 -86q16 -43 16 -123v-350h-76v344q0 94 -39 121q-20 12 -51 12q-123 0 -123 -176 v-301h-76zM4801 16v750h75v-750h-75zM5009 16v113h88v-113h-88zM5186 1278v547h71v-78q33 55 80 78q29 12 64 12q96 0 133 -86q16 -37 16 -123v-350h-78v344q0 133 -88 133q-92 0 -119 -110q-4 -25 -4 -66v-301h-75zM5202 276q0 125 45 201q57 100 158 101q160 0 174 -201 h-72q-14 119 -102 119q-127 0 -127 -217q0 -203 118 -203q93 0 111 133h72q-20 -209 -185 -209q-147 0 -182 168q-10 51 -10 108zM5630 291q0 -119 41 -191q37 -61 94 -86q33 -14 74 -14q109 0 164 94q43 78 43 197q0 117 -45 194q-53 95 -162 95t-164 -95q-45 -78 -45 -194 zM5640 1550q0 -199 117 -266q39 -23 90 -22q80 0 135 57q49 53 62 133h-74q-35 -109 -121 -109q-121 0 -127 175h328q0 96 -6 135q-16 113 -99 164q-43 25 -94 24q-104 0 -162 -96q-49 -82 -49 -195zM5708 291q0 207 131 207t131 -207q0 -209 -131 -209t-131 209zM5722 1593 q12 166 129 166q76 0 105 -76q14 -37 16 -90h-250zM6134 16v547h73v-78q35 57 76 78q25 12 56 12q84 0 120 -86q55 86 134 86q115 0 135 -108q6 -31 6 -86v-365h-78v383q0 92 -76 93q-55 0 -84 -50q-25 -41 -24 -98v-328h-76v379q0 98 -74 99q-53 0 -86 -54 q-29 -45 -29 -102v-322h-73zM6142 1278v547h72v-94q47 106 120 106q10 0 25 -4v-96q-18 4 -29 4q-72 0 -104 -78q-8 -25 -8 -76v-309h-76zM6463 1640q0 -227 158 -331q80 -53 187 -54q119 0 217 66q29 16 61 47l-29 47q-113 -100 -241 -100q-137 0 -217 94q-76 88 -76 227 q0 215 145 308q72 45 166 45q162 0 223 -119q29 -61 29 -139q0 -141 -72 -197q-27 -18 -51 -18q-37 0 -37 43q0 20 13 69l55 223h-62l-20 -84q-8 103 -98 103q-92 0 -146 -123q-29 -66 -28 -135q0 -63 26 -109q31 -53 90 -53q82 0 123 106q-2 -12 -2 -20q0 -82 80 -82 q68 0 121 66q66 80 65 211q0 203 -151 278q-74 39 -164 39q-178 0 -283 -143q-82 -115 -82 -265zM6709 1606q0 131 72 190q25 20 47 21q63 0 64 -84q0 -131 -66 -199q-27 -27 -53 -27q-63 0 -64 99zM6791 16l195 750h63l-194 -750h-64zM7039 487v74h61v96q0 119 115 119 q16 0 37 -2v-84q-20 2 -29 2q-47 0 -47 -63v-68h76v-74h-76v-471h-76v471h-61zM7274 1421q0 -70 38 -114.5t104 -44.5q90 0 160 88q6 -78 79 -78q16 0 43 8v63q-16 -4 -26 -4q-25 0 -25 33v314q0 63 -35 106q-43 49 -137 49q-137 0 -172 -110q-6 -27 -8 -70h72 q6 104 106 104t101 -92q0 -57 -39 -63l-125 -21q-55 -8 -90 -41q-45 -47 -46 -127zM7297 291q0 -119 41 -191q35 -61 94 -86q31 -14 72 -14q111 0 164 94q45 78 45 197q0 117 -45 194q-55 95 -164 95t-164 -95q-43 -78 -43 -194zM7350 1430q0 68 76 88q4 0 57 10l43 8 q25 4 45 20v-88q0 -55 -43 -93t-98 -38q-80 0 -80 93zM7373 291q0 207 131 207t131 -207q0 -209 -131 -209t-131 209zM7743 1552q0 -119 41 -190q37 -61 95 -86q33 -14 73 -14q109 0 164 94q43 78 43 196q0 117 -43 195q-55 94 -164 94t-163 -94q-45 -78 -46 -195zM7799 16 v547h71v-78q33 55 80 78q31 14 64 15q98 0 133 -89q16 -37 16 -122v-351h-75v344q0 133 -91 134q-92 0 -116 -111q-6 -25 -6 -66v-301h-76zM7821 1552q0 207 131 207t131 -207q0 -209 -131 -209t-131 209zM8229 487v76h61v152h76v-152h72v-76h-72v-356q0 -43 43 -43 q12 0 29 2v-74q-23 -8 -56 -8q-92 0 -92 119v360h-61zM8249 1278v750h76v-750h-76zM8456 1278v113h88v-113h-88zM8514 16v547h69v-78q35 55 82 78q29 14 64 15q96 0 133 -89q16 -37 16 -122v-351h-78v344q0 133 -88 134q-92 0 -119 -111q-6 -25 -6 -66v-301h-73zM8649 1538 q0 125 45 201q57 98 157 98q160 0 177 -199h-72q-14 119 -102 119q-127 0 -127 -217q0 -203 116 -203q95 0 113 131h72q-23 -207 -187 -206q-145 0 -182 168q-10 51 -10 108zM8968 289q0 -199 115 -266q41 -23 92 -23q80 0 132 55.5t65 134.5h-74q-35 -108 -121 -108 q-123 0 -127 174h328q0 96 -6 135q-18 115 -101 164q-41 25 -92 25q-106 0 -164 -97q-47 -82 -47 -194zM9050 332q12 166 127 166q76 0 107 -76q14 -37 16 -90h-250zM9077 1552q0 -119 43 -190q35 -61 92 -86q33 -14 74 -14q109 0 163 94q45 78 46 196q0 117 -46 195 q-54 94 -163 94t-164 -94q-45 -78 -45 -195zM9155 1552q0 207 131 207t131 -207q0 -209 -131 -209t-131 209zM9470 16v547h70v-94q47 106 122 106q10 0 25 -2v-98q-20 4 -29 4q-74 0 -104 -78q-10 -25 -10 -73v-312h-74zM9581 1278v547h73v-78q35 57 78 78q25 12 53 12 q84 0 121 -86q57 86 133 86q115 0 138 -108q6 -31 6 -87v-364h-78v383q0 92 -78 92q-55 0 -84 -49q-25 -41 -25 -98v-328h-75v379q0 98 -72 98q-55 0 -88 -53q-27 -45 -27 -103v-321h-75z" />
<glyph unicode="=" horiz-adv-x="1198" d="M27 227v185l194 145h-194v184l344 260h911v-182l-195 -147h195v-183l-346 -262h-909zM51 264l166 127h-166v-127zM51 594l166 127h-166v-127zM76 252h846v139h-666zM76 416h172l114 86v55h-102zM76 582h176l119 90h551v49h-664zM76 745h174l112 86v134zM289 416h641 l90 67h-641zM291 745h639l90 68h-641zM293 582h69v53zM387 508h666l180 139h-176l-121 -90h-549v-49zM387 582h535v65h-535v-65zM387 838h666l182 139h-848v-139zM946 264l287 219h-172l-115 -86v-133zM946 594l70 53h-70v-53zM946 672h103l184 141h-172l-115 -88v-53z M1092 508h165v127zM1092 838h165v127z" />
<glyph unicode="&#x3e;" horiz-adv-x="1585" d="M102 553q23 123 60 195l-17 6q27 72 66 98l12 -16q-31 -23 -51 -74q25 39 59 49q76 113 181 174q-51 -12 -95 -63l2 -2q-4 -4 -10 -9q-27 -25 -55 -65l-16 10q12 18 22 31q-16 -12 -31 -35l-18 10q14 23 31 39l-23 -12l-2 -2q-74 -55 -80 -166l-20 2q8 117 84 178v2h4 q4 55 117 103l2 6l4 -2q109 92 243 94q225 4 494 -178q111 -76 197 -208t116 -265q37 -51 47 -119l-20 -4q-10 68 -47 114q-51 238 -266 433q-70 61 -191 118q-113 51 -213 74q-72 14 -123 14q-115 -2 -229 -92q-23 -39 -60 -69q8 6 23 8q47 59 107 76q49 51 153 53 q127 2 268 -53q266 -100 404 -310q84 -127 115 -241q63 -88 71 -222h-20q-4 78 -35 150q16 -78 16 -137q2 -70 -16 -107l-19 11q16 33 15 94q0 70 -25 172q-25 111 -55 164q-45 76 -68 110q-41 61 -80 103q-111 117 -311 194q-137 53 -260 51q-94 -2 -139 -49q61 35 145 37 q152 2 314 -88h8q57 2 183 -101.5t222 -326.5q47 -111 49 -254q2 -57 -8 -113l-20 4q8 51 8 119q-4 182 -115.5 371.5t-271.5 267.5q143 -100 244.5 -266t126.5 -338l2 -4l-2 -2q4 -31 4 -57q2 -115 -66 -195q-39 -47 -57 -66q-35 -31 -72 -47q-57 -59 -119 -61 q-92 -2 -178 121q-55 80 -129 258t-98 217q12 -127 141 -377q123 -236 268 -231q86 0 181 86l14 -17q-43 -37 -80 -59q68 29 146 72l10 -19q-203 -113 -324 -115q-18 0 -33 2q-16 -4 -32 -4q-100 -2 -181.5 110t-95.5 136q-53 80 -78 146v8q0 31 -16 55q18 -123 78 -219 q94 -150 125 -180q78 -80 198 -78h50q39 2 94 31q84 43 188 73l10 4l7 -20l-11 -2q-104 -33 -184 -74q-61 -31 -104 -33h-24.5h-25.5q-166 -2 -280 172q-131 203 -146 349l-4 4l4 4q-43 129 -45 231q-2 68 17 121l18 -6q-14 -49 -14 -113q2 -100 43 -229q45 -37 43 -94 q57 -147 184 -293q74 -84 148 -82q18 0 34 4q12 -2 35 -2q31 0 70 10q-8 -2 -17 -2q-172 -2 -288 246q-137 291 -144 385q-2 14 -4 41l2 2q-6 27 -6 55q-2 123 82 144q27 4 78 16q-27 12 -47 12q-31 -2 -58 -22l-12 16q33 27 72 27q25 0 63 -19q127 -61 232 -229 q20 -33 88 -174q31 -61 86 -187q6 -14 8 -32q4 10 4 24t-4 29l-6 10l4 2q-10 41 -37 88q-4 8 -12 25q-12 35 -37 102q-111 260 -293 355q-59 31 -131 28q-143 -2 -143 -139h-21q0 158 158 160q82 2 145 -31q188 -96 301 -360q12 -37 39 -107q6 -8 15 -27q29 -53 36 -96 q10 -14 17 -14q8 0 8 22q-147 406 -274 508q-84 68 -115 84q-49 27 -139 41l4 21q92 -16 143 -43q33 -16 119 -86q133 -106 283 -523q-2 -47 -25 -47q-6 0 -14 6v-6q2 -72 -58 -71q-59 -2 -114 108q-117 227 -125 242q-106 193 -158 190h-4q-6 -25 -6 -45q0 -35 39 -96 q41 -68 178 -311q82 -152 164 -150q20 0 41 12q0 2 2 3q98 72 96 139q-2 82 -96 278q-92 188 -156 256q-127 129 -285 176q-12 -12 -84 -18q-80 -6 -131 -37q-76 -51 -114 -172l-21 6q68 203 277 226q23 0 57 8l-2 -2l2 -2l6 8q-10 -2 -22 -2q-8 0 -27 3t-25 3 q-49 0 -104 -23q-203 -80 -197 -395q2 -72 13 -125q31 -170 94 -332q88 -225 184 -268q8 -8 23 -6q14 0 32 6q23 -39 125 -35v-20l-10 -2q-70 -2 -108 20l2 -8q-23 -6 -45 -6q-45 0 -91 20l9 19q43 -18 82 -19q20 0 30 5l-2 2q-14 -2 -24 -2q-14 -2 -35 10q-37 23 -58 41 q-82 82 -151 268q-59 158 -78 303q-12 80 -12 129q-6 303 178 402q-213 -84 -209 -340q0 -29 6 -70q2 -25 4 -76q45 -432 281 -637l-12 -16q-182 154 -256 459q-27 113 -41 307q-2 -47 -2 -98q8 -416 237 -617l-12 -16q-141 125 -197 293q-45 133 -49 348q-4 303 100 442 q-72 -72 -110 -240q-33 -139 -31 -270q0 -49 6 -100l-20 -2q-6 53 -6 102q-2 115 26 250q33 156 88 235l-22 -32v-6h-6q-92 -150 -99 -351l-20 2q4 186 86 332q-57 -51 -88 -227zM127 854l37 64l2 -3l53 72l17 -12l-54 -72h-2l-35 -59zM156 954q43 74 88 74q10 0 18 -4 q141 117 297 119q59 0 113 -15q14 -4 41 -12q47 -10 143 -37q297 -111 465 -407q70 -4 123 -180l-21 -5q-37 123 -86 156q74 -133 86 -213l-20 -2q-12 84 -94 223q-4 4 -9 15q-76 135 -204.5 244.5t-274.5 158.5q-31 10 -114 27q-14 6 -39 14q-51 12 -109 12 q-61 -2 -160 -37q-109 -41 -133 -86v2l-22 -20l-15 14l15 13q-35 -2 -70 -64zM172 1026q201 131 268 137q43 10 131 19q70 2 156 -27q113 -37 154 -51q82 -33 143 -72q215 -135 428 -459l-16 -10q-276 418 -584 531q-43 14 -129 41.5t-152 25.5q-104 -2 -204 -47 q-61 -27 -183 -104zM184 395v68h21v-72q6 -327 131 -483l-14 -12q-131 156 -138 499zM229 915q41 23 68 56q-53 -29 -68 -56zM233 1104q49 43 78 45h11v-21q-31 0 -76 -41zM250 1165q98 59 166 62q31 0 49 -10l78 16l4 -21l-76 -16q-12 -31 -59 -33q-39 0 -80 -24l-10 16 q45 29 100 29q20 0 29 18q-14 6 -33 6q-59 -2 -158 -61zM266 1223q121 43 207 43q28 2 53 -4l-4 -19q-23 4 -47 4q-84 -2 -203 -45zM279 727q43 92 132 144.5t193 52.5h10v-9q27 -8 50 -8q22 1 32 11q-88 29 -159 26q-190 -2 -258 -217zM289 1272q61 31 145 33q35 -1 68 -5 l-4 -20q-33 4 -68 4q-74 -2 -133 -31zM305 870q111 115 270 119q41 0 152 -22q25 -4 72 -19q94 -37 224 -171t169 -228q49 -127 84 -197q-41 186 -162 346q-125 168 -291 244q-137 66 -256 64q-143 -4 -262 -136zM330 1370l98 14l4 -18q14 8 39 16l6 -20q-33 -8 -49 -23 q16 -6 27 -6q8 0 18 10l14 -16q-16 -12 -36 -14q-14 0 -37 10v-2l-6 2l-70 -16l-4 20l72 16q8 12 20 19l-92 -12zM332 518q0 66 6 123l20 -2q-8 -78 -8 -154q8 -397 230 -659q34 -41 57 -59l-12 -17q-141 121 -222 352q-68 199 -71 416zM336 -135l18 10q21 -39 82 -84 l-12 -16q-66 47 -88 90zM369 522q-2 100 49 205q16 35 20 41q14 25 33 33l10 -19q-25 -12 -49 -71l-8 2l6 -4q-43 -49 -41 -185q4 -176 60 -374q27 -92 100 -213q84 -137 153 -175q39 -23 125 -20q47 0 107 10l2 -20q-57 -10 -105 -11q-96 -2 -139 23q-74 43 -160 180 q-76 123 -102 219q-57 201 -61 379zM369 1395v20l20 2q340 8 733 -200q197 -107 338 -222l-14 -16q-211 178 -506 299q-315 127 -571 117zM371 1440v20q201 0 411 -61q328 -96 443 -201l6 -2q-43 51 -150 109q-236 129 -630 190l2 21q532 -82 766 -279q14 -14 47 -45l55 -6 q29 -14 82 -47l-12 -17q-23 16 -76 43l-21 4q41 -37 129 -96l-8 -18q-37 16 -158 119l-43 4q-57 55 -206 120q-127 53 -232 80q-233 61 -405 62zM408 494q-6 344 223 348h31l-3 -21h-22q-213 -4 -207 -321q0 -68 10 -135q27 -170 117 -353q115 -229 242 -239l-2 -21l-11 2 q-39 2 -96 47q-193 152 -270 559q-10 63 -12 134zM477 559q0 23 2 49l21 -2q-2 -23 -2 -45q6 -266 172 -498q-12 66 -99 250q-59 121 -61 254q-2 188 145 211l4 -20q-131 -20 -127 -189q2 -125 58 -247q104 -233 100 -283q43 -55 86 -111q51 -57 117 -82l-8 -18 q-70 27 -123 84q-45 59 -92 119h-2v2q-184 227 -191 526zM481 1532v20q211 -6 471 -114q225 -95 424 -238l-10 -16q-184 133 -422 231q-264 111 -463 117zM518 1335h17q47 2 112 -47q313 0 639 -287q2 0 6 3q59 0 142 -82l-15 -15q-68 68 -112 76q98 -90 161 -172l-14 -12 q-76 96 -172 180l-4 -2l-2 8q-322 276 -627 283l-2 -4l-6 4q-29 27 -109 20l-2 21q20 2 39 0q-27 10 -47 6zM518 1352l2 20q332 -55 586 -190q51 -27 158 -101q98 -67 157 -96l-8 -18q-47 20 -127 75q-53 49 -190 123q-250 133 -578 187zM537 965q61 2 155 -25t142 -59l4 2 l2 -4q70 -4 108 -74q20 -12 103 -107q70 -82 131 -225q10 -23 28 -70q6 -10 19 -32q41 -78 43 -142q0 -47 -21 -82q-10 -76 -98 -137q-10 -53 -84 -55q-98 -2 -238 221q14 -53 84 -131l-14 -14q-90 100 -92 157q0 10 2 21q-160 270 -162 369q-2 55 33 57q12 0 27 -6 q6 2 12 2q61 0 174 -189q70 -121 129 -256q43 -98 96 -96q-14 10 -26 31q-2 4 -64 117q-51 98 -156 288q-80 139 -174 138q-76 -2 -73 -76q0 -35 20 -80q102 -256 139 -328q121 -240 215 -260l-4 -20q-137 31 -284 393q-35 82 -101 246v2q-6 25 -6 47q-2 94 94 96 q104 2 193 -147q23 -41 156 -289q20 -39 63 -117q12 -18 23 -27q0 14 -9 35q0 2 -41 92q-92 203 -133 271q-94 156 -211 211q-12 -12 -45 -19q-25 -2 -49 -6q-70 -20 -67 -117q0 -35 12 -77q25 -23 108 -222q68 -162 111 -233q92 -152 184 -150q39 0 76 31h-12 q-84 -2 -144 88l17 10q53 -80 129 -77q20 0 41 6l6 10l6 -4q55 25 125 117q51 68 49 172q0 25 -2 49q-25 33 -61 123q-49 123 -51 127q-16 31 -74 110q-160 221 -309 279q-18 6 -68 16q-115 23 -148 21q-18 0 -38 -2zM541 1266h12q342 8 666 -260q162 -136 262 -281l-17 -12 q-152 225 -401 377q-268 162 -520 155zM555 1200l2 21q170 -4 324 -70q63 0 155 -49q201 -111 437 -418l-17 -12q-264 346 -479 436q256 -141 481 -483l-16 -11q-106 164 -252 304q-174 168 -324 217q-150 61 -311 65zM565 -330l4 21q37 -8 68 -8q27 0 59 10l4 -21 q-33 -8 -63 -10q-35 0 -72 8zM565 1567l2 20q174 -10 398 -106q190 -82 362 -203l-10 -16q-158 111 -359 198q-227 96 -393 107zM608 1608l4 18q369 -70 635 -248l-10 -16q-260 174 -629 246zM655 -369l127 11l2 -21l-127 -10zM670 586q0 -106 149 -353q158 -260 252 -258 q35 1 51 19q-14 -4 -28 -6q-109 -2 -205 200q-41 88 -154 269q-43 68 -43 108q0 20 6 45q-8 2 -14 2q-16 0 -14 -26zM696 893q178 -51 299 -182q137 -150 252 -518q4 16 4 32q-2 43 -21.5 86t-37.5 84q-6 18 -21 58q-55 137 -137 231q-29 37 -92 100l-2 -4q-92 37 -115 82 q-33 23 -108 49q-6 -12 -21 -18zM711 1628l4 21q160 -25 270 -101q92 -10 176 -80l-14 -16q-80 70 -170 78q-104 74 -266 98zM723 578l18 10l4 -8q109 -184 181 -308q27 -47 80 -139q51 -80 96 -80q47 2 96 70l16 -12q-53 -78 -108 -78q-61 -2 -117 90q-25 43 -76 131 q-72 123 -184 315zM745 -399h21q109 0 184 32l8 -18q-78 -35 -194 -35h-19v21zM791 -354q57 4 165 28l9 -18q-39 -16 -172 -31zM797 -303q250 10 456 147l13 -16q-205 -135 -469 -152v21zM834 211zM852 856q19 -22 68 -45q-29 37 -68 45zM862 922l8 -4zM870 918l4 -3h3z M969 -328q35 12 98 45l12 -18q-25 -16 -102 -45zM1090 -279l106 46l8 -21l-106 -43zM1161 -43q117 63 137 160l19 -4q-8 -39 -31 -76q18 14 43 74l21 -9q-29 -63 -56 -84l-12 15q-37 -55 -111 -94zM1208 -49q39 14 76 67l16 -10q-41 -61 -83 -78zM1409 422l18 6l17 -55 l-21 -4zM1444 541l20 6l17 -49l-21 -6z" />
<glyph unicode="?" horiz-adv-x="878" d="M2 797v10q4 178 94 248l334 256q94 72 213 71q147 0 231 -84q68 -68 68 -170q0 -82 -88 -200q-66 -88 -88 -142q-29 -70 -25 -165q8 6 -133 -105h152v-256l-8 -6l-336 -256h-250v256l8 6l125 96h-113v54q0 102 45 198q16 35 82 142q45 72 45 112q0 10 -2 23l-151 -117 l-4 2zM29 834l309 237q0 17 2 29q-16 2 -33 2q-260 0 -278 -268zM45 815l145 -18q0 55 7 77q8 45 32 64l144 111l-21 2zM190 35l211 162v39h-211v-201zM211 393l203 154q23 55 104 168l6 10q11 82 56 168q-6 74 -52 123l-151 -115q6 -18 6 -39q0 -47 -86 -185t-86 -267v-17z M213 23h188v143zM213 260h197l92 70v104l-96 -72l-13 -6h-55zM213 1114q45 12 94 12q18 0 35 -2q10 66 37 117zM215 807l131 102q-16 27 -53 27q-72 0 -78 -129zM236 379h94l53 41q4 43 16 86zM297 961q45 -2 70 -37l139 106l-98 14zM362 1075l37 -6l21 14q-27 10 -55 15 q-2 -6 -3 -23zM367 1122q41 -6 75 -20l123 94q29 20 64 21q90 0 90 -97q0 -47 -43 -119q-37 -57 -72 -112q2 -25 2 -19q0 -51 -24 -102l272 207q64 92 64 153q0 94 -60 154q-78 76 -215 76q-242 0 -276 -236zM371 379h10q0 -4 0 10zM406 393l96 72v14l-94 -71zM410 440 l92 70l10 6h55l125 96h-153l-105 -80q-16 -43 -24 -92zM426 35l287 219h-195l-92 -70v-149zM426 215l76 57v27l-76 -57v-27zM434 1065l43 -6q-14 8 -31 16zM457 580l65 51v35v6v6l-4 -6q-43 -57 -61 -92zM469 1092q31 -14 57 -37q1 55 13 90zM524 279h213v200l-213 -162v-38 zM524 348l189 144h-138l-51 -39v-105zM524 483l13 9h-13v-9zM547 637h170q0 143 96 276l-266 -200v-47v-29zM549 1030q39 -45 51 -102q29 47 59 94q35 59 35 98q0 74 -65 74q-76 0 -80 -156v-8z" />
<glyph unicode="@" horiz-adv-x="1671" d="M-14 365q0 356 274 577h-2l336 256h2q219 176 524 176q324 0 514 -190q152 -152 152 -381q0 -246 -172 -393l-232 -177q68 31 123 72l11 6l104 -147l-10 -6l-326 -250l-10 -6q-250 -193 -555 -193q-348 0 -557 209q-176 176 -176 447zM8 365q0 -260 170 -428 q203 -203 541 -203q286 0 532 180l-47 63q-53 -8 -121 -10q-172 -90 -358 -90q-272 0 -426 154q-127 127 -127 336q0 242 164 405q25 131 98 246q-129 -59 -221 -150q-205 -205 -205 -503zM195 367q0 -199 122 -320q145 -145 408 -145q153 -1 303 65q-197 6 -352 80 q-31 -4 -62 -4q-102 0 -165 63q-74 76 -74 211v35q-55 125 -56 269q0 49 9 108q-133 -150 -133 -362zM344 621q0 -117 39 -224q39 166 125 256q6 126 59 232q-88 -29 -129 -62l-26 -20q-31 -20 -56 -45q-12 -68 -12 -137zM367 801q33 29 63 47l258 196q19 17 60 48 q-145 -6 -273 -56q-78 -106 -108 -235zM399 307q2 -119 68 -184q55 -55 147 -55h27q-160 90 -242 239zM401 356q84 -186 281 -282q51 8 111 55q6 8 45 39q-59 18 -109 47l-33 -16q-29 -20 -63 -21q-53 0 -53 68q0 35 14 90q-86 115 -86 278q-90 -111 -107 -258zM434 1047 q8 4 27 10q0 2 16 20zM500 1071q139 47 284 47h4q147 84 332 84q242 0 377 -135q104 -106 105 -266q0 -84 -43 -172t-111 -135q-8 -80 -39 -154q156 33 254 160t98 303q0 219 -145 364q-182 182 -496 183q-180 0 -342 -70q-168 -74 -278 -209zM530 623q0 -150 72 -256 q6 20 10 45q18 84 21 92q14 51 45 74l33 24q4 46 22 107q-18 4 -37 4q-94 0 -164 -70q-2 -29 -2 -20zM532 678q4 2 17 12l-2 2l297 226q-31 4 -60 4q-96 0 -184 -25q-55 -100 -68 -219zM543 903q16 6 41 15q14 22 22 34zM602 246q0 -45 31 -45q51 0 59 32l2 5q-47 35 -82 73 q-10 -37 -10 -65zM618 926q82 20 166 20q39 0 88 -6l11 8l2 -2q66 49 147 49q51 0 92 -28l43 30q-162 92 -372 97q-25 -16 -50 -33l3 -2l-35 -25q-49 -39 -95 -108zM621 340q33 -41 79 -76l39 166q-29 59 -30 135q-33 -14 -54 -82q-12 -53 -26 -106q0 -6 -8 -37zM639 731 q31 6 57 6q20 0 45 -6q25 70 60 123zM719 57q154 -68 336 -67q-14 0 22 2q61 31 94 55l199 154q-31 -14 -61 -25l-31 -20q-125 -106 -297 -107q-113 0 -174 57q-27 -20 -88 -49zM721 250l6 -6l109 84q-49 25 -80 71zM733 569q2 -51 17 -98l16 70q-8 27 -33 28zM737 623 l62 47q-18 20 -41 30q-14 -43 -21 -77zM739 594q39 -6 52 -49v-4v-2l-27 -107q33 -61 94 -88l94 72l4 20q-43 8 -43 68q0 33 15 82q10 43 20 84q6 29 10 45h-59zM752 231q51 -29 110 -45l70 52q-8 18 -8 43q0 6 2 20q-39 4 -66 14zM764 723q27 -10 47 -29l10 45h6l183 140 q-61 25 -127 34q-74 -63 -119 -190zM823 125q53 -51 158 -51q143 0 256 82q-88 -23 -176 -23q-102 0 -195 25zM838 700l18 15h-16zM838 1116q215 -14 374 -119h166h17l-37 -143q92 -133 92 -307q0 4 0 -21q57 47 93 126t36 149q0 152 -98 248q-129 129 -361 129 q-154 0 -282 -62zM866 739h23l160 123q-4 2 -15 6zM885 334q20 -6 45 -8q6 20 12 53zM891 178q82 -20 170 -20q111 0 221 35q53 50 88 116q-29 -4 -53 -4q-68 0 -119 23q-84 -127 -199 -127q-35 0 -53 18zM909 934q66 -12 123 -37l72 55q-33 18 -72 19q-68 0 -123 -37z M930 739h35q6 21 12 37zM938 504q0 -41 25 -45q10 45 51 205l14 51h-45q-8 -39 -27 -115q-18 -63 -18 -96zM948 281q0 -14 4 -27l68 51q-35 -4 -70 -6q-2 -14 -2 -18zM954 324q61 2 113 18l61 47l11 14l10 -12q12 -12 39 -33q55 95 55 187q0 150 -96 246l-27 -21l-69 -285 q-4 -23 -31 -45l-47 -39q-12 -47 -19 -77zM967 233q12 -10 32 -10q101 0 177 115q-16 10 -33 24zM987 461q37 8 41 28l62 259l-35 -27zM991 739h49l58 45l2 13q-8 31 -33 30q-49 0 -76 -88zM1057 885q2 -2 12 -6l66 49q-4 4 -11 10zM1092 864q29 -16 55 -41l125 95 q-29 29 -68 55h-28l-13 -53q-2 -2 -71 -56zM1120 815q0 -4 4 -10l4 2q-4 2 -8 8zM1133 -6q24 2 57 6l-14 20q-27 -16 -43 -26zM1165 805q90 -92 101 -225q14 69 65 270q-18 27 -41 51zM1194 35l23 -29q194 35 368 164l-74 106zM1210 348q45 -18 107 -18q29 0 65 6 q29 67 39 143q-43 -23 -86 -22q-55 0 -71 45q-10 -78 -54 -154zM1231 -16l39 -56l155 119q-94 -43 -194 -63zM1247 973q23 -18 45 -39l51 39h-96zM1282 537q0 -55 53 -56q45 0 88 27q2 25 2 39q0 154 -75 276q-68 -262 -68 -286zM1309 915q18 -18 30 -34l19 71zM1358 244 l115 88q-37 -12 -76 -19q-16 -37 -39 -69z" />
<glyph unicode="A" horiz-adv-x="1067" d="M8 -6l209 1098l346 266h330l190 -1100l-348 -264h-246l-28 178l-236 -178h-217zM41 35l199 151l10 54l106 79l17 84h-97l76 478h-2l4 2l127 98l19 96h-262zM59 18h154l23 134zM240 33l217 166l-4 20h-131l-60 -45zM264 1102h242l41 215zM268 209l13 10h-11zM295 244h18 l33 24l4 17zM309 444l84 64l6 41l-37 246zM328 428h49l8 45zM352 244h107l10 6h-107zM373 274h127l55 41l23 144l-199 -152zM377 868l37 -245l61 321zM385 342l207 158h45l-10 49l-191 -146h-39zM401 428h17l-6 49zM424 549l4 -14l178 137l-57 329l-45 -34zM432 508l10 -70 l181 140l-13 67zM477 225l2 -10l43 35h-14zM483 188l25 -161l186 143l-35 195l-81 -62l-9 -49zM510 1001l35 27l-8 49h-13zM530 1102h13l303 231h-273zM535 18h184l-21 123zM541 274h8v7zM559 1085l8 -41l142 105l71 -481l-131 -101l13 -67h147l37 -226h209l-183 1051z M571 1018l52 -297l59 383zM584 338l71 55l-14 82h-35zM633 659l12 -65l88 65h-100zM641 684h113l-56 367zM666 475l10 -65l88 65h-98zM682 381l33 -195l106 82l-30 197zM721 160l22 -133l291 223h-194z" />
<glyph unicode="B" horiz-adv-x="1021" d="M23 -6v1100l8 8l340 256h348q323 0 323 -273q0 -180 -165 -245q182 -68 182 -265q0 -164 -98 -247l-3 -2l-321 -244q-90 -88 -264 -88h-350zM47 31l215 164v294l8 9l88 67v94q-20 -4 -41 -4h-55v256l8 9l88 67v90h-311v-1046zM70 18h303q152 0 235 70v2l10 8 q60 56 74 152h-219l-37 -29l-2 -2q-35 -35 -106 -35l-37 2zM70 1102h288v219zM287 213l71 55v203q-16 2 -32 2h-39v-260zM287 692l71 56v145q-16 2 -34 2h-37v-203zM309 680h8q21 0 41 4v33zM311 498h7.5h7.5q16 0 32 -2v39zM311 920h6.5h6.5q18 0 34 -2v38zM322 209h6 q53 0 82 22l10 9q2 4 8 10h-53zM383 274h55q11 29 11 68q0 102 -66 123v-191zM383 492q90 -27 90 -150q0 -39 -8 -68l211 160q0 4 -2 8q-18 0 -10 0h-66v86q-37 25 -96 41l-37 13l133 98v37l-215 -164v-61zM383 584l215 164q82 -104 123 -144l4 12q-35 49 -117 138q2 2 54 2 q-6 0 10 -2q10 36 10 73q0 27 -4 52l-252 -191q-16 -16 -43 -24v-80zM383 690q51 18 55 88l-55 -43v-45zM383 766l53 43q-4 63 -53 80v-123zM383 913q66 -18 76 -88l139 105v90q-41 31 -98 45l-117 -90v-62zM383 1006l86 65q-43 6 -86 6v-71zM383 1102q59 0 111 -10l104 77 l10 7l51 2h14q60 0 91 -31q35 -35 35 -100q0 -66 -33 -99l-2 -2v-2l-66 -49q8 -35 9 -68q0 -35 -11 -71l121 90q2 -2 21 4q180 53 180 233q0 250 -299 250h-336v-231zM457 741l215 164q0 2 -2 8q-18 0 -17 0h-39l-151 -116v-6q0 -27 -6 -50zM506 274h190q2 20 2 45 q0 51 -12 93zM524 1083q41 -12 74 -32v88zM539 606q30 15 59 35v10zM541 582q32 -13 57 -25v55q-25 -18 -57 -30zM621 467h38q-18 27 -38 43v-43zM621 541q43 -31 65 -74q31 4 51 14l13 11q34 30 34 106q0 113 -86 129l-14 -12q-23 -49 -63 -84v-90zM621 664q6 6 14 16 l-14 -10v-6zM621 698l43 33h-2q-16 0 -41 -2v-31zM621 936h32q-5 0 9 2q-16 37 -41 61v-63zM621 1032q45 -37 67 -92q86 11 86 107q0 106 -115 106q-16 0 -38 -2v-119zM686 150l154 116q-55 -14 -123 -16q-8 -55 -31 -100zM705 426q18 -49 18 -107q0 -20 -2 -45 q133 2 203 56l10 8q100 75 100 237q0 199 -196 252h-7l-106 -82q84 -27 84 -147q0 -88 -45 -125z" />
<glyph unicode="C" horiz-adv-x="1003" d="M8 535q0 395 189 540l335 256q66 49 189 49q328 0 330 -413v-9l-9 -4l-340 -258h-77q0 -94 14 -151l184 137l224 -10v-13q0 -260 -138 -370l-336 -256q-76 -61 -198 -62q-367 0 -367 564zM33 535q0 -539 342 -539h2q226 0 289 235q-102 12 -174 76q-23 -139 -107 -139 q-37 0 -61 25q-60 62 -60 303v8v24v25v28q0 312 86 351q10 94 33 168q-131 -2 -213 -84q-137 -137 -137 -481zM287 1110q47 14 98 14q2 0 6 -2q18 60 47 105zM289 504v-12q0 -299 96 -299q70 0 86 137q-127 139 -127 461q0 53 4 110q-59 -51 -59 -330v-18v-49zM369 791 q0 -293 104 -429q0 18 2 52v2l8 10l135 102q-16 63 -18 168h-141v13q-4 66 -23 129q-23 77 -54 77h-1q-2 0 -6 -2q-6 -63 -6 -122zM377 938q2 2 4 2q78 0 100 -209l119 90v43q0 83 6 140q-70 86 -198 94q-23 -72 -31 -160zM416 1122q121 -8 194 -86q25 160 107 160t100 -219 h209q-6 379 -305 379q-221 0 -305 -234zM496 336l2 -2q68 -68 174 -78q12 63 14 135l-186 10q0 -35 -4 -65zM508 721h92v41v31zM522 424l172 -8l13 10q-53 6 -80 78zM625 721h65q0 70 -14 129l-51 -39v-2v-88zM625 840l45 37q-14 53 -41 96q-5 -43 -5 -96q0 -18 1 -37z M633 1014q37 -51 59 -121l103 78q-4 68 -25 127q-23 73 -52 73h-1q-66 0 -84 -157zM641 113l172 131q-49 -14 -102 -15h-21q-18 -68 -49 -116zM647 520q25 -71 71 -71h1q12 0 24 6l25 18q37 43 43 172zM696 254h15q297 0 311 381l-236 -180q-14 -16 -30 -23l-45 -35 q-2 -78 -15 -143zM698 866q14 -59 17 -133l289 221l-193 -2zM813 508l186 141l-163 8q-2 -96 -23 -149z" />
<glyph unicode="D" horiz-adv-x="1011" d="M31 -6v1102l348 262h278q236 0 334 -168q78 -133 78 -387q0 -209 -47 -322q-41 -98 -152 -190q-139 -104 -278 -209q-117 -88 -270 -88h-291zM55 18h267q266 1 348 232h-211l-60 -45l-2 2q-35 -27 -86 -27q-20 0 -37 2v721l93 74v98l-45 2h-267v-1059zM78 1102l289 -2 v221zM299 219l68 51v607q-25 12 -60 12h-8v-670zM322 911q27 0 45 -8v43zM324 207q53 2 82 43h-27zM391 289l47 37q12 55 13 155q-1 340 -60 381v-573zM391 893q59 -39 78 -191q6 -63 6 -219q0 -84 -8 -135l143 109v499q-45 59 -114 88l-105 -79v-72zM391 995l78 62 q-35 10 -78 16v-78zM391 1098q55 -6 101 -25q59 43 122 96h9q143 0 178 -155q10 -51 10 -277q0 -217 -78 -272l2 -2l-4 -4q-6 -102 -29 -183q201 16 283 181q59 123 59 346q0 246 -71 368q-92 162 -316 162h-266v-235zM412 274h8l4 11zM446 274h3l217 166q-18 -4 -39 -2 l-168 -127q-4 -20 -13 -37zM489 274h189q21 72 27 164zM518 1063q57 -29 92 -68v138zM635 463h12q33 -2 60 14l2 70v33q0 216 -74 342v-459zM635 965q99 -133 98 -424v-45q53 57 53 243q0 207 -8 250q-26 156 -143 156v-180zM657 162l138 106q-47 -14 -99 -16 q-16 -49 -39 -90z" />
<glyph unicode="E" horiz-adv-x="954" d="M29 -6v1102l348 262h586v-211l-279 -213h180v-211l-231 -176v-80h334v-211l-346 -262h-592zM53 31l221 168v278l91 72v104h-91v248l91 72v104h-312v-1046zM78 18h530v168h-311zM78 1102h287v219zM297 223l68 51v187h-68v-238zM297 690l68 51v144h-68v-195zM322 483h43v35 zM322 676h43v35zM322 909h43v33zM330 211h286l52 39h-287zM389 293l219 168v67l-88 -67h-131v-168zM389 483h115v142l-115 -88v-54zM389 567l113 86h-113v-86zM389 676h123l305 233h-166l-35 -24h-24l-203 -156v-53zM389 760l164 125h-164v-125zM389 909h195l18 15v153h-59 l-154 -116v-52zM389 991l113 86h-113v-86zM389 1102h146l79 63h80l221 168h-526v-231zM406 274h292l222 168h-295zM528 498l80 61v146l-80 -62v-145zM573 1102h35v26zM633 31l287 219h-213l-74 -57v-162zM633 578l184 139h-184v-139zM633 934h10l272 207h-213l-69 -54v-153z M633 1118l29 23h-29v-23zM637 741h203v156zM733 1165h205v156zM739 274h203v156z" />
<glyph unicode="F" horiz-adv-x="905" d="M10 -6v1100l342 264h600v-217l-270 -207h162v-211l-230 -176v-291l-344 -262h-260zM33 31l221 168v276l90 72v106h-90v248l90 72v104h-311v-1046zM57 18h197v150zM57 1102h287v219zM279 31l286 219h-205l-81 -64v-155zM279 217l65 51v193h-65v-244zM279 690l65 51v144 h-65v-195zM301 483h43v35zM301 676h43v35zM301 909h43v33zM369 274h221v254l-88 -67h-133v-187zM369 483h114v142l-114 -88v-54zM369 567l112 86h-112v-86zM369 676h123l305 233h-146l-33 -24h-45l-204 -156v-53zM369 760l163 125h-163v-125zM369 909h196l25 19v149h-68 l-153 -116v-52zM369 991l114 86h-114v-86zM369 1102h145l82 63h88l221 168h-536v-231zM508 498l82 61v146l-82 -62v-145zM555 1102h35v26zM614 578l183 139h-183v-139zM614 1112l39 29h-39v-29zM616 741h203v156zM618 934h23l272 207h-221l-74 -58v-149zM725 1165h205v156z " />
<glyph unicode="G" horiz-adv-x="1019" d="M12 510q0 442 201 567h-2l336 258v-2q78 47 178 47q160 0 248 -101q84 -97 84 -249v-14v-66q-4 -4 -191 -145h193v-12q0 -195 -12 -271q-27 -162 -117 -231l-334 -258l-2 2q-84 -63 -229 -64q-199 0 -287 183q-66 135 -66 356zM37 510q0 -514 328 -514q264 0 315 233 q-72 4 -127 31q-37 -31 -74 -61q-51 -35 -88 -35q-125 0 -125 321q0 172 8 238q16 164 76 199l-2 2l8 6q10 94 33 170q-352 0 -352 -590zM291 487q0 -301 100 -301q80 0 92 123q-6 6 -24 31h-78v162q-8 31 -19 86q-14 84 -14 178q0 63 4 127q-61 -31 -61 -406zM295 1112 q43 11 80 11q10 0 20 -1q20 60 47 103zM373 766q0 -117 20 -215l178 137h-104v64v7q0 148 -81 148h-1l-6 -2q-6 -70 -6 -139zM383 950l154 117q-53 27 -123 31q-20 -66 -31 -148zM397 932q96 -12 95 -207l112 84q0 68 8 203q-18 23 -51 43zM406 377l18 16q-10 18 -18 39v-55 zM406 504q0 -25 36 -96l154 116h-190v-20zM422 1122q76 -6 137 -39l125 97h2q16 8 35 8q106 0 106 -207v-12h205l2 47v8q0 146 -76 236q-84 96 -233 96q-221 0 -303 -234zM428 365h12l-4 6zM428 547h190q-12 55 -14 135zM455 385l14 -20h25l149 114q-10 16 -16 39zM496 246 l34 26q-12 8 -24 19q-4 -25 -10 -45zM510 319q18 -16 41 -30l145 110v27q-23 8 -41 33l-145 -113v-27zM516 711l86 2v65zM575 276q49 -20 109 -22q8 52 12 115zM582 1071q18 -14 36 -31q7 43 19 74zM627 731l69 53q0 33 -6 62l-63 -49v-25v-41zM629 688q2 -76 12 -129l76 57 v72h-88zM629 827l55 45q-14 63 -49 113q-6 -61 -6 -133v-25zM639 1018q45 -53 68 -131l96 76v45v7q0 150 -81 150h-1q-61 0 -82 -147zM643 711h53l2 43zM651 524q4 -18 11 -30l36 28v2h-47zM664 117l167 129q-57 -16 -126 -17q-14 -66 -41 -112zM668 547h39l65 51h-39z M676 473q10 -14 22 -20v39zM709 254q217 2 284 164q37 90 41 350l-188 -145v-13q0 -94 -27 -135q-16 -25 -98 -88q-2 -76 -12 -133zM713 862q6 -31 8 -57h104l185 139h-191zM721 444h6q86 1 94 140l-98 -74zM739 623h64l207 157h-174l-97 -71v-86zM739 739l56 41h-56v-41z " />
<glyph unicode="H" horiz-adv-x="1056" d="M33 -6v1100l344 264h260v-113l147 113h260v-1102l-346 -262h-258v112l-149 -112h-258zM57 31l219 168v272l93 72v110h-93v424h-219v-1046zM80 18h196v150zM80 1102h205l84 63v156zM301 31l139 106v113h-55l-84 -64v-155zM301 217l68 51v187h-68v-238zM301 690l68 51v394 l-68 -52v-393zM326 479h43v33zM326 678h43v33zM393 274h47v181h-47v-181zM393 479h56l163 125v94l-219 -168v-51zM393 561l225 174h66v92l-227 -174h-64v-92zM393 678h47v88l-47 -37v-51zM393 760l47 37v297l172 133v94l-219 -168v-393zM393 1184l195 149h-195v-149zM465 31 l219 168v430l-47 -37v-336l-172 -131v-94zM465 156l123 94h-123v-94zM465 274h147v299l-147 -112v-187zM465 690l219 168v51h-55l-164 -125v-94zM465 815l147 113v149h-147v-262zM487 18h197v150zM487 1102h125v94zM637 623l47 36v52h-47v-88zM637 934h47v143h-47v-143z M637 1102h55l84 63v156l-139 -107v-112zM709 31l286 219h-202l-84 -64v-155zM709 217l67 51v430l-67 -51v-430zM709 678l43 33h-43v-33zM709 735h92v-461h219v1047l-219 -168v-238l-92 -69v-111zM709 877l43 32h-43v-32zM709 934h67v201l-67 -52v-149zM801 1184l194 149 h-194v-149z" />
<glyph unicode="I" horiz-adv-x="649" d="M33 -6l8 1108l338 256h258v-1102l-6 -6l-338 -256h-260zM57 31l222 168v878h-222v-1046zM80 18h199v150zM80 1102h207l82 63v156zM303 31l287 219h-205l-82 -64v-155zM303 217l66 51v867l-66 -52v-866zM393 274h221v1047l-221 -168v-879zM393 1184l197 149h-197v-149z " />
<glyph unicode="J" horiz-adv-x="747" d="M14 -6v211l148 110v781l346 262h256v-830q0 -182 -82 -245l-336 -254q-68 -51 -196 -52q-41 0 -136 17zM39 14q63 -12 111 -12q133 0 191 53.5t62 186.5l-53 8v100l-198 -151q-23 -19 -68 -19q-20 0 -45 4v-170zM57 205h31h6q62 0 66 80zM180 252l170 129v49l-164 -127 q0 -31 -6 -51zM186 334l172 133q17 -2 48 -6v616h-220v-743zM209 1102h205l84 63v156zM375 270l31 -6v8v121l-31 -24v-99zM375 399l31 25v14l-31 2v-41zM399 96l197 150q-48 -12 -103 -12q-31 0 -65 4q-4 -88 -29 -142zM430 262q29 -4 55 -4q143 0 199.5 62.5t56.5 207.5 v793l-221 -168v-594q0 -82 -33 -102v-2l-57 -43v-150zM430 461q68 2 68 98v576l-68 -52v-622zM520 1184l197 149h-197v-149z" />
<glyph unicode="K" horiz-adv-x="1054" d="M23 -12v1102l342 262h262v-154l204 154h254l-208 -367l206 -735l-344 -262h-252l-34 129l-172 -129h-258zM47 25l219 168v153l92 158v196l-92 -71v442h-219v-1046zM72 12h194v150zM72 1096h202l84 63v156zM291 25l155 118l-24 101h-47l-84 -64v-155zM291 211l67 51v125 l-67 -51v-125zM291 705l67 131v292l-67 -51v-372zM313 696l45 33v53zM319 389l39 29v39zM383 268h33l-33 125v-125zM383 492l12 -46l164 127l-12 45l-164 -124v-2zM383 524l158 121l-25 86l88 156l-221 -168v-195zM383 750l219 168v153h-96l-123 -240v-81zM383 885l104 205 l115 90v135l-219 -168v-262zM383 1178l197 149h-197v-149zM401 420l39 -152h162v154l-35 125zM446 244l21 -84l113 84h-134zM475 133l29 -113l174 134l-51 180v-84zM532 12h185l-33 117zM535 1096h67v53zM541 729l20 -70l152 115l4 -16l125 -490h211l-203 719l174 307 l-285 -219zM567 635l15 -47l24 20l58 101zM588 563l14 -53v65zM627 424l71 -254l119 90l-117 463l-73 -127v-172zM627 961l55 110h-55v-110zM627 1096h67l105 202l-172 -131v-71zM705 143l36 -123l291 224h-196zM723 1096h2l303 231h-188z" />
<glyph unicode="L" horiz-adv-x="907" d="M16 -12v1099l9 9l337 256h259v-891h315v-209l-8 -8l-334 -256h-578zM41 25l221 168v878h-221v-1046zM66 12h509v168h-290zM66 1096h202l84 63v156zM285 217l67 51v860l-67 -51v-860zM317 205h267l51 39h-266zM377 287l219 168v860l-219 -168v-860zM377 1178l196 149h-196 v-149zM393 268h275l221 168h-277zM600 25l289 219h-213l-76 -58v-161zM709 268h202v156z" />
<glyph unicode="M" horiz-adv-x="1271" d="M33 -12v1099l8 9l336 256h340l26 -138l187 138h330v-1100l-9 -8l-333 -256h-240v112l-148 -112h-157l-19 92l-118 -92h-203zM57 25l160 120v650l152 112v131l-7 33h-305v-1046zM80 12h137v103zM80 1096h289l-2 219zM242 25l106 81l-18 97l-88 -68v-110zM242 164l84 65 l-84 430v-495zM242 780l104 -534l23 16v615zM352 219l19 -96l157 121h-143zM375 96l16 -76l152 117l22 105zM393 268h160v293l-80 -59l-78 395l-2 -2v-627zM393 1040l19 -100l166 129l6 21v2l139 106l-25 121l-305 -236v-43zM393 1114l279 213h-279v-213zM416 913l63 -329 l74 358v76zM418 12h98l19 88zM498 551l55 41v229zM545 29l133 102v80l-113 -88zM573 160l105 82v141l-27 145zM578 293l63 295l-8 37l-55 -45v-287zM578 610l51 41l-51 264v-305zM588 991l61 -323l10 6l23 123l102 75l-39 199h-141zM629 1096h112l-14 75zM666 588l14 -84 v158l-4 -3zM705 25l196 151v203l-29 -125l-167 -135v-94zM705 150l120 94h-104l-16 -15v-79zM705 385l22 -117h125l49 226v438l-51 -39l-27 -125l-118 -88v-295zM705 711l96 71l-13 64l-83 -62v-73zM727 12h174v133zM750 1188l16 -92h100l45 215zM770 1071l35 -182l22 18 l35 164h-92zM811 862l4 -22l6 30zM858 930l43 33v108h-14zM891 1096h16l305 231h-272zM924 25l288 219h-178l-110 -80v-139zM924 195l94 67v666l-94 -436v-297zM924 606l90 412l-90 -68v-344zM924 981l116 88l2 -801h193v1047l-311 -238v-96z" />
<glyph unicode="N" horiz-adv-x="1058" d="M33 -12v1099l344 265h223l59 -133l177 133h211v-1102l-345 -262h-204l-64 145l-186 -145h-215zM57 25l172 131v473l140 106v60l-119 276h-193v-1046zM80 12h149v113zM80 1096h174l115 88v131zM254 25l172 131l-39 88h-2l-131 -101v-118zM254 174l115 88v25l-115 262v-375 zM256 618l113 -270v357zM272 1079l97 -223v297zM393 291l10 -23h162v256l-61 -47l-107 250l-4 -4v-432zM393 801l15 -35l84 63v261l6 6h2l139 106l-51 119l-195 -150v-370zM393 1202l164 125h-164v-125zM414 244l30 -74l97 74h-127zM418 741l74 -172v230zM455 147l57 -129 l176 136v426l-12 28l-86 -65v-291zM516 516l49 39v299l-49 -37v-301zM516 848l62 47l108 -248h2v424h-172v-223zM539 1096h145l-35 84zM543 12h145v111zM590 573l76 58l-76 174v-232zM668 1194l39 -90l120 92v119zM713 25l286 219h-153l-133 -103v-116zM713 172l114 88 l-114 264v-352zM713 586l137 -318h172v1047l-170 -131v-445h-6l-133 -104v-49zM713 666l112 88l-112 278v-366zM717 1081l110 -256v340zM852 1214l147 113h-147v-113z" />
<glyph unicode="O" horiz-adv-x="1042" d="M10 543q0 389 170 520l328 248q82 63 213 63q371 0 371 -575q0 -371 -156 -506q-31 -27 -148 -115q-176 -135 -186 -141q-111 -70 -217 -70q-375 0 -375 576zM35 543q0 -551 350 -551q231 0 309 233q-84 4 -147 39q-35 -27 -105 -80q-31 -25 -57 -24q-66 0 -94 78 q-23 66 -23 301q0 252 23.5 311t58.5 82q8 90 27 162q-342 -6 -342 -551zM272 1102q51 14 113 16q18 62 47 107zM293 539q0 -233 22.5 -294t69.5 -61q66 1 84 142q-123 135 -123 473q0 49 2 94q-55 -39 -55 -354zM371 799q0 -309 102 -441q2 43 2 99q0 315 -21.5 380.5 t-68.5 65.5h-12q-2 -49 -2 -104zM377 950l149 115q-55 25 -125 27q-16 -63 -24 -142zM387 928q63 0 90 -82q23 -72 23 -393q0 -70 -6 -119q14 -18 51 -41l164 125q-57 8 -81 75.5t-24 301.5q0 133 6 211q-20 25 -59 47zM410 1116q78 -4 139 -35q39 33 80 66q53 37 92 37 q66 0 92 -82q23 -72 23 -389q0 -211 -58 -273l-24 -18q-8 -96 -29 -174q342 4 342 551q0 551 -346 551q-236 0 -311 -234zM473 240l51 36q-16 12 -35 27q-6 -37 -16 -63zM567 281q57 -29 133 -33q19 69 27 153zM571 1069q20 -14 41 -33q7 51 19 78zM629 768 q0 -207 22.5 -267.5t69.5 -60.5l8 2q4 48 4 101q0 303 -100 436q-4 -72 -4 -156v-55zM635 1014q123 -137 123 -463q0 -47 -2 -96q55 29 55 258q0 317 -22.5 381.5t-67.5 64.5q-72 0 -86 -145zM674 121q61 41 149 115q-55 -13 -98 -13h-6q-18 -57 -45 -102z" />
<glyph unicode="P" horiz-adv-x="966" d="M4 -12v1099l344 265h318q368 0 368 -340q0 -184 -96 -258l-328 -252l-2 2v-254l-342 -262h-262zM29 25l219 168v253l92 70v96q-27 -4 -51 -4h-39v297l90 68v98h-8h-303v-1046zM53 12h195v150zM53 1096h287v219zM272 25l289 219h-205l-84 -64v-155zM272 211l68 51v160h-14 h-54v-211zM274 645l66 51v185q-20 4 -39 4h-27v-240zM289 446h51v39zM297 909q23 0 43 -4v37zM299 633q23 2 41 4v29zM365 268h219v219q-82 -61 -219 -65v-154zM365 446q141 4 219 72v156l-219 -170v-58zM365 535l219 170l14 -3h74q4 29 4 54q0 47 -6 84q-86 -68 -150 -117 q-123 -94 -155 -105v-83zM365 645q53 20 61 86l-61 -47v-39zM365 715l63 49q0 90 -63 110v-159zM365 901q80 -23 86 -121l135 103v114q-43 37 -103 56l-118 -92v-60zM365 991l90 68q-39 10 -90 12v-80zM365 1094q63 -2 114 -17q37 31 115 88h4q98 0 137 -22q53 -33 53 -125 q0 -104 -98 -162q9 -46 9 -94q0 -28 -3 -57q316 6 316 307q0 315 -346 315h-301v-233zM444 700l218 166q-18 -2 -60 -2l-149 -112q-2 -29 -9 -52zM508 1069q43 -14 78 -41v100zM608 541q48 55 62 139h-6h-56v-139zM610 889h15l30 2q-16 47 -45 82v-84zM610 1010 q43 -37 70 -115q84 19 84 123q0 123 -129 123h-25v-131zM657 569l168 129q-59 -18 -131 -18q-10 -61 -37 -111z" />
<glyph unicode="Q" horiz-adv-x="1130" d="M14 545q0 174 25 276q39 154 141 234l344 264q72 55 201 55q373 0 373 -573q0 -348 -135 -486q29 -49 124 -49v-215q-12 -6 -173.5 -131t-168.5 -131q-12 -2 -34 -2q-219 0 -271 186q-31 -4 -63 -4q-362 0 -363 576zM39 545q0 -553 338 -553q37 0 67 6l234 178 q10 24 18 49q-80 2 -141 35l-106 -82q-20 -16 -58 -16q-68 0 -94 78q-25 68 -25 301q0 244 25 311q18 53 59 84q6 88 25 158q-205 -4 -285 -187q-57 -127 -57 -362zM293 1106q45 10 96 12q16 53 41 96zM297 541q0 -233 22.5 -294t71.5 -61q64 1 82 140q-123 141 -123 475 q0 49 2 94q-55 -39 -55 -354zM375 801q0 -305 102 -441q4 41 4 97q0 317 -22.5 382.5t-69.5 65.5q-6 0 -12 -2q-2 -47 -2 -102zM381 956l145 111q-53 23 -120 25q-16 -61 -25 -136zM389 930q66 0 92 -82q20 -61 23 -324v-69q0 -70 -4 -121q14 -20 55 -45l168 131 q-63 0 -92 76q-23 68 -23 301q0 131 6 209q-20 27 -63 49zM414 1116q76 -4 135 -33l106 82q29 20 70 21q66 0 92 -82q23 -74 23 -428q0 -197 -56 -240l-26 -22q-8 -92 -29 -164q35 2 64 6q4 -12 10 -33l135 105q16 12 41 47q94 133 94 426q0 549 -348 549q-236 0 -311 -234z M463 -18q47 -170 231 -170h33v174q-94 2 -131 77q29 27 51 60zM473 227l59 47q-18 12 -38 29q-6 -45 -21 -76zM571 1071q25 -14 47 -35q7 55 19 84zM578 276q53 -26 122 -26h5q18 63 26 143zM627 57q29 -47 108 -49l117 90q-37 33 -59 86zM633 770q0 -207 22.5 -267.5 t69.5 -60.5q2 0 10 2q2 48 2 101q0 303 -100 434q-4 -70 -4 -154v-55zM639 1014q123 -135 123 -461q0 -45 -2 -96q55 29 55 258q0 317 -21.5 381.5t-68.5 64.5q-72 0 -86 -147zM680 129l102 78l-4 16l-82 -63q-8 -16 -16 -31zM715 205l26 20h-18zM752 -8v-166l284 217h-6h-8 q-87 0 -150 41zM811 199q23 -53 61 -84l168 129q-66 6 -96 55zM893 100q51 -32 132 -32h5h33v161z" />
<glyph unicode="R" horiz-adv-x="1060" d="M27 -12v1102l344 262h331q352 0 353 -314q0 -186 -146 -266q13 -41 148 -522l-342 -262h-254l-27 110l-145 -110h-262zM51 25l221 168v284l90 70v71q-25 -4 -45 -4h-45v291l90 70v96h-311v-1046zM74 12h198v150zM74 1096h288v219zM295 25l133 100l-29 119h-20l-84 -64 v-155zM295 211l67 51v133l-16 64h-51v-248zM297 651l65 51v183q-16 2 -30 2h-35v-236zM319 483h33l10 9v24zM319 911q25 0 43 -2v35zM322 639q20 0 40 4v29zM387 268h6l-6 27v-27zM387 397l31 -129h188q2 41 0 43l-61 215l61 45v76l-219 -168v-82zM387 510l219 168v24 l-219 -167v-25zM387 565q80 55 227 174h80q2 21 2 41q0 41 -4 64q-74 -57 -145 -115q-129 -96 -160 -106v-58zM387 649q58 18 66 90l-66 -49v-41zM387 721l66 51q-2 88 -66 109v-160zM387 905q80 -20 88 -117l133 103v110q-43 35 -102 52l-119 -90v-58zM387 993l88 68 q-27 6 -88 10v-78zM387 1096q37 -4 113 -17q55 41 112 90h9q100 0 139 -22q53 -31 53 -125q0 -66 -20 -94q-10 -12 -78 -66q6 -31 6 -82q0 -43 -10 -82l10 -39l160 123q2 2 8 6q141 78 141 250q0 289 -328 289h-315v-231zM424 244l25 -103l135 103h-160zM455 115l24 -95 l174 134l-26 90h-4zM471 707l213 165q2 0 -31 0h-28l-148 -112q0 -33 -6 -53zM508 12h186l-35 117zM530 1071q43 -14 78 -39v101zM573 514l33 -115v138zM631 315q0 -4 43 -145l119 90l-86 356q-29 -18 -76 -61v-240zM631 592q41 45 55 106l-2 9l-53 -41v-74zM631 696l24 19 h-24v-19zM633 897h20h25q-14 43 -45 80v-80zM633 1012q45 -37 69 -111q86 17 86 121q0 123 -124 123h-31v-133zM680 143l37 -123l293 224h-199zM690 635l10 8l-2 8zM727 633l90 -365h213l-141 488z" />
<glyph unicode="S" horiz-adv-x="1001" d="M6 295l227 174q-198 132 -198 315q0 172 131 273q125 100 252 203q159 114 282 114h2q127 0 205 -80q68 -70 113 -219l-217 -164q115 -76 168 -143q69 -90 69 -205q0 -170 -151 -287l-289 -219q-117 -92 -248 -92q-150 0 -238.5 88t-107.5 242zM33 281q55 -291 319 -291 q123 0 209 65q84 64 109 168q-78 4 -138 31q-39 -31 -79 -64q-50 -36 -91 -36h-2q-115 0 -143 165zM59 786q0 -174 193 -303q14 10 98 74l164 35q-76 51 -154 102q-94 72 -94 140q0 43 39 81q10 10 72 58q-6 32 -6 65q0 27 4 54h-8q-13 1 -26 1q-113 0 -193 -80 q-88 -89 -89 -227zM70 313l153 33l92 70l-61 39zM242 330q25 -152 118 -152q86 0 86 88q0 61 -110 135zM264 1102q49 15 95 15q10 0 20 -1q10 55 37 103zM274 471l62 -39l29 23q-6 20 -19 71zM391 702q78 -51 154 -102l28 4l7 -33q70 -61 100 -133l16 -2q86 0 86 86 q0 59 -108 137q-82 55 -164 109l-51 -10q-37 147 -101 147q-67 0 -67 -69q0 -59 100 -134zM356 418l35 -27q-10 20 -16 39zM358 928q21 0 35 -4l-8 24zM369 537q6 -23 16 -68l129 98zM393 446q43 -115 137 -163l140 106l-8 27q-80 23 -105 143l-8 6zM395 1042q0 -25 4 -53 l97 76q-43 20 -97 25q-4 -25 -4 -48zM403 1114q61 -6 115 -33q41 33 84 64q55 41 90 41q72 0 119 -144l182 37l-4 13q-45 131 -96 186q-70 72 -191 72q-113 0 -194.5 -63.5t-104.5 -172.5zM406 965q20 -86 92 -154l133 102q-37 94 -111 140zM467 297q8 -29 2 -61l41 30 q-23 12 -43 31zM467 809l6 -16l6 4zM516 795l141 28q-4 23 -16 68zM541 774l164 -106q102 -76 102 -146q0 -49 -35 -84q-2 -2 -76 -59q8 -36 8 -74q0 -28 -4 -57q121 2 195 65l2 -2q119 90 119 252q0 113 -70 197q-49 61 -164 135l-118 -94q-4 -2 -123 -27zM541 1067 q74 -47 110 -137l37 28q-86 63 -86 132q0 14 2 26zM555 270q53 -20 121 -22q4 30 4 59q0 27 -4 55zM592 526q18 -57 55 -77q-20 41 -55 77zM709 973l79 61q-41 127 -96 127q-65 0 -65 -67q0 -59 82 -121zM662 133l135 105q-47 -14 -101 -15q-12 -49 -34 -90zM662 905 q10 -29 16 -59l82 63l-51 33zM688 412l2 -6l8 6h-10zM729 958l51 -34l156 118l-129 -24z" />
<glyph unicode="T" horiz-adv-x="940" d="M4 889v209l346 264h658v-211l-9 -6l-190 -146v-733l-8 -12l-338 -256h-258v891h-201zM29 926l202 155h-202v-155zM51 913h162l219 168h-160zM51 1106h213l76 57v162zM229 35l220 168v702l92 72v104h-68l-244 -186v-860zM252 23h197v149zM303 1106h162l51 39h-160z M365 1169h200v-63h90l306 231h-596v-168zM473 35l287 219h-203l-84 -64v-155zM473 221l68 51v617h-68v-668zM496 913h45v33zM504 1106h37v27zM565 279h219v702l-120 -92h-99v-610zM565 913h82v117l-82 -65v-52zM565 995l82 66v20h-82v-86zM672 926l112 86v121l-112 -84v-123 zM672 1079l123 90h188v156l-311 -238v-8zM809 1030l152 115h-152v-115z" />
<glyph unicode="U" horiz-adv-x="999" d="M27 274v822l342 262h262v-127l164 127h227v-828q0 -158 -88 -225q0 -4 -334 -256q-100 -78 -238 -78q-156 0 -241 74q-94 78 -94 229zM51 274q0 -278 309 -278h2q272 0 297 233q-72 6 -127 29q-37 -31 -73 -59q-45 -33 -84 -33q-104 0 -105 131v780h-219v-803zM74 1102 h205l83 63v156zM295 297q0 -106 80 -107q78 0 78 113q-90 78 -91 227v605l-67 -52v-786zM387 530q0 -123 66 -192v758l153 116v109l-219 -168v-623zM387 1184l195 149h-195v-149zM473 244l33 24q-14 8 -29 17q0 -25 -4 -41zM477 315q23 -18 51 -30l134 102v45 q-55 25 -56 121v524h-129v-762zM502 1102h104v80zM555 274q47 -16 107 -20v20v82zM631 553q0 -71 31 -94v618h-31v-524zM631 1102h39l118 90v129l-157 -121v-98zM653 119l164 125q-57 -15 -114 -15h-19q-6 -63 -31 -110zM686 254h10h21q124 0 199 66q81 72 81 210v791 l-184 -141v-627q0 -72 -33 -107q-47 -35 -94 -69v-123zM686 408l21 14l-21 2v-16zM686 449q25 -2 25 -3q31 0 49 17q28 24 28 90v608l-102 -78v-634zM813 1210l162 123h-162v-123z" />
<glyph unicode="V" horiz-adv-x="991" d="M6 1096l8 6l338 256h252l27 -162l213 162h219l-221 -1098l-344 -266h-271l-2 8zM35 1077l211 -1050l284 217l17 86l-23 112l-149 -114l-127 749h-213zM55 1102h199l119 90l-27 133zM272 18h211l39 191zM272 1085l111 -663l68 387l-72 356zM369 1333l26 -125l164 125h-190 zM399 379l119 90l-55 274zM399 1182l62 -308l37 220l112 86l-24 145zM475 809l66 -324l45 35l73 367l-32 190h-105zM512 35l283 215h-217l-27 -19zM545 459l14 -68l19 94zM547 1102h76l-9 51zM571 330l11 -56h237l209 1043l-201 -154l-98 -559l-123 -96zM614 543l91 69 l-35 207zM637 1169l10 -67h60l98 74l24 141zM651 1077l21 -123l24 123h-45zM684 887l35 -209l80 463l-76 -58zM834 1198l178 135h-154z" />
<glyph unicode="W" horiz-adv-x="1327" d="M8 1096l348 262h242l16 -127l168 127h232l22 -129l168 129h207l-203 -1102l-344 -262h-223l-25 149l-196 -149h-227zM37 1077l176 -1050l225 174l51 284l-6 39l-155 -118l-86 671h-205zM59 1102h189l123 94l-21 129zM240 18h166l26 148zM266 1083l72 -546l74 411l-37 221 zM350 455l129 98l-55 324zM373 1333l20 -121l160 121h-180zM397 1186l29 -166l14 80l154 114l-14 109zM434 35l178 137l-12 78h-57l-82 -64zM436 948l64 -379l6 4l24 166l5 11l108 84l-33 243h-149zM467 223l59 43l-24 148zM485 1102h123l-12 84zM514 485l35 -211h47 l-47 301l-21 -16zM537 596l8 6l-4 23zM555 733l12 -112l92 69l-12 115zM571 592l50 -318h120l27 154h-2l-64 387l-18 -131l-4 -8zM618 1204l15 -102h31l75 59l29 156zM625 250l10 -62l80 62h-90zM635 1077l31 -227l22 16l2 17l-33 194h-22zM639 162l20 -135l226 172l53 293 l-6 38l-139 -106l-31 -168zM670 821l4 -28l6 36zM680 1085l22 -133l31 172zM688 18h164l27 146zM717 889l129 98l18 113l150 112l-19 113l-233 -178zM719 860l57 -321l64 413zM768 1182l199 151h-172zM799 461l129 98l-51 324zM872 1004l17 12l61 -441l4 5l86 473l-4 24 h-153zM881 35l280 215h-170l-84 -64zM909 1102h123l-14 84zM913 221l60 47l-23 150zM963 492l34 -218h191l190 1043l-184 -139l-43 -281l-31 -221l-143 -111zM983 600l117 90l-47 293zM1040 1202l17 -100l114 88l21 129zM1065 1053l47 -258l55 360l-96 -72zM1200 1212 l160 121h-141z" />
<glyph unicode="X" horiz-adv-x="1050" d="M10 -6l244 549l-225 553l346 262h264l43 -121l158 121h237l-233 -518l237 -582l-344 -264h-260l-53 137l-174 -133l-2 -4h-238zM59 45l269 205l32 88l35 27l92 202l-6 17l74 161l-276 -210zM61 1077l211 -516l303 232l9 20l-33 82l-158 -121l-106 303h-226zM63 18h168 l80 189zM80 1102h211l133 102l-49 123zM268 43l146 111l-35 96h-10l-21 -14zM309 1085l88 -243l86 219l-49 121zM391 293l4 -19h172l21 50l-49 118l-123 -94zM397 1333l47 -112l150 112h-197zM406 250l28 -80l105 80h-133zM416 821l127 97l-47 110zM436 395l92 70l-28 72z M442 145l47 -120l168 129l-57 137l-14 -33l-4 -6l-2 -2zM455 1196l43 -104l4 10h4l158 121l-39 104zM510 1061l51 -129l117 90l27 55h-187zM514 567l35 -86l162 123l118 -330h220l-224 545l-303 -229zM520 18h193l-45 111zM545 635l274 213l207 459l-266 -205l-21 -64 l-41 -32l-88 -193l6 -14zM545 1102h162l-35 96zM559 459l43 -105l78 197zM571 909l27 -65l59 131zM614 324l64 -156l127 98l-103 275zM686 145l51 -120l293 225h-207zM692 1214l37 -104l10 8l76 191zM774 1145l248 188h-170z" />
<glyph unicode="Y" horiz-adv-x="1017" d="M-4 1096l10 6l336 256h262l47 -160l209 160h230l-265 -658v-442l-344 -264h-260v440zM27 1077l215 -618l313 239l-23 78l-161 -123l-2 19l-119 405h-223zM45 1102h211l127 96l-45 129zM246 31l219 168v250l88 217l-307 -234v-401zM270 18h195v150zM274 1085l107 -370 l86 239l-76 222zM362 1333l41 -119l156 119h-197zM406 709l118 92l-45 117zM412 1190l69 -201l37 107l113 86l-43 143zM489 31l287 219h-203l-84 -64v-155zM489 217l70 51v224l-70 -52v-223zM494 952l51 -137l98 78l41 100l-25 84h-120zM506 481l53 41v92zM553 793l22 -72 l52 127zM565 1102h88l-16 55zM582 274h219v404l-219 -168v-236zM582 541l221 170l241 600l-247 -191l-70 -192l-63 -51l-82 -203v-133zM657 1174l21 -72h55l43 33l64 176zM682 922l18 14l-4 20zM686 1077l12 -47l21 47h-33zM711 991l6 -20l43 123l-15 -13zM811 1163l225 170 h-164z" />
<glyph unicode="Z" horiz-adv-x="995" d="M31 -6v156l319 735h-280v211l8 6l334 256h594v-148l-2 -2l-318 -741h318v-211l-7 -6l-340 -256h-626zM53 31l287 219l25 57v70l-312 -240v-106zM72 182l295 226l278 643v26h-22l-244 -186zM78 18h567v168h-350zM94 922l201 155h-201v-155zM117 909h248l219 168h-248z M117 1102h211l75 59v160zM367 1102h247l54 41h-248zM369 211h284l52 39h-285zM389 274h23l245 189l306 713l-295 -228l-279 -647v-27zM389 362l256 596v31l-256 -592v-35zM428 1167h311l217 166h-528v-166zM451 274h284l221 168h-284zM670 31l286 219h-213l-73 -57v-162z M670 981l311 238v102l-287 -219l-24 -58v-63zM776 274h205v156z" />
<glyph unicode="[" horiz-adv-x="667" d="M33 -201v1297l344 262h336v-119l-142 -109v-948h142v-114l-346 -269h-334zM57 -164l154 117v1034l108 90h-262v-1241zM82 -178h270v80h-141v20zM82 1102h270l17 14v205zM236 -29l133 103v903h-133v-1006zM236 -59v-2l149 116zM258 -74h102l170 129h-102zM258 999h94v74z M377 -92v-72l289 219h-97zM393 80h27l127 96v936l-154 -117v-915zM393 1026l154 117v69l-154 -116v-70zM393 1135l273 198h-273v-198zM461 80h100l105 78h-103zM571 1161l95 72h-95v-2v-70zM602 80h86v65zM604 1257h84v64z" />
<glyph unicode="\" horiz-adv-x="821" d="M-8 1114l346 264h139l404 -1261l-346 -264h-140zM23 1098l389 -1213l82 62l-369 1151h-102zM41 1122h88l223 170l-18 54zM147 1106l367 -1143l211 162l-365 1143zM356 1354l17 -45l59 45h-76zM381 1282l369 -1149h102l-389 1213zM440 -123h76l-14 45zM522 -61l17 -54 l292 224h-88z" />
<glyph unicode="]" horiz-adv-x="681" d="M33 -84l143 111v948h-143v115l346 268h334v-1299l-344 -260h-336v117zM57 -100v-64l86 64h-86zM57 1012l88 65h-88v-65zM82 -76h92l2 2v70zM82 -178h270v201zM82 999h102l103 78h-103zM82 1102h94l193 147v72zM201 14v-69l151 116v70zM201 45l151 117v915h-26l-125 -96 v-936zM217 1102h100l170 129h-102zM360 1102l152 115v2zM377 41v-205l289 219h-271zM377 180h135v1006l-135 -103v-903zM393 84l94 72h-94v-72zM393 1255h144v-20l129 98h-273v-78zM426 80h262v1241l-151 -117v-1036z" />
<glyph unicode="^" horiz-adv-x="1185" d="M-18 664l370 444h2l334 256h219l363 -434l-348 -266h-201l-225 225l-291 -225h-223zM45 688h150l231 232h-78zM88 752l248 188l119 143h-90zM338 799l141 106l-14 15h-4zM371 944h80l12 12l2 -2l123 97l-27 32h-76zM395 1108h80l139 168zM489 944h39l82 80l-6 8z M506 1108h57l303 231h-166zM516 903l211 -211l98 74l-200 240l-86 -86zM584 1094l24 -29l191 147l268 -268h158l-326 391zM623 1047l4 -5l32 31zM643 1024l201 -244l198 154l-243 244zM762 688h129l-51 60zM860 762l58 -70l299 228h-152z" />
<glyph unicode="_" horiz-adv-x="1087" d="M18 -98l342 262h781v-187l-344 -262h-779v187zM41 -117v-133l174 133h-174zM66 -92h182l104 82v137zM66 -262h716v145h-526zM287 -92h504l81 63h-503zM377 -4h526l191 145h-717v-145zM807 -111v-139l287 221h-183zM944 -4h174v131z" />
<glyph unicode="`" horiz-adv-x="778" d="M0 1141l346 268h217l4 -6l150 -287l-346 -264h-121l-2 4zM43 1128l215 -247l61 47l-106 200h-170zM53 1153h164l199 152l-66 75zM238 1137l102 -195l233 180l-141 164zM293 874h53l-14 31zM350 920l21 -37l295 225h-70zM379 1384l57 -65l84 65h-141zM451 1300l147 -167 h84l-129 245z" />
<glyph unicode="a" horiz-adv-x="1067" d="M8 -6l209 1098l346 266h330l190 -1100l-348 -264h-246l-28 178l-236 -178h-217zM41 35l199 151l10 54l106 79l17 84h-97l76 478h-2l4 2l127 98l19 96h-262zM59 18h154l23 134zM240 33l217 166l-4 20h-131l-60 -45zM264 1102h242l41 215zM268 209l13 10h-11zM295 244h18 l33 24l4 17zM309 444l84 64l6 41l-37 246zM328 428h49l8 45zM352 244h107l10 6h-107zM373 274h127l55 41l23 144l-199 -152zM377 868l37 -245l61 321zM385 342l207 158h45l-10 49l-191 -146h-39zM401 428h17l-6 49zM424 549l4 -14l178 137l-57 329l-45 -34zM432 508l10 -70 l181 140l-13 67zM477 225l2 -10l43 35h-14zM483 188l25 -161l186 143l-35 195l-81 -62l-9 -49zM510 1001l35 27l-8 49h-13zM530 1102h13l303 231h-273zM535 18h184l-21 123zM541 274h8v7zM559 1085l8 -41l142 105l71 -481l-131 -101l13 -67h147l37 -226h209l-183 1051z M571 1018l52 -297l59 383zM584 338l71 55l-14 82h-35zM633 659l12 -65l88 65h-100zM641 684h113l-56 367zM666 475l10 -65l88 65h-98zM682 381l33 -195l106 82l-30 197zM721 160l22 -133l291 223h-194z" />
<glyph unicode="b" horiz-adv-x="1021" d="M23 -6v1100l8 8l340 256h348q323 0 323 -273q0 -180 -165 -245q182 -68 182 -265q0 -164 -98 -247l-3 -2l-321 -244q-90 -88 -264 -88h-350zM47 31l215 164v294l8 9l88 67v94q-20 -4 -41 -4h-55v256l8 9l88 67v90h-311v-1046zM70 18h303q152 0 235 70v2l10 8 q60 56 74 152h-219l-37 -29l-2 -2q-35 -35 -106 -35l-37 2zM70 1102h288v219zM287 213l71 55v203q-16 2 -32 2h-39v-260zM287 692l71 56v145q-16 2 -34 2h-37v-203zM309 680h8q21 0 41 4v33zM311 498h7.5h7.5q16 0 32 -2v39zM311 920h6.5h6.5q18 0 34 -2v38zM322 209h6 q53 0 82 22l10 9q2 4 8 10h-53zM383 274h55q11 29 11 68q0 102 -66 123v-191zM383 492q90 -27 90 -150q0 -39 -8 -68l211 160q0 4 -2 8q-18 0 -10 0h-66v86q-37 25 -96 41l-37 13l133 98v37l-215 -164v-61zM383 584l215 164q82 -104 123 -144l4 12q-35 49 -117 138q2 2 54 2 q-6 0 10 -2q10 36 10 73q0 27 -4 52l-252 -191q-16 -16 -43 -24v-80zM383 690q51 18 55 88l-55 -43v-45zM383 766l53 43q-4 63 -53 80v-123zM383 913q66 -18 76 -88l139 105v90q-41 31 -98 45l-117 -90v-62zM383 1006l86 65q-43 6 -86 6v-71zM383 1102q59 0 111 -10l104 77 l10 7l51 2h14q60 0 91 -31q35 -35 35 -100q0 -66 -33 -99l-2 -2v-2l-66 -49q8 -35 9 -68q0 -35 -11 -71l121 90q2 -2 21 4q180 53 180 233q0 250 -299 250h-336v-231zM457 741l215 164q0 2 -2 8q-18 0 -17 0h-39l-151 -116v-6q0 -27 -6 -50zM506 274h190q2 20 2 45 q0 51 -12 93zM524 1083q41 -12 74 -32v88zM539 606q30 15 59 35v10zM541 582q32 -13 57 -25v55q-25 -18 -57 -30zM621 467h38q-18 27 -38 43v-43zM621 541q43 -31 65 -74q31 4 51 14l13 11q34 30 34 106q0 113 -86 129l-14 -12q-23 -49 -63 -84v-90zM621 664q6 6 14 16 l-14 -10v-6zM621 698l43 33h-2q-16 0 -41 -2v-31zM621 936h32q-5 0 9 2q-16 37 -41 61v-63zM621 1032q45 -37 67 -92q86 11 86 107q0 106 -115 106q-16 0 -38 -2v-119zM686 150l154 116q-55 -14 -123 -16q-8 -55 -31 -100zM705 426q18 -49 18 -107q0 -20 -2 -45 q133 2 203 56l10 8q100 75 100 237q0 199 -196 252h-7l-106 -82q84 -27 84 -147q0 -88 -45 -125z" />
<glyph unicode="c" horiz-adv-x="1003" d="M8 535q0 395 189 540l335 256q66 49 189 49q328 0 330 -413v-9l-9 -4l-340 -258h-77q0 -94 14 -151l184 137l224 -10v-13q0 -260 -138 -370l-336 -256q-76 -61 -198 -62q-367 0 -367 564zM33 535q0 -539 342 -539h2q226 0 289 235q-102 12 -174 76q-23 -139 -107 -139 q-37 0 -61 25q-60 62 -60 303v8v24v25v28q0 312 86 351q10 94 33 168q-131 -2 -213 -84q-137 -137 -137 -481zM287 1110q47 14 98 14q2 0 6 -2q18 60 47 105zM289 504v-12q0 -299 96 -299q70 0 86 137q-127 139 -127 461q0 53 4 110q-59 -51 -59 -330v-18v-49zM369 791 q0 -293 104 -429q0 18 2 52v2l8 10l135 102q-16 63 -18 168h-141v13q-4 66 -23 129q-23 77 -54 77h-1q-2 0 -6 -2q-6 -63 -6 -122zM377 938q2 2 4 2q78 0 100 -209l119 90v43q0 83 6 140q-70 86 -198 94q-23 -72 -31 -160zM416 1122q121 -8 194 -86q25 160 107 160t100 -219 h209q-6 379 -305 379q-221 0 -305 -234zM496 336l2 -2q68 -68 174 -78q12 63 14 135l-186 10q0 -35 -4 -65zM508 721h92v41v31zM522 424l172 -8l13 10q-53 6 -80 78zM625 721h65q0 70 -14 129l-51 -39v-2v-88zM625 840l45 37q-14 53 -41 96q-5 -43 -5 -96q0 -18 1 -37z M633 1014q37 -51 59 -121l103 78q-4 68 -25 127q-23 73 -52 73h-1q-66 0 -84 -157zM641 113l172 131q-49 -14 -102 -15h-21q-18 -68 -49 -116zM647 520q25 -71 71 -71h1q12 0 24 6l25 18q37 43 43 172zM696 254h15q297 0 311 381l-236 -180q-14 -16 -30 -23l-45 -35 q-2 -78 -15 -143zM698 866q14 -59 17 -133l289 221l-193 -2zM813 508l186 141l-163 8q-2 -96 -23 -149z" />
<glyph unicode="d" horiz-adv-x="1011" d="M31 -6v1102l348 262h278q236 0 334 -168q78 -133 78 -387q0 -209 -47 -322q-41 -98 -152 -190q-139 -104 -278 -209q-117 -88 -270 -88h-291zM55 18h267q266 1 348 232h-211l-60 -45l-2 2q-35 -27 -86 -27q-20 0 -37 2v721l93 74v98l-45 2h-267v-1059zM78 1102l289 -2 v221zM299 219l68 51v607q-25 12 -60 12h-8v-670zM322 911q27 0 45 -8v43zM324 207q53 2 82 43h-27zM391 289l47 37q12 55 13 155q-1 340 -60 381v-573zM391 893q59 -39 78 -191q6 -63 6 -219q0 -84 -8 -135l143 109v499q-45 59 -114 88l-105 -79v-72zM391 995l78 62 q-35 10 -78 16v-78zM391 1098q55 -6 101 -25q59 43 122 96h9q143 0 178 -155q10 -51 10 -277q0 -217 -78 -272l2 -2l-4 -4q-6 -102 -29 -183q201 16 283 181q59 123 59 346q0 246 -71 368q-92 162 -316 162h-266v-235zM412 274h8l4 11zM446 274h3l217 166q-18 -4 -39 -2 l-168 -127q-4 -20 -13 -37zM489 274h189q21 72 27 164zM518 1063q57 -29 92 -68v138zM635 463h12q33 -2 60 14l2 70v33q0 216 -74 342v-459zM635 965q99 -133 98 -424v-45q53 57 53 243q0 207 -8 250q-26 156 -143 156v-180zM657 162l138 106q-47 -14 -99 -16 q-16 -49 -39 -90z" />
<glyph unicode="e" horiz-adv-x="954" d="M29 -6v1102l348 262h586v-211l-279 -213h180v-211l-231 -176v-80h334v-211l-346 -262h-592zM53 31l221 168v278l91 72v104h-91v248l91 72v104h-312v-1046zM78 18h530v168h-311zM78 1102h287v219zM297 223l68 51v187h-68v-238zM297 690l68 51v144h-68v-195zM322 483h43v35 zM322 676h43v35zM322 909h43v33zM330 211h286l52 39h-287zM389 293l219 168v67l-88 -67h-131v-168zM389 483h115v142l-115 -88v-54zM389 567l113 86h-113v-86zM389 676h123l305 233h-166l-35 -24h-24l-203 -156v-53zM389 760l164 125h-164v-125zM389 909h195l18 15v153h-59 l-154 -116v-52zM389 991l113 86h-113v-86zM389 1102h146l79 63h80l221 168h-526v-231zM406 274h292l222 168h-295zM528 498l80 61v146l-80 -62v-145zM573 1102h35v26zM633 31l287 219h-213l-74 -57v-162zM633 578l184 139h-184v-139zM633 934h10l272 207h-213l-69 -54v-153z M633 1118l29 23h-29v-23zM637 741h203v156zM733 1165h205v156zM739 274h203v156z" />
<glyph unicode="f" horiz-adv-x="905" d="M10 -6v1100l342 264h600v-217l-270 -207h162v-211l-230 -176v-291l-344 -262h-260zM33 31l221 168v276l90 72v106h-90v248l90 72v104h-311v-1046zM57 18h197v150zM57 1102h287v219zM279 31l286 219h-205l-81 -64v-155zM279 217l65 51v193h-65v-244zM279 690l65 51v144 h-65v-195zM301 483h43v35zM301 676h43v35zM301 909h43v33zM369 274h221v254l-88 -67h-133v-187zM369 483h114v142l-114 -88v-54zM369 567l112 86h-112v-86zM369 676h123l305 233h-146l-33 -24h-45l-204 -156v-53zM369 760l163 125h-163v-125zM369 909h196l25 19v149h-68 l-153 -116v-52zM369 991l114 86h-114v-86zM369 1102h145l82 63h88l221 168h-536v-231zM508 498l82 61v146l-82 -62v-145zM555 1102h35v26zM614 578l183 139h-183v-139zM614 1112l39 29h-39v-29zM616 741h203v156zM618 934h23l272 207h-221l-74 -58v-149zM725 1165h205v156z " />
<glyph unicode="g" horiz-adv-x="1019" d="M12 510q0 442 201 567h-2l336 258v-2q78 47 178 47q160 0 248 -101q84 -97 84 -249v-14v-66q-4 -4 -191 -145h193v-12q0 -195 -12 -271q-27 -162 -117 -231l-334 -258l-2 2q-84 -63 -229 -64q-199 0 -287 183q-66 135 -66 356zM37 510q0 -514 328 -514q264 0 315 233 q-72 4 -127 31q-37 -31 -74 -61q-51 -35 -88 -35q-125 0 -125 321q0 172 8 238q16 164 76 199l-2 2l8 6q10 94 33 170q-352 0 -352 -590zM291 487q0 -301 100 -301q80 0 92 123q-6 6 -24 31h-78v162q-8 31 -19 86q-14 84 -14 178q0 63 4 127q-61 -31 -61 -406zM295 1112 q43 11 80 11q10 0 20 -1q20 60 47 103zM373 766q0 -117 20 -215l178 137h-104v64v7q0 148 -81 148h-1l-6 -2q-6 -70 -6 -139zM383 950l154 117q-53 27 -123 31q-20 -66 -31 -148zM397 932q96 -12 95 -207l112 84q0 68 8 203q-18 23 -51 43zM406 377l18 16q-10 18 -18 39v-55 zM406 504q0 -25 36 -96l154 116h-190v-20zM422 1122q76 -6 137 -39l125 97h2q16 8 35 8q106 0 106 -207v-12h205l2 47v8q0 146 -76 236q-84 96 -233 96q-221 0 -303 -234zM428 365h12l-4 6zM428 547h190q-12 55 -14 135zM455 385l14 -20h25l149 114q-10 16 -16 39zM496 246 l34 26q-12 8 -24 19q-4 -25 -10 -45zM510 319q18 -16 41 -30l145 110v27q-23 8 -41 33l-145 -113v-27zM516 711l86 2v65zM575 276q49 -20 109 -22q8 52 12 115zM582 1071q18 -14 36 -31q7 43 19 74zM627 731l69 53q0 33 -6 62l-63 -49v-25v-41zM629 688q2 -76 12 -129l76 57 v72h-88zM629 827l55 45q-14 63 -49 113q-6 -61 -6 -133v-25zM639 1018q45 -53 68 -131l96 76v45v7q0 150 -81 150h-1q-61 0 -82 -147zM643 711h53l2 43zM651 524q4 -18 11 -30l36 28v2h-47zM664 117l167 129q-57 -16 -126 -17q-14 -66 -41 -112zM668 547h39l65 51h-39z M676 473q10 -14 22 -20v39zM709 254q217 2 284 164q37 90 41 350l-188 -145v-13q0 -94 -27 -135q-16 -25 -98 -88q-2 -76 -12 -133zM713 862q6 -31 8 -57h104l185 139h-191zM721 444h6q86 1 94 140l-98 -74zM739 623h64l207 157h-174l-97 -71v-86zM739 739l56 41h-56v-41z " />
<glyph unicode="h" horiz-adv-x="1056" d="M33 -6v1100l344 264h260v-113l147 113h260v-1102l-346 -262h-258v112l-149 -112h-258zM57 31l219 168v272l93 72v110h-93v424h-219v-1046zM80 18h196v150zM80 1102h205l84 63v156zM301 31l139 106v113h-55l-84 -64v-155zM301 217l68 51v187h-68v-238zM301 690l68 51v394 l-68 -52v-393zM326 479h43v33zM326 678h43v33zM393 274h47v181h-47v-181zM393 479h56l163 125v94l-219 -168v-51zM393 561l225 174h66v92l-227 -174h-64v-92zM393 678h47v88l-47 -37v-51zM393 760l47 37v297l172 133v94l-219 -168v-393zM393 1184l195 149h-195v-149zM465 31 l219 168v430l-47 -37v-336l-172 -131v-94zM465 156l123 94h-123v-94zM465 274h147v299l-147 -112v-187zM465 690l219 168v51h-55l-164 -125v-94zM465 815l147 113v149h-147v-262zM487 18h197v150zM487 1102h125v94zM637 623l47 36v52h-47v-88zM637 934h47v143h-47v-143z M637 1102h55l84 63v156l-139 -107v-112zM709 31l286 219h-202l-84 -64v-155zM709 217l67 51v430l-67 -51v-430zM709 678l43 33h-43v-33zM709 735h92v-461h219v1047l-219 -168v-238l-92 -69v-111zM709 877l43 32h-43v-32zM709 934h67v201l-67 -52v-149zM801 1184l194 149 h-194v-149z" />
<glyph unicode="i" horiz-adv-x="649" d="M33 -6l8 1108l338 256h258v-1102l-6 -6l-338 -256h-260zM57 31l222 168v878h-222v-1046zM80 18h199v150zM80 1102h207l82 63v156zM303 31l287 219h-205l-82 -64v-155zM303 217l66 51v867l-66 -52v-866zM393 274h221v1047l-221 -168v-879zM393 1184l197 149h-197v-149z " />
<glyph unicode="j" horiz-adv-x="747" d="M14 -6v211l148 110v781l346 262h256v-830q0 -182 -82 -245l-336 -254q-68 -51 -196 -52q-41 0 -136 17zM39 14q63 -12 111 -12q133 0 191 53.5t62 186.5l-53 8v100l-198 -151q-23 -19 -68 -19q-20 0 -45 4v-170zM57 205h31h6q62 0 66 80zM180 252l170 129v49l-164 -127 q0 -31 -6 -51zM186 334l172 133q17 -2 48 -6v616h-220v-743zM209 1102h205l84 63v156zM375 270l31 -6v8v121l-31 -24v-99zM375 399l31 25v14l-31 2v-41zM399 96l197 150q-48 -12 -103 -12q-31 0 -65 4q-4 -88 -29 -142zM430 262q29 -4 55 -4q143 0 199.5 62.5t56.5 207.5 v793l-221 -168v-594q0 -82 -33 -102v-2l-57 -43v-150zM430 461q68 2 68 98v576l-68 -52v-622zM520 1184l197 149h-197v-149z" />
<glyph unicode="k" horiz-adv-x="1054" d="M23 -12v1102l342 262h262v-154l204 154h254l-208 -367l206 -735l-344 -262h-252l-34 129l-172 -129h-258zM47 25l219 168v153l92 158v196l-92 -71v442h-219v-1046zM72 12h194v150zM72 1096h202l84 63v156zM291 25l155 118l-24 101h-47l-84 -64v-155zM291 211l67 51v125 l-67 -51v-125zM291 705l67 131v292l-67 -51v-372zM313 696l45 33v53zM319 389l39 29v39zM383 268h33l-33 125v-125zM383 492l12 -46l164 127l-12 45l-164 -124v-2zM383 524l158 121l-25 86l88 156l-221 -168v-195zM383 750l219 168v153h-96l-123 -240v-81zM383 885l104 205 l115 90v135l-219 -168v-262zM383 1178l197 149h-197v-149zM401 420l39 -152h162v154l-35 125zM446 244l21 -84l113 84h-134zM475 133l29 -113l174 134l-51 180v-84zM532 12h185l-33 117zM535 1096h67v53zM541 729l20 -70l152 115l4 -16l125 -490h211l-203 719l174 307 l-285 -219zM567 635l15 -47l24 20l58 101zM588 563l14 -53v65zM627 424l71 -254l119 90l-117 463l-73 -127v-172zM627 961l55 110h-55v-110zM627 1096h67l105 202l-172 -131v-71zM705 143l36 -123l291 224h-196zM723 1096h2l303 231h-188z" />
<glyph unicode="l" horiz-adv-x="907" d="M16 -12v1099l9 9l337 256h259v-891h315v-209l-8 -8l-334 -256h-578zM41 25l221 168v878h-221v-1046zM66 12h509v168h-290zM66 1096h202l84 63v156zM285 217l67 51v860l-67 -51v-860zM317 205h267l51 39h-266zM377 287l219 168v860l-219 -168v-860zM377 1178l196 149h-196 v-149zM393 268h275l221 168h-277zM600 25l289 219h-213l-76 -58v-161zM709 268h202v156z" />
<glyph unicode="m" horiz-adv-x="1271" d="M33 -12v1099l8 9l336 256h340l26 -138l187 138h330v-1100l-9 -8l-333 -256h-240v112l-148 -112h-157l-19 92l-118 -92h-203zM57 25l160 120v650l152 112v131l-7 33h-305v-1046zM80 12h137v103zM80 1096h289l-2 219zM242 25l106 81l-18 97l-88 -68v-110zM242 164l84 65 l-84 430v-495zM242 780l104 -534l23 16v615zM352 219l19 -96l157 121h-143zM375 96l16 -76l152 117l22 105zM393 268h160v293l-80 -59l-78 395l-2 -2v-627zM393 1040l19 -100l166 129l6 21v2l139 106l-25 121l-305 -236v-43zM393 1114l279 213h-279v-213zM416 913l63 -329 l74 358v76zM418 12h98l19 88zM498 551l55 41v229zM545 29l133 102v80l-113 -88zM573 160l105 82v141l-27 145zM578 293l63 295l-8 37l-55 -45v-287zM578 610l51 41l-51 264v-305zM588 991l61 -323l10 6l23 123l102 75l-39 199h-141zM629 1096h112l-14 75zM666 588l14 -84 v158l-4 -3zM705 25l196 151v203l-29 -125l-167 -135v-94zM705 150l120 94h-104l-16 -15v-79zM705 385l22 -117h125l49 226v438l-51 -39l-27 -125l-118 -88v-295zM705 711l96 71l-13 64l-83 -62v-73zM727 12h174v133zM750 1188l16 -92h100l45 215zM770 1071l35 -182l22 18 l35 164h-92zM811 862l4 -22l6 30zM858 930l43 33v108h-14zM891 1096h16l305 231h-272zM924 25l288 219h-178l-110 -80v-139zM924 195l94 67v666l-94 -436v-297zM924 606l90 412l-90 -68v-344zM924 981l116 88l2 -801h193v1047l-311 -238v-96z" />
<glyph unicode="n" horiz-adv-x="1058" d="M33 -12v1099l344 265h223l59 -133l177 133h211v-1102l-345 -262h-204l-64 145l-186 -145h-215zM57 25l172 131v473l140 106v60l-119 276h-193v-1046zM80 12h149v113zM80 1096h174l115 88v131zM254 25l172 131l-39 88h-2l-131 -101v-118zM254 174l115 88v25l-115 262v-375 zM256 618l113 -270v357zM272 1079l97 -223v297zM393 291l10 -23h162v256l-61 -47l-107 250l-4 -4v-432zM393 801l15 -35l84 63v261l6 6h2l139 106l-51 119l-195 -150v-370zM393 1202l164 125h-164v-125zM414 244l30 -74l97 74h-127zM418 741l74 -172v230zM455 147l57 -129 l176 136v426l-12 28l-86 -65v-291zM516 516l49 39v299l-49 -37v-301zM516 848l62 47l108 -248h2v424h-172v-223zM539 1096h145l-35 84zM543 12h145v111zM590 573l76 58l-76 174v-232zM668 1194l39 -90l120 92v119zM713 25l286 219h-153l-133 -103v-116zM713 172l114 88 l-114 264v-352zM713 586l137 -318h172v1047l-170 -131v-445h-6l-133 -104v-49zM713 666l112 88l-112 278v-366zM717 1081l110 -256v340zM852 1214l147 113h-147v-113z" />
<glyph unicode="o" horiz-adv-x="1042" d="M10 543q0 389 170 520l328 248q82 63 213 63q371 0 371 -575q0 -371 -156 -506q-31 -27 -148 -115q-176 -135 -186 -141q-111 -70 -217 -70q-375 0 -375 576zM35 543q0 -551 350 -551q231 0 309 233q-84 4 -147 39q-35 -27 -105 -80q-31 -25 -57 -24q-66 0 -94 78 q-23 66 -23 301q0 252 23.5 311t58.5 82q8 90 27 162q-342 -6 -342 -551zM272 1102q51 14 113 16q18 62 47 107zM293 539q0 -233 22.5 -294t69.5 -61q66 1 84 142q-123 135 -123 473q0 49 2 94q-55 -39 -55 -354zM371 799q0 -309 102 -441q2 43 2 99q0 315 -21.5 380.5 t-68.5 65.5h-12q-2 -49 -2 -104zM377 950l149 115q-55 25 -125 27q-16 -63 -24 -142zM387 928q63 0 90 -82q23 -72 23 -393q0 -70 -6 -119q14 -18 51 -41l164 125q-57 8 -81 75.5t-24 301.5q0 133 6 211q-20 25 -59 47zM410 1116q78 -4 139 -35q39 33 80 66q53 37 92 37 q66 0 92 -82q23 -72 23 -389q0 -211 -58 -273l-24 -18q-8 -96 -29 -174q342 4 342 551q0 551 -346 551q-236 0 -311 -234zM473 240l51 36q-16 12 -35 27q-6 -37 -16 -63zM567 281q57 -29 133 -33q19 69 27 153zM571 1069q20 -14 41 -33q7 51 19 78zM629 768 q0 -207 22.5 -267.5t69.5 -60.5l8 2q4 48 4 101q0 303 -100 436q-4 -72 -4 -156v-55zM635 1014q123 -137 123 -463q0 -47 -2 -96q55 29 55 258q0 317 -22.5 381.5t-67.5 64.5q-72 0 -86 -145zM674 121q61 41 149 115q-55 -13 -98 -13h-6q-18 -57 -45 -102z" />
<glyph unicode="p" horiz-adv-x="966" d="M4 -12v1099l344 265h318q368 0 368 -340q0 -184 -96 -258l-328 -252l-2 2v-254l-342 -262h-262zM29 25l219 168v253l92 70v96q-27 -4 -51 -4h-39v297l90 68v98h-8h-303v-1046zM53 12h195v150zM53 1096h287v219zM272 25l289 219h-205l-84 -64v-155zM272 211l68 51v160h-14 h-54v-211zM274 645l66 51v185q-20 4 -39 4h-27v-240zM289 446h51v39zM297 909q23 0 43 -4v37zM299 633q23 2 41 4v29zM365 268h219v219q-82 -61 -219 -65v-154zM365 446q141 4 219 72v156l-219 -170v-58zM365 535l219 170l14 -3h74q4 29 4 54q0 47 -6 84q-86 -68 -150 -117 q-123 -94 -155 -105v-83zM365 645q53 20 61 86l-61 -47v-39zM365 715l63 49q0 90 -63 110v-159zM365 901q80 -23 86 -121l135 103v114q-43 37 -103 56l-118 -92v-60zM365 991l90 68q-39 10 -90 12v-80zM365 1094q63 -2 114 -17q37 31 115 88h4q98 0 137 -22q53 -33 53 -125 q0 -104 -98 -162q9 -46 9 -94q0 -28 -3 -57q316 6 316 307q0 315 -346 315h-301v-233zM444 700l218 166q-18 -2 -60 -2l-149 -112q-2 -29 -9 -52zM508 1069q43 -14 78 -41v100zM608 541q48 55 62 139h-6h-56v-139zM610 889h15l30 2q-16 47 -45 82v-84zM610 1010 q43 -37 70 -115q84 19 84 123q0 123 -129 123h-25v-131zM657 569l168 129q-59 -18 -131 -18q-10 -61 -37 -111z" />
<glyph unicode="q" horiz-adv-x="1130" d="M14 545q0 174 25 276q39 154 141 234l344 264q72 55 201 55q373 0 373 -573q0 -348 -135 -486q29 -49 124 -49v-215q-12 -6 -173.5 -131t-168.5 -131q-12 -2 -34 -2q-219 0 -271 186q-31 -4 -63 -4q-362 0 -363 576zM39 545q0 -553 338 -553q37 0 67 6l234 178 q10 24 18 49q-80 2 -141 35l-106 -82q-20 -16 -58 -16q-68 0 -94 78q-25 68 -25 301q0 244 25 311q18 53 59 84q6 88 25 158q-205 -4 -285 -187q-57 -127 -57 -362zM293 1106q45 10 96 12q16 53 41 96zM297 541q0 -233 22.5 -294t71.5 -61q64 1 82 140q-123 141 -123 475 q0 49 2 94q-55 -39 -55 -354zM375 801q0 -305 102 -441q4 41 4 97q0 317 -22.5 382.5t-69.5 65.5q-6 0 -12 -2q-2 -47 -2 -102zM381 956l145 111q-53 23 -120 25q-16 -61 -25 -136zM389 930q66 0 92 -82q20 -61 23 -324v-69q0 -70 -4 -121q14 -20 55 -45l168 131 q-63 0 -92 76q-23 68 -23 301q0 131 6 209q-20 27 -63 49zM414 1116q76 -4 135 -33l106 82q29 20 70 21q66 0 92 -82q23 -74 23 -428q0 -197 -56 -240l-26 -22q-8 -92 -29 -164q35 2 64 6q4 -12 10 -33l135 105q16 12 41 47q94 133 94 426q0 549 -348 549q-236 0 -311 -234z M463 -18q47 -170 231 -170h33v174q-94 2 -131 77q29 27 51 60zM473 227l59 47q-18 12 -38 29q-6 -45 -21 -76zM571 1071q25 -14 47 -35q7 55 19 84zM578 276q53 -26 122 -26h5q18 63 26 143zM627 57q29 -47 108 -49l117 90q-37 33 -59 86zM633 770q0 -207 22.5 -267.5 t69.5 -60.5q2 0 10 2q2 48 2 101q0 303 -100 434q-4 -70 -4 -154v-55zM639 1014q123 -135 123 -461q0 -45 -2 -96q55 29 55 258q0 317 -21.5 381.5t-68.5 64.5q-72 0 -86 -147zM680 129l102 78l-4 16l-82 -63q-8 -16 -16 -31zM715 205l26 20h-18zM752 -8v-166l284 217h-6h-8 q-87 0 -150 41zM811 199q23 -53 61 -84l168 129q-66 6 -96 55zM893 100q51 -32 132 -32h5h33v161z" />
<glyph unicode="r" horiz-adv-x="1060" d="M27 -12v1102l344 262h331q352 0 353 -314q0 -186 -146 -266q13 -41 148 -522l-342 -262h-254l-27 110l-145 -110h-262zM51 25l221 168v284l90 70v71q-25 -4 -45 -4h-45v291l90 70v96h-311v-1046zM74 12h198v150zM74 1096h288v219zM295 25l133 100l-29 119h-20l-84 -64 v-155zM295 211l67 51v133l-16 64h-51v-248zM297 651l65 51v183q-16 2 -30 2h-35v-236zM319 483h33l10 9v24zM319 911q25 0 43 -2v35zM322 639q20 0 40 4v29zM387 268h6l-6 27v-27zM387 397l31 -129h188q2 41 0 43l-61 215l61 45v76l-219 -168v-82zM387 510l219 168v24 l-219 -167v-25zM387 565q80 55 227 174h80q2 21 2 41q0 41 -4 64q-74 -57 -145 -115q-129 -96 -160 -106v-58zM387 649q58 18 66 90l-66 -49v-41zM387 721l66 51q-2 88 -66 109v-160zM387 905q80 -20 88 -117l133 103v110q-43 35 -102 52l-119 -90v-58zM387 993l88 68 q-27 6 -88 10v-78zM387 1096q37 -4 113 -17q55 41 112 90h9q100 0 139 -22q53 -31 53 -125q0 -66 -20 -94q-10 -12 -78 -66q6 -31 6 -82q0 -43 -10 -82l10 -39l160 123q2 2 8 6q141 78 141 250q0 289 -328 289h-315v-231zM424 244l25 -103l135 103h-160zM455 115l24 -95 l174 134l-26 90h-4zM471 707l213 165q2 0 -31 0h-28l-148 -112q0 -33 -6 -53zM508 12h186l-35 117zM530 1071q43 -14 78 -39v101zM573 514l33 -115v138zM631 315q0 -4 43 -145l119 90l-86 356q-29 -18 -76 -61v-240zM631 592q41 45 55 106l-2 9l-53 -41v-74zM631 696l24 19 h-24v-19zM633 897h20h25q-14 43 -45 80v-80zM633 1012q45 -37 69 -111q86 17 86 121q0 123 -124 123h-31v-133zM680 143l37 -123l293 224h-199zM690 635l10 8l-2 8zM727 633l90 -365h213l-141 488z" />
<glyph unicode="s" horiz-adv-x="1001" d="M6 295l227 174q-198 132 -198 315q0 172 131 273q125 100 252 203q159 114 282 114h2q127 0 205 -80q68 -70 113 -219l-217 -164q115 -76 168 -143q69 -90 69 -205q0 -170 -151 -287l-289 -219q-117 -92 -248 -92q-150 0 -238.5 88t-107.5 242zM33 281q55 -291 319 -291 q123 0 209 65q84 64 109 168q-78 4 -138 31q-39 -31 -79 -64q-50 -36 -91 -36h-2q-115 0 -143 165zM59 786q0 -174 193 -303q14 10 98 74l164 35q-76 51 -154 102q-94 72 -94 140q0 43 39 81q10 10 72 58q-6 32 -6 65q0 27 4 54h-8q-13 1 -26 1q-113 0 -193 -80 q-88 -89 -89 -227zM70 313l153 33l92 70l-61 39zM242 330q25 -152 118 -152q86 0 86 88q0 61 -110 135zM264 1102q49 15 95 15q10 0 20 -1q10 55 37 103zM274 471l62 -39l29 23q-6 20 -19 71zM391 702q78 -51 154 -102l28 4l7 -33q70 -61 100 -133l16 -2q86 0 86 86 q0 59 -108 137q-82 55 -164 109l-51 -10q-37 147 -101 147q-67 0 -67 -69q0 -59 100 -134zM356 418l35 -27q-10 20 -16 39zM358 928q21 0 35 -4l-8 24zM369 537q6 -23 16 -68l129 98zM393 446q43 -115 137 -163l140 106l-8 27q-80 23 -105 143l-8 6zM395 1042q0 -25 4 -53 l97 76q-43 20 -97 25q-4 -25 -4 -48zM403 1114q61 -6 115 -33q41 33 84 64q55 41 90 41q72 0 119 -144l182 37l-4 13q-45 131 -96 186q-70 72 -191 72q-113 0 -194.5 -63.5t-104.5 -172.5zM406 965q20 -86 92 -154l133 102q-37 94 -111 140zM467 297q8 -29 2 -61l41 30 q-23 12 -43 31zM467 809l6 -16l6 4zM516 795l141 28q-4 23 -16 68zM541 774l164 -106q102 -76 102 -146q0 -49 -35 -84q-2 -2 -76 -59q8 -36 8 -74q0 -28 -4 -57q121 2 195 65l2 -2q119 90 119 252q0 113 -70 197q-49 61 -164 135l-118 -94q-4 -2 -123 -27zM541 1067 q74 -47 110 -137l37 28q-86 63 -86 132q0 14 2 26zM555 270q53 -20 121 -22q4 30 4 59q0 27 -4 55zM592 526q18 -57 55 -77q-20 41 -55 77zM709 973l79 61q-41 127 -96 127q-65 0 -65 -67q0 -59 82 -121zM662 133l135 105q-47 -14 -101 -15q-12 -49 -34 -90zM662 905 q10 -29 16 -59l82 63l-51 33zM688 412l2 -6l8 6h-10zM729 958l51 -34l156 118l-129 -24z" />
<glyph unicode="t" horiz-adv-x="940" d="M4 889v209l346 264h658v-211l-9 -6l-190 -146v-733l-8 -12l-338 -256h-258v891h-201zM29 926l202 155h-202v-155zM51 913h162l219 168h-160zM51 1106h213l76 57v162zM229 35l220 168v702l92 72v104h-68l-244 -186v-860zM252 23h197v149zM303 1106h162l51 39h-160z M365 1169h200v-63h90l306 231h-596v-168zM473 35l287 219h-203l-84 -64v-155zM473 221l68 51v617h-68v-668zM496 913h45v33zM504 1106h37v27zM565 279h219v702l-120 -92h-99v-610zM565 913h82v117l-82 -65v-52zM565 995l82 66v20h-82v-86zM672 926l112 86v121l-112 -84v-123 zM672 1079l123 90h188v156l-311 -238v-8zM809 1030l152 115h-152v-115z" />
<glyph unicode="u" horiz-adv-x="999" d="M27 274v822l342 262h262v-127l164 127h227v-828q0 -158 -88 -225q0 -4 -334 -256q-100 -78 -238 -78q-156 0 -241 74q-94 78 -94 229zM51 274q0 -278 309 -278h2q272 0 297 233q-72 6 -127 29q-37 -31 -73 -59q-45 -33 -84 -33q-104 0 -105 131v780h-219v-803zM74 1102 h205l83 63v156zM295 297q0 -106 80 -107q78 0 78 113q-90 78 -91 227v605l-67 -52v-786zM387 530q0 -123 66 -192v758l153 116v109l-219 -168v-623zM387 1184l195 149h-195v-149zM473 244l33 24q-14 8 -29 17q0 -25 -4 -41zM477 315q23 -18 51 -30l134 102v45 q-55 25 -56 121v524h-129v-762zM502 1102h104v80zM555 274q47 -16 107 -20v20v82zM631 553q0 -71 31 -94v618h-31v-524zM631 1102h39l118 90v129l-157 -121v-98zM653 119l164 125q-57 -15 -114 -15h-19q-6 -63 -31 -110zM686 254h10h21q124 0 199 66q81 72 81 210v791 l-184 -141v-627q0 -72 -33 -107q-47 -35 -94 -69v-123zM686 408l21 14l-21 2v-16zM686 449q25 -2 25 -3q31 0 49 17q28 24 28 90v608l-102 -78v-634zM813 1210l162 123h-162v-123z" />
<glyph unicode="v" horiz-adv-x="991" d="M6 1096l8 6l338 256h252l27 -162l213 162h219l-221 -1098l-344 -266h-271l-2 8zM35 1077l211 -1050l284 217l17 86l-23 112l-149 -114l-127 749h-213zM55 1102h199l119 90l-27 133zM272 18h211l39 191zM272 1085l111 -663l68 387l-72 356zM369 1333l26 -125l164 125h-190 zM399 379l119 90l-55 274zM399 1182l62 -308l37 220l112 86l-24 145zM475 809l66 -324l45 35l73 367l-32 190h-105zM512 35l283 215h-217l-27 -19zM545 459l14 -68l19 94zM547 1102h76l-9 51zM571 330l11 -56h237l209 1043l-201 -154l-98 -559l-123 -96zM614 543l91 69 l-35 207zM637 1169l10 -67h60l98 74l24 141zM651 1077l21 -123l24 123h-45zM684 887l35 -209l80 463l-76 -58zM834 1198l178 135h-154z" />
<glyph unicode="w" horiz-adv-x="1327" d="M8 1096l348 262h242l16 -127l168 127h232l22 -129l168 129h207l-203 -1102l-344 -262h-223l-25 149l-196 -149h-227zM37 1077l176 -1050l225 174l51 284l-6 39l-155 -118l-86 671h-205zM59 1102h189l123 94l-21 129zM240 18h166l26 148zM266 1083l72 -546l74 411l-37 221 zM350 455l129 98l-55 324zM373 1333l20 -121l160 121h-180zM397 1186l29 -166l14 80l154 114l-14 109zM434 35l178 137l-12 78h-57l-82 -64zM436 948l64 -379l6 4l24 166l5 11l108 84l-33 243h-149zM467 223l59 43l-24 148zM485 1102h123l-12 84zM514 485l35 -211h47 l-47 301l-21 -16zM537 596l8 6l-4 23zM555 733l12 -112l92 69l-12 115zM571 592l50 -318h120l27 154h-2l-64 387l-18 -131l-4 -8zM618 1204l15 -102h31l75 59l29 156zM625 250l10 -62l80 62h-90zM635 1077l31 -227l22 16l2 17l-33 194h-22zM639 162l20 -135l226 172l53 293 l-6 38l-139 -106l-31 -168zM670 821l4 -28l6 36zM680 1085l22 -133l31 172zM688 18h164l27 146zM717 889l129 98l18 113l150 112l-19 113l-233 -178zM719 860l57 -321l64 413zM768 1182l199 151h-172zM799 461l129 98l-51 324zM872 1004l17 12l61 -441l4 5l86 473l-4 24 h-153zM881 35l280 215h-170l-84 -64zM909 1102h123l-14 84zM913 221l60 47l-23 150zM963 492l34 -218h191l190 1043l-184 -139l-43 -281l-31 -221l-143 -111zM983 600l117 90l-47 293zM1040 1202l17 -100l114 88l21 129zM1065 1053l47 -258l55 360l-96 -72zM1200 1212 l160 121h-141z" />
<glyph unicode="x" horiz-adv-x="1050" d="M10 -6l244 549l-225 553l346 262h264l43 -121l158 121h237l-233 -518l237 -582l-344 -264h-260l-53 137l-174 -133l-2 -4h-238zM59 45l269 205l32 88l35 27l92 202l-6 17l74 161l-276 -210zM61 1077l211 -516l303 232l9 20l-33 82l-158 -121l-106 303h-226zM63 18h168 l80 189zM80 1102h211l133 102l-49 123zM268 43l146 111l-35 96h-10l-21 -14zM309 1085l88 -243l86 219l-49 121zM391 293l4 -19h172l21 50l-49 118l-123 -94zM397 1333l47 -112l150 112h-197zM406 250l28 -80l105 80h-133zM416 821l127 97l-47 110zM436 395l92 70l-28 72z M442 145l47 -120l168 129l-57 137l-14 -33l-4 -6l-2 -2zM455 1196l43 -104l4 10h4l158 121l-39 104zM510 1061l51 -129l117 90l27 55h-187zM514 567l35 -86l162 123l118 -330h220l-224 545l-303 -229zM520 18h193l-45 111zM545 635l274 213l207 459l-266 -205l-21 -64 l-41 -32l-88 -193l6 -14zM545 1102h162l-35 96zM559 459l43 -105l78 197zM571 909l27 -65l59 131zM614 324l64 -156l127 98l-103 275zM686 145l51 -120l293 225h-207zM692 1214l37 -104l10 8l76 191zM774 1145l248 188h-170z" />
<glyph unicode="y" horiz-adv-x="1017" d="M-4 1096l10 6l336 256h262l47 -160l209 160h230l-265 -658v-442l-344 -264h-260v440zM27 1077l215 -618l313 239l-23 78l-161 -123l-2 19l-119 405h-223zM45 1102h211l127 96l-45 129zM246 31l219 168v250l88 217l-307 -234v-401zM270 18h195v150zM274 1085l107 -370 l86 239l-76 222zM362 1333l41 -119l156 119h-197zM406 709l118 92l-45 117zM412 1190l69 -201l37 107l113 86l-43 143zM489 31l287 219h-203l-84 -64v-155zM489 217l70 51v224l-70 -52v-223zM494 952l51 -137l98 78l41 100l-25 84h-120zM506 481l53 41v92zM553 793l22 -72 l52 127zM565 1102h88l-16 55zM582 274h219v404l-219 -168v-236zM582 541l221 170l241 600l-247 -191l-70 -192l-63 -51l-82 -203v-133zM657 1174l21 -72h55l43 33l64 176zM682 922l18 14l-4 20zM686 1077l12 -47l21 47h-33zM711 991l6 -20l43 123l-15 -13zM811 1163l225 170 h-164z" />
<glyph unicode="z" horiz-adv-x="995" d="M31 -6v156l319 735h-280v211l8 6l334 256h594v-148l-2 -2l-318 -741h318v-211l-7 -6l-340 -256h-626zM53 31l287 219l25 57v70l-312 -240v-106zM72 182l295 226l278 643v26h-22l-244 -186zM78 18h567v168h-350zM94 922l201 155h-201v-155zM117 909h248l219 168h-248z M117 1102h211l75 59v160zM367 1102h247l54 41h-248zM369 211h284l52 39h-285zM389 274h23l245 189l306 713l-295 -228l-279 -647v-27zM389 362l256 596v31l-256 -592v-35zM428 1167h311l217 166h-528v-166zM451 274h284l221 168h-284zM670 31l286 219h-213l-73 -57v-162z M670 981l311 238v102l-287 -219l-24 -58v-63zM776 274h205v156z" />
<glyph unicode="{" horiz-adv-x="1191" d="M102 188h13h630l345 265v645h-641l-347 -264v-646zM127 225v592l311 -2v-350zM150 213l305 233h276v-233h-581zM150 840l288 221v-221h-288zM461 471l2 344h268v-344h-270zM463 840v233h579l-303 -233h-276zM754 446h288l-286 -221zM754 471v350l311 238v-588h-311z" />
<glyph unicode="|" horiz-adv-x="735" d="M102 -258v1546l9 6l338 258h184v-1546l-8 -8l-338 -256h-185zM127 -221l145 112v1379h-145v-1491zM150 -233h122v94zM150 1294h131l157 121v101zM297 -90l141 106v1368l-141 -108v-1366zM297 -121v-100l289 219h-131zM463 23h145v1493l-145 -113v-1380zM463 1434l123 94 h-123v-94z" />
<glyph unicode="}" horiz-adv-x="884" d="M102 393h13h426l241 162v440h-436l-244 -161v-441zM127 430v387l209 -2v-248zM150 418l202 131h174l-2 -131h-374zM150 840l186 118v-118h-186zM358 573l2 242h164l2 -242h-168zM360 840v131h375l-200 -131h-175zM549 549h186l-184 -119zM549 573v248l209 135v-383h-209z " />
<glyph unicode="~" horiz-adv-x="1306" d="M-10 272v213l4 2q150 117 299 232q182 135 340 135q78 0 219 -49t215 -49q121 0 291 125v-211l-6 -4q-111 -86 -336 -256q-139 -104 -287 -105q-76 0 -220 49t-222 49q-115 0 -297 -131zM12 322l312 237v12l-27 2q-119 4 -285 -102v-149zM129 561q99 41 195 35v115z M156 399q70 29 131 29q78 0 222 -49t220 -49q125 0 268 96v141l-8 2q-139 -94 -258 -94q-70 0 -178 37q-137 45 -178 53q-23 -14 -219 -166zM348 594l21 -4q143 94 254 94q74 0 182 -35q145 -47 178 -53q10 6 211 160q-66 -25 -127 -25q-74 0 -215 49t-219 49 q-127 0 -285 -102v-133zM403 584q25 -6 164 -52q98 -33 164 -32q104 0 223 78q-6 0 -163 51q-98 31 -168 30q-96 0 -220 -75zM1022 444l195 148q-98 -37 -195 -27v-121zM1022 590q27 -4 43 -4q125 0 268 96v149l-311 -237v-4z" />
<glyph unicode="&#xa1;" horiz-adv-x="638" d="M29 -6l59 754l6 4l113 88h-164v258l8 6l340 256h246v-260l-8 -4l-113 -86h74l57 -754l-10 -6l-338 -256h-270zM57 31l215 166l-41 532h-120zM68 874l208 162v43h-208v-205zM78 18h207l-11 150zM90 862h150l36 29v115zM90 1104h195l94 72v147zM135 752h105l174 135l4 47 l-129 -94h-41zM256 735l39 -522l72 55l45 586zM297 184l12 -155l289 221h-215zM301 874l119 93v4l-119 -92v-5zM301 909l121 95l12 6h41l113 86h-193l-94 -72v-115zM301 1055l78 59v31l-78 -60v-30zM391 274h230l-54 699l-129 -99zM401 1120h211v203l-211 -160v-43z M401 1194l187 141h-187v-141zM440 905l103 80h-60l-39 -31z" />
<glyph unicode="&#xa2;" horiz-adv-x="872" d="M0 383q0 264 154 381l315 242q43 33 102 47l127 100l109 -12l-27 -111q121 -76 127 -285q-4 -2 -307 -235l4 -27q55 41 119 92l188 -14q-8 -135 -71 -223q-72 -100 -189 -100q-31 0 -63 6l-31 -138l-348 -264v-2l-94 6l41 179q-156 96 -156 358zM23 383q0 -250 145 -338 l129 98q-70 39 -70 273q0 205 58 235v2l51 39q4 47 12 90h-18q-162 4 -242 -123q-66 -104 -65 -276zM150 -113l67 54q6 23 16 67q47 29 119 86q59 47 117 94l16 68l-305 -233zM162 -131l39 -4l8 39zM231 -113l134 103q-25 -6 -54 -8l-71 -56zM233 795q49 14 107 12l20 86z M248 -37l24 21l-20 2zM252 397q0 -221 65 -235l7 2l36 26q20 41 21 123q8 6 39 31q-80 98 -84 272q-8 14 -27 17q-57 -10 -57 -174v-62zM272 8l27 -2h4l152 115l6 31zM328 653l8 -4v13zM348 10q95 16 144 90l-23 2zM358 625q23 -37 27 -111l143 111q-23 76 -84 118l-84 -63 l-2 -41v-14zM362 713l52 39l2 10l24 100l-39 6q-31 -70 -39 -155zM379 479q20 -70 61 -121l144 111l-6 25q-6 -6 -17 -11zM395 219l88 68h-2l-75 6q-2 -41 -11 -74zM410 504l137 2q-2 51 -12 94zM412 891l41 -4l200 151q-37 0 -71 -8l-162 -125zM426 315h20l-10 11zM451 799 l305 233l16 68l-305 -234zM457 340q16 -16 32 -29l70 -6l307 236l-127 10q-4 -156 -86 -156q-39 0 -59 49zM465 760q57 -45 84 -119l14 10v41q1 105 15 154zM479 127l27 -2q21 37 33 86l-47 -37zM500 213l45 35l4 35l-33 2zM532 123h5l4 16zM557 616q10 -49 14 -98l2 2 q-8 43 -8 101zM573 272q31 -10 60 -10q219 0 252 260l-310 -235zM588 639q2 -57 6 -102l264 202l-145 -4zM588 670l108 84q-2 127 -51 137l-14 -4q-43 -29 -43 -172v-45zM612 461q16 -41 41 -41q56 0 62 119zM623 1061q27 4 53 2l12 47zM645 915q72 0 76 -155l162 4 q-6 178 -117 246zM705 1079l55 43l-43 4z" />
<glyph unicode="&#xa3;" horiz-adv-x="987" d="M2 516v109l100 75q-16 63 -16 117q0 156 102 244q18 10 52 35q88 66 264 200q72 55 106 72q49 23 127 23q242 0 293 -306l-10 -2l-256 -194h145v-12v-97l-172 -133q-10 -106 -59 -176q37 -8 115 -16q45 35 141 112l121 -123q-49 -102 -144 -176l-272 -209 q-92 -70 -160 -69q-43 0 -119.5 28.5t-117.5 28.5q-29 0 -99 -29q-84 -33 -102 -38l-25 196h9l176 135q2 16 2 35q0 53 -41 170h-160zM27 553l71 53h-71v-53zM43 156l18 -138l244 187q37 29 60 119l-5 30l-190 -145l-2 2q-45 -41 -125 -55zM51 541h117l174 133 q-14 41 -23 71zM51 631h72q-8 23 -14 45zM82 190q75 25 102 78zM111 817q0 -45 12 -100l176 135q2 57 41 96l86 66q-6 49 -2 94h-23q-106 4 -157 -41h-2q-131 -76 -131 -250zM125 37q84 35 123 35t114.5 -29t116.5 -29q125 0 211 168l-69 72l-68 -51h-2q-35 -31 -80 -31 q-25 0 -74 8t-71 10zM131 692q6 -23 14 -49l166 127q-8 31 -10 53zM186 524q45 -137 39 -192q63 47 131 100l23 4q0 16 -4 47t-4 45l8 9l90 69h-102l-15 43zM215 274l143 109l-2 16l-135 -102q-2 -8 -6 -23zM317 1124q53 12 109 9q8 53 31 98zM324 840q2 -23 8 -54l6 5v61z M326 872q12 10 22 17h111l-13 41q-20 16 -47 16q-61 0 -73 -74zM340 760q8 -29 22 -70l109 82h-117zM354 213q18 -2 56.5 -9t60.5 -7q60 0 121 106h-14q-27 2 -91 -24q-84 -35 -94 -37zM362 797h132q-4 23 -13 67h-119v-67zM367 254l6 6v8zM371 666l10 -27l129 98l-8 27z M389 322l6 -46l250 191q48 37 66 160l-142 -109q-4 -2 -26 -2q-14 -29 -39 -49l2 -2l-105 -80q-4 -33 -12 -63zM399 516q2 -27 4 -74q78 21 113 74h-117zM408 969q16 0 28 -6l-4 24zM412 631h90l30 24q-6 27 -14 58zM422 541l106 -2q13 34 11 63v4h-29zM446 1075 q0 -23 3 -45l71 55q-33 14 -71 21q-2 -16 -3 -31zM451 1128q51 -6 90 -26l90 74q68 51 104 51q92 0 113 -129l-2 2q2 -12 4 -25l151 31q-49 260 -264 260q-90 0 -159 -41l2 -2q-111 -80 -129 -195zM453 291q96 37 131 37q14 0 37 -4l143 108q-35 6 -107 14zM453 1004 q6 -31 14 -62q12 -12 28.5 -54t18.5 -61l131 101q-35 102 -102 145zM516 795l14 -41l78 59zM539 729q8 -27 14 -57q14 10 160 123l61 2l88 67h-129q-20 -16 -49 -35l-2 -2l-20 -4zM551 827l100 19l13 10q-4 27 -11 47zM559 645l2 -12l152 117l-2 12zM563 1087 q68 -47 103 -143l6 4q-37 106 -37 156q0 23 6 43zM573 553l142 106v62l-142 -109v-59zM618 291l5 -4l12 8l-8 2zM639 268l68 -67l65 51q-20 4 -110 35zM651 315l6 -2l152 115h-10zM659 1104q0 -43 33 -139l133 102q-12 135 -90 135q-76 0 -76 -98zM674 920q6 -23 12 -48 l10 9l-16 45zM686 303q35 -14 113 -31l223 170l-84 82q-14 -23 -51 -65zM690 129l154 119q-23 -2 -39 -2l-90 -70q-12 -27 -25 -47zM700 940l19 -51h6l242 184l-123 -22zM733 772l2 -6l8 6h-10zM737 678l123 94h-78l-43 -33q0 -10 -2 -61zM813 795l72 2v55zM838 459 q28 10 51 39zM840 272q47 6 88 41l2 -4q41 33 74 90z" />
<glyph unicode="&#xa4;" horiz-adv-x="1187" d="M-6 389q66 55 199 162v37h-199q139 115 219 176q41 201 160 291l334 258q74 55 196 55q166 0 254 -119q80 -109 76 -276v-19q-4 -12 -422 -331q2 -51 10 -91q59 49 180 138h5l223 -11q0 -276 -125 -372l-336 -256q-92 -70 -211 -70q-317 0 -360 428h-203zM61 412h144 q98 79 295 233h-82q-70 -57 -213 -162h-60zM61 612h144l260 199l8 33h-45q-70 -57 -213 -162h-70zM176 508h14v12zM176 707h27l4 22zM215 520l164 125h-23l-141 -106v-19zM217 569l240 183l2 24l-242 -184v-23zM221 395q39 -412 336 -411q228 -1 291 235q-68 8 -121 39 q-39 -31 -76 -59q-57 -43 -84 -43q-106 0 -116 233q-2 23 -2 17q4 4 102 77h-105l3 86zM229 721l160 123h-33l-120 -92zM244 788q80 57 227 175h68q8 67 26 124q-250 -2 -321 -299zM387 868h33l92 70h-31zM393 670h17l43 32v15zM451 670h81l17 12h-82zM461 868h22 q11 21 23 35zM467 1098q57 16 106 14q19 58 50 105zM471 508h86q-12 47 -20 102q-10 -8 -33 -22h-33v-51v-29zM475 389q8 -209 92 -209q70 0 86 137q-47 51 -75 127l-72 -55h-31zM477 721l27 20h-23l-2 -2zM481 764h45v65l-39 -32zM496 836l12 8h-8zM498 707h82l55 43 q-4 29 -10 55zM510 868h43q-2 -10 -2 -77v-13l67 51q-25 74 -55 74q-33 0 -53 -35zM559 629q8 -68 23 -121q70 57 211 160q2 2 38 2l21 14h-219zM561 946l146 113q-51 23 -117 26q-20 -63 -29 -139zM573 926q39 -8 66 -82l149 114l3 35q-27 31 -62 51zM598 459 q23 -63 57 -109q2 33 2 62q7 0 144 104q-10 37 -13 88zM598 1110q74 -6 129 -35l125 94v-2q20 16 47 17q82 0 100 -219l209 2q-6 377 -305 376q-221 0 -305 -233zM645 821q8 -27 12 -55q61 49 140 102h37l14 13q-10 31 -23 57h-28zM662 240l43 32q-16 10 -31 23 q-4 -31 -12 -55zM666 709h206v32h-90v58zM678 324q20 -20 47 -37l121 94l-164 8q0 -37 -4 -65zM705 412l172 -9l12 11q-55 6 -80 78zM748 274q47 -25 104 -30q14 57 16 123zM750 1061q25 -16 43 -37q6 49 18 84zM807 764h63q-4 47 -14 90l-49 -37v-53zM815 999 q12 -16 25 -36h137q-4 57 -21 112q-25 84 -57 84q-70 0 -84 -160zM825 104l162 125q-53 -14 -115 -12q-18 -63 -47 -113zM827 506q23 -70 74 -70q12 0 49 23q37 45 43 174zM852 938q8 -18 16 -43l58 43h-74zM877 242h16q158 -8 237 112q68 101 74 269l-311 -238 q-2 -78 -16 -143zM877 870q12 -47 18 -106h59l232 178h-217zM897 721l25 20h-25v-20zM997 496l185 141l-164 8q-2 -96 -21 -149z" />
<glyph unicode="&#xa5;" horiz-adv-x="1019" d="M12 410v116l111 82h-111v117l103 76l-103 293l344 264h234l51 -170l215 166l2 4h236l-142 -373h133v-115l-110 -84h110v-114l-251 -193v-223l-347 -262h-235v416h-240zM35 446l78 60h-78v-60zM35 645l76 60h-76v-60zM43 1077l92 -260l146 111l-45 149h-193zM59 434h201 l305 234h-119l-213 -162h-81zM59 530h84l56 41l-15 37h-22zM59 633h95l176 135l-15 53zM59 729h82l-18 49zM61 1102h179l153 117l-37 108zM143 793l19 -50l143 109l-16 51zM184 530h29l-6 17zM207 616l12 -28l127 98v29l-2 8zM227 563l9 -24l135 102l-9 25zM258 1085 l43 -141l53 41h123l-76 209zM276 31l197 149v246l100 80h-67l45 121l-275 -211v-385zM301 18h172v132zM309 920l17 -52l20 17v63zM336 836l14 -50h39l41 33l16 47h-71zM371 719l8 -27h10l25 70h-17l-26 -21v-22zM371 895l88 66h-88v-66zM379 1333l35 -98l131 98h-166z M406 891h49l16 49zM416 692h20l94 70h-92zM422 1210l72 -200l28 92h6l93 72l-48 153zM446 786h103l-27 72l-69 -53zM465 844l29 22h-23zM477 692h135v-59h41l72 55v17h-143l34 94zM479 891h58l34 -96l62 47l49 129l-33 106h-108zM498 31l286 219h-180l-106 -82v-137z M498 199l90 69v142h-90v-211zM522 434h66v51zM549 553l39 31v24h-17zM559 530h29v23zM561 633h27v22zM567 1102h76l-14 47zM612 274h197v187l-70 -51h-127v-136zM612 434h113v72h-111l-2 -2v-70zM612 535l97 73h-47l-50 -37v-36zM612 602l11 6h-11v-6zM627 752l297 229 l127 330l-242 -185l-78 -237l-78 -64zM635 729h98l133 100l23 62h57l90 70h-98zM645 530h88l76 58v67zM649 1163l19 -61h69l51 39l56 172zM670 868l37 29l-13 37zM676 1077l20 -69l27 69h-47zM694 633h31v24zM709 971l12 -39l53 168l-22 -19zM750 446l59 46v65l-59 -45v-66z M750 645l153 117h-41l-112 -86v-31zM750 707l98 75l2 4l-100 -75v-4zM821 1167l219 166h-163zM834 510l202 158h-84l-118 -93v-65zM834 606l79 62h-79v-62zM850 692h94l92 70h-94zM877 786h57l102 80h-82l-67 -51zM903 858l10 8h-8zM985 692h76v58zM985 891h76v57z" />
<glyph unicode="&#xa8;" horiz-adv-x="823" d="M0 891v213l344 262h176v-49l64 49h178v-211l-344 -264h-178v49l-64 -49h-176zM25 928l135 104v53h-135v-157zM47 915h113v86zM47 1110h121l168 127v92zM184 928l56 43v92l-56 -43v-92zM184 1051l152 114v41l-152 -114v-41zM264 928l137 106v29l-137 -105v-30zM264 989 l125 96h-121l-4 -4v-92zM287 915h114v89zM301 1110h109l51 39h-109zM360 1194l136 104v31l-136 -104v-31zM360 1255l113 86h-113v-86zM371 1174h121l4 2v92zM426 928l287 221h-121l-166 -127v-94zM426 1053l149 114v39l-149 -114v-39zM520 1194l55 43v92l-55 -43v-92z M600 1174h137v155l-137 -104v-51zM600 1255l113 86h-113v-86z" />
<glyph unicode="&#xa9;" horiz-adv-x="1390" d="M-4 920v110l8 2l328 252v2q94 23 162 72h94v-522l145 282h4l336 256h148l-588 -1143h-4q-160 -125 -336 -256h-148l355 691q-115 -92 -258 -197h-158v465zM20 958l154 117h-10q-63 -43 -144 -63v-54zM55 954l37 7l135 104v10h-12zM72 1055q51 20 82 43l178 137v18z M109 506l118 92v436l-118 -92v-436zM133 494h94v73zM197 1100h10l125 96v8zM201 -2h82l53 102zM201 29l159 123l486 942h-98l-160 -312v-51q-4 -2 -43 -31zM252 506l274 209l6 10h-96l-184 -139v-80zM252 616l168 127v439l-168 -129v-437zM326 29l264 202h-84l-125 -96z M356 1204l23 4l162 125h-41l-144 -110v-19zM356 1253l31 25q-10 -4 -31 -10v-15zM406 186l86 66l471 913l-89 -65zM430 1219l14 2v-471h101l18 38v533zM520 256h98l547 1067l-157 -123zM659 145v107l191 373h2l336 256h174v-365h72v-110l-72 -54v-94v-2q-2 -2 -115 -88 l-229 -174h-158v151h-201zM682 182l72 54h-2l41 90l-111 -84v-60zM707 170h161l136 102v60l-125 -96h-84zM707 291l108 84l55 112l134 101v12h-140zM776 1118h82l129 99l53 102zM803 289l61 45v47l-28 -23zM825 260h39v29zM858 406l6 6v8zM885 31l119 90v43l71 53v19h-71 l-119 -84v-121zM889 354l104 80v47l-102 -82zM889 428l106 82l6 12v35l-112 -88v-41zM891 272l113 90v33l-113 -88v-35zM893 625h117l71 53l76 149zM907 18h97v72zM1026 31l289 219h-86l-137 -105h-17l-49 -36v-78zM1026 291l145 110h-77l-68 -51v-59zM1026 381l29 20h-29 v-20zM1026 426h59l89 68h-64l-84 -64v-4zM1026 461l70 51l84 182l-105 -80l-49 -96v-57zM1032 1251l131 99h-80zM1042 260h39l115 86v31zM1051 170h16l8 6v10zM1098 195l98 73v13l-98 -76v-10zM1098 236l98 75v6l-98 -75v-6zM1124 516h74v162zM1126 426h93l118 92v326 l-114 -90v-179l-2 -77zM1126 713l189 143h-115zM1221 274l116 91v24l-116 -90v-25zM1221 330v6l188 145v-55h-61zM1221 367l165 127h-38l-127 -99v-28zM1260 274h77v60zM1362 383l24 18h-24v-18z" />
<glyph unicode="&#xaa;" horiz-adv-x="765" d="M18 698q0 100 56 144l104 80l-139 18l2 12q14 86 86 140l317 243q66 39 148 37q111 -4 156 -49q51 -51 51 -211v-225q0 -39 12 -74l6 -16h2l-338 -256h-184l-2 6q-6 10 -10 31q-53 -49 -113 -50q-72 0 -113 49.5t-41 120.5zM43 698q0 -61 34 -103t95 -42q37 0 113 57 l153 117v51l-159 -121q-20 -16 -39 -16q-23 0 -37 14q-23 23 -23 66q0 57 37 84l141 108q0 4 -2 19l-63 -47h-4q-246 -16 -246 -187zM74 981l139 106q-111 -14 -139 -106zM84 958l104 -12q2 18 19 49l117 88q-33 6 -68 7zM178 891q43 12 98 16v41q0 8 -2 17zM186 1108 q29 6 62 6l131 100q4 27 16 52zM205 721q0 -55 35 -55q8 4 26 12q4 4 8 10v109q-70 -8 -69 -76zM217 961l29 24q-20 -2 -29 -24zM262 1006q2 0 10 -2l88 67q-2 2 -8 4zM279 821h4l84 66l-2 2zM287 1114q37 -4 61 -10l109 82l-64 8zM293 885zM295 979q6 -14 6 -31v-26l53 41 q3 42 17 75zM299 702l133 103q-35 20 -55 59l-78 -61v-101zM307 598q2 -12 4 -25l127 97v28zM340 565h117q-18 61 -19 66v8zM375 1092q2 0 8 -5l119 93l-10 2zM379 950q0 -8 2 -20l49 39q0 8 -4 18zM381 983l39 29q-8 16 -21 30q-14 -27 -18 -59zM385 903l2 -2l47 37v4z M395 879q16 -34 43 -50v27q0 31 -2 53zM403 1219l80 -13l60 47q33 12 41 13q53 0 53 -62v-57l-8 -6l-180 -137q0 -6 4 -19l100 78l27 8q28 8 41 8h14v-143l-2 -2q-12 -18 -29 -27l-123 -96q12 -2 27 -2q25 0 51 12l62 47l18 21l2 -29q2 -18 8 -39h135q-10 35 -10 66v225 q0 150 -43 193t-139 43q-160 0 -189 -129zM414 1063q16 -16 24 -37l144 111q-119 -16 -168 -74zM457 956l63 48v4l-63 -50v-2zM461 928q2 -31 2 -72v-29l94 74q-37 12 -41 70zM463 631l16 -58l299 224h-133l-182 -140v-26zM463 688l164 125l-6 23l-158 -119v-29zM463 748 l51 38q-2 -2 -6 -2q-23 0 -45 9v-45zM489 1139q53 20 123 24v41q0 37 -28 37q-33 0 -39 -53v-6zM518 1202h4l2 4zM541 977q0 -55 32 -55q21 -1 37 22v98l-67 -51q-2 -12 -2 -14zM545 1182z" />
<glyph unicode="&#xab;" horiz-adv-x="944" d="M8 391l166 322l344 266l150 -68l-43 -84l196 152l150 -68l-135 -264l133 -262l-344 -264l-144 -64l-67 133l-92 -69l-144 -64zM37 387l151 -297l99 76l-117 225l4 4l78 158zM57 432l222 170l20 41l-109 49zM201 387l104 -207l80 62l-76 149l70 133zM209 711l104 -47 l62 47l110 211zM219 432l168 129l-35 68l-55 -43zM272 125l29 12l-4 6zM317 158l5 -8l79 61l-4 8zM324 637l24 18l2 4l-24 -18zM338 387l68 -131l98 76l-31 59v2l-35 70zM358 432l68 53l-20 39zM371 647l35 -69l69 135l105 82l36 69l-221 -170zM418 236l4 -11l96 76l-4 8z M420 551l26 -51l97 73l-27 56l-92 -70zM420 745l207 158l-101 45zM432 205l60 -115l96 76l-58 113zM449 608l61 47l12 23l-30 14zM457 477l30 -57l68 133zM504 389l22 -43l111 47l-37 70zM510 711l22 -11l23 45zM522 432l68 53l-21 41zM532 647l31 -57l17 12l20 41l-55 25z M535 322l4 -7l24 21zM549 295l59 -115l199 154l-107 205l-79 -62l47 -92zM555 690l61 -26l62 47l108 211l-186 -142zM575 125l27 12l-2 6zM582 551l26 -51l82 61l-35 68l-55 -43zM618 158l5 -8l243 186l-37 -17zM625 637l24 18l2 4l-24 -18zM672 647l37 -72l104 80l105 209 l-222 -170zM721 555l106 -209l111 47l-121 236zM723 745l207 158l-103 45z" />
<glyph unicode="&#xad;" horiz-adv-x="686" d="M0 297v209l344 264h342v-209l-348 -264h-338zM25 334l200 155h-200v-155zM47 322h279v167h-60zM47 512h211l78 59v162zM297 512h37l55 43h-37zM350 334l289 221h-211l-78 -59v-162zM360 578h60l219 167h-279v-167zM461 578h201v155z" />
<glyph unicode="&#xae;" horiz-adv-x="1374" d="M2 920v110l6 2l338 254q74 16 148 70l4 2h94v-522l145 282h4l332 256h152l-351 -680l195 150q59 45 150 45q86 0 141 -41q59 -47 59 -129q0 -131 -227 -328h215v-135l-6 -6l-340 -256h-402v112l5 5q246 248 245 350q0 12 -2 22l-86 -65v-6l-84 12l-100 -193h-2l-334 -256 h-151l356 691l-260 -197h-158v465zM25 958l153 117h-10q-63 -43 -143 -63v-54zM59 954l54 9v-2l120 92v22h-14zM76 1055q53 20 82 43l178 137v18zM113 506l120 92v424l-120 -92v-424zM137 494h96v73zM201 1100h10l125 96v8zM205 29l162 123l483 942h-96l-162 -312v-51 l-41 -31zM207 -2h80l53 102zM258 506l272 209l7 10h-97l-182 -139v-80zM258 616l166 127v426l-166 -129v-424zM258 1071l152 119l-17 -4l-135 -105v-10zM330 29l264 202h-84l-125 -96zM360 1204l23 4l162 125h-39l-146 -110v-19zM360 1253l33 25q-12 -4 -33 -10v-15z M412 186l84 66l469 911l-86 -65zM434 1219l15 2v-471h100l18 38v533zM526 256h97l88 172l-43 8l2 10q14 102 75 150l84 63l340 662l-159 -123zM684 31l131 100q125 106 180 178v25l-311 -238v-65zM700 475l58 45l37 70q-70 -35 -95 -115zM707 18h342v93h-222zM711 453l12 -2 l10 18zM748 446l53 -6q16 94 73 95q29 0 39 -15l82 62q-35 20 -84 24l-133 -102zM776 197l223 172q25 25 58 59q4 21 4 35q0 63 -47 102l-86 -65q6 -18 6 -39q0 -80 -158 -264zM780 1118h84l127 96l53 105zM803 555l69 53q-23 -2 -45 -6zM829 455l64 49q-6 6 -19 6 q-33 0 -45 -55zM842 631q20 2 43 2q-4 0 18 -2l103 78q8 40 24 73l-180 -137zM860 135h197l149 115h-194zM938 627q45 -8 76 -31l102 78l-96 16zM1020 287l131 102q246 187 246 330q0 59 -39 98q-49 49 -139 49q-156 0 -187 -153l105 -17q16 96 73 97q25 0 42.5 -18.5 t17.5 -57.5q0 -90 -191 -299q-14 -55 -59 -117v-14zM1020 342q8 15 14 29q-10 -10 -14 -17v-12zM1034 582q51 -47 51 -119v-2q160 184 160 256q0 51 -35 51q-39 0 -51 -88l-2 -12l-8 2zM1036 1249l133 101h-82zM1042 274h197l121 93h-197zM1073 31l287 219h-113l-174 -133 v-86zM1278 274h106v80z" />
<glyph unicode="&#xb0;" horiz-adv-x="2048" />
<glyph unicode="&#xb4;" horiz-adv-x="792" d="M0 852l158 301h4l340 256h229l-260 -301h-2l-340 -256h-129zM55 874h70l131 154zM57 907l285 221h-170zM201 1153h157l107 201zM215 944l215 164h-70l-10 -6zM379 1133h80l159 182zM401 1180l267 204h-160z" />
<glyph unicode="&#xb7;" horiz-adv-x="628" d="M0 535q0 74 59 118l-2 2l336 256l2 -2q39 29 88 29q59 0 102.5 -43t43.5 -104q0 -80 -68 -125l2 -2l-336 -258l-2 4q-37 -23 -78 -23q-61 0 -104 43t-43 105zM25 535q0 -51 35.5 -87t86.5 -36t87 36t36 87t-35.5 86.5t-87.5 35.5q-51 0 -86.5 -35.5t-35.5 -86.5zM129 680 q14 2 18 2q61 0 104.5 -43t43.5 -104q0 -29 -10 -54l215 164q-14 -2 -17 -2q-61 0 -104 43t-43 105q0 29 10 55zM360 791q0 -51 36 -87t87 -36q49 0 86 36t37 87t-37 86.5t-86 35.5q-53 0 -88 -35.5t-35 -86.5z" />
<glyph unicode="&#xba;" horiz-adv-x="770" d="M10 821q0 178 115 266l336 256q37 29 125 29q123 0 184 -88q53 -78 53 -207q0 -178 -90 -246l-336 -258q-59 -45 -147 -45q-100 0 -162 62q-78 76 -78 231zM35 821q0 -145 71 -215q53 -53 144 -53q190 0 213 225l-162 -125q-23 -16 -51 -16q-20 0 -35 14q-35 35 -35 162 v16q0 127 35 162q0 4 6 10l103 78q-35 12 -74 13q-90 0 -144 -54q-72 -72 -71 -217zM195 1110q27 6 55 6q53 0 96 -18h2q2 92 35 155zM205 813q0 -152 45 -151q47 0 47 149v10v10q0 150 -47 150q-45 0 -45 -152v-16zM264 1004q57 -16 55 -173v-20q2 -82 -10 -121l156 119v6 q-86 51 -109 170q-8 37 -10 82zM371 1057q6 -152 92 -211q-6 150 -92 211zM371 1085q115 -66 116 -254l2 -2l86 66q-16 4 -26 14q-33 33 -33 162v14q0 80 12 119zM373 1116l176 135q14 12 37 13q23 0 37 -17q35 -33 32 -157v-13v-8q2 -133 -34 -166l-35 -31l-70 -53 q35 -10 70 -10q213 0 213 268q0 147 -70 217q-53 53 -143 54q-90 0 -146 -54q-59 -59 -67 -178zM453 645l188 146q-29 -6 -55 -7q-51 0 -92 17l-7 -4q-4 -88 -34 -152zM541 1071q0 -154 45 -153q47 0 45 151v21q2 150 -45 149q-45 0 -45 -154v-14z" />
<glyph unicode="&#xbb;" horiz-adv-x="921" d="M8 123l133 266l-133 262l344 264l144 64l69 -133l90 69l144 64l172 -334l-168 -323l-344 -265l-150 66l43 84l-196 -150zM39 641l121 -233l96 73l-106 209zM47 133l103 -47l104 205zM59 172l222 170l24 47l-37 70l-102 -78zM111 700l39 17l208 160l-4 8zM170 702 l106 -206l82 63l-49 92l119 90l-57 113zM190 113l187 143l45 90l-62 27l-61 -47zM289 475l35 -67l53 41l18 34l-26 54zM326 375l24 20l2 4l-24 -18zM342 641l35 -68l96 74l-22 43zM350 133l103 -47l104 205zM360 172l224 170l22 47l-35 68l-69 -135l-105 -80zM375 899l4 -6 l22 18zM377 393l55 -26l12 22l-30 57l-17 -14zM387 551l23 -41l47 92zM389 870l57 -114l99 75l-58 113zM414 700l28 13l-4 6zM422 291l45 35l-23 10zM422 483l98 74l-31 59zM434 461l27 -53l92 69l4 6l-27 54zM455 356l30 -12l43 82l-61 -45zM459 735l4 -10l98 76l-6 8z M475 705l29 -60v-2l35 -70l100 76l-68 129zM494 113l276 213l-106 47l-62 -47zM551 551l20 -41l47 92zM575 823l5 -8l82 62l-7 8zM590 475l35 -67l55 41l78 153zM592 793l76 -148l-68 -133l178 137l-106 205zM629 375l22 20l4 4l-24 -18zM678 393l108 -49l134 258l-222 -170 zM678 899l2 -6l25 18zM692 870l115 -225l-2 -6l-80 -156l215 166l-152 295z" />
<glyph unicode="&#xbc;" horiz-adv-x="1390" d="M-4 920v110l8 2l328 252v2q94 23 162 72h94v-522l145 282h4l336 256h148l-588 -1143h-4q-160 -125 -336 -256h-148l355 691q-115 -92 -258 -197h-158v465zM20 958l154 117h-10q-63 -43 -144 -63v-54zM55 954l37 7l135 104v10h-12zM72 1055q51 20 82 43l178 137v18z M109 506l118 92v436l-118 -92v-436zM133 494h94v73zM197 1100h10l125 96v8zM201 -2h82l53 102zM201 29l159 123l486 942h-98l-160 -312v-51q-4 -2 -43 -31zM252 506l274 209l6 10h-96l-184 -139v-80zM252 616l168 127v439l-168 -129v-437zM326 29l264 202h-84l-125 -96z M356 1204l23 4l162 125h-41l-144 -110v-19zM356 1253l31 25q-10 -4 -31 -10v-15zM406 186l86 66l471 913l-89 -65zM430 1219l14 2v-471h101l18 38v533zM520 256h98l547 1067l-157 -123zM659 145v107l191 373h2l336 256h174v-365h72v-110l-72 -54v-94v-2q-2 -2 -115 -88 l-229 -174h-158v151h-201zM682 182l72 54h-2l41 90l-111 -84v-60zM707 170h161l136 102v60l-125 -96h-84zM707 291l108 84l55 112l134 101v12h-140zM776 1118h82l129 99l53 102zM803 289l61 45v47l-28 -23zM825 260h39v29zM858 406l6 6v8zM885 31l119 90v43l71 53v19h-71 l-119 -84v-121zM889 354l104 80v47l-102 -82zM889 428l106 82l6 12v35l-112 -88v-41zM891 272l113 90v33l-113 -88v-35zM893 625h117l71 53l76 149zM907 18h97v72zM1026 31l289 219h-86l-137 -105h-17l-49 -36v-78zM1026 291l145 110h-77l-68 -51v-59zM1026 381l29 20h-29 v-20zM1026 426h59l89 68h-64l-84 -64v-4zM1026 461l70 51l84 182l-105 -80l-49 -96v-57zM1032 1251l131 99h-80zM1042 260h39l115 86v31zM1051 170h16l8 6v10zM1098 195l98 73v13l-98 -76v-10zM1098 236l98 75v6l-98 -75v-6zM1124 516h74v162zM1126 426h93l118 92v326 l-114 -90v-179l-2 -77zM1126 713l189 143h-115zM1221 274l116 91v24l-116 -90v-25zM1221 330v6l188 145v-55h-61zM1221 367l165 127h-38l-127 -99v-28zM1260 274h77v60zM1362 383l24 18h-24v-18z" />
<glyph unicode="&#xbd;" horiz-adv-x="1374" d="M2 920v110l6 2l338 254q74 16 148 70l4 2h94v-522l145 282h4l332 256h152l-351 -680l195 150q59 45 150 45q86 0 141 -41q59 -47 59 -129q0 -131 -227 -328h215v-135l-6 -6l-340 -256h-402v112l5 5q246 248 245 350q0 12 -2 22l-86 -65v-6l-84 12l-100 -193h-2l-334 -256 h-151l356 691l-260 -197h-158v465zM25 958l153 117h-10q-63 -43 -143 -63v-54zM59 954l54 9v-2l120 92v22h-14zM76 1055q53 20 82 43l178 137v18zM113 506l120 92v424l-120 -92v-424zM137 494h96v73zM201 1100h10l125 96v8zM205 29l162 123l483 942h-96l-162 -312v-51 l-41 -31zM207 -2h80l53 102zM258 506l272 209l7 10h-97l-182 -139v-80zM258 616l166 127v426l-166 -129v-424zM258 1071l152 119l-17 -4l-135 -105v-10zM330 29l264 202h-84l-125 -96zM360 1204l23 4l162 125h-39l-146 -110v-19zM360 1253l33 25q-12 -4 -33 -10v-15z M412 186l84 66l469 911l-86 -65zM434 1219l15 2v-471h100l18 38v533zM526 256h97l88 172l-43 8l2 10q14 102 75 150l84 63l340 662l-159 -123zM684 31l131 100q125 106 180 178v25l-311 -238v-65zM700 475l58 45l37 70q-70 -35 -95 -115zM707 18h342v93h-222zM711 453l12 -2 l10 18zM748 446l53 -6q16 94 73 95q29 0 39 -15l82 62q-35 20 -84 24l-133 -102zM776 197l223 172q25 25 58 59q4 21 4 35q0 63 -47 102l-86 -65q6 -18 6 -39q0 -80 -158 -264zM780 1118h84l127 96l53 105zM803 555l69 53q-23 -2 -45 -6zM829 455l64 49q-6 6 -19 6 q-33 0 -45 -55zM842 631q20 2 43 2q-4 0 18 -2l103 78q8 40 24 73l-180 -137zM860 135h197l149 115h-194zM938 627q45 -8 76 -31l102 78l-96 16zM1020 287l131 102q246 187 246 330q0 59 -39 98q-49 49 -139 49q-156 0 -187 -153l105 -17q16 96 73 97q25 0 42.5 -18.5 t17.5 -57.5q0 -90 -191 -299q-14 -55 -59 -117v-14zM1020 342q8 15 14 29q-10 -10 -14 -17v-12zM1034 582q51 -47 51 -119v-2q160 184 160 256q0 51 -35 51q-39 0 -51 -88l-2 -12l-8 2zM1036 1249l133 101h-82zM1042 274h197l121 93h-197zM1073 31l287 219h-113l-174 -133 v-86zM1278 274h106v80z" />
<glyph unicode="&#xbe;" horiz-adv-x="1460" d="M-6 625l8 2l141 108q-20 0 -14 0h-12v105q0 12 2 6l6 6l119 90q-2 27 -19 37l-80 -61h-10l-127 32l4 13q18 78 68 114l321 244q57 45 148 45q86 0 144.5 -46t58.5 -128q0 -70 -56 -113h2l-30 -24q51 -18 75 -56l62 119h2l332 256h151l-8 -16l-580 -1127h-2l-340 -256 h-145l360 699l-188 -146q-61 -70 -182 -69q-170 0 -209 153zM25 606q37 -123 180 -123q61 0 91 11.5t75 52.5q37 32 37 108q0 20 -7 41l-143 -108q-23 -29 -61 -29q-59 0 -78 72zM49 993l111 86q-78 -18 -111 -86zM51 965l80 -21q18 68 74 68q6 0 18 -4l78 59q-41 18 -88 18 h-6zM61 641l62 16l90 68q-14 6 -33 8zM141 641q14 -57 56 -57q16 0 45 22q12 20 12 51q0 37 -18 56zM141 772l248 189q0 2 -2 12l-131 -101q-27 -47 -100 -47q-2 0 -15 2v-55zM154 1102q20 6 45 6l149 115q7 21 17 41zM164 758h10l166 127l45 10q6 19 6 37zM164 850 q72 4 80 61zM166 965l29 22q-16 -4 -29 -22zM207 754q16 -4 26 -11q95 72 109 95q0 2 -4 14zM238 1108q47 -4 86 -23l122 95l-84 22zM246 995q14 -14 20 -37l90 72q-14 16 -30 27zM254 727q25 -25 25 -70q0 -10 -3 -24l115 88q-20 39 -72 57zM268 913l111 84q-4 8 -6 13 l-103 -78v-2q0 -4 -2 -17zM272 -2h80l54 102zM272 29l160 123l483 942h-96l-63 -121q10 -29 10 -62q0 -117 -98 -166l-47 -36zM342 795q47 -20 70 -60l10 8q-41 23 -64 64zM346 1071q16 -12 31 -27l76 58q0 4 12 8q47 -6 94 18q23 35 23 58q0 57 -41 57t-56 -61l-2 -13l-6 2 zM358 864l4 -8q5 4 9 10zM375 1225l92 -25q18 68 74 68q66 0 65 -82q0 -76 -67 -96l-62 -48v-26q55 0 84 -12q39 31 127 98q39 20 39 90q0 61 -39 100q-49 49 -139 49q-137 0 -174 -116zM377 821q25 -41 65 -61l76 57q-45 8 -63 64zM391 1024q2 0 6 -12l56 43v16zM395 29 l264 202h-84l-124 -96zM408 989l4 -12l41 33v14zM412 903l22 4l103 78q-25 6 -68 6l-53 -41v-16q0 -14 -4 -31zM420 586l176 135q-27 -6 -55 -6q-51 0 -95 16l-24 -18q8 -25 8 -58q0 -37 -10 -69zM469 750q33 -10 72 -11q37 0 73 11l115 223q-23 47 -84 65l-61 -47 q31 -27 30 -76q0 -76 -51 -94zM475 905q12 -66 57 -65q58 -1 58 75q0 41 -27 60l-88 -68v-2zM477 186l84 66l471 913l-86 -65zM477 1073l15 10h-15v-10zM592 256h96l549 1067l-160 -123zM647 760l4 2l13 10q77 59 77 139q0 14 -2 29zM729 145v107l191 373h4l333 256h177 v-365h71v-110q-4 -2 -71 -54v-94q-4 -4 -9 -8l-335 -256h-160v151h-201zM754 182l71 54h-4l43 90l-110 -84v-60zM776 170h162l135 102v60q-53 -45 -123 -96h-86zM776 291l111 84q25 53 53 112l133 101v12h-139zM848 1118h82l129 99l53 102zM872 289l62 45v47l-29 -23z M897 260h37v29zM928 406l6 6v8zM954 31l119 90v43l72 53v19h-72q-4 0 -119 -84v-121zM961 272l112 90v33l-112 -88v-35zM961 354l104 80v47l-104 -82v-45zM961 430l106 82l6 12v35l-110 -88zM963 625h118l70 53l76 149zM979 18h94v72zM1098 31l286 219h-86l-137 -105h-16 l-47 -36v-78zM1098 291l145 110h-80l-65 -51v-59zM1098 381l26 20h-26v-20zM1098 426h57l88 68h-63l-82 -64v-4zM1098 461l67 51l86 182l-104 -80l-49 -96v-57zM1104 1251l129 99h-78zM1114 260h39l113 86v31zM1120 170h17l8 6v10zM1169 195l97 73v13l-97 -76v-10zM1169 236 l97 75v6l-97 -75v-6zM1194 516h74v162zM1196 426h94q58 43 119 92v326l-117 -90v-179v-77q-4 -2 -96 -72zM1196 713l188 143h-114zM1290 274l119 91v24l-119 -90v-25zM1290 330v6l191 145v-55h-64zM1290 367l166 127h-39l-127 -99v-28zM1331 274h78v60zM1434 383l22 18h-22 v-18z" />
<glyph unicode="&#xbf;" horiz-adv-x="878" d="M2 252q0 82 88 199q66 88 86 141q31 72 27 166q-8 -4 133 104h-154v258l8 6l336 256h252v-258l-8 -4l-125 -96h111v-53q0 -102 -43 -199q-16 -35 -84 -141q-45 -72 -45 -115q0 -10 4 -20l149 114h6l199 -26v-13q-4 -178 -94 -245l-336 -258q-92 -70 -213 -70 q-147 0 -229 84q-68 66 -68 170zM27 252q0 -94 59 -154q76 -76 213 -75q242 0 279 235q-43 6 -78 18l-121 -92q-29 -23 -66 -22q-88 0 -88 98q0 45 43 119q35 55 70 113q0 25 0 16q0 53 24 104l-272 -209q-63 -90 -63 -151zM129 465l268 203v45v30h-170q0 -145 -98 -278z M207 899l211 162v41h-211v-203zM229 887h138l51 39v104zM231 1126h195l92 70v150zM250 260q0 -74 63 -74q78 0 80 156v8q-37 43 -49 101q-31 -45 -59 -93q-35 -59 -35 -98zM250 768h156l104 80q16 43 22 90l-90 -70l-10 -6h-57zM362 485q8 -72 54 -123l151 117q-6 18 -6 37 q0 47 86 185.5t86 269.5v16l-203 -156q-25 -53 -104 -165l-6 -11q-11 -82 -58 -170zM406 236l69 53q-31 14 -57 37q-2 -55 -12 -90zM408 887h10v8zM420 702l4 7q43 57 63 90l-65 -49v-37v-4q-2 -5 -2 -7zM436 348l101 -12l108 84q-45 2 -67 37zM442 899l95 74v14l-95 -74 v-14zM442 944l97 74l12 6h53l125 96h-194l-93 -71v-105zM442 1079l76 60v26l-76 -57v-29zM467 319q12 -6 31 -14l12 10zM524 295q27 -8 56 -12q0 6 2 22l-39 6zM543 1145h211v201l-211 -162v-39zM543 1214l186 144h-186v-144zM545 874l164 125h-97l-51 -38q-4 -44 -16 -87z M561 991l12 8h-12q0 6 0 -8zM563 139l166 125q-43 -10 -94 -10q-16 0 -35 2q-8 -68 -37 -117zM569 332l21 -4l309 237l-145 19q-2 -57 -6 -78q-8 -45 -35 -66zM596 471q18 -29 53 -29q74 0 80 129zM604 281q16 -2 31 -2q260 0 280 268l-309 -238q-2 -18 -2 -28z" />
<glyph unicode="&#xc0;" d="M8 -6l209 1098l346 266h330l190 -1100l-348 -264h-246l-28 178l-236 -178h-217zM41 35l199 151l10 54l106 79l17 84h-97l76 478h-2l4 2l127 98l19 96h-262zM59 18h154l23 134zM92 1551l346 268h217l4 -6l150 -287l-346 -264h-121l-2 4zM135 1538l215 -247l61 47l-106 200 h-170zM145 1563h164l199 152l-66 75zM240 33l217 166l-4 20h-131l-60 -45zM264 1102h242l41 215zM268 209l13 10h-11zM295 244h18l33 24l4 17zM309 444l84 64l6 41l-37 246zM328 428h49l8 45zM330 1547l102 -195l233 180l-141 164zM352 244h107l10 6h-107zM373 274h127 l55 41l23 144l-199 -152zM377 868l37 -245l61 321zM385 342l207 158h45l-10 49l-191 -146h-39zM385 1284h53l-14 31zM401 428h17l-6 49zM424 549l4 -14l178 137l-57 329l-45 -34zM432 508l10 -70l181 140l-13 67zM442 1330l21 -37l295 225h-70zM471 1794l57 -65l84 65h-141z M477 225l2 -10l43 35h-14zM483 188l25 -161l186 143l-35 195l-81 -62l-9 -49zM510 1001l35 27l-8 49h-13zM530 1102h13l303 231h-273zM535 18h184l-21 123zM541 274h8v7zM543 1710l147 -167h84l-129 245zM559 1085l8 -41l142 105l71 -481l-131 -101l13 -67h147l37 -226h209 l-183 1051zM571 1018l52 -297l59 383zM584 338l71 55l-14 82h-35zM633 659l12 -65l88 65h-100zM641 684h113l-56 367zM666 475l10 -65l88 65h-98zM682 381l33 -195l106 82l-30 197zM721 160l22 -133l291 223h-194z" />
<glyph unicode="&#xc1;" d="M8 -6l209 1098l346 266h330l190 -1100l-348 -264h-246l-28 178l-236 -178h-217zM41 35l199 151l10 54l106 79l17 84h-97l76 478h-2l4 2l127 98l19 96h-262zM59 18h154l23 134zM195 1262l158 301h4l340 256h229l-260 -301h-2l-340 -256h-129zM240 33l217 166l-4 20h-131 l-60 -45zM250 1284h70l131 154zM252 1317l285 221h-170zM264 1102h242l41 215zM268 209l13 10h-11zM295 244h18l33 24l4 17zM309 444l84 64l6 41l-37 246zM328 428h49l8 45zM352 244h107l10 6h-107zM373 274h127l55 41l23 144l-199 -152zM377 868l37 -245l61 321zM385 342 l207 158h45l-10 49l-191 -146h-39zM396 1563h157l107 201zM401 428h17l-6 49zM410 1354l215 164h-70l-10 -6zM424 549l4 -14l178 137l-57 329l-45 -34zM432 508l10 -70l181 140l-13 67zM477 225l2 -10l43 35h-14zM483 188l25 -161l186 143l-35 195l-81 -62l-9 -49zM510 1001 l35 27l-8 49h-13zM530 1102h13l303 231h-273zM535 18h184l-21 123zM541 274h8v7zM559 1085l8 -41l142 105l71 -481l-131 -101l13 -67h147l37 -226h209l-183 1051zM571 1018l52 -297l59 383zM574 1543h80l159 182zM584 338l71 55l-14 82h-35zM596 1590l267 204h-160zM633 659 l12 -65l88 65h-100zM641 684h113l-56 367zM666 475l10 -65l88 65h-98zM682 381l33 -195l106 82l-30 197zM721 160l22 -133l291 223h-194z" />
<glyph unicode="&#xc2;" d="M8 -6l209 1098l346 266h330l190 -1100l-348 -264h-246l-28 178l-236 -178h-217zM41 35l199 151l10 54l106 79l17 84h-97l76 478h-2l4 2l127 98l19 96h-262zM59 18h154l23 134zM154 1262l145 301l338 256h176l138 -293l-351 -264h-104l-78 106l-139 -106h-125zM205 1313 l268 205l-10 20h-151zM209 1284h58l73 101zM240 33l217 166l-4 20h-131l-60 -45zM264 1102h242l41 215zM268 209l13 10h-11zM295 244h18l33 24l4 17zM309 444l84 64l6 41l-37 246zM328 428h49l8 45zM332 1334l72 55l-17 20zM340 1563h127l68 51l72 152zM352 244h107l10 6 h-107zM373 274h127l55 41l23 144l-199 -152zM377 868l37 -245l61 321zM385 342l207 158h45l-10 49l-191 -146h-39zM400 1432l22 -29l76 58l-14 34zM401 428h17l-6 49zM424 549l4 -14l178 137l-57 329l-45 -34zM432 508l10 -70l181 140l-13 67zM437 1383l67 -92l56 41 l-50 106zM477 225l2 -10l43 35h-14zM483 188l25 -161l186 143l-35 195l-81 -62l-9 -49zM486 1547l6 -15l6 6l14 29zM502 1510l17 -33l53 41h-60zM510 1001l35 27l-8 49h-13zM529 1454l51 -106l242 184l-99 133l-108 -147h-2zM529 1543h74l120 163l121 -163h74l-117 245 l-246 -188zM530 1102h13l303 231h-273zM535 18h184l-21 123zM539 1284h43l-12 27zM541 274h8v7zM559 1085l8 -41l142 105l71 -481l-131 -101l13 -67h147l37 -226h209l-183 1051zM571 1018l52 -297l59 383zM578 1647l192 147h-122zM584 338l71 55l-14 82h-35zM590 1325 l17 -32l295 225h-60zM633 659l12 -65l88 65h-100zM641 684h113l-56 367zM666 475l10 -65l88 65h-98zM682 381l33 -195l106 82l-30 197zM721 160l22 -133l291 223h-194z" />
<glyph unicode="&#xc3;" d="M8 -6l209 1098l346 266h330l190 -1100l-348 -264h-246l-28 178l-236 -178h-217zM41 35l199 151l10 54l106 79l17 84h-97l76 478h-2l4 2l127 98l19 96h-262zM59 18h154l23 134zM195 1297q29 143 86 186l320 246q37 29 86 29q27 0 67 -15q53 -16 68 -20q35 29 75 61h99 q-14 -78 -23 -104q-20 -57 -55 -84l-336 -256q-27 -20 -70 -21q-35 0 -75 15q-53 16 -72 18l-74 -55h-96zM230 1338l168 131q-27 8 -47 8q-88 0 -121 -139zM240 33l217 166l-4 20h-131l-60 -45zM246 1319h33q20 59 68 60h12l94 71q-8 2 -27 9zM264 1102h242l41 215zM268 209 l13 10h-11zM295 244h18l33 24l4 17zM309 444l84 64l6 41l-37 246zM328 428h49l8 45zM342 1500h9q29 0 71 -15l113 86q13 60 31 99zM352 244h107l10 6h-107zM373 274h127l55 41l23 144l-199 -152zM377 868l37 -245l61 321zM385 342l207 158h45l-10 49l-191 -146h-39z M392 1373q109 -31 110 -31q94 0 129 162h-53q-18 -63 -68 -64q-12 0 -26 2zM401 428h17l-6 49zM424 549l4 -14l178 137l-57 329l-45 -34zM432 508l10 -70l181 140l-13 67zM449 1477q16 -6 29 -8l108 84h-37zM477 225l2 -10l43 35h-14zM483 188l25 -161l186 143l-35 195 l-81 -62l-9 -49zM510 1001l35 27l-8 49h-13zM510 1465q25 -1 39 28zM530 1102h13l303 231h-273zM535 18h184l-21 123zM541 274h8v7zM559 1085l8 -41l142 105l71 -481l-131 -101l13 -67h147l37 -226h209l-183 1051zM560 1577h53q23 57 69 58h23l92 69q-100 29 -110 29 q-92 0 -127 -156zM571 1018l52 -297l59 383zM584 338l71 55l-14 82h-35zM605 1528h36l97 72q-14 4 -27 8zM623 1401l227 174h-12q-29 0 -74 15l-106 -82q-14 -66 -35 -107zM633 659l12 -65l88 65h-100zM641 684h113l-56 367zM648 1590l24 20q-14 -4 -24 -20zM666 475l10 -65 l88 65h-98zM682 381l33 -195l106 82l-30 197zM721 160l22 -133l291 223h-194zM734 1627q14 -4 26 -9l109 82q-12 -4 -23 -4q-8 0 -18 2zM789 1608q29 -8 49 -8q90 0 125 141zM895 1721l52 39h-33q-6 -25 -19 -39z" />
<glyph unicode="&#xc4;" d="M8 -6l209 1098l346 266h330l190 -1100l-348 -264h-246l-28 178l-236 -178h-217zM41 35l199 151l10 54l106 79l17 84h-97l76 478h-2l4 2l127 98l19 96h-262zM59 18h154l23 134zM174 1301v213l344 262h176v-49l64 49h178v-211l-344 -264h-178v49l-64 -49h-176zM199 1338 l135 104v53h-135v-157zM221 1325h113v86zM221 1520h121l168 127v92zM240 33l217 166l-4 20h-131l-60 -45zM264 1102h242l41 215zM268 209l13 10h-11zM295 244h18l33 24l4 17zM309 444l84 64l6 41l-37 246zM328 428h49l8 45zM352 244h107l10 6h-107zM358 1338l56 43v92 l-56 -43v-92zM358 1461l152 114v41l-152 -114v-41zM373 274h127l55 41l23 144l-199 -152zM377 868l37 -245l61 321zM385 342l207 158h45l-10 49l-191 -146h-39zM401 428h17l-6 49zM424 549l4 -14l178 137l-57 329l-45 -34zM432 508l10 -70l181 140l-13 67zM438 1338l137 106 v29l-137 -105v-30zM438 1399l125 96h-121l-4 -4v-92zM461 1325h114v89zM475 1520h109l51 39h-109zM477 225l2 -10l43 35h-14zM483 188l25 -161l186 143l-35 195l-81 -62l-9 -49zM510 1001l35 27l-8 49h-13zM530 1102h13l303 231h-273zM534 1604l136 104v31l-136 -104v-31z M534 1665l113 86h-113v-86zM535 18h184l-21 123zM541 274h8v7zM545 1584h121l4 2v92zM559 1085l8 -41l142 105l71 -481l-131 -101l13 -67h147l37 -226h209l-183 1051zM571 1018l52 -297l59 383zM584 338l71 55l-14 82h-35zM600 1338l287 221h-121l-166 -127v-94zM600 1463 l149 114v39l-149 -114v-39zM633 659l12 -65l88 65h-100zM641 684h113l-56 367zM666 475l10 -65l88 65h-98zM682 381l33 -195l106 82l-30 197zM694 1604l55 43v92l-55 -43v-92zM721 160l22 -133l291 223h-194zM774 1584h137v155l-137 -104v-51zM774 1665l113 86h-113v-86z " />
<glyph unicode="&#xc5;" d="M8 -6l209 1098l346 266h330l190 -1100l-348 -264h-246l-28 178l-236 -178h-217zM41 35l199 151l10 54l106 79l17 84h-97l76 478h-2l4 2l127 98l19 96h-262zM59 18h154l23 134zM184 1450q0 102 74 160l325 250q63 49 140 49q84 0 143 -58.5t59 -144.5q0 -100 -61 -147 l-326 -248q-82 -63 -151 -63q-86 0 -144.5 58t-58.5 144zM209 1450q0 -76 51 -127t127 -51q74 0 126 51t52 127q0 -2 -2 9l-98 -76q-37 -29 -78 -29q-39 0 -68 26.5t-29 63.5q0 57 39 88l115 86q-31 10 -57 11q-76 0 -127 -52.5t-51 -126.5zM240 33l217 166l-4 20h-131 l-60 -45zM264 1102h242l41 215zM268 209l13 10h-11zM295 244h18l33 24l4 17zM309 444l84 64l6 41l-37 246zM315 1450q0 -72 72 -71q29 0 50 20t21 51q0 29 -21.5 50.5t-49.5 21.5q-31 0 -51.5 -21.5t-20.5 -50.5zM328 428h49l8 45zM348 1649q20 4 39 4q41 0 80 -16l55 43 q-2 18 -2 26q0 47 20 90zM352 244h107l10 6h-107zM373 274h127l55 41l23 144l-199 -152zM377 868l37 -245l61 321zM385 342l207 158h45l-10 49l-191 -146h-39zM387 1545q39 0 67.5 -28t28.5 -67q0 -12 -4 -26l82 63q-16 82 -92 121zM401 428h17l-6 49zM424 549l4 -14 l178 137l-57 329l-45 -34zM432 508l10 -70l181 140l-13 67zM477 225l2 -10l43 35h-14zM483 188l25 -161l186 143l-35 195l-81 -62l-9 -49zM491 1624q70 -41 90 -120l37 28q-70 41 -90 121zM510 1001l35 27l-8 49h-13zM530 1102h13l303 231h-273zM535 18h184l-21 123z M541 274h8v7zM544 1696l107 82q31 25 72 25q39 0 66.5 -28t27.5 -69q0 -53 -31 -75l-119 -93q29 -10 56 -10q74 0 126 52t52 126q0 76 -52.5 128.5t-125.5 52.5q-76 0 -127.5 -52.5t-51.5 -128.5q0 2 0 -10zM549 1670q16 -84 92 -121l82 63q-41 0 -69 26.5t-28 67.5 q0 12 2 25zM559 1085l8 -41l142 105l71 -481l-131 -101l13 -67h147l37 -226h209l-183 1051zM571 1018l52 -297l59 383zM571 1366l184 142q-20 -4 -32 -4q-43 0 -80 16l-58 -43q4 -20 5 -27q0 -43 -19 -84zM584 338l71 55l-14 82h-35zM633 659l12 -65l88 65h-100zM641 684 h113l-56 367zM649 1706q0 -72 74 -71q29 0 50 21t21 50q0 31 -21.5 51.5t-49.5 20.5q-31 0 -52.5 -20.5t-21.5 -51.5zM666 475l10 -65l88 65h-98zM682 381l33 -195l106 82l-30 197zM721 160l22 -133l291 223h-194z" />
<glyph unicode="&#xc6;" horiz-adv-x="1415" d="M4 -6l375 1108l336 256h710v-211l-8 -6l-272 -207h180v-217h-6l-223 -170v-80h329v-211l-8 -6l-338 -256h-571v219l-285 -219h-219zM45 39l227 174l15 31l67 51l35 108h-59l168 515l88 69l28 90h-223zM55 18h152l51 154zM240 39l235 180h-156l-26 -20zM350 244h156l10 6 h-156zM371 449l47 36l90 273v119zM373 274h170l59 181l-227 -176zM383 428h14l6 16zM387 319l109 84h-80zM418 1102h205l71 211zM424 428h84v96l-70 -53zM453 512l55 43v127zM532 31l203 155v193l-203 -154v-194zM532 463l248 190h-45v6h-49l-154 -116v-80zM532 573l134 107 l135 397h-58l-137 -104l-74 -219v-181zM532 831l39 115l-39 -28v-87zM557 18h508v168h-289zM571 285l164 125v65h-100zM621 500h143l199 153h-142zM621 1014l81 63h-61zM649 1102h86l133 102v-102h127l84 63h76l221 168h-649zM698 684h37v115zM760 223l84 64v174h-4l-80 -64 v-174zM760 428l41 33h-41v-33zM760 690l84 64v131h-80l-4 -13v-182zM774 1102h35l10 35zM780 936l64 49v92h-19zM784 909h60v45zM795 684h28l21 16v23zM803 500h65v-17h99v142zM809 211h264l51 39h-264zM834 1102h10v31zM868 274h289l219 168h-289zM868 305l203 156v67 l-80 -61l-10 -6h-113v-156zM868 676h107l303 233h-164l-35 -24h-24l-187 -144v-65zM868 772l146 113h-146v-113zM868 909h179l18 15v153h-61l-136 -104v-64zM868 1004l97 73h-97v-73zM991 498l80 61v146l-80 -62v-145zM1036 1102h35v26zM1090 31l286 219h-211l-75 -57v-162z M1096 578l182 139h-182v-139zM1096 934h10l270 207h-213l-67 -54v-153zM1096 1118l28 23h-28v-23zM1098 741h205v156zM1196 274h205v156zM1196 1165h205v156z" />
<glyph unicode="&#xc7;" horiz-adv-x="1028" d="M8 645q0 229 55 359q49 113 179 219q154 115 309 229q51 37 170 37q328 0 330 -426h-9q-156 -123 -337 -256h-80q2 -94 14 -154q59 51 180 138q76 -2 228 -11q-2 -281 -144 -385v-2l-100 -78q147 -16 147 -151q0 -86 -63 -135l-336 -256q-39 -31 -141 -31q-86 0 -222 37 v115q6 4 136 102v86l-2 4q-313 41 -314 559zM33 645q0 -504 301 -536l309 235q-57 10 -102 37q-37 -31 -74 -59q-59 -45 -82 -46q-121 0 -121 299v148q0 236 62 301l26 20q8 92 31 164q-350 -2 -350 -563zM213 -129v-59l59 45q-31 8 -59 14zM229 -106q39 -10 70 -17l90 70 q-27 0 -65 -4v22zM229 -207q104 -27 181 -26q180 0 180 141q0 27 -6 47l-86 -70q-55 -43 -101 -43q-41 0 -92 8zM287 1221q59 16 104 12q18 59 47 102zM289 709q0 -197 4 -234q16 -174 92 -174q70 0 86 135q-127 137 -127 465q0 53 4 111q-59 -33 -59 -303zM332 -129 q39 -4 65 -4q58 0 58 41q0 25 -33 33zM348 14l58 43v45q4 2 241 185q12 33 12 41l-311 -238v-76zM348 -16v-2l74 55h-4zM369 901q0 -295 104 -430q2 20 4 59q4 3 141 109q-16 63 -18 168l-141 -2q-2 61 -19 125q-23 94 -59 94h-6q-6 -66 -6 -123zM375 -29q25 0 43 -4l78 62 q-16 4 -37 6zM379 1065l147 113q-51 27 -118 28q-18 -63 -29 -141zM393 1047q70 -18 88 -205l119 90v37q0 77 6 145q-25 31 -57 51zM416 1231q74 -4 131 -37l115 88v-2l2 2q27 23 53 23q82 0 100 -218h209q-6 377 -305 377q-221 0 -305 -233zM428 76l16 12l-16 -2v-10z M446 -41q41 -20 33 -51l94 72q-16 25 -49 38zM451 59l65 52q-2 -2 -65 -52zM465 117q35 10 87.5 50t72.5 73zM479 365l39 30q-14 8 -26 21q-4 -25 -13 -51zM485 55q20 -4 35 -8l4 4v35zM496 446q23 -23 43 -36l120 92l-159 8q0 -35 -4 -64zM508 829h92v72zM522 532l168 -6 l12 9q-49 10 -75 79zM549 53q53 -12 94 -20l88 65q-66 2 -158 25l-24 -19v-51zM561 27q20 -16 31 -33l26 18q-31 6 -57 15zM563 397q49 -27 109 -32q12 59 14 127zM569 1182q25 -16 41 -35q9 47 21 82zM598 141q80 -18 135 -18q58 0 58 43q0 37 -76 37q-18 0 -39 -2z M604 -29q10 -29 10 -63q0 -35 -10 -64l213 162q-37 -8 -72 -8q-41 0 -94 10zM625 829l65 2q0 68 -14 127l-51 -38v-91zM625 950l45 35q-14 55 -41 98q-4 -51 -4 -102v-31zM633 1122q39 -49 59 -121l103 78q-4 57 -21 117q-23 86 -57 86q-66 0 -84 -160zM647 629 q25 -72 74 -72q82 0 90 197zM678 29q39 -6 67 -6q181 0 181 141q0 123 -154 129l-86 -66h29q100 4 100 -61q0 -33 -33 -57zM684 270l55 43v15l-55 -43v-15zM684 315q23 14 61 50q265 18 277 380l-311 -239q0 -94 -27 -191zM698 977q14 -61 17 -135l289 221h-193zM764 317 l43 33q-20 -4 -43 -8v-25zM813 616l186 144l-163 6q-2 -94 -23 -150z" />
<glyph unicode="&#xc8;" horiz-adv-x="999" d="M0 -6v1102l348 262h586v-211l-279 -213h180v-211l-231 -176v-80h334v-211l-346 -262h-592zM24 31l221 168v278l91 72v104h-91v248l91 72v104h-312v-1046zM49 18h530v168h-311zM49 1102h287v219zM115 1551l346 268h217l4 -6l150 -287l-346 -264h-121l-2 4zM158 1538 l215 -247l61 47l-106 200h-170zM168 1563h164l199 152l-66 75zM268 223l68 51v187h-68v-238zM268 690l68 51v144h-68v-195zM293 483h43v35zM293 676h43v35zM293 909h43v33zM301 211h286l52 39h-287zM353 1547l102 -195l233 180l-141 164zM360 293l219 168v67l-88 -67h-131 v-168zM360 483h115v142l-115 -88v-54zM360 567l113 86h-113v-86zM360 676h123l305 233h-166l-35 -24h-24l-203 -156v-53zM360 760l164 125h-164v-125zM360 909h195l18 15v153h-59l-154 -116v-52zM360 991l113 86h-113v-86zM360 1102h146l79 63h80l221 168h-526v-231z M377 274h292l222 168h-295zM408 1284h53l-14 31zM465 1330l21 -37l295 225h-70zM494 1794l57 -65l84 65h-141zM499 498l80 61v146l-80 -62v-145zM544 1102h35v26zM566 1710l147 -167h84l-129 245zM604 31l287 219h-213l-74 -57v-162zM604 578l184 139h-184v-139zM604 934h10 l272 207h-213l-69 -54v-153zM604 1118l29 23h-29v-23zM608 741h203v156zM704 1165h205v156zM710 274h203v156z" />
<glyph unicode="&#xc9;" horiz-adv-x="1028" d="M29 -6v1102l348 262h586v-211l-279 -213h180v-211l-231 -176v-80h334v-211l-346 -262h-592zM53 31l221 168v278l91 72v104h-91v248l91 72v104h-312v-1046zM78 18h530v168h-311zM78 1102h287v219zM256 1262l158 301h4l340 256h229l-260 -301h-2l-340 -256h-129zM297 223 l68 51v187h-68v-238zM297 690l68 51v144h-68v-195zM311 1284h70l131 154zM313 1317l285 221h-170zM322 483h43v35zM322 676h43v35zM322 909h43v33zM330 211h286l52 39h-287zM389 293l219 168v67l-88 -67h-131v-168zM389 483h115v142l-115 -88v-54zM389 567l113 86h-113v-86z M389 676h123l305 233h-166l-35 -24h-24l-203 -156v-53zM389 760l164 125h-164v-125zM389 909h195l18 15v153h-59l-154 -116v-52zM389 991l113 86h-113v-86zM389 1102h146l79 63h80l221 168h-526v-231zM406 274h292l222 168h-295zM457 1563h157l107 201zM471 1354l215 164 h-70l-10 -6zM528 498l80 61v146l-80 -62v-145zM573 1102h35v26zM633 31l287 219h-213l-74 -57v-162zM633 578l184 139h-184v-139zM633 934h10l272 207h-213l-69 -54v-153zM633 1118l29 23h-29v-23zM635 1543h80l159 182zM637 741h203v156zM657 1590l267 204h-160zM733 1165 h205v156zM739 274h203v156z" />
<glyph unicode="&#xca;" horiz-adv-x="999" d="M0 -6v1102l348 262h586v-211l-279 -213h180v-211l-231 -176v-80h334v-211l-346 -262h-592zM24 31l221 168v278l91 72v104h-91v248l91 72v104h-312v-1046zM43 1262l145 301l338 256h176l138 -293l-351 -264h-104l-78 106l-139 -106h-125zM49 18h530v168h-311zM49 1102h287 v219zM94 1313l268 205l-10 20h-151zM98 1284h58l73 101zM221 1334l72 55l-17 20zM229 1563h127l68 51l72 152zM268 223l68 51v187h-68v-238zM268 690l68 51v144h-68v-195zM289 1432l22 -29l76 58l-14 34zM293 483h43v35zM293 676h43v35zM293 909h43v33zM301 211h286l52 39 h-287zM326 1383l67 -92l56 41l-50 106zM360 293l219 168v67l-88 -67h-131v-168zM360 483h115v142l-115 -88v-54zM360 567l113 86h-113v-86zM360 676h123l305 233h-166l-35 -24h-24l-203 -156v-53zM360 760l164 125h-164v-125zM360 909h195l18 15v153h-59l-154 -116v-52z M360 991l113 86h-113v-86zM360 1102h146l79 63h80l221 168h-526v-231zM375 1547l6 -15l6 6l14 29zM377 274h292l222 168h-295zM391 1510l17 -33l53 41h-60zM418 1454l51 -106l242 184l-99 133l-108 -147h-2zM418 1543h74l120 163l121 -163h74l-117 245l-246 -188zM428 1284 h43l-12 27zM467 1647l192 147h-122zM479 1325l17 -32l295 225h-60zM499 498l80 61v146l-80 -62v-145zM544 1102h35v26zM604 31l287 219h-213l-74 -57v-162zM604 578l184 139h-184v-139zM604 934h10l272 207h-213l-69 -54v-153zM604 1118l29 23h-29v-23zM608 741h203v156z M704 1165h205v156zM710 274h203v156z" />
<glyph unicode="&#xcb;" horiz-adv-x="999" d="M0 -6v1102l348 262h586v-211l-279 -213h180v-211l-231 -176v-80h334v-211l-346 -262h-592zM24 31l221 168v278l91 72v104h-91v248l91 72v104h-312v-1046zM49 18h530v168h-311zM49 1102h287v219zM94 1301v213l344 262h176v-49l64 49h178v-211l-344 -264h-178v49l-64 -49 h-176zM119 1338l135 104v53h-135v-157zM141 1325h113v86zM141 1520h121l168 127v92zM268 223l68 51v187h-68v-238zM268 690l68 51v144h-68v-195zM278 1338l56 43v92l-56 -43v-92zM278 1461l152 114v41l-152 -114v-41zM293 483h43v35zM293 676h43v35zM293 909h43v33zM301 211 h286l52 39h-287zM358 1338l137 106v29l-137 -105v-30zM358 1399l125 96h-121l-4 -4v-92zM360 293l219 168v67l-88 -67h-131v-168zM360 483h115v142l-115 -88v-54zM360 567l113 86h-113v-86zM360 676h123l305 233h-166l-35 -24h-24l-203 -156v-53zM360 760l164 125h-164v-125 zM360 909h195l18 15v153h-59l-154 -116v-52zM360 991l113 86h-113v-86zM360 1102h146l79 63h80l221 168h-526v-231zM377 274h292l222 168h-295zM381 1325h114v89zM395 1520h109l51 39h-109zM454 1604l136 104v31l-136 -104v-31zM454 1665l113 86h-113v-86zM465 1584h121l4 2 v92zM499 498l80 61v146l-80 -62v-145zM520 1338l287 221h-121l-166 -127v-94zM520 1463l149 114v39l-149 -114v-39zM544 1102h35v26zM604 31l287 219h-213l-74 -57v-162zM604 578l184 139h-184v-139zM604 934h10l272 207h-213l-69 -54v-153zM604 1118l29 23h-29v-23z M608 741h203v156zM614 1604l55 43v92l-55 -43v-92zM694 1584h137v155l-137 -104v-51zM694 1665l113 86h-113v-86zM704 1165h205v156zM710 274h203v156z" />
<glyph unicode="&#xcc;" horiz-adv-x="780" d="M31 1551l346 268h217l4 -6l150 -287l-346 -264h-121l-2 4zM74 1538l215 -247l61 47l-106 200h-170zM84 1563h164l199 152l-66 75zM146 -6l8 1108l338 256h258v-1102l-6 -6l-338 -256h-260zM170 31l222 168v878h-222v-1046zM193 18h199v150zM193 1102h207l82 63v156z M269 1547l102 -195l233 180l-141 164zM324 1284h53l-14 31zM381 1330l21 -37l295 225h-70zM410 1794l57 -65l84 65h-141zM416 31l287 219h-205l-82 -64v-155zM416 217l66 51v867l-66 -52v-866zM482 1710l147 -167h84l-129 245zM506 274h221v1047l-221 -168v-879zM506 1184 l197 149h-197v-149z" />
<glyph unicode="&#xcd;" horiz-adv-x="792" d="M0 1262l158 301h4l340 256h229l-260 -301h-2l-340 -256h-129zM33 -6l8 1108l338 256h258v-1102l-6 -6l-338 -256h-260zM55 1284h70l131 154zM57 31l222 168v878h-222v-1046zM57 1317l285 221h-170zM80 18h199v150zM80 1102h207l82 63v156zM201 1563h157l107 201z M215 1354l215 164h-70l-10 -6zM303 31l287 219h-205l-82 -64v-155zM303 217l66 51v867l-66 -52v-866zM379 1543h80l159 182zM393 274h221v1047l-221 -168v-879zM393 1184l197 149h-197v-149zM401 1590l267 204h-160z" />
<glyph unicode="&#xce;" horiz-adv-x="858" d="M41 1262l145 301l338 256h176l138 -293l-351 -264h-104l-78 106l-139 -106h-125zM92 1313l268 205l-10 20h-151zM96 1284h58l73 101zM125 -6l8 1108l338 256h258v-1102l-6 -6l-338 -256h-260zM149 31l222 168v878h-222v-1046zM172 18h199v150zM172 1102h207l82 63v156z M219 1334l72 55l-17 20zM227 1563h127l68 51l72 152zM287 1432l22 -29l76 58l-14 34zM324 1383l67 -92l56 41l-50 106zM373 1547l6 -15l6 6l14 29zM389 1510l17 -33l53 41h-60zM395 31l287 219h-205l-82 -64v-155zM395 217l66 51v867l-66 -52v-866zM416 1454l51 -106 l242 184l-99 133l-108 -147h-2zM416 1543h74l120 163l121 -163h74l-117 245l-246 -188zM426 1284h43l-12 27zM465 1647l192 147h-122zM477 1325l17 -32l295 225h-60zM485 274h221v1047l-221 -168v-879zM485 1184l197 149h-197v-149z" />
<glyph unicode="&#xcf;" horiz-adv-x="823" d="M0 1301v213l344 262h176v-49l64 49h178v-211l-344 -264h-178v49l-64 -49h-176zM25 1338l135 104v53h-135v-157zM47 1325h113v86zM47 1520h121l168 127v92zM94 -6l8 1108l338 256h258v-1102l-6 -6l-338 -256h-260zM118 31l222 168v878h-222v-1046zM141 18h199v150z M141 1102h207l82 63v156zM184 1338l56 43v92l-56 -43v-92zM184 1461l152 114v41l-152 -114v-41zM264 1338l137 106v29l-137 -105v-30zM264 1399l125 96h-121l-4 -4v-92zM287 1325h114v89zM301 1520h109l51 39h-109zM360 1604l136 104v31l-136 -104v-31zM360 1665l113 86 h-113v-86zM364 31l287 219h-205l-82 -64v-155zM364 217l66 51v867l-66 -52v-866zM371 1584h121l4 2v92zM426 1338l287 221h-121l-166 -127v-94zM426 1463l149 114v39l-149 -114v-39zM454 274h221v1047l-221 -168v-879zM454 1184l197 149h-197v-149zM520 1604l55 43v92 l-55 -43v-92zM600 1584h137v155l-137 -104v-51zM600 1665l113 86h-113v-86z" />
<glyph unicode="&#xd0;" horiz-adv-x="1073" d="M14 483v150l9 4l67 53v406l8 6l340 256h279q180 0 280 -101q129 -128 129 -454q0 -354 -133 -459q6 2 -338 -264q-115 -86 -274 -86h-291v489h-76zM37 508h61l236 180v98l-232 -174h-65v-104zM61 637h29v22zM115 31l219 168v305l8 4l80 61v43h-88v45l-219 -168v-458z M115 649l219 168v29l-219 -168v-29zM115 709l219 168v30l8 6l84 64v98q-25 2 -45 2h-266v-368zM137 18h244q266 1 348 232q-23 0 -12 0h-199l-45 -35l-2 2q-39 -37 -102 -35h-17zM137 1102h244q22 0 45 -2v221zM358 219l68 51v213h-68v-264zM358 649l68 51v29l-68 -53v-27z M358 707l43 34h-43v-34zM373 764h76v-45l47 35q-16 88 -56 114l-67 -51v-53zM373 848l28 22h-28v-22zM381 508h41v31zM381 637h45v33zM381 911q27 0 45 -8v43zM385 207q51 2 80 43h-23zM449 289l49 37q14 57 12 182v27v4l-61 -47v-203zM449 522l61 47q0 12 -2 37l-59 -47 v-37zM449 590l59 45q0 10 -2 29l-57 -43v-31zM449 651l55 41q-2 16 -4 35l-51 -39v-37zM449 893q49 -31 67 -123l154 119v67q-47 59 -115 88l-106 -79v-72zM449 995l79 62q-35 10 -79 16v-78zM449 1098q57 -6 102 -25l125 96h26q63 0 103 -36q63 -59 65 -342v-27 q2 -238 -63 -289l2 -2l-18 -14q-6 -104 -29 -183q203 16 282 185q60 121 60 342q0 315 -123 438q-92 92 -264 92h-268v-235zM471 274h8q2 5 6 11zM508 274h2l215 164h-20h-19l-166 -127q-6 -18 -12 -37zM522 743l4 -32l197 149q-2 4 -4 10h-33zM526 348l144 109v202 l-135 -102v-49q0 -106 -9 -160zM528 682q2 -12 2 -29l140 105v6h80q-6 37 -19 72zM532 625q2 -20 3 -37l135 102v39zM549 274h168q-10 0 20 0q21 70 27 164zM578 1063q51 -27 92 -68v138zM694 463h13q33 -2 59 12q2 39 2 72q0 98 -12 180l-62 -49v-215zM694 709l41 32h-41 v-32zM694 895h15q-8 14 -15 27v-27zM694 965q23 -31 41 -70h47v-154h-4q14 -84 15 -194q0 -27 -2 -53q57 57 55 270v27q-2 272 -58 325q-33 29 -86 29h-8v-180zM711 154l153 116q-51 -14 -108 -18q-18 -55 -45 -98zM752 852q4 -11 6 -21v27z" />
<glyph unicode="&#xd1;" horiz-adv-x="1075" d="M0 -12v1099l344 265h223l59 -133l177 133h211v-1102l-345 -262h-204l-64 145l-186 -145h-215zM24 25l172 131v473l140 106v60l-119 276h-193v-1046zM47 12h149v113zM47 1096h174l115 88v131zM152 1297q29 143 86 186l320 246q37 29 86 29q27 0 67 -15q53 -16 68 -20 q35 29 75 61h99q-14 -78 -23 -104q-20 -57 -55 -84l-336 -256q-27 -20 -70 -21q-35 0 -75 15q-53 16 -72 18l-74 -55h-96zM187 1338l168 131q-27 8 -47 8q-88 0 -121 -139zM203 1319h33q20 59 68 60h12l94 71q-8 2 -27 9zM221 25l172 131l-39 88h-2l-131 -101v-118zM221 174 l115 88v25l-115 262v-375zM223 618l113 -270v357zM239 1079l97 -223v297zM299 1500h9q29 0 71 -15l113 86q13 60 31 99zM349 1373q109 -31 110 -31q94 0 129 162h-53q-18 -63 -68 -64q-12 0 -26 2zM360 291l10 -23h162v256l-61 -47l-107 250l-4 -4v-432zM360 801l15 -35 l84 63v261l6 6h2l139 106l-51 119l-195 -150v-370zM360 1202l164 125h-164v-125zM381 244l30 -74l97 74h-127zM385 741l74 -172v230zM406 1477q16 -6 29 -8l108 84h-37zM422 147l57 -129l176 136v426l-12 28l-86 -65v-291zM467 1465q25 -1 39 28zM483 516l49 39v299l-49 -37 v-301zM483 848l62 47l108 -248h2v424h-172v-223zM506 1096h145l-35 84zM510 12h145v111zM517 1577h53q23 57 69 58h23l92 69q-100 29 -110 29q-92 0 -127 -156zM557 573l76 58l-76 174v-232zM562 1528h36l97 72q-14 4 -27 8zM580 1401l227 174h-12q-29 0 -74 15l-106 -82 q-14 -66 -35 -107zM605 1590l24 20q-14 -4 -24 -20zM635 1194l39 -90l120 92v119zM680 25l286 219h-153l-133 -103v-116zM680 172l114 88l-114 264v-352zM680 586l137 -318h172v1047l-170 -131v-445h-6l-133 -104v-49zM680 666l112 88l-112 278v-366zM684 1081l110 -256v340 zM691 1627q14 -4 26 -9l109 82q-12 -4 -23 -4q-8 0 -18 2zM746 1608q29 -8 49 -8q90 0 125 141zM819 1214l147 113h-147v-113zM852 1721l52 39h-33q-6 -25 -19 -39z" />
<glyph unicode="&#xd2;" horiz-adv-x="1142" d="M0 543q0 389 170 520l328 248q82 63 213 63q371 0 371 -575q0 -371 -156 -506q-31 -27 -148 -115q-176 -135 -186 -141q-111 -70 -217 -70q-375 0 -375 576zM25 543q0 -551 350 -551q231 0 309 233q-84 4 -147 39q-35 -27 -105 -80q-31 -25 -57 -24q-66 0 -94 78 q-23 66 -23 301q0 252 23.5 311t58.5 82q8 90 27 162q-342 -6 -342 -551zM102 1551l346 268h217l4 -6l150 -287l-346 -264h-121l-2 4zM145 1538l215 -247l61 47l-106 200h-170zM155 1563h164l199 152l-66 75zM262 1102q51 14 113 16q18 62 47 107zM283 539q0 -233 22.5 -294 t69.5 -61q66 1 84 142q-123 135 -123 473q0 49 2 94q-55 -39 -55 -354zM340 1547l102 -195l233 180l-141 164zM361 799q0 -309 102 -441q2 43 2 99q0 315 -21.5 380.5t-68.5 65.5h-12q-2 -49 -2 -104zM367 950l149 115q-55 25 -125 27q-16 -63 -24 -142zM377 928 q63 0 90 -82q23 -72 23 -393q0 -70 -6 -119q14 -18 51 -41l164 125q-57 8 -81 75.5t-24 301.5q0 133 6 211q-20 25 -59 47zM395 1284h53l-14 31zM400 1116q78 -4 139 -35q39 33 80 66q53 37 92 37q66 0 92 -82q23 -72 23 -389q0 -211 -58 -273l-24 -18q-8 -96 -29 -174 q342 4 342 551q0 551 -346 551q-236 0 -311 -234zM452 1330l21 -37l295 225h-70zM463 240l51 36q-16 12 -35 27q-6 -37 -16 -63zM481 1794l57 -65l84 65h-141zM553 1710l147 -167h84l-129 245zM557 281q57 -29 133 -33q19 69 27 153zM561 1069q20 -14 41 -33q7 51 19 78z M619 768q0 -207 22.5 -267.5t69.5 -60.5l8 2q4 48 4 101q0 303 -100 436q-4 -72 -4 -156v-55zM625 1014q123 -137 123 -463q0 -47 -2 -96q55 29 55 258q0 317 -22.5 381.5t-67.5 64.5q-72 0 -86 -145zM664 121q61 41 149 115q-59 -14 -104 -13q-18 -57 -45 -102z" />
<glyph unicode="&#xd3;" horiz-adv-x="1142" d="M0 543q0 389 170 520l328 248q82 63 213 63q371 0 371 -575q0 -371 -156 -506q-31 -27 -148 -115q-176 -135 -186 -141q-111 -70 -217 -70q-375 0 -375 576zM25 543q0 -551 350 -551q231 0 309 233q-84 4 -147 39q-35 -27 -105 -80q-31 -25 -57 -24q-66 0 -94 78 q-23 66 -23 301q0 252 23.5 311t58.5 82q8 90 27 162q-342 -6 -342 -551zM205 1262l158 301h4l340 256h229l-260 -301h-2l-340 -256h-129zM260 1284h70l131 154zM262 1102q51 14 113 16q18 62 47 107zM262 1317l285 221h-170zM283 539q0 -233 22.5 -294t69.5 -61 q66 1 84 142q-123 135 -123 473q0 49 2 94q-55 -39 -55 -354zM361 799q0 -309 102 -441q2 43 2 99q0 315 -21.5 380.5t-68.5 65.5h-12q-2 -49 -2 -104zM367 950l149 115q-55 25 -125 27q-16 -63 -24 -142zM377 928q63 0 90 -82q23 -72 23 -393q0 -70 -6 -119q14 -18 51 -41 l164 125q-57 8 -81 75.5t-24 301.5q0 133 6 211q-20 25 -59 47zM400 1116q78 -4 139 -35q39 33 80 66q53 37 92 37q66 0 92 -82q23 -72 23 -389q0 -211 -58 -273l-24 -18q-8 -96 -29 -174q342 4 342 551q0 551 -346 551q-236 0 -311 -234zM406 1563h157l107 201zM420 1354 l215 164h-70l-10 -6zM463 240l51 36q-16 12 -35 27q-6 -37 -16 -63zM557 281q57 -29 133 -33q19 69 27 153zM561 1069q20 -14 41 -33q7 51 19 78zM584 1543h80l159 182zM606 1590l267 204h-160zM619 768q0 -207 22.5 -267.5t69.5 -60.5l8 2q4 48 4 101q0 303 -100 436 q-4 -72 -4 -156v-55zM625 1014q123 -137 123 -463q0 -47 -2 -96q55 29 55 258q0 317 -22.5 381.5t-67.5 64.5q-72 0 -86 -145zM664 121q61 41 149 115q-59 -14 -104 -13q-18 -57 -45 -102z" />
<glyph unicode="&#xd4;" horiz-adv-x="1142" d="M0 543q0 389 170 520l328 248q82 63 213 63q371 0 371 -575q0 -371 -156 -506q-31 -27 -148 -115q-176 -135 -186 -141q-111 -70 -217 -70q-375 0 -375 576zM25 543q0 -551 350 -551q231 0 309 233q-84 4 -147 39q-35 -27 -105 -80q-31 -25 -57 -24q-66 0 -94 78 q-23 66 -23 301q0 252 23.5 311t58.5 82q8 90 27 162q-342 -6 -342 -551zM123 1262l145 301l338 256h176l138 -293l-351 -264h-104l-78 106l-139 -106h-125zM174 1313l268 205l-10 20h-151zM178 1284h58l73 101zM262 1102q51 14 113 16q18 62 47 107zM283 539 q0 -233 22.5 -294t69.5 -61q66 1 84 142q-123 135 -123 473q0 49 2 94q-55 -39 -55 -354zM301 1334l72 55l-17 20zM309 1563h127l68 51l72 152zM361 799q0 -309 102 -441q2 43 2 99q0 315 -21.5 380.5t-68.5 65.5h-12q-2 -49 -2 -104zM367 950l149 115q-55 25 -125 27 q-16 -63 -24 -142zM369 1432l22 -29l76 58l-14 34zM377 928q63 0 90 -82q23 -72 23 -393q0 -70 -6 -119q14 -18 51 -41l164 125q-57 8 -81 75.5t-24 301.5q0 133 6 211q-20 25 -59 47zM400 1116q78 -4 139 -35q39 33 80 66q53 37 92 37q66 0 92 -82q23 -72 23 -389 q0 -211 -58 -273l-24 -18q-8 -96 -29 -174q342 4 342 551q0 551 -346 551q-236 0 -311 -234zM406 1383l67 -92l56 41l-50 106zM455 1547l6 -15l6 6l14 29zM463 240l51 36q-16 12 -35 27q-6 -37 -16 -63zM471 1510l17 -33l53 41h-60zM498 1454l51 -106l242 184l-99 133 l-108 -147h-2zM498 1543h74l120 163l121 -163h74l-117 245l-246 -188zM508 1284h43l-12 27zM547 1647l192 147h-122zM557 281q57 -29 133 -33q19 69 27 153zM559 1325l17 -32l295 225h-60zM561 1069q20 -14 41 -33q7 51 19 78zM619 768q0 -207 22.5 -267.5t69.5 -60.5l8 2 q4 48 4 101q0 303 -100 436q-4 -72 -4 -156v-55zM625 1014q123 -137 123 -463q0 -47 -2 -96q55 29 55 258q0 317 -22.5 381.5t-67.5 64.5q-72 0 -86 -145zM664 121q61 41 149 115q-59 -14 -104 -13q-18 -57 -45 -102z" />
<glyph unicode="&#xd5;" horiz-adv-x="1142" d="M10 543q0 389 170 520l328 248q82 63 213 63q371 0 371 -575q0 -371 -156 -506q-31 -27 -148 -115q-176 -135 -186 -141q-111 -70 -217 -70q-375 0 -375 576zM35 543q0 -551 350 -551q231 0 309 233q-84 4 -147 39q-35 -27 -105 -80q-31 -25 -57 -24q-66 0 -94 78 q-23 66 -23 301q0 252 23.5 311t58.5 82q8 90 27 162q-342 -6 -342 -551zM164 1297q29 143 86 186l320 246q37 29 86 29q27 0 67 -15q53 -16 68 -20q35 29 75 61h99q-14 -78 -23 -104q-20 -57 -55 -84l-336 -256q-27 -20 -70 -21q-35 0 -75 15q-53 16 -72 18l-74 -55h-96z M199 1338l168 131q-27 8 -47 8q-88 0 -121 -139zM215 1319h33q20 59 68 60h12l94 71q-8 2 -27 9zM272 1102q51 14 113 16q18 62 47 107zM293 539q0 -233 22.5 -294t69.5 -61q66 1 84 142q-123 135 -123 473q0 49 2 94q-55 -39 -55 -354zM311 1500h9q29 0 71 -15l113 86 q13 60 31 99zM361 1373q109 -31 110 -31q94 0 129 162h-53q-18 -63 -68 -64q-12 0 -26 2zM371 799q0 -309 102 -441q2 43 2 99q0 315 -21.5 380.5t-68.5 65.5h-12q-2 -49 -2 -104zM377 950l149 115q-55 25 -125 27q-16 -63 -24 -142zM387 928q63 0 90 -82q23 -72 23 -393 q0 -70 -6 -119q14 -18 51 -41l164 125q-57 8 -81 75.5t-24 301.5q0 133 6 211q-20 25 -59 47zM410 1116q78 -4 139 -35q39 33 80 66q53 37 92 37q66 0 92 -82q23 -72 23 -389q0 -211 -58 -273l-24 -18q-8 -96 -29 -174q342 4 342 551q0 551 -346 551q-236 0 -311 -234z M418 1477q16 -6 29 -8l108 84h-37zM473 240l51 36q-16 12 -35 27q-6 -37 -16 -63zM479 1465q25 -1 39 28zM529 1577h53q23 57 69 58h23l92 69q-100 29 -110 29q-92 0 -127 -156zM567 281q57 -29 133 -33q19 69 27 153zM571 1069q20 -14 41 -33q7 51 19 78zM574 1528h36 l97 72q-14 4 -27 8zM592 1401l227 174h-12q-29 0 -74 15l-106 -82q-14 -66 -35 -107zM617 1590l24 20q-14 -4 -24 -20zM629 768q0 -207 22.5 -267.5t69.5 -60.5l8 2q4 48 4 101q0 303 -100 436q-4 -72 -4 -156v-55zM635 1014q123 -137 123 -463q0 -47 -2 -96q55 29 55 258 q0 317 -22.5 381.5t-67.5 64.5q-72 0 -86 -145zM674 121q61 41 149 115q-59 -14 -104 -13q-18 -57 -45 -102zM703 1627q14 -4 26 -9l109 82q-12 -4 -23 -4q-8 0 -18 2zM758 1608q29 -8 49 -8q90 0 125 141zM864 1721l52 39h-33q-6 -25 -19 -39z" />
<glyph unicode="&#xd6;" horiz-adv-x="1142" d="M10 543q0 389 170 520l328 248q82 63 213 63q371 0 371 -575q0 -371 -156 -506q-31 -27 -148 -115q-176 -135 -186 -141q-111 -70 -217 -70q-375 0 -375 576zM35 543q0 -551 350 -551q231 0 309 233q-84 4 -147 39q-35 -27 -105 -80q-31 -25 -57 -24q-66 0 -94 78 q-23 66 -23 301q0 252 23.5 311t58.5 82q8 90 27 162q-342 -6 -342 -551zM143 1301v213l344 262h176v-49l64 49h178v-211l-344 -264h-178v49l-64 -49h-176zM168 1338l135 104v53h-135v-157zM190 1325h113v86zM190 1520h121l168 127v92zM272 1102q51 14 113 16q18 62 47 107z M293 539q0 -233 22.5 -294t69.5 -61q66 1 84 142q-123 135 -123 473q0 49 2 94q-55 -39 -55 -354zM327 1338l56 43v92l-56 -43v-92zM327 1461l152 114v41l-152 -114v-41zM371 799q0 -309 102 -441q2 43 2 99q0 315 -21.5 380.5t-68.5 65.5h-12q-2 -49 -2 -104zM377 950 l149 115q-55 25 -125 27q-16 -63 -24 -142zM387 928q63 0 90 -82q23 -72 23 -393q0 -70 -6 -119q14 -18 51 -41l164 125q-57 8 -81 75.5t-24 301.5q0 133 6 211q-20 25 -59 47zM407 1338l137 106v29l-137 -105v-30zM407 1399l125 96h-121l-4 -4v-92zM410 1116q78 -4 139 -35 q39 33 80 66q53 37 92 37q66 0 92 -82q23 -72 23 -389q0 -211 -58 -273l-24 -18q-8 -96 -29 -174q342 4 342 551q0 551 -346 551q-236 0 -311 -234zM430 1325h114v89zM444 1520h109l51 39h-109zM473 240l51 36q-16 12 -35 27q-6 -37 -16 -63zM503 1604l136 104v31l-136 -104 v-31zM503 1665l113 86h-113v-86zM514 1584h121l4 2v92zM567 281q57 -29 133 -33q19 69 27 153zM569 1338l287 221h-121l-166 -127v-94zM569 1463l149 114v39l-149 -114v-39zM571 1069q20 -14 41 -33q7 51 19 78zM629 768q0 -207 22.5 -267.5t69.5 -60.5l8 2q4 48 4 101 q0 303 -100 436q-4 -72 -4 -156v-55zM635 1014q123 -137 123 -463q0 -47 -2 -96q55 29 55 258q0 317 -22.5 381.5t-67.5 64.5q-72 0 -86 -145zM663 1604l55 43v92l-55 -43v-92zM674 121q61 41 149 115q-59 -14 -104 -13q-18 -57 -45 -102zM743 1584h137v155l-137 -104v-51z M743 1665l113 86h-113v-86z" />
<glyph unicode="&#xd8;" horiz-adv-x="1122" d="M4 -20l105 176q-66 164 -66 405q0 215 47 330q41 102 152 194q137 104 274 207q117 88 238 88q111 0 200 -61q49 35 101 78l112 -35l-100 -168q59 -156 59 -403q0 -217 -47 -334q-43 -102 -155 -199q-143 -106 -287 -215q-94 -72 -217 -72q-109 0 -197 56 q-37 -29 -110 -84q-2 2 -109 37zM47 -10l59 -19q70 106 93 127q71 54 141 105l-4 8zM63 33l261 198q-8 25 -13 54l-180 -138zM68 561q0 -229 59 -387l211 162l86 137q-10 33 -16 62l-105 -78v55l-2 127q0 215 59 276l5 3l-3 2l21 16q8 90 29 164q-96 -2 -160 -41l-6 -4 q-178 -109 -178 -494zM162 10l41 31l-15 12zM205 70l18 -13l150 115l-17 12zM244 43q78 -47 176 -47q119 0 196 61v2q72 49 111 170q-78 6 -143 41q-43 -37 -84 -71q-59 -43 -101 -37zM324 1114q57 12 96 10q16 52 41 95zM326 512l65 109q-18 133 -10 280q-55 -41 -55 -264 q0 -131 0 -125zM336 285q2 -18 8 -37l4 2l68 115l-60 -48zM354 225l4 -6l11 6l-11 4zM369 537l32 24l-4 21zM375 201l20 -13l27 21l-25 8zM375 250l18 -6l113 86q6 49 6 106v35l-2 98l-61 -98l22 -59q-43 -76 -96 -162zM391 377l51 39l-10 28zM403 817q0 -88 9 -164l90 150 q-14 113 -82 112l-12 -2q-4 -51 -5 -96zM410 956l149 113q-57 27 -123 31q-18 -63 -26 -144zM416 614l6 -36l215 163v138l-115 -88zM422 236l20 -9l31 47zM428 551l12 -49l68 110zM428 940q76 -8 94 -119l115 88q0 58 6 105q-29 25 -61 43zM430 186q42 9 62 72 q-16 -25 -62 -72zM444 1122q74 -4 136 -37l118 91h2q37 35 88 14l146 113q-80 53 -180 53t-172 -43v-2q-98 -72 -138 -189zM512 246l49 37q-16 10 -35 24q-4 -35 -14 -61zM530 336q25 -20 52 -37l155 119q-39 8 -65.5 48t-26.5 81l111 180l-6 43l-109 -82l-2 -4v2l-104 -80 q8 -172 -5 -270zM604 287q59 -29 131 -33q19 68 27 152zM604 1073q18 -12 41 -31q9 45 21 78zM662 770l65 104q-10 31 -20 58l-45 -35q0 -135 0 -127zM662 928l65 49l68 115l-23 6l-104 -80q-4 -41 -6 -90zM670 541q16 -98 84 -99h10q4 50 4 93q0 82 -8 153zM676 743l69 54 l-10 47zM678 1083l41 58l2 -2l41 32h-6q-53 0 -78 -88zM705 1077l38 31l-14 4zM707 129l147 111q-59 -14 -102 -11q-18 -57 -45 -100zM731 936l12 -33l62 105l-60 -47zM750 1130l18 -4l35 27l-12 8zM752 872q8 -29 14 -59q35 27 102 82q4 -78 4 -184q0 -250 -86 -287 q-6 -98 -26 -172q113 2 192 63q150 119 150 476q0 248 -60 399l-4 6q31 52 68 111l-256 -195q12 -39 12 -59q-51 -84 -110 -181zM772 786l4 -26l37 59zM778 1018l58 43q-2 18 -7 35l-6 -4zM782 721q0 -6 9 -268q59 63 57 256l-2 118zM797 1116l14 -4l10 8l-4 13zM811 1178 l10 -11l146 111l-11 10zM836 1147l6 -12l280 217l-59 16q-59 -88 -94 -121q-68 -49 -133 -100zM975 1305l10 -9l21 31z" />
<glyph unicode="&#xd9;" horiz-adv-x="1056" d="M0 274v822l342 262h262v-127l164 127h227v-828q0 -158 -88 -225q0 -4 -334 -256q-100 -78 -238 -78q-156 0 -241 74q-94 78 -94 229zM24 274q0 -279 311 -278q272 0 297 233q-72 6 -127 29q-37 -31 -73 -59q-45 -33 -84 -33q-104 0 -105 131v780h-219v-803zM47 1102h205 l83 63v156zM106 1551l346 268h217l4 -6l150 -287l-346 -264h-121l-2 4zM149 1538l215 -247l61 47l-106 200h-170zM159 1563h164l199 152l-66 75zM268 297q0 -106 80 -107q78 0 78 113q-90 78 -91 227v605l-67 -52v-786zM344 1547l102 -195l233 180l-141 164zM360 530 q0 -123 66 -192v758l153 116v109l-219 -168v-623zM360 1184l195 149h-195v-149zM399 1284h53l-14 31zM446 244l33 24q-14 8 -29 17q0 -25 -4 -41zM450 315q23 -18 51 -30l134 102v45q-55 25 -56 121v524h-129v-762zM456 1330l21 -37l295 225h-70zM475 1102h104v80zM485 1794 l57 -65l84 65h-141zM528 274q47 -16 107 -20v20v82zM557 1710l147 -167h84l-129 245zM604 553q0 -71 31 -94v618h-31v-524zM604 1102h39l118 90v129l-157 -121v-98zM626 119l164 125q-66 -18 -133 -15q-6 -63 -31 -110zM659 254h10q139 -6 220 65.5t81 210.5v791l-184 -141 v-627q0 -72 -33 -107q-47 -35 -94 -69v-123zM659 408l21 14l-21 2v-16zM659 449q25 -2 25 -3q31 0 49 17q28 24 28 90v608l-102 -78v-634zM786 1210l162 123h-162v-123z" />
<glyph unicode="&#xda;" horiz-adv-x="1056" d="M0 274v822l342 262h262v-127l164 127h227v-828q0 -158 -88 -225q0 -4 -334 -256q-100 -78 -238 -78q-156 0 -241 74q-94 78 -94 229zM24 274q0 -279 311 -278q272 0 297 233q-72 6 -127 29q-37 -31 -73 -59q-45 -33 -84 -33q-104 0 -105 131v780h-219v-803zM47 1102h205 l83 63v156zM209 1262l158 301h4l340 256h229l-260 -301h-2l-340 -256h-129zM264 1284h70l131 154zM266 1317l285 221h-170zM268 297q0 -106 80 -107q78 0 78 113q-90 78 -91 227v605l-67 -52v-786zM360 530q0 -123 66 -192v758l153 116v109l-219 -168v-623zM360 1184 l195 149h-195v-149zM410 1563h157l107 201zM424 1354l215 164h-70l-10 -6zM446 244l33 24q-14 8 -29 17q0 -25 -4 -41zM450 315q23 -18 51 -30l134 102v45q-55 25 -56 121v524h-129v-762zM475 1102h104v80zM528 274q47 -16 107 -20v20v82zM588 1543h80l159 182zM604 553 q0 -71 31 -94v618h-31v-524zM604 1102h39l118 90v129l-157 -121v-98zM610 1590l267 204h-160zM626 119l164 125q-66 -18 -133 -15q-6 -63 -31 -110zM659 254h10q139 -6 220 65.5t81 210.5v791l-184 -141v-627q0 -72 -33 -107q-47 -35 -94 -69v-123zM659 408l21 14l-21 2v-16 zM659 449q25 -2 25 -3q31 0 49 17q28 24 28 90v608l-102 -78v-634zM786 1210l162 123h-162v-123z" />
<glyph unicode="&#xdb;" horiz-adv-x="1056" d="M0 274v822l342 262h262v-127l164 127h227v-828q0 -158 -88 -225q0 -4 -334 -256q-100 -78 -238 -78q-156 0 -241 74q-94 78 -94 229zM24 274q0 -279 311 -278q272 0 297 233q-72 6 -127 29q-37 -31 -73 -59q-45 -33 -84 -33q-104 0 -105 131v780h-219v-803zM47 1102h205 l83 63v156zM106 1262l145 301l338 256h176l138 -293l-351 -264h-104l-78 106l-139 -106h-125zM157 1313l268 205l-10 20h-151zM161 1284h58l73 101zM268 297q0 -106 80 -107q78 0 78 113q-90 78 -91 227v605l-67 -52v-786zM284 1334l72 55l-17 20zM292 1563h127l68 51 l72 152zM352 1432l22 -29l76 58l-14 34zM360 530q0 -123 66 -192v758l153 116v109l-219 -168v-623zM360 1184l195 149h-195v-149zM389 1383l67 -92l56 41l-50 106zM438 1547l6 -15l6 6l14 29zM446 244l33 24q-14 8 -29 17q0 -25 -4 -41zM450 315q23 -18 51 -30l134 102v45 q-55 25 -56 121v524h-129v-762zM454 1510l17 -33l53 41h-60zM475 1102h104v80zM481 1454l51 -106l242 184l-99 133l-108 -147h-2zM481 1543h74l120 163l121 -163h74l-117 245l-246 -188zM491 1284h43l-12 27zM528 274q47 -16 107 -20v20v82zM530 1647l192 147h-122z M542 1325l17 -32l295 225h-60zM604 553q0 -71 31 -94v618h-31v-524zM604 1102h39l118 90v129l-157 -121v-98zM626 119l164 125q-66 -18 -133 -15q-6 -63 -31 -110zM659 254h10q139 -6 220 65.5t81 210.5v791l-184 -141v-627q0 -72 -33 -107q-47 -35 -94 -69v-123zM659 408 l21 14l-21 2v-16zM659 449q25 -2 25 -3q31 0 49 17q28 24 28 90v608l-102 -78v-634zM786 1210l162 123h-162v-123z" />
<glyph unicode="&#xdc;" horiz-adv-x="1056" d="M27 274v822l342 262h262v-127l164 127h227v-828q0 -158 -88 -225q0 -4 -334 -256q-100 -78 -238 -78q-156 0 -241 74q-94 78 -94 229zM51 274q0 -279 311 -278q272 0 297 233q-72 6 -127 29q-37 -31 -73 -59q-45 -33 -84 -33q-104 0 -105 131v780h-219v-803zM74 1102h205 l83 63v156zM174 1301v213l344 262h176v-49l64 49h178v-211l-344 -264h-178v49l-64 -49h-176zM199 1338l135 104v53h-135v-157zM221 1325h113v86zM221 1520h121l168 127v92zM295 297q0 -106 80 -107q78 0 78 113q-90 78 -91 227v605l-67 -52v-786zM358 1338l56 43v92l-56 -43 v-92zM358 1461l152 114v41l-152 -114v-41zM387 530q0 -123 66 -192v758l153 116v109l-219 -168v-623zM387 1184l195 149h-195v-149zM438 1338l137 106v29l-137 -105v-30zM438 1399l125 96h-121l-4 -4v-92zM461 1325h114v89zM473 244l33 24q-14 8 -29 17q0 -25 -4 -41z M475 1520h109l51 39h-109zM477 315q23 -18 51 -30l134 102v45q-55 25 -56 121v524h-129v-762zM502 1102h104v80zM534 1604l136 104v31l-136 -104v-31zM534 1665l113 86h-113v-86zM545 1584h121l4 2v92zM555 274q47 -16 107 -20v20v82zM600 1338l287 221h-121l-166 -127v-94z M600 1463l149 114v39l-149 -114v-39zM631 553q0 -71 31 -94v618h-31v-524zM631 1102h39l118 90v129l-157 -121v-98zM653 119l164 125q-66 -18 -133 -15q-6 -63 -31 -110zM686 254h10q139 -6 220 65.5t81 210.5v791l-184 -141v-627q0 -72 -33 -107q-47 -35 -94 -69v-123z M686 408l21 14l-21 2v-16zM686 449q25 -2 25 -3q31 0 49 17q28 24 28 90v608l-102 -78v-634zM694 1604l55 43v92l-55 -43v-92zM774 1584h137v155l-137 -104v-51zM774 1665l113 86h-113v-86zM813 1210l162 123h-162v-123z" />
<glyph unicode="&#xdd;" horiz-adv-x="1161" d="M0 1096l10 6l336 256h262l47 -160l209 160h230l-265 -658v-442l-344 -264h-260v440zM31 1077l215 -618l313 239l-23 78l-161 -123l-2 19l-119 405h-223zM49 1102h211l127 96l-45 129zM250 31l219 168v250l88 217l-307 -234v-401zM274 18h195v150zM278 1085l107 -370 l86 239l-76 222zM366 1333l41 -119l156 119h-197zM373 1262l158 301h4l340 256h229l-260 -301h-2l-340 -256h-129zM410 709l118 92l-45 117zM416 1190l69 -201l37 107l113 86l-43 143zM428 1284h70l131 154zM430 1317l285 221h-170zM493 31l287 219h-203l-84 -64v-155z M493 217l70 51v224l-70 -52v-223zM498 952l51 -137l98 78l41 100l-25 84h-120zM510 481l53 41v92zM557 793l22 -72l52 127zM569 1102h88l-16 55zM574 1563h157l107 201zM586 274h219v404l-219 -168v-236zM586 541l221 170l241 600l-247 -191l-70 -192l-63 -51l-82 -203v-133 zM588 1354l215 164h-70l-10 -6zM661 1174l21 -72h55l43 33l64 176zM686 922l18 14l-4 20zM690 1077l12 -47l21 47h-33zM715 991l6 -20l43 123l-15 -13zM752 1543h80l159 182zM774 1590l267 204h-160zM815 1163l225 170h-164z" />
<glyph unicode="&#xde;" horiz-adv-x="968" d="M6 -6v1102l8 6l338 256h258v-199h58q368 0 368 -340q0 -182 -86 -248q4 0 -340 -264v-51l-8 -6l-340 -256h-256zM31 31l219 168v53l8 4l84 63v99q-29 -4 -55 -4h-37v295l92 69v99h-5h-5h-82v200h-219v-1046zM53 18h197v150zM53 1102h205l84 63v156zM274 31l287 219h-59 q-68 -23 -158 -23q4 0 -16 0l-54 -41v-155zM274 217l17 12h-17v-12zM274 451l68 49v186q-23 4 -43 4h-25v-239zM274 907l68 51v177l-68 -52v-176zM295 254q10 -2 24 -2l23 16v21zM299 438q25 0 43 4v27zM299 715q23 0 43 -4v37zM307 901h25h5h5v27zM365 274h133q51 17 88 50 v151l-221 -168v-33zM365 338l231 176l2 -2q6 -6 76 -4q2 28 2 53q0 43 -6 82l-258 -199l-2 5q-18 -18 -45 -25v-86zM365 449q55 22 63 88l-63 -48v-40zM365 518l63 49q0 92 -63 113v-162zM365 707q82 -23 88 -121l133 102v117q-41 35 -101 53l-120 -92v-59zM365 797l92 69 q-41 8 -92 11v-80zM365 901q63 -4 114 -16l107 80l10 6h39q154 0 153 -148q0 -82 -43 -118l3 -3l-58 -43q10 -47 10 -98q0 -25 -2 -53q314 8 314 311q0 315 -344 316h-58l-245 -189v-45zM365 977l221 168v176l-221 -168v-176zM365 1184l196 149h-196v-149zM444 500l220 170 v2q-20 -2 -43 -2h-19l-149 -115q-2 -33 -9 -55zM508 874q45 -13 78 -38v98zM557 274h29v19q-14 -10 -29 -19zM610 346q46 55 60 137q-27 2 -60 4v-141zM610 694h11q20 0 36 2q-16 47 -47 84v-86zM610 815q47 -45 70 -115q84 19 84 123q0 123 -129 123h-25v-131zM657 375 l168 129q-57 -18 -131 -21q-10 -61 -37 -108z" />
<glyph unicode="&#xdf;" horiz-adv-x="2015" d="M6 295l227 174q-199 133 -198 317q0 170 131 271q125 100 252 203q160 115 284 114q127 0 205 -80q68 -70 113 -219l-217 -164q115 -76 168 -143q69 -90 69 -205q0 -170 -151 -287l-289 -219q-117 -92 -248 -92q-150 0 -238.5 88t-107.5 242zM33 281q55 -291 319 -291 q123 0 209 65q84 64 109 168q-78 4 -138 31q-39 -31 -79 -64q-51 -37 -93 -36q-115 0 -143 165zM59 786q0 -174 193 -303q14 10 98 74l164 35q-76 51 -154 102q-94 72 -94 140q0 43 39 81q10 10 72 58q-10 57 -2 119h-8q-131 10 -219.5 -79t-88.5 -227zM70 313l153 33l92 70 l-61 39zM242 330q25 -152 118 -152q86 0 86 88q0 61 -110 135zM264 1102q60 18 115 14q10 55 37 103zM274 471l62 -39l29 23q-6 20 -19 71zM291 834q0 -57 100 -132q78 -51 154 -102l28 4l7 -33q70 -61 100 -133l16 -2q86 0 86 86q0 59 -108 137q-82 55 -164 109l-51 -10 q-37 147 -101 147q-68 0 -67 -71zM356 418l35 -27q-10 20 -16 39zM358 928q21 0 35 -4l-8 24zM369 537q6 -23 16 -68l129 98zM393 446q43 -115 137 -163l140 106l-8 27q-80 23 -105 143l-8 6zM395 1042q0 -25 4 -53l97 76q-43 20 -97 25q-4 -25 -4 -48zM403 1114 q61 -6 115 -33q41 33 84 64q55 41 90 41q72 0 119 -144l182 37l-4 13q-45 131 -96 186q-70 72 -191 72q-113 0 -194.5 -63.5t-104.5 -172.5zM406 965q20 -86 92 -154l133 102q-37 94 -111 140zM467 297q8 -29 2 -61l41 30q-23 12 -43 31zM467 809l6 -16l6 4zM516 795l141 28 q-4 23 -16 68zM541 774l164 -106q102 -76 102 -146q0 -49 -35 -84q-2 -2 -76 -59q14 -61 4 -131q121 2 195 65l2 -2q119 90 119 252q0 113 -70 197q-49 61 -164 135l-118 -94q-4 -2 -123 -27zM541 1067q74 -47 110 -137l37 28q-86 63 -86 132q0 14 2 26zM555 270 q53 -20 121 -22q4 30 4 59q0 27 -4 55zM592 526q18 -57 55 -77q-20 41 -55 77zM627 1092q0 -57 82 -119l79 61q-41 127 -96 127q-66 0 -65 -69zM662 133l135 105q-47 -14 -101 -15q-12 -49 -34 -90zM662 905q10 -29 16 -59l82 63l-51 33zM688 412l2 -6l8 6h-10zM729 958 l51 -34l156 118l-129 -24zM1020 295l227 174q-199 133 -198 317q0 170 131 271q125 100 252 203q160 115 284 114q127 0 205 -80q68 -70 113 -219l-217 -164q115 -76 168 -143q69 -90 69 -205q0 -170 -151 -287l-289 -219q-117 -92 -248 -92q-150 0 -238.5 88t-107.5 242z M1047 281q55 -291 319 -291q123 0 209 65q84 64 109 168q-78 4 -138 31q-39 -31 -79 -64q-51 -37 -93 -36q-115 0 -143 165zM1073 786q0 -174 193 -303q14 10 98 74l164 35q-76 51 -154 102q-94 72 -94 140q0 43 39 81q10 10 72 58q-10 57 -2 119h-8q-131 10 -219.5 -79 t-88.5 -227zM1084 313l153 33l92 70l-61 39zM1256 330q25 -152 118 -152q86 0 86 88q0 61 -110 135zM1278 1102q60 18 115 14q10 55 37 103zM1288 471l62 -39l29 23q-6 20 -19 71zM1305 834q0 -57 100 -132q78 -51 154 -102l28 4l7 -33q70 -61 100 -133l16 -2q86 0 86 86 q0 59 -108 137q-82 55 -164 109l-51 -10q-37 147 -101 147q-68 0 -67 -71zM1370 418l35 -27q-10 20 -16 39zM1372 928q21 0 35 -4l-8 24zM1383 537q6 -23 16 -68l129 98zM1407 446q43 -115 137 -163l140 106l-8 27q-80 23 -105 143l-8 6zM1409 1042q0 -25 4 -53l97 76 q-43 20 -97 25q-4 -25 -4 -48zM1417 1114q61 -6 115 -33q41 33 84 64q55 41 90 41q72 0 119 -144l182 37l-4 13q-45 131 -96 186q-70 72 -191 72q-113 0 -194.5 -63.5t-104.5 -172.5zM1420 965q20 -86 92 -154l133 102q-37 94 -111 140zM1481 297q8 -29 2 -61l41 30 q-23 12 -43 31zM1481 809l6 -16l6 4zM1530 795l141 28q-4 23 -16 68zM1555 774l164 -106q102 -76 102 -146q0 -49 -35 -84q-2 -2 -76 -59q14 -61 4 -131q121 2 195 65l2 -2q119 90 119 252q0 113 -70 197q-49 61 -164 135l-118 -94q-4 -2 -123 -27zM1555 1067 q74 -47 110 -137l37 28q-86 63 -86 132q0 14 2 26zM1569 270q53 -20 121 -22q4 30 4 59q0 27 -4 55zM1606 526q18 -57 55 -77q-20 41 -55 77zM1641 1092q0 -57 82 -119l79 61q-41 127 -96 127q-66 0 -65 -69zM1676 133l135 105q-47 -14 -101 -15q-12 -49 -34 -90zM1676 905 q10 -29 16 -59l82 63l-51 33zM1702 412l2 -6l8 6h-10zM1743 958l51 -34l156 118l-129 -24z" />
<glyph unicode="&#xe0;" d="M0 -6l209 1098l346 266h330l190 -1100l-348 -264h-246l-28 178l-236 -178h-217zM33 35l199 151l10 54l106 79l17 84h-97l76 478h-2l4 2l127 98l19 96h-262zM51 18h154l23 134zM84 1551l346 268h217l4 -6l150 -287l-346 -264h-121l-2 4zM127 1538l215 -247l61 47l-106 200 h-170zM137 1563h164l199 152l-66 75zM232 33l217 166l-4 20h-131l-60 -45zM256 1102h242l41 215zM260 209l13 10h-11zM287 244h18l33 24l4 17zM301 444l84 64l6 41l-37 246zM320 428h49l8 45zM322 1547l102 -195l233 180l-141 164zM344 244h107l10 6h-107zM365 274h127 l55 41l23 144l-199 -152zM369 868l37 -245l61 321zM377 342l207 158h45l-10 49l-191 -146h-39zM377 1284h53l-14 31zM393 428h17l-6 49zM416 549l4 -14l178 137l-57 329l-45 -34zM424 508l10 -70l181 140l-13 67zM434 1330l21 -37l295 225h-70zM463 1794l57 -65l84 65h-141z M469 225l2 -10l43 35h-14zM475 188l25 -161l186 143l-35 195l-81 -62l-9 -49zM502 1001l35 27l-8 49h-13zM522 1102h13l303 231h-273zM527 18h184l-21 123zM533 274h8v7zM535 1710l147 -167h84l-129 245zM551 1085l8 -41l142 105l71 -481l-131 -101l13 -67h147l37 -226h209 l-183 1051zM563 1018l52 -297l59 383zM576 338l71 55l-14 82h-35zM625 659l12 -65l88 65h-100zM633 684h113l-56 367zM658 475l10 -65l88 65h-98zM674 381l33 -195l106 82l-30 197zM713 160l22 -133l291 223h-194z" />
<glyph unicode="&#xe1;" d="M0 -6l209 1098l346 266h330l190 -1100l-348 -264h-246l-28 178l-236 -178h-217zM33 35l199 151l10 54l106 79l17 84h-97l76 478h-2l4 2l127 98l19 96h-262zM51 18h154l23 134zM187 1262l158 301h4l340 256h229l-260 -301h-2l-340 -256h-129zM232 33l217 166l-4 20h-131 l-60 -45zM242 1284h70l131 154zM244 1317l285 221h-170zM256 1102h242l41 215zM260 209l13 10h-11zM287 244h18l33 24l4 17zM301 444l84 64l6 41l-37 246zM320 428h49l8 45zM344 244h107l10 6h-107zM365 274h127l55 41l23 144l-199 -152zM369 868l37 -245l61 321zM377 342 l207 158h45l-10 49l-191 -146h-39zM388 1563h157l107 201zM393 428h17l-6 49zM402 1354l215 164h-70l-10 -6zM416 549l4 -14l178 137l-57 329l-45 -34zM424 508l10 -70l181 140l-13 67zM469 225l2 -10l43 35h-14zM475 188l25 -161l186 143l-35 195l-81 -62l-9 -49zM502 1001 l35 27l-8 49h-13zM522 1102h13l303 231h-273zM527 18h184l-21 123zM533 274h8v7zM551 1085l8 -41l142 105l71 -481l-131 -101l13 -67h147l37 -226h209l-183 1051zM563 1018l52 -297l59 383zM566 1543h80l159 182zM576 338l71 55l-14 82h-35zM588 1590l267 204h-160zM625 659 l12 -65l88 65h-100zM633 684h113l-56 367zM658 475l10 -65l88 65h-98zM674 381l33 -195l106 82l-30 197zM713 160l22 -133l291 223h-194z" />
</font>
</defs>
</svg>
